<svg xmlns="http://www.w3.org/2000/svg" width="151" height="145" viewBox="0 0 151 145">
  <g fill="none" fill-rule="evenodd" transform="translate(.896 .742)">
    <polygon fill="#F9A690" fill-rule="nonzero" stroke="#F9A690" stroke-width=".709" points="143.489 15.154 142.034 17.063 141.868 21.78 140.54 21.683 138.922 25.502 137.773 27.383 136.819 27.217 135.712 26.858 133.83 31.783 130.649 32.516 131.078 40.54 133.001 40.319 133.623 44.068 131.728 45.382 136.335 50.28 134.744 50.874 135.491 54.941 134.259 56.975 134.799 65.857 138.202 67.019 138.88 72.691 139.06 73.964 140.664 75.099 140.043 75.874 140.429 79.512 142.421 83.897 141.689 86.443 145.784 87.052 149.201 84.976 149.547 86.927 147.527 90.164 146.516 90.358 144.995 94.578 142.228 96.902 136.957 97.967 137.546 99.025 139.579 104.434 141.433 110.313 140.278 111.428 138.749 118.822 139.537 128.077 139.662 129.667 142.622 137.442 142.249 142.436 140.943 143.373 134.689 141.781 132.115 140.937 131.285 138.779 131.257 137.741 129.086 135.528 127.329 129.565 125.406 124.212 124.825 121.721 124.465 120.877 122.998 117.972 122.334 115.8 122.182 113.13 120.439 109.796 118.945 108.482 118.627 103.543 110.645 99.143 107.366 103.543 104.53 103.446 104.06 104.351 103.933 106.887 102.927 109.602 100.476 111.069 99.743 117.46 94.113 118.733 93.559 117.654 92.909 116.616 89.976 113.545 94.819 111.677 94.708 110.142 93.753 109.34 87.265 111.234 84.664 112.383 83.557 113.005 80.444 112.106 79.849 110.819 78.605 107.734 76.184 106.669 73.043 109.035 69.806 108.924 71.199 111.553 61.547 112.355 61.118 107.043 59.279 104.359 57.784 101.814 48.225 103.363 50.48 109.381 44.849 114.956 42.58 114.417 36.978 112.991 25.647 115.427 23.406 109.768 22.89 106.227 23.43 105.955 26.072 103.714 27.718 99.398 28.092 98.955 29.891 94.293 34.068 92.827 36.254 91.845 36.572 90.973 39.247 84.133 41.1 84.976 41.57 85.336 44.544 85.945 47.588 86.111 47.768 90.704 50.825 89.528 56.484 86.069 58.338 85.42 60.509 80.909 61.962 76.828 62.751 76.441 63.152 75.555 63.636 74.559 64.313 71.073 63.567 67.988 63.387 67.255 60.15 67.462 59.776 65.249 59.375 63.56 50.494 59.397 54.45 57.571 55.363 57.473 54.243 52.217 52.763 48.426 51.337 47.416 49.151 49.588 45.776 47.582 46.897 40.609 38.596 40.831 38.568 38.673 36.659 35.671 36.41 34.647 32.675 32.433 32.855 29.61 30.185 29.362 27.944 25.889 24.111 26.332 23.863 32.004 18.923 37.289 14.995 38.479 15.189 36.418 15.355 34.965 13.944 34.107 13.93 30.994 7.11 29.044 4.052 27.204 0 24.714 1.891 23.878 7.853 23.062 8.877 21.816 16.527 19.34 21.203 10.459 24.855 11.731 31.191 9.919 37.001 11.371 39.657 15.411 39.201 19.976 41.068 22.314 44.264 22.314 45.744 23.062 48.649 19.313 50.559 19.229 59.246 19.907 61.971 21.221 66.923 19.658 69.649 17.14 72.554 17.611 77.161 17.887 79.111 11.98 83.013 11.233 87.398 7.402 89.625 8.079 94.702 4.676 98.091 0 101.854 1.245 102.629 4.012 105.783 2.02 110.168 1.95 115.591 2.905 117.542 4.108 117.542 9.103 121.401 12.188 125.579 14.636 130.545 14.774 135 15.937 136.107 12.824 137.836 12.437 141.308 14.318 143.393 15.161 143.489 15.154"/>
    <g transform="translate(73.374 31.717)">
      <polygon fill="#1377C7" points="8.342 29.55 8.342 29.458 8.344 10.5 16.179 10.5 16.181 22.151 16.171 22.532 16.141 22.908 16.091 23.277 16.022 23.641 15.934 24 15.827 24.351 15.705 24.695 15.566 25.031 15.406 25.357 15.234 25.678 15.045 25.987 14.841 26.286 14.621 26.578 14.39 26.857 14.143 27.126 13.884 27.382 13.612 27.627 13.326 27.861 13.03 28.08 12.723 28.287 12.404 28.479 12.078 28.655 11.739 28.82 11.393 28.969 11.037 29.101 10.671 29.216 10.299 29.316 9.921 29.4 9.534 29.465 9.143 29.512 8.745 29.54 8.341 29.55 8.341 29.55"/>
      <polygon fill="#FFF" points="14.069 15.841 13.618 17.059 12.418 17.059 13.372 17.707 13.006 18.873 14.069 18.193 15.136 18.875 14.769 17.709 15.723 17.062 14.52 17.062 14.069 15.841 14.069 15.841"/>
      <polygon fill="#231F20" fill-rule="nonzero" points="14.52 17.114 14.483 17.114 14.47 17.079 14.52 17.114 14.47 17.079 14.02 15.858 14.119 15.824 14.57 17.044 14.52 17.009 14.52 17.114"/>
      <polygon fill="#231F20" fill-rule="nonzero" points="15.723 17.009 15.89 17.009 15.753 17.104 15.694 17.019 15.724 17.114 14.521 17.114 14.521 17.009 15.724 17.009 15.753 17.104 15.724 17.009 15.724 17.009"/>
      <polygon fill="#231F20" fill-rule="nonzero" points="14.72 17.724 14.707 17.687 14.74 17.667 14.72 17.724 14.74 17.667 15.694 17.019 15.753 17.104 14.799 17.752 14.819 17.694 14.72 17.724 14.72 17.724"/>
      <polygon fill="#231F20" fill-rule="nonzero" points="15.185 18.86 15.228 18.995 15.108 18.92 15.163 18.83 15.086 18.89 14.72 17.724 14.819 17.695 15.185 18.86 15.108 18.92 15.185 18.86 15.185 18.86"/>
      <polygon fill="#231F20" fill-rule="nonzero" points="14.042 18.148 14.069 18.13 14.097 18.148 14.042 18.148 14.097 18.148 15.163 18.83 15.108 18.92 14.042 18.237 14.097 18.237 14.042 18.148 14.042 18.148"/>
      <polygon fill="#231F20" fill-rule="nonzero" points="13.033 18.918 12.916 18.99 12.956 18.858 13.056 18.888 12.979 18.828 14.042 18.148 14.097 18.237 13.033 18.918 12.956 18.858 13.033 18.918 13.033 18.918"/>
      <polygon fill="#231F20" fill-rule="nonzero" points="13.402 17.665 13.434 17.685 13.422 17.722 13.402 17.665 13.422 17.722 13.056 18.888 12.956 18.858 13.322 17.692 13.342 17.749 13.402 17.665 13.402 17.665"/>
      <polygon fill="#231F20" fill-rule="nonzero" points="12.388 17.102 12.251 17.007 12.418 17.007 12.418 17.112 12.448 17.017 13.402 17.665 13.342 17.749 12.388 17.102 12.418 17.007 12.388 17.102 12.388 17.102"/>
      <polygon fill="#231F20" fill-rule="nonzero" points="13.668 17.077 13.656 17.112 13.618 17.112 13.668 17.077 13.618 17.112 12.418 17.112 12.418 17.007 13.618 17.007 13.569 17.042 13.668 17.077 13.668 17.077"/>
      <polygon fill="#231F20" fill-rule="nonzero" points="14.02 15.824 14.069 15.692 14.119 15.824 14.02 15.858 14.119 15.858 13.669 17.077 13.569 17.042 14.02 15.824 14.119 15.824 14.02 15.824"/>
      <polygon fill="#231F20" points="8.342 29.458 8.342 29.55 7.939 29.54 7.54 29.513 7.146 29.465 6.76 29.4 6.382 29.316 6.011 29.216 5.644 29.101 5.288 28.969 4.942 28.82 4.603 28.656 4.274 28.479 3.958 28.287 3.649 28.08 3.353 27.861 3.068 27.627 2.797 27.383 2.538 27.126 2.291 26.857 2.057 26.578 1.84 26.286 1.636 25.988 1.447 25.679 1.272 25.357 1.115 25.031 .976 24.695 .851 24.351 .747 24 .66 23.641 .59 23.277 .54 22.909 .51 22.532 .5 22.151 .498 10.51 8.345 10.5 8.343 29.458 8.343 29.458"/>
      <polygon fill="#FFF" points=".5 21.561 .5 17.453 .538 17.448 .572 17.443 .607 17.436 .642 17.429 .677 17.419 .709 17.409 .739 17.399 .772 17.389 .802 17.376 .832 17.364 .859 17.351 .886 17.336 .911 17.324 .936 17.309 .958 17.291 .981 17.277 1.011 17.254 1.043 17.234 1.078 17.214 1.113 17.197 1.153 17.179 1.193 17.164 1.235 17.149 1.277 17.134 1.322 17.124 1.37 17.112 1.417 17.104 1.467 17.097 1.517 17.09 1.569 17.085 1.621 17.083 1.676 17.083 1.728 17.083 1.781 17.085 1.833 17.09 1.883 17.097 1.933 17.104 1.98 17.112 2.025 17.124 2.072 17.134 2.115 17.149 2.157 17.164 2.197 17.179 2.237 17.197 2.274 17.214 2.309 17.234 2.341 17.254 2.371 17.277 2.401 17.299 2.433 17.319 2.468 17.339 2.503 17.356 2.543 17.374 2.583 17.389 2.625 17.404 2.668 17.416 2.712 17.429 2.76 17.439 2.807 17.449 2.857 17.457 2.907 17.462 2.959 17.467 3.011 17.469 3.066 17.469 3.118 17.469 3.171 17.467 3.223 17.462 3.273 17.457 3.323 17.449 3.37 17.439 3.415 17.429 3.462 17.416 3.505 17.404 3.547 17.389 3.587 17.374 3.624 17.356 3.662 17.339 3.696 17.319 3.729 17.299 3.759 17.277 3.789 17.254 3.821 17.234 3.856 17.214 3.893 17.197 3.931 17.179 3.973 17.164 4.013 17.149 4.058 17.134 4.103 17.124 4.15 17.112 4.197 17.104 4.247 17.097 4.297 17.09 4.349 17.085 4.401 17.083 4.454 17.083 4.506 17.083 4.559 17.085 4.611 17.09 4.66 17.097 4.711 17.104 4.758 17.112 4.805 17.124 4.85 17.134 4.893 17.149 4.935 17.164 4.975 17.179 5.015 17.197 5.049 17.214 5.084 17.234 5.117 17.254 5.146 17.277 5.176 17.299 5.211 17.319 5.246 17.339 5.283 17.356 5.321 17.374 5.361 17.389 5.403 17.404 5.448 17.416 5.493 17.429 5.54 17.439 5.588 17.449 5.635 17.457 5.685 17.462 5.737 17.467 5.789 17.469 5.842 17.469 5.896 17.469 5.949 17.467 6.001 17.462 6.051 17.457 6.101 17.449 6.148 17.439 6.195 17.429 6.24 17.416 6.282 17.404 6.325 17.389 6.365 17.374 6.405 17.356 6.44 17.339 6.475 17.319 6.507 17.299 6.537 17.277 6.567 17.254 6.599 17.234 6.634 17.214 6.671 17.197 6.709 17.179 6.749 17.164 6.791 17.149 6.836 17.134 6.881 17.124 6.928 17.112 6.976 17.104 7.025 17.097 7.075 17.09 7.128 17.085 7.18 17.083 7.232 17.083 7.287 17.083 7.339 17.085 7.392 17.09 7.441 17.097 7.491 17.104 7.539 17.112 7.586 17.124 7.631 17.134 7.673 17.149 7.715 17.164 7.755 17.179 7.795 17.197 7.83 17.214 7.865 17.234 7.897 17.254 7.927 17.277 7.947 17.291 7.967 17.304 7.989 17.319 8.012 17.331 8.034 17.344 8.059 17.356 8.084 17.366 8.109 17.379 8.137 17.389 8.164 17.399 8.191 17.409 8.221 17.416 8.251 17.426 8.281 17.433 8.311 17.438 8.343 17.445 8.343 21.548 8.311 21.541 8.281 21.536 8.251 21.528 8.221 21.518 8.191 21.51 8.164 21.5 8.137 21.49 8.109 21.48 8.084 21.467 8.059 21.457 8.034 21.445 8.012 21.432 7.989 21.42 7.967 21.405 7.947 21.392 7.927 21.377 7.897 21.357 7.865 21.335 7.83 21.318 7.795 21.3 7.755 21.283 7.715 21.265 7.673 21.253 7.631 21.238 7.586 21.225 7.539 21.215 7.491 21.208 7.441 21.2 7.392 21.193 7.339 21.188 7.287 21.186 7.232 21.186 7.18 21.186 7.128 21.188 7.075 21.193 7.025 21.2 6.976 21.208 6.928 21.215 6.881 21.225 6.836 21.238 6.791 21.253 6.749 21.265 6.709 21.283 6.671 21.3 6.634 21.318 6.599 21.335 6.567 21.357 6.537 21.377 6.507 21.4 6.475 21.42 6.44 21.44 6.405 21.46 6.365 21.477 6.325 21.492 6.282 21.507 6.24 21.519 6.195 21.532 6.148 21.544 6.101 21.551 6.051 21.559 6.001 21.566 5.949 21.571 5.896 21.573 5.842 21.573 5.789 21.573 5.737 21.571 5.685 21.566 5.635 21.559 5.588 21.551 5.54 21.544 5.493 21.532 5.448 21.519 5.403 21.507 5.361 21.492 5.321 21.477 5.283 21.46 5.246 21.44 5.211 21.42 5.176 21.4 5.146 21.377 5.117 21.357 5.084 21.335 5.049 21.318 5.015 21.3 4.975 21.283 4.935 21.265 4.893 21.253 4.85 21.238 4.805 21.225 4.758 21.215 4.711 21.208 4.66 21.2 4.611 21.193 4.559 21.188 4.506 21.186 4.454 21.186 4.401 21.186 4.349 21.188 4.297 21.193 4.247 21.2 4.197 21.208 4.15 21.215 4.103 21.225 4.058 21.238 4.013 21.253 3.973 21.265 3.931 21.283 3.893 21.3 3.856 21.318 3.821 21.335 3.789 21.357 3.759 21.377 3.729 21.4 3.696 21.42 3.662 21.44 3.624 21.46 3.587 21.477 3.547 21.492 3.505 21.507 3.462 21.519 3.415 21.532 3.37 21.544 3.323 21.551 3.273 21.559 3.223 21.566 3.171 21.571 3.118 21.573 3.066 21.573 3.011 21.573 2.959 21.571 2.907 21.566 2.857 21.559 2.807 21.551 2.76 21.544 2.712 21.532 2.668 21.519 2.625 21.507 2.583 21.492 2.543 21.477 2.503 21.46 2.468 21.44 2.433 21.42 2.401 21.4 2.371 21.377 2.341 21.357 2.309 21.335 2.274 21.318 2.237 21.3 2.197 21.283 2.157 21.265 2.115 21.253 2.072 21.238 2.025 21.225 1.98 21.215 1.933 21.208 1.883 21.2 1.833 21.193 1.781 21.188 1.728 21.186 1.676 21.186 1.621 21.186 1.569 21.188 1.517 21.193 1.467 21.2 1.417 21.208 1.37 21.215 1.322 21.225 1.277 21.238 1.235 21.253 1.193 21.265 1.153 21.283 1.113 21.3 1.078 21.318 1.043 21.335 1.011 21.357 .981 21.377 .958 21.395 .936 21.41 .911 21.425 .886 21.44 .859 21.452 .832 21.467 .802 21.48 .772 21.49 .739 21.502 .709 21.512 .677 21.522 .642 21.532 .607 21.539 .572 21.546 .538 21.553 .5 21.558 .5 21.558"/>
      <polygon fill="#231F20" fill-rule="nonzero" points="8.008 17.166 8.008 17.166 8.023 17.176 8.041 17.189 8.061 17.201 8.078 17.208 8.098 17.221 8.116 17.228 8.141 17.238 8.163 17.25 8.183 17.257 8.21 17.267 8.23 17.274 8.258 17.282 8.288 17.292 8.308 17.297 8.338 17.302 8.367 17.309 8.318 17.578 8.283 17.571 8.253 17.566 8.213 17.556 8.183 17.546 8.151 17.539 8.116 17.527 8.089 17.517 8.053 17.504 8.026 17.492 8.001 17.482 7.969 17.464 7.944 17.452 7.916 17.434 7.892 17.417 7.869 17.405 7.845 17.385 7.845 17.385 8.009 17.165 8.009 17.165"/>
      <polygon fill="#231F20" fill-rule="nonzero" points="7.231 16.945 7.231 16.945 7.288 16.945 7.348 16.95 7.408 16.955 7.461 16.962 7.51 16.969 7.563 16.979 7.618 16.989 7.67 17.004 7.715 17.018 7.762 17.033 7.809 17.053 7.852 17.073 7.892 17.093 7.934 17.113 7.974 17.141 8.008 17.166 7.844 17.385 7.819 17.37 7.794 17.352 7.767 17.337 7.737 17.322 7.7 17.307 7.667 17.293 7.63 17.283 7.59 17.268 7.553 17.257 7.513 17.247 7.47 17.242 7.421 17.235 7.373 17.227 7.329 17.222 7.284 17.222 7.231 17.222 7.231 17.222 7.231 16.943"/>
      <polygon fill="#231F20" fill-rule="nonzero" points="6.452 17.166 6.455 17.166 6.489 17.141 6.529 17.114 6.574 17.092 6.614 17.074 6.651 17.054 6.701 17.034 6.751 17.019 6.796 17.004 6.848 16.989 6.903 16.979 6.955 16.969 7.005 16.962 7.057 16.955 7.117 16.95 7.177 16.945 7.232 16.945 7.232 17.224 7.182 17.224 7.137 17.224 7.092 17.229 7.045 17.237 6.995 17.244 6.953 17.249 6.913 17.259 6.875 17.27 6.831 17.285 6.796 17.294 6.766 17.309 6.729 17.324 6.694 17.342 6.669 17.354 6.644 17.372 6.619 17.387 6.622 17.387 6.452 17.167 6.452 17.167"/>
      <polygon fill="#231F20" fill-rule="nonzero" points="5.841 17.331 5.841 17.331 5.893 17.331 5.938 17.331 5.988 17.326 6.033 17.321 6.075 17.316 6.12 17.306 6.163 17.296 6.203 17.286 6.24 17.273 6.275 17.261 6.31 17.246 6.347 17.231 6.374 17.216 6.404 17.198 6.429 17.183 6.452 17.166 6.621 17.385 6.584 17.413 6.544 17.438 6.504 17.46 6.462 17.48 6.419 17.5 6.374 17.52 6.325 17.537 6.277 17.55 6.227 17.565 6.175 17.575 6.125 17.585 6.068 17.595 6.013 17.6 5.958 17.605 5.898 17.61 5.841 17.61 5.841 17.61 5.841 17.331"/>
      <polygon fill="#231F20" fill-rule="nonzero" points="5.228 17.166 5.228 17.166 5.251 17.184 5.281 17.199 5.308 17.216 5.341 17.231 5.378 17.246 5.41 17.261 5.443 17.273 5.485 17.286 5.525 17.296 5.567 17.306 5.612 17.316 5.652 17.321 5.697 17.326 5.746 17.331 5.791 17.331 5.841 17.331 5.841 17.61 5.786 17.61 5.727 17.605 5.672 17.6 5.617 17.595 5.562 17.585 5.512 17.575 5.46 17.565 5.41 17.55 5.363 17.538 5.311 17.52 5.263 17.5 5.226 17.48 5.184 17.46 5.141 17.438 5.101 17.413 5.064 17.385 5.064 17.385 5.229 17.166 5.229 17.166"/>
      <polygon fill="#231F20" fill-rule="nonzero" points="4.451 16.945 4.451 16.945 4.508 16.945 4.568 16.95 4.628 16.955 4.68 16.962 4.73 16.969 4.782 16.979 4.837 16.989 4.889 17.004 4.934 17.018 4.982 17.033 5.029 17.053 5.071 17.073 5.111 17.093 5.154 17.113 5.193 17.141 5.229 17.166 5.064 17.385 5.039 17.37 5.014 17.352 4.987 17.337 4.957 17.322 4.919 17.307 4.887 17.293 4.85 17.283 4.81 17.268 4.773 17.257 4.733 17.247 4.69 17.242 4.641 17.235 4.593 17.227 4.548 17.222 4.503 17.222 4.451 17.222 4.451 17.222 4.451 16.943"/>
      <polygon fill="#231F20" fill-rule="nonzero" points="3.674 17.166 3.676 17.164 3.711 17.142 3.751 17.115 3.796 17.092 3.835 17.075 3.875 17.055 3.925 17.035 3.97 17.02 4.017 17.005 4.07 16.99 4.125 16.98 4.177 16.97 4.224 16.963 4.276 16.956 4.336 16.951 4.396 16.946 4.451 16.946 4.451 17.225 4.401 17.225 4.356 17.225 4.312 17.23 4.264 17.238 4.217 17.245 4.175 17.25 4.135 17.26 4.098 17.27 4.055 17.285 4.02 17.295 3.985 17.31 3.951 17.325 3.916 17.342 3.891 17.355 3.866 17.372 3.841 17.39 3.843 17.388 3.674 17.168 3.674 17.168"/>
      <polygon fill="#231F20" fill-rule="nonzero" points="3.066 17.331 3.066 17.331 3.116 17.331 3.161 17.331 3.21 17.326 3.255 17.321 3.298 17.316 3.34 17.306 3.382 17.296 3.425 17.286 3.462 17.273 3.497 17.261 3.529 17.246 3.567 17.231 3.599 17.216 3.627 17.198 3.651 17.183 3.674 17.166 3.843 17.385 3.806 17.413 3.766 17.438 3.724 17.46 3.681 17.48 3.644 17.5 3.597 17.52 3.547 17.537 3.499 17.55 3.447 17.565 3.4 17.575 3.347 17.585 3.29 17.595 3.235 17.6 3.181 17.605 3.121 17.61 3.066 17.61 3.066 17.61 3.066 17.331"/>
      <polygon fill="#231F20" fill-rule="nonzero" points="2.453 17.164 2.455 17.166 2.478 17.183 2.502 17.198 2.532 17.216 2.56 17.231 2.597 17.246 2.632 17.261 2.667 17.273 2.704 17.285 2.744 17.295 2.786 17.306 2.831 17.316 2.873 17.321 2.918 17.326 2.968 17.331 3.013 17.331 3.065 17.331 3.065 17.609 3.008 17.609 2.948 17.604 2.894 17.599 2.839 17.594 2.781 17.584 2.732 17.574 2.679 17.564 2.629 17.55 2.582 17.537 2.532 17.52 2.487 17.5 2.445 17.48 2.403 17.46 2.363 17.437 2.323 17.412 2.286 17.385 2.288 17.387 2.452 17.163 2.452 17.163"/>
      <polygon fill="#231F20" fill-rule="nonzero" points="1.676 16.945 1.676 16.945 1.731 16.945 1.791 16.95 1.85 16.955 1.903 16.962 1.952 16.969 2.005 16.979 2.057 16.989 2.112 17.004 2.157 17.018 2.204 17.033 2.251 17.053 2.294 17.071 2.334 17.091 2.378 17.113 2.418 17.141 2.453 17.163 2.289 17.387 2.264 17.37 2.239 17.352 2.214 17.34 2.179 17.325 2.142 17.307 2.109 17.293 2.072 17.283 2.032 17.268 1.993 17.257 1.955 17.247 1.913 17.242 1.863 17.235 1.816 17.227 1.771 17.222 1.726 17.222 1.676 17.222 1.676 17.222 1.676 16.943"/>
      <polygon fill="#231F20" fill-rule="nonzero" points=".899 17.166 .899 17.166 .933 17.141 .973 17.114 1.016 17.094 1.055 17.074 1.098 17.054 1.145 17.034 1.193 17.019 1.238 17.004 1.29 16.989 1.345 16.979 1.397 16.969 1.447 16.962 1.499 16.955 1.559 16.95 1.619 16.945 1.676 16.945 1.676 17.224 1.624 17.224 1.579 17.224 1.534 17.229 1.487 17.237 1.437 17.244 1.395 17.249 1.355 17.259 1.318 17.27 1.278 17.285 1.24 17.294 1.208 17.309 1.17 17.324 1.141 17.339 1.113 17.354 1.088 17.372 1.063 17.387 1.063 17.387 .899 17.167 .899 17.167"/>
      <polygon fill="#231F20" fill-rule="nonzero" points=".48 17.318 .515 17.313 .545 17.308 .58 17.301 .61 17.293 .642 17.283 .667 17.278 .692 17.268 .724 17.258 .749 17.248 .776 17.236 .797 17.228 .821 17.213 .844 17.201 .859 17.194 .879 17.179 .899 17.166 1.063 17.385 1.038 17.403 1.013 17.423 .978 17.445 .951 17.458 .921 17.473 .886 17.49 .854 17.502 .819 17.517 .787 17.527 .752 17.542 .712 17.552 .675 17.562 .635 17.569 .6 17.577 .56 17.587 .52 17.592 .48 17.318 .48 17.318"/>
      <polygon fill="#231F20" fill-rule="nonzero" points="1.063 21.489 1.065 21.489 1.038 21.509 1.008 21.528 .981 21.543 .951 21.563 .921 21.576 .891 21.593 .848 21.611 .818 21.621 .786 21.633 .751 21.645 .716 21.655 .674 21.668 .634 21.675 .599 21.682 .559 21.692 .519 21.697 .48 21.423 .514 21.418 .544 21.413 .579 21.406 .609 21.399 .636 21.391 .666 21.381 .691 21.373 .724 21.361 .754 21.351 .771 21.344 .796 21.331 .821 21.319 .841 21.309 .863 21.294 .878 21.284 .896 21.269 .898 21.269 1.062 21.488 1.062 21.488"/>
      <polygon fill="#231F20" fill-rule="nonzero" points="1.676 21.324 1.676 21.324 1.624 21.324 1.579 21.326 1.534 21.331 1.487 21.338 1.437 21.346 1.395 21.351 1.355 21.361 1.317 21.371 1.277 21.386 1.24 21.396 1.208 21.411 1.17 21.426 1.14 21.441 1.113 21.456 1.088 21.473 1.063 21.488 .899 21.269 .934 21.244 .974 21.217 1.016 21.197 1.056 21.177 1.098 21.157 1.145 21.137 1.193 21.122 1.238 21.107 1.29 21.092 1.345 21.082 1.397 21.072 1.447 21.064 1.499 21.057 1.559 21.052 1.619 21.05 1.676 21.05 1.676 21.05 1.676 21.324"/>
      <polygon fill="#231F20" fill-rule="nonzero" points="2.286 21.489 2.288 21.491 2.264 21.473 2.239 21.456 2.214 21.443 2.179 21.428 2.142 21.411 2.109 21.396 2.072 21.386 2.032 21.371 1.992 21.361 1.955 21.351 1.913 21.346 1.863 21.338 1.815 21.331 1.77 21.326 1.725 21.324 1.676 21.324 1.676 21.05 1.731 21.05 1.79 21.052 1.85 21.057 1.902 21.064 1.952 21.072 2.005 21.082 2.057 21.092 2.112 21.107 2.156 21.122 2.204 21.137 2.251 21.157 2.294 21.174 2.333 21.194 2.378 21.216 2.418 21.244 2.453 21.266 2.455 21.268 2.286 21.488 2.286 21.488"/>
      <polygon fill="#231F20" fill-rule="nonzero" points="3.066 21.713 3.066 21.713 3.009 21.713 2.949 21.711 2.889 21.706 2.837 21.699 2.787 21.691 2.732 21.681 2.677 21.668 2.63 21.653 2.582 21.641 2.535 21.623 2.49 21.606 2.441 21.583 2.398 21.561 2.363 21.541 2.323 21.516 2.286 21.489 2.456 21.269 2.478 21.287 2.503 21.302 2.538 21.322 2.565 21.339 2.595 21.352 2.63 21.364 2.667 21.376 2.705 21.389 2.747 21.399 2.787 21.411 2.827 21.416 2.877 21.424 2.924 21.431 2.969 21.436 3.014 21.439 3.066 21.439 3.066 21.439 3.066 21.713"/>
      <polygon fill="#231F20" fill-rule="nonzero" points="3.841 21.491 3.843 21.489 3.805 21.516 3.766 21.541 3.728 21.564 3.686 21.584 3.639 21.606 3.594 21.623 3.546 21.641 3.499 21.654 3.449 21.668 3.399 21.681 3.342 21.691 3.292 21.699 3.24 21.706 3.18 21.711 3.12 21.713 3.065 21.713 3.065 21.439 3.115 21.439 3.16 21.436 3.205 21.431 3.252 21.424 3.302 21.416 3.34 21.411 3.38 21.398 3.424 21.388 3.462 21.376 3.499 21.364 3.534 21.351 3.561 21.339 3.594 21.319 3.626 21.301 3.651 21.286 3.673 21.269 3.675 21.267 3.84 21.491 3.84 21.491"/>
      <polygon fill="#231F20" fill-rule="nonzero" points="4.454 21.324 4.454 21.324 4.404 21.324 4.359 21.326 4.314 21.331 4.267 21.338 4.217 21.346 4.175 21.351 4.135 21.361 4.097 21.371 4.055 21.386 4.02 21.396 3.985 21.411 3.95 21.426 3.915 21.443 3.89 21.456 3.865 21.473 3.841 21.491 3.676 21.267 3.711 21.244 3.751 21.217 3.796 21.195 3.836 21.177 3.876 21.157 3.925 21.137 3.97 21.122 4.018 21.107 4.07 21.092 4.125 21.082 4.177 21.072 4.227 21.064 4.279 21.057 4.339 21.052 4.399 21.05 4.454 21.05 4.454 21.05 4.454 21.324"/>
      <polygon fill="#231F20" fill-rule="nonzero" points="5.064 21.489 5.064 21.489 5.039 21.474 5.014 21.456 4.987 21.441 4.957 21.426 4.919 21.411 4.887 21.396 4.85 21.386 4.81 21.371 4.773 21.361 4.733 21.351 4.69 21.346 4.641 21.338 4.593 21.331 4.548 21.326 4.503 21.324 4.454 21.324 4.454 21.05 4.508 21.05 4.568 21.052 4.628 21.057 4.68 21.064 4.73 21.072 4.782 21.082 4.837 21.092 4.89 21.107 4.934 21.122 4.982 21.137 5.029 21.157 5.072 21.177 5.112 21.197 5.154 21.217 5.194 21.244 5.229 21.269 5.229 21.269 5.064 21.488 5.064 21.488"/>
      <polygon fill="#231F20" fill-rule="nonzero" points="5.841 21.713 5.841 21.713 5.786 21.713 5.727 21.711 5.667 21.706 5.615 21.699 5.567 21.691 5.512 21.681 5.457 21.668 5.41 21.653 5.363 21.641 5.313 21.623 5.268 21.606 5.221 21.583 5.178 21.564 5.141 21.541 5.101 21.516 5.064 21.489 5.228 21.269 5.251 21.287 5.281 21.302 5.313 21.319 5.345 21.339 5.373 21.352 5.408 21.364 5.443 21.376 5.485 21.389 5.527 21.399 5.567 21.411 5.607 21.416 5.654 21.424 5.701 21.431 5.746 21.436 5.791 21.439 5.841 21.439 5.841 21.439 5.841 21.713"/>
      <polygon fill="#231F20" fill-rule="nonzero" points="6.618 21.489 6.621 21.489 6.584 21.516 6.544 21.541 6.509 21.561 6.467 21.583 6.417 21.606 6.372 21.623 6.324 21.641 6.277 21.653 6.23 21.668 6.175 21.68 6.12 21.69 6.071 21.698 6.018 21.705 5.958 21.71 5.898 21.712 5.841 21.712 5.841 21.439 5.893 21.439 5.938 21.436 5.983 21.431 6.031 21.424 6.08 21.416 6.12 21.411 6.16 21.398 6.202 21.388 6.24 21.375 6.277 21.363 6.312 21.351 6.342 21.338 6.369 21.321 6.404 21.301 6.429 21.286 6.452 21.268 6.455 21.268 6.619 21.488 6.619 21.488"/>
      <polygon fill="#231F20" fill-rule="nonzero" points="7.231 21.324 7.231 21.324 7.181 21.324 7.136 21.326 7.092 21.331 7.044 21.338 6.994 21.346 6.952 21.351 6.912 21.361 6.875 21.371 6.83 21.386 6.795 21.396 6.765 21.411 6.728 21.426 6.693 21.443 6.668 21.456 6.643 21.473 6.618 21.488 6.454 21.269 6.489 21.244 6.529 21.217 6.574 21.195 6.613 21.177 6.651 21.157 6.701 21.137 6.75 21.122 6.795 21.107 6.847 21.092 6.902 21.082 6.955 21.072 7.005 21.064 7.057 21.057 7.117 21.052 7.177 21.05 7.231 21.05 7.231 21.05 7.231 21.324"/>
      <polygon fill="#231F20" fill-rule="nonzero" points="7.844 21.489 7.844 21.489 7.819 21.474 7.794 21.456 7.767 21.441 7.737 21.426 7.699 21.411 7.667 21.396 7.63 21.386 7.59 21.371 7.553 21.361 7.513 21.351 7.47 21.346 7.42 21.338 7.373 21.331 7.328 21.326 7.283 21.324 7.231 21.324 7.231 21.05 7.288 21.05 7.348 21.052 7.408 21.057 7.46 21.064 7.51 21.072 7.562 21.082 7.617 21.092 7.669 21.107 7.714 21.122 7.762 21.137 7.809 21.157 7.851 21.177 7.891 21.197 7.934 21.217 7.974 21.244 8.008 21.269 8.008 21.269 7.844 21.488 7.844 21.488"/>
      <polygon fill="#231F20" fill-rule="nonzero" points="8.317 21.683 8.282 21.676 8.252 21.671 8.213 21.661 8.183 21.651 8.151 21.644 8.115 21.631 8.088 21.621 8.053 21.609 8.026 21.596 8.001 21.586 7.969 21.569 7.944 21.556 7.916 21.539 7.892 21.521 7.869 21.509 7.844 21.489 8.008 21.27 8.023 21.28 8.041 21.292 8.061 21.305 8.078 21.313 8.098 21.325 8.116 21.333 8.141 21.343 8.163 21.356 8.183 21.364 8.211 21.374 8.23 21.381 8.258 21.389 8.288 21.399 8.308 21.404 8.338 21.409 8.368 21.416 8.318 21.685 8.318 21.685"/>
      <polygon fill="#231F20" fill-rule="nonzero" points="8.008 18.537 8.008 18.537 8.023 18.547 8.041 18.559 8.061 18.571 8.078 18.578 8.098 18.591 8.116 18.598 8.141 18.608 8.163 18.62 8.183 18.627 8.21 18.637 8.23 18.644 8.258 18.652 8.288 18.662 8.308 18.667 8.338 18.672 8.367 18.679 8.318 18.948 8.283 18.941 8.253 18.936 8.213 18.926 8.183 18.916 8.151 18.908 8.116 18.896 8.089 18.886 8.053 18.873 8.026 18.861 8.001 18.851 7.969 18.834 7.944 18.821 7.916 18.804 7.892 18.786 7.869 18.774 7.845 18.754 7.845 18.754 8.009 18.535 8.009 18.535"/>
      <polygon fill="#231F20" fill-rule="nonzero" points="7.231 18.315 7.231 18.315 7.288 18.315 7.348 18.32 7.408 18.325 7.461 18.332 7.51 18.339 7.563 18.349 7.618 18.359 7.67 18.374 7.715 18.389 7.762 18.404 7.809 18.424 7.852 18.444 7.892 18.463 7.934 18.483 7.974 18.511 8.008 18.536 7.844 18.755 7.819 18.74 7.794 18.723 7.767 18.708 7.737 18.693 7.7 18.678 7.667 18.663 7.63 18.653 7.59 18.638 7.553 18.628 7.513 18.618 7.47 18.613 7.421 18.606 7.373 18.599 7.329 18.594 7.284 18.594 7.231 18.594 7.231 18.594 7.231 18.315"/>
      <polygon fill="#231F20" fill-rule="nonzero" points="6.452 18.537 6.455 18.537 6.489 18.512 6.529 18.484 6.574 18.462 6.614 18.444 6.651 18.424 6.701 18.404 6.751 18.389 6.796 18.374 6.848 18.359 6.903 18.349 6.955 18.339 7.005 18.332 7.057 18.325 7.117 18.32 7.177 18.315 7.232 18.315 7.232 18.594 7.182 18.594 7.137 18.594 7.092 18.599 7.045 18.606 6.995 18.613 6.953 18.618 6.913 18.628 6.875 18.638 6.831 18.653 6.796 18.663 6.766 18.678 6.729 18.693 6.694 18.711 6.669 18.723 6.644 18.741 6.619 18.756 6.622 18.756 6.452 18.536 6.452 18.536"/>
      <polygon fill="#231F20" fill-rule="nonzero" points="5.841 18.701 5.841 18.701 5.893 18.701 5.938 18.701 5.988 18.696 6.033 18.691 6.075 18.686 6.12 18.676 6.163 18.666 6.203 18.656 6.24 18.643 6.275 18.631 6.31 18.616 6.347 18.601 6.374 18.586 6.404 18.569 6.429 18.554 6.452 18.536 6.621 18.755 6.584 18.783 6.544 18.808 6.504 18.83 6.462 18.85 6.419 18.87 6.374 18.89 6.325 18.908 6.277 18.92 6.227 18.935 6.175 18.945 6.125 18.955 6.068 18.965 6.013 18.97 5.958 18.975 5.898 18.98 5.841 18.98 5.841 18.98 5.841 18.701"/>
      <polygon fill="#231F20" fill-rule="nonzero" points="5.228 18.537 5.228 18.537 5.251 18.554 5.281 18.569 5.308 18.586 5.341 18.601 5.378 18.616 5.41 18.631 5.443 18.644 5.485 18.656 5.525 18.666 5.567 18.676 5.612 18.686 5.652 18.691 5.697 18.696 5.746 18.701 5.791 18.701 5.841 18.701 5.841 18.98 5.786 18.98 5.727 18.975 5.672 18.97 5.617 18.965 5.562 18.955 5.512 18.945 5.46 18.935 5.41 18.92 5.363 18.908 5.311 18.89 5.263 18.87 5.226 18.85 5.184 18.83 5.141 18.808 5.101 18.783 5.064 18.756 5.064 18.756 5.229 18.536 5.229 18.536"/>
      <polygon fill="#231F20" fill-rule="nonzero" points="4.451 18.315 4.451 18.315 4.508 18.315 4.568 18.32 4.628 18.325 4.68 18.332 4.73 18.339 4.782 18.349 4.837 18.359 4.889 18.374 4.934 18.389 4.982 18.404 5.029 18.424 5.071 18.444 5.111 18.463 5.154 18.483 5.193 18.511 5.229 18.536 5.064 18.755 5.039 18.74 5.014 18.723 4.987 18.708 4.957 18.693 4.919 18.678 4.887 18.663 4.85 18.653 4.81 18.638 4.773 18.628 4.733 18.618 4.69 18.613 4.641 18.606 4.593 18.599 4.548 18.594 4.503 18.594 4.451 18.594 4.451 18.594 4.451 18.315"/>
      <polygon fill="#231F20" fill-rule="nonzero" points="3.674 18.537 3.676 18.534 3.711 18.511 3.751 18.484 3.796 18.461 3.835 18.444 3.875 18.424 3.925 18.404 3.97 18.389 4.017 18.374 4.07 18.359 4.125 18.349 4.177 18.339 4.224 18.332 4.276 18.325 4.336 18.32 4.396 18.315 4.451 18.315 4.451 18.594 4.401 18.594 4.356 18.594 4.312 18.599 4.264 18.606 4.217 18.613 4.175 18.618 4.135 18.628 4.098 18.638 4.055 18.653 4.02 18.663 3.985 18.678 3.951 18.693 3.916 18.71 3.891 18.723 3.866 18.74 3.841 18.758 3.843 18.755 3.674 18.536 3.674 18.536"/>
      <polygon fill="#231F20" fill-rule="nonzero" points="3.066 18.701 3.066 18.701 3.116 18.701 3.161 18.701 3.21 18.696 3.255 18.691 3.298 18.686 3.34 18.676 3.382 18.666 3.425 18.656 3.462 18.643 3.497 18.631 3.529 18.616 3.567 18.601 3.599 18.586 3.627 18.569 3.651 18.554 3.674 18.536 3.843 18.755 3.806 18.783 3.766 18.808 3.724 18.83 3.681 18.85 3.644 18.87 3.597 18.89 3.547 18.908 3.499 18.92 3.447 18.935 3.4 18.945 3.347 18.955 3.29 18.965 3.235 18.97 3.181 18.975 3.121 18.98 3.066 18.98 3.066 18.98 3.066 18.701"/>
      <polygon fill="#231F20" fill-rule="nonzero" points="2.453 18.534 2.455 18.537 2.478 18.554 2.502 18.569 2.532 18.587 2.56 18.602 2.597 18.617 2.632 18.632 2.667 18.644 2.704 18.657 2.744 18.667 2.786 18.677 2.831 18.687 2.873 18.692 2.918 18.697 2.968 18.702 3.013 18.702 3.065 18.702 3.065 18.981 3.008 18.981 2.948 18.976 2.894 18.971 2.839 18.966 2.781 18.955 2.732 18.945 2.679 18.935 2.629 18.921 2.582 18.908 2.532 18.891 2.487 18.871 2.445 18.851 2.403 18.831 2.363 18.808 2.323 18.783 2.286 18.756 2.288 18.759 2.452 18.535 2.452 18.535"/>
      <polygon fill="#231F20" fill-rule="nonzero" points="1.676 18.315 1.676 18.315 1.731 18.315 1.791 18.32 1.85 18.325 1.903 18.332 1.952 18.339 2.005 18.349 2.057 18.359 2.112 18.374 2.157 18.389 2.204 18.404 2.251 18.424 2.294 18.441 2.334 18.461 2.378 18.483 2.418 18.511 2.453 18.533 2.289 18.758 2.264 18.74 2.239 18.723 2.214 18.71 2.179 18.695 2.142 18.678 2.109 18.663 2.072 18.653 2.032 18.638 1.993 18.628 1.955 18.618 1.913 18.613 1.863 18.606 1.816 18.599 1.771 18.594 1.726 18.594 1.676 18.594 1.676 18.594 1.676 18.315"/>
      <polygon fill="#231F20" fill-rule="nonzero" points=".899 18.537 .899 18.537 .933 18.512 .973 18.484 1.016 18.464 1.055 18.444 1.098 18.424 1.145 18.404 1.193 18.389 1.238 18.375 1.29 18.36 1.345 18.35 1.397 18.34 1.447 18.333 1.499 18.326 1.559 18.321 1.619 18.316 1.676 18.316 1.676 18.595 1.624 18.595 1.579 18.595 1.534 18.6 1.487 18.607 1.437 18.614 1.395 18.619 1.355 18.629 1.318 18.639 1.278 18.653 1.24 18.663 1.208 18.678 1.17 18.693 1.141 18.708 1.113 18.723 1.088 18.741 1.063 18.756 1.063 18.756 .899 18.537 .899 18.537"/>
      <polygon fill="#231F20" fill-rule="nonzero" points=".48 18.689 .515 18.684 .545 18.679 .58 18.672 .61 18.665 .642 18.655 .667 18.65 .692 18.64 .724 18.63 .749 18.62 .776 18.607 .797 18.6 .821 18.585 .844 18.573 .859 18.566 .879 18.551 .899 18.538 1.063 18.757 1.038 18.775 1.013 18.795 .978 18.817 .951 18.83 .921 18.845 .886 18.862 .854 18.875 .819 18.89 .787 18.9 .752 18.915 .712 18.925 .675 18.935 .635 18.942 .6 18.95 .56 18.96 .52 18.965 .48 18.691 .48 18.691"/>
      <polygon fill="#231F20" fill-rule="nonzero" points="8.011 19.902 8.008 19.902 8.023 19.912 8.041 19.924 8.061 19.937 8.078 19.944 8.098 19.956 8.115 19.963 8.14 19.973 8.163 19.986 8.183 19.994 8.21 20.004 8.23 20.011 8.258 20.018 8.287 20.028 8.307 20.033 8.337 20.038 8.367 20.045 8.317 20.314 8.282 20.307 8.252 20.302 8.213 20.292 8.183 20.282 8.15 20.275 8.115 20.262 8.088 20.252 8.053 20.24 8.026 20.227 8.001 20.217 7.969 20.2 7.944 20.187 7.916 20.17 7.891 20.152 7.869 20.14 7.844 20.12 7.841 20.12 8.011 19.901 8.011 19.901"/>
      <polygon fill="#231F20" fill-rule="nonzero" points="7.231 19.68 7.231 19.68 7.288 19.68 7.348 19.685 7.403 19.69 7.458 19.695 7.515 19.705 7.565 19.715 7.615 19.725 7.667 19.737 7.717 19.755 7.762 19.77 7.807 19.787 7.852 19.807 7.894 19.827 7.934 19.85 7.974 19.875 8.011 19.902 7.842 20.121 7.819 20.104 7.794 20.089 7.764 20.071 7.737 20.056 7.702 20.041 7.667 20.029 7.627 20.014 7.592 20.001 7.555 19.994 7.51 19.984 7.466 19.974 7.423 19.969 7.378 19.964 7.329 19.959 7.284 19.959 7.231 19.959 7.231 19.959 7.231 19.68"/>
      <polygon fill="#231F20" fill-rule="nonzero" points="6.452 19.902 6.452 19.902 6.489 19.874 6.529 19.849 6.571 19.827 6.613 19.807 6.656 19.787 6.701 19.769 6.745 19.755 6.798 19.737 6.85 19.725 6.9 19.715 6.95 19.705 7.007 19.695 7.062 19.69 7.117 19.685 7.177 19.68 7.231 19.68 7.231 19.959 7.181 19.959 7.137 19.959 7.087 19.964 7.042 19.969 6.999 19.974 6.955 19.984 6.91 19.994 6.872 20.001 6.835 20.013 6.795 20.028 6.761 20.041 6.728 20.056 6.696 20.07 6.668 20.088 6.643 20.103 6.621 20.12 6.621 20.12 6.452 19.901 6.452 19.901"/>
      <polygon fill="#231F20" fill-rule="nonzero" points="5.841 20.066 5.841 20.066 5.893 20.066 5.938 20.066 5.988 20.061 6.033 20.056 6.075 20.051 6.12 20.041 6.163 20.031 6.203 20.021 6.24 20.009 6.275 19.996 6.31 19.981 6.347 19.966 6.374 19.951 6.404 19.934 6.429 19.919 6.452 19.901 6.621 20.121 6.584 20.148 6.544 20.173 6.504 20.196 6.462 20.215 6.419 20.235 6.374 20.255 6.325 20.273 6.277 20.285 6.227 20.3 6.175 20.31 6.125 20.32 6.068 20.33 6.013 20.335 5.958 20.34 5.898 20.345 5.841 20.345 5.841 20.345 5.841 20.066"/>
      <polygon fill="#231F20" fill-rule="nonzero" points="5.231 19.902 5.229 19.902 5.251 19.919 5.281 19.934 5.309 19.951 5.341 19.966 5.378 19.981 5.411 19.996 5.443 20.009 5.485 20.021 5.525 20.031 5.568 20.041 5.613 20.051 5.652 20.056 5.697 20.061 5.747 20.066 5.792 20.066 5.842 20.066 5.842 20.345 5.787 20.345 5.727 20.34 5.672 20.335 5.618 20.33 5.563 20.32 5.513 20.31 5.461 20.3 5.411 20.285 5.363 20.273 5.311 20.255 5.264 20.235 5.226 20.215 5.184 20.196 5.142 20.173 5.102 20.148 5.065 20.121 5.063 20.121 5.232 19.901 5.232 19.901"/>
      <polygon fill="#231F20" fill-rule="nonzero" points="4.451 19.68 4.451 19.68 4.508 19.68 4.568 19.685 4.623 19.69 4.678 19.695 4.735 19.705 4.785 19.715 4.835 19.725 4.887 19.737 4.937 19.755 4.982 19.77 5.027 19.787 5.071 19.807 5.114 19.827 5.154 19.85 5.193 19.875 5.231 19.902 5.062 20.121 5.039 20.104 5.014 20.089 4.985 20.071 4.957 20.056 4.922 20.041 4.887 20.029 4.848 20.014 4.812 20.001 4.775 19.994 4.73 19.984 4.686 19.974 4.643 19.969 4.598 19.964 4.548 19.959 4.504 19.959 4.451 19.959 4.451 19.959 4.451 19.68"/>
      <polygon fill="#231F20" fill-rule="nonzero" points="3.674 19.902 3.674 19.902 3.711 19.874 3.751 19.849 3.794 19.827 3.836 19.807 3.878 19.787 3.925 19.769 3.968 19.755 4.02 19.737 4.072 19.725 4.122 19.715 4.172 19.705 4.227 19.695 4.282 19.69 4.337 19.685 4.396 19.68 4.451 19.68 4.451 19.959 4.401 19.959 4.356 19.959 4.307 19.964 4.262 19.969 4.222 19.974 4.177 19.984 4.132 19.994 4.095 20.001 4.058 20.013 4.02 20.028 3.983 20.041 3.951 20.056 3.918 20.07 3.891 20.088 3.866 20.103 3.843 20.12 3.843 20.12 3.674 19.901 3.674 19.901"/>
      <polygon fill="#231F20" fill-rule="nonzero" points="3.066 20.066 3.066 20.066 3.116 20.066 3.161 20.066 3.21 20.061 3.255 20.056 3.298 20.051 3.34 20.041 3.382 20.031 3.425 20.021 3.462 20.009 3.497 19.996 3.529 19.981 3.567 19.966 3.599 19.951 3.627 19.934 3.651 19.919 3.674 19.901 3.843 20.121 3.806 20.148 3.766 20.173 3.724 20.196 3.681 20.215 3.644 20.235 3.597 20.255 3.547 20.273 3.499 20.285 3.447 20.3 3.4 20.31 3.347 20.32 3.29 20.33 3.235 20.335 3.181 20.34 3.121 20.345 3.066 20.345 3.066 20.345 3.066 20.066"/>
      <polygon fill="#231F20" fill-rule="nonzero" points="2.456 19.902 2.456 19.902 2.478 19.919 2.503 19.934 2.533 19.951 2.56 19.966 2.597 19.981 2.633 19.996 2.667 20.009 2.705 20.021 2.745 20.031 2.787 20.041 2.832 20.051 2.874 20.056 2.919 20.061 2.969 20.066 3.014 20.066 3.066 20.066 3.066 20.345 3.008 20.345 2.949 20.34 2.894 20.335 2.839 20.33 2.782 20.32 2.732 20.31 2.68 20.3 2.63 20.285 2.582 20.273 2.533 20.255 2.488 20.235 2.445 20.215 2.403 20.196 2.363 20.173 2.323 20.148 2.286 20.121 2.286 20.121 2.456 19.901 2.456 19.901"/>
      <polygon fill="#231F20" fill-rule="nonzero" points="1.676 19.68 1.676 19.68 1.731 19.68 1.791 19.685 1.845 19.69 1.9 19.695 1.958 19.705 2.01 19.715 2.055 19.725 2.109 19.737 2.159 19.755 2.204 19.77 2.249 19.787 2.294 19.805 2.336 19.827 2.379 19.85 2.419 19.875 2.456 19.902 2.287 20.121 2.264 20.104 2.239 20.089 2.212 20.071 2.179 20.059 2.145 20.041 2.11 20.029 2.07 20.014 2.035 20.001 1.995 19.994 1.95 19.984 1.908 19.974 1.865 19.969 1.821 19.964 1.771 19.959 1.726 19.959 1.676 19.959 1.676 19.959 1.676 19.68"/>
      <polygon fill="#231F20" fill-rule="nonzero" points=".899 19.902 .897 19.902 .934 19.874 .974 19.849 1.014 19.827 1.056 19.807 1.101 19.787 1.146 19.769 1.191 19.755 1.24 19.737 1.293 19.725 1.343 19.715 1.393 19.705 1.45 19.695 1.505 19.69 1.559 19.685 1.619 19.68 1.677 19.68 1.677 19.959 1.625 19.959 1.58 19.959 1.53 19.964 1.485 19.969 1.443 19.974 1.398 19.984 1.353 19.994 1.315 20.001 1.281 20.013 1.241 20.028 1.206 20.041 1.171 20.056 1.143 20.07 1.113 20.088 1.089 20.103 1.066 20.12 1.064 20.12 .9 19.901 .9 19.901"/>
      <polygon fill="#231F20" fill-rule="nonzero" points=".48 20.054 .515 20.049 .545 20.044 .58 20.036 .61 20.029 .642 20.019 .667 20.014 .692 20.004 .724 19.994 .749 19.984 .776 19.971 .797 19.963 .821 19.948 .844 19.936 .859 19.929 .879 19.914 .899 19.901 1.063 20.121 1.038 20.138 1.013 20.158 .978 20.18 .951 20.193 .921 20.208 .886 20.225 .854 20.238 .819 20.253 .787 20.263 .752 20.278 .712 20.288 .675 20.298 .635 20.305 .6 20.313 .56 20.323 .52 20.328 .48 20.054 .48 20.054"/>
      <polygon fill="#231F20" fill-rule="nonzero" points="8.295 10.5 8.295 10.448 8.347 10.448 8.295 10.5 8.347 10.448 16.179 10.448 16.179 10.552 8.347 10.552 8.4 10.5 8.295 10.5"/>
      <polygon fill="#231F20" fill-rule="nonzero" points="8.395 29.547 8.29 29.547 8.295 10.5 8.4 10.5 8.395 29.547 8.29 29.547 8.395 29.547"/>
      <polygon fill="#231F20" fill-rule="nonzero" points="8.347 10.448 8.4 10.448 8.4 10.5 8.347 10.448 8.4 10.5 8.395 29.547 8.29 29.547 8.295 10.5 8.347 10.552 8.347 10.448"/>
      <polygon fill="#231F20" fill-rule="nonzero" points=".445 10.51 .445 10.458 .498 10.458 .445 10.51 .498 10.458 8.347 10.448 8.347 10.552 .498 10.562 .55 10.51 .445 10.51"/>
      <polygon fill="#231F20" fill-rule="nonzero" points=".45 22.149 .45 22.149 .445 10.51 .55 10.51 .555 22.149 .555 22.149 .45 22.149"/>
      <polygon fill="#231F20" fill-rule="nonzero" points="8.342 29.6 8.342 29.6 7.936 29.59 7.535 29.562 7.142 29.515 6.75 29.45 6.369 29.363 5.996 29.263 5.629 29.149 5.271 29.014 4.919 28.865 4.581 28.7 4.252 28.521 3.931 28.329 3.621 28.12 3.323 27.898 3.036 27.664 2.762 27.417 2.501 27.161 2.251 26.889 2.02 26.608 1.798 26.314 1.591 26.012 1.404 25.701 1.228 25.38 1.07 25.051 .929 24.712 .804 24.366 .699 24.009 .61 23.648 .54 23.282 .49 22.911 .461 22.532 .45 22.148 .555 22.148 .565 22.527 .595 22.901 .645 23.267 .715 23.628 .8 23.985 .904 24.331 1.029 24.672 1.166 25.006 1.323 25.33 1.494 25.651 1.681 25.958 1.883 26.254 2.1 26.543 2.332 26.82 2.576 27.086 2.832 27.343 3.106 27.584 3.388 27.818 3.682 28.035 3.986 28.239 4.302 28.431 4.631 28.606 4.965 28.77 5.311 28.919 5.665 29.049 6.026 29.164 6.395 29.263 6.771 29.346 7.157 29.41 7.545 29.458 7.942 29.485 8.343 29.495 8.343 29.495 8.343 29.6"/>
      <polygon fill="#231F20" fill-rule="nonzero" points="16.234 22.149 16.234 22.149 16.224 22.532 16.194 22.911 16.145 23.282 16.075 23.648 15.985 24.01 15.878 24.366 15.756 24.71 15.614 25.051 15.455 25.38 15.28 25.701 15.091 26.012 14.884 26.314 14.662 26.608 14.431 26.889 14.181 27.161 13.92 27.417 13.648 27.664 13.36 27.901 13.06 28.12 12.752 28.329 12.43 28.521 12.104 28.7 11.763 28.865 11.414 29.014 11.055 29.149 10.687 29.263 10.313 29.363 9.932 29.45 9.543 29.515 9.149 29.562 8.748 29.59 8.342 29.6 8.342 29.495 8.743 29.485 9.139 29.458 9.528 29.41 9.912 29.346 10.288 29.263 10.657 29.164 11.02 29.049 11.374 28.92 11.718 28.77 12.054 28.606 12.381 28.431 12.697 28.24 13.001 28.035 13.295 27.816 13.579 27.584 13.85 27.343 14.107 27.086 14.351 26.82 14.583 26.543 14.799 26.254 15.001 25.958 15.19 25.651 15.36 25.33 15.519 25.006 15.656 24.675 15.778 24.331 15.886 23.985 15.97 23.628 16.04 23.267 16.09 22.901 16.12 22.527 16.13 22.149 16.13 22.149 16.234 22.149"/>
      <polygon fill="#231F20" fill-rule="nonzero" points="16.179 10.448 16.232 10.448 16.232 10.5 16.179 10.448 16.232 10.5 16.234 22.149 16.129 22.149 16.127 10.5 16.18 10.552 16.18 10.448"/>
      <polygon fill="#FFF" points="10.358 15.841 9.907 17.059 8.708 17.059 9.66 17.707 9.294 18.873 10.358 18.193 11.424 18.875 11.058 17.709 12.012 17.062 10.809 17.062 10.358 15.841 10.358 15.841"/>
      <polygon fill="#231F20" fill-rule="nonzero" points="10.809 17.114 10.771 17.114 10.759 17.079 10.809 17.114 10.759 17.079 10.308 15.858 10.407 15.824 10.858 17.044 10.809 17.009 10.809 17.114"/>
      <polygon fill="#231F20" fill-rule="nonzero" points="12.012 17.009 12.179 17.009 12.042 17.104 11.982 17.019 12.012 17.114 10.809 17.114 10.809 17.009 12.012 17.009 12.042 17.104 12.012 17.009 12.012 17.009"/>
      <polygon fill="#231F20" fill-rule="nonzero" points="11.008 17.724 10.995 17.687 11.028 17.667 11.008 17.724 11.028 17.667 11.982 17.019 12.042 17.104 11.088 17.752 11.107 17.694 11.008 17.724 11.008 17.724"/>
      <polygon fill="#231F20" fill-rule="nonzero" points="11.474 18.86 11.516 18.995 11.396 18.92 11.451 18.83 11.374 18.89 11.008 17.724 11.107 17.695 11.474 18.86 11.396 18.92 11.474 18.86 11.474 18.86"/>
      <polygon fill="#231F20" fill-rule="nonzero" points="10.33 18.148 10.358 18.13 10.385 18.148 10.33 18.148 10.385 18.148 11.451 18.83 11.396 18.92 10.33 18.237 10.385 18.237 10.33 18.148 10.33 18.148"/>
      <polygon fill="#231F20" fill-rule="nonzero" points="9.321 18.918 9.204 18.99 9.244 18.858 9.344 18.888 9.267 18.828 10.33 18.148 10.385 18.237 9.321 18.918 9.244 18.858 9.321 18.918 9.321 18.918"/>
      <polygon fill="#231F20" fill-rule="nonzero" points="9.69 17.665 9.722 17.685 9.71 17.722 9.69 17.665 9.71 17.722 9.344 18.888 9.244 18.858 9.61 17.692 9.63 17.749 9.69 17.665 9.69 17.665"/>
      <polygon fill="#231F20" fill-rule="nonzero" points="8.678 17.102 8.541 17.007 8.708 17.007 8.708 17.112 8.738 17.017 9.69 17.665 9.63 17.749 8.678 17.102 8.708 17.007 8.678 17.102 8.678 17.102"/>
      <polygon fill="#231F20" fill-rule="nonzero" points="9.957 17.077 9.944 17.112 9.907 17.112 9.957 17.077 9.907 17.112 8.708 17.112 8.708 17.007 9.907 17.007 9.857 17.042 9.957 17.077 9.957 17.077"/>
      <polygon fill="#231F20" fill-rule="nonzero" points="10.308 15.824 10.358 15.692 10.407 15.824 10.308 15.858 10.407 15.858 9.957 17.077 9.857 17.042 10.308 15.824 10.407 15.824 10.308 15.824"/>
      <polygon fill="#FFF" points="12.214 19.087 11.763 20.305 10.562 20.305 11.516 20.953 11.15 22.121 12.214 21.439 13.28 22.124 12.913 20.955 13.868 20.308 12.664 20.308 12.214 19.087 12.214 19.087"/>
      <polygon fill="#231F20" fill-rule="nonzero" points="12.664 20.36 12.627 20.36 12.615 20.325 12.664 20.36 12.615 20.325 12.164 19.104 12.263 19.07 12.714 20.29 12.664 20.255 12.664 20.36"/>
      <polygon fill="#231F20" fill-rule="nonzero" points="13.868 20.255 14.035 20.255 13.898 20.35 13.838 20.265 13.868 20.36 12.664 20.36 12.664 20.255 13.868 20.255 13.898 20.35 13.868 20.255 13.868 20.255"/>
      <polygon fill="#231F20" fill-rule="nonzero" points="12.864 20.97 12.851 20.933 12.883 20.913 12.864 20.97 12.883 20.913 13.838 20.265 13.898 20.35 12.943 20.998 12.964 20.94 12.864 20.97 12.864 20.97"/>
      <polygon fill="#231F20" fill-rule="nonzero" points="13.33 22.109 13.372 22.243 13.252 22.169 13.307 22.079 13.23 22.139 12.864 20.97 12.963 20.94 13.33 22.109 13.252 22.169 13.33 22.109 13.33 22.109"/>
      <polygon fill="#231F20" fill-rule="nonzero" points="12.186 21.394 12.214 21.376 12.241 21.394 12.186 21.394 12.241 21.394 13.307 22.079 13.252 22.169 12.186 21.483 12.241 21.483 12.186 21.394 12.186 21.394"/>
      <polygon fill="#231F20" fill-rule="nonzero" points="11.177 22.166 11.058 22.241 11.1 22.106 11.2 22.136 11.122 22.076 12.186 21.394 12.241 21.483 11.177 22.166 11.1 22.106 11.177 22.166 11.177 22.166"/>
      <polygon fill="#231F20" fill-rule="nonzero" points="11.546 20.911 11.578 20.931 11.566 20.968 11.546 20.911 11.566 20.968 11.2 22.136 11.1 22.106 11.466 20.938 11.486 20.995 11.546 20.911 11.546 20.911"/>
      <polygon fill="#231F20" fill-rule="nonzero" points="10.532 20.348 10.395 20.253 10.562 20.253 10.562 20.357 10.592 20.263 11.546 20.91 11.486 20.995 10.532 20.347 10.562 20.253 10.532 20.347 10.532 20.347"/>
      <polygon fill="#231F20" fill-rule="nonzero" points="11.812 20.323 11.8 20.358 11.763 20.358 11.812 20.323 11.763 20.358 10.562 20.358 10.562 20.253 11.763 20.253 11.713 20.288 11.812 20.323 11.812 20.323"/>
      <polygon fill="#231F20" fill-rule="nonzero" points="12.164 19.07 12.214 18.938 12.263 19.07 12.164 19.104 12.263 19.104 11.812 20.323 11.713 20.288 12.164 19.07 12.264 19.07 12.164 19.07"/>
      <path stroke="#656263" stroke-width=".75" d="M0.513195,10.52352 L16.205695,10.53165 L16.205695,22.18815 C16.205695,25.91315 13.118445,29.59728 8.352575,29.59728 C3.934815,29.59728 0.469815,26.24602 0.499445,22.18815 L0.513245,10.52352 L0.513195,10.52352 Z"/>
      <text fill="#5A5758" font-family="Helvetica" font-size="8">
        <tspan x="2.71" y="8.249">AG</tspan>
      </text>
    </g>
  </g>
</svg>
