<svg xmlns="http://www.w3.org/2000/svg" width="130" height="69" viewBox="0 0 130 69">
  <g fill="none" fill-rule="evenodd" transform="translate(.676 1.165)">
    <polygon fill="#FFFA99" fill-rule="nonzero" stroke="#FFFA99" stroke-width=".709" points="37.169 18.438 35.993 16.556 33.793 13.513 35.066 12.586 36.463 14.495 39.839 14.619 41.278 11.161 38.22 9.39 35.896 10.995 34.374 7.772 35.868 6.305 46.103 0 48.101 2.116 46.345 5.976 52.666 6.682 51.975 9.96 53.22 13.046 54.216 13.392 58.242 7.014 59.763 7.18 59.747 6.565 58.764 1.668 61.836 .824 64.423 3.688 70.413 9.153 72.613 9.429 78.22 7.291 82.272 9.781 85.329 11.621 92.149 13.571 92.164 16.684 93.575 17.542 93.409 18.995 93.215 21.056 97.143 19.866 102.083 14.582 102.331 8.909 106.163 8.466 108.405 11.939 111.075 12.188 110.895 15.01 114.63 17.224 114.879 18.248 116.788 21.25 116.816 23.408 125.117 23.186 123.996 30.159 125.553 31.085 127.371 32.165 125.366 35.762 128.451 42.112 127.885 42.601 128.451 42.112 127.427 42.997 124.175 44.45 123.415 46.263 117.965 49.154 113.662 46.553 111.891 48.227 109.761 50.067 111.752 53.609 103.812 56.458 102.622 58.451 97.089 60 94.529 66.793 93.381 67.194 86.035 65.409 81.442 58.714 75.659 57.123 73.072 57.455 64.301 58.658 63.651 55.366 63.789 54.715 63.568 53.664 61.949 45.917 68.064 45.945 70.25 44.409 72.436 40.341 71.91 37.298 72.325 34.766 73.695 33.148 75.203 32.317 77.499 28.208 75.424 24.888 69.393 23.449 68.604 20.06 65.505 20.738 66.571 22.896 63.554 24.307 56.761 22.301 56.293 27.973 60.58 30.2 58.546 37.505 58.518 39.193 56.347 39 55.295 40.522 52.709 40.12 49.056 37.948 48.932 42.333 51.422 44.547 40.437 45.405 40.977 48.67 38.611 52.35 33.576 53.345 30.837 51.935 30.602 48.559 26.989 48.663 23.558 48.331 22.453 54.66 17.265 54.743 17.666 52.1 17.613 50.621 15.101 49.026 10.376 46.165 10.03 44.754 7.443 44.575 6.253 44.491 6.723 42.859 0 39.401 .318 36.814 11.152 39.414 10.03 44.754 24.459 44.644 26.133 40.631 22.549 35.14 19.133 35.292 20.956 31.22 24.176 30.518 25.967 34.296 27.558 33.631 31.971 31.929 34.101 31.307 41.295 30.74 40.99 25.746 42.498 23.643 41.516 19.949 38.985 20.101 37.338 18.566 37.169 18.437"/>
    <g transform="translate(82.772 28.217)">
      <polygon fill="#FFF" points="16.636 10.5 16.636 22.146 16.626 22.527 16.596 22.903 16.546 23.275 16.477 23.638 16.389 23.997 16.285 24.348 16.16 24.692 16.021 25.028 15.864 25.355 15.689 25.674 15.5 25.985 15.298 26.286 15.079 26.576 14.845 26.854 14.598 27.123 14.339 27.38 14.068 27.627 13.784 27.858 13.487 28.077 13.181 28.284 12.862 28.479 12.533 28.656 12.194 28.82 11.848 28.967 11.492 29.101 11.128 29.216 10.754 29.316 10.376 29.4 9.99 29.465 9.599 29.513 9.2 29.54 8.796 29.55 8.393 29.54 7.994 29.513 7.603 29.465 7.217 29.4 6.838 29.316 6.465 29.216 6.101 29.101 5.745 28.967 5.398 28.82 5.06 28.656 4.731 28.479 4.414 28.284 4.106 28.077 3.809 27.858 3.525 27.627 3.254 27.38 2.992 27.123 2.745 26.854 2.514 26.576 2.295 26.286 2.09 25.985 1.901 25.674 1.729 25.355 1.572 25.028 1.43 24.692 1.308 24.348 1.201 23.997 1.114 23.638 1.044 23.275 .994 22.903 .964 22.527 .954 22.146 .951 10.51 8.803 10.5 8.803 10.5 16.636 10.5 16.636 10.5"/>
      <polygon fill="#231F20" fill-rule="nonzero" points="8.804 10.448 8.804 10.448 16.636 10.448 16.636 10.552 8.804 10.552 8.804 10.552"/>
      <polygon fill="#231F20" fill-rule="nonzero" points="8.804 10.448 8.804 10.5 8.804 10.5 8.804 10.5 8.804 10.5 8.804 10.552 8.804 10.448"/>
      <polygon fill="#231F20" fill-rule="nonzero" points=".899 10.51 .899 10.458 .952 10.458 .899 10.51 .952 10.458 8.804 10.448 8.804 10.552 .952 10.562 1.004 10.51 .9 10.51"/>
      <polygon fill="#231F20" fill-rule="nonzero" points=".902 22.146 .902 22.146 .9 10.51 1.004 10.51 1.007 22.146 1.007 22.146 .903 22.146"/>
      <polygon fill="#231F20" fill-rule="nonzero" points="8.796 29.602 8.796 29.602 8.39 29.592 7.989 29.565 7.596 29.517 7.207 29.452 6.826 29.365 6.45 29.266 6.083 29.151 5.725 29.014 5.376 28.867 5.035 28.703 4.706 28.523 4.387 28.329 4.076 28.12 3.777 27.9 3.49 27.666 3.219 27.417 2.955 27.161 2.706 26.889 2.474 26.608 2.252 26.316 2.045 26.012 1.856 25.698 1.682 25.379 1.525 25.051 1.38 24.712 1.258 24.366 1.151 24.009 1.061 23.648 .992 23.282 .942 22.908 .912 22.53 .902 22.146 1.007 22.146 1.017 22.525 1.046 22.898 1.096 23.267 1.166 23.628 1.25 23.984 1.358 24.331 1.48 24.672 1.619 25.006 1.776 25.33 1.945 25.649 2.135 25.957 2.337 26.256 2.553 26.543 2.785 26.819 3.029 27.086 3.288 27.342 3.56 27.587 3.841 27.816 4.135 28.035 4.442 28.239 4.756 28.434 5.084 28.608 5.421 28.772 5.764 28.919 6.118 29.051 6.479 29.166 6.851 29.266 7.227 29.348 7.61 29.413 7.999 29.46 8.395 29.487 8.796 29.497 8.796 29.497 8.796 29.602"/>
      <polygon fill="#231F20" fill-rule="nonzero" points="16.688 22.146 16.688 22.146 16.678 22.53 16.648 22.908 16.599 23.282 16.529 23.648 16.439 24.009 16.335 24.366 16.21 24.712 16.068 25.051 15.911 25.38 15.734 25.698 15.545 26.012 15.341 26.316 15.119 26.608 14.885 26.889 14.636 27.161 14.374 27.417 14.103 27.667 13.816 27.901 13.517 28.12 13.208 28.329 12.887 28.523 12.558 28.703 12.217 28.867 11.868 29.014 11.509 29.151 11.143 29.266 10.767 29.365 10.386 29.453 9.997 29.517 9.604 29.565 9.203 29.592 8.796 29.602 8.796 29.498 9.197 29.488 9.594 29.46 9.982 29.413 10.366 29.348 10.742 29.266 11.113 29.166 11.474 29.052 11.828 28.92 12.172 28.773 12.508 28.608 12.837 28.434 13.153 28.239 13.457 28.035 13.751 27.816 14.033 27.587 14.304 27.343 14.561 27.086 14.805 26.82 15.039 26.543 15.256 26.257 15.455 25.958 15.645 25.649 15.817 25.33 15.973 25.006 16.11 24.672 16.235 24.331 16.34 23.985 16.424 23.628 16.494 23.267 16.544 22.899 16.574 22.525 16.584 22.146 16.584 22.146 16.689 22.146"/>
      <polygon fill="#231F20" fill-rule="nonzero" points="16.636 10.448 16.688 10.448 16.688 10.5 16.636 10.448 16.688 10.5 16.688 22.146 16.584 22.146 16.584 10.5 16.636 10.552 16.636 10.448"/>
      <polygon fill="#ED192D" points="6.823 24.022 7.842 27.953 7.842 18.362 6.081 18.362 5.062 27.101 6.823 24.022 6.823 24.022"/>
      <polygon fill="#231F20" fill-rule="nonzero" points="5.107 27.126 4.985 27.34 5.01 27.096 5.115 27.106 5.017 27.076 6.779 23.997 6.868 24.047 5.107 27.126 5.01 27.096 5.107 27.126 5.107 27.126"/>
      <polygon fill="#231F20" fill-rule="nonzero" points="6.029 18.357 6.034 18.31 6.081 18.31 6.081 18.414 6.133 18.367 5.115 27.106 5.01 27.096 6.029 18.357 6.081 18.31 6.029 18.357 6.029 18.357"/>
      <polygon fill="#231F20" fill-rule="nonzero" points="7.842 18.31 7.895 18.31 7.895 18.362 7.79 18.362 7.842 18.414 6.081 18.414 6.081 18.31 7.842 18.31 7.895 18.362 7.842 18.31 7.842 18.31"/>
      <polygon fill="#231F20" fill-rule="nonzero" points="7.895 27.953 7.895 28.324 7.792 27.965 7.892 27.94 7.79 27.953 7.79 18.362 7.895 18.362 7.895 27.953 7.792 27.965"/>
      <polygon fill="#231F20" fill-rule="nonzero" points="6.779 23.997 6.841 23.888 6.873 24.009 6.779 23.997 6.873 24.009 7.892 27.94 7.792 27.965 6.773 24.034 6.868 24.047 6.779 23.997 6.779 23.997"/>
      <polygon fill="#ED192D" points="8.856 24.022 7.842 27.953 7.842 18.362 9.599 18.362 10.615 27.101 8.856 24.022 8.856 24.022"/>
      <polygon fill="#231F20" fill-rule="nonzero" points="10.667 27.096 10.692 27.338 10.57 27.126 10.667 27.096 10.57 27.126 8.811 24.047 8.901 23.997 10.66 27.076 10.563 27.106 10.667 27.096 10.667 27.096"/>
      <polygon fill="#231F20" fill-rule="nonzero" points="9.599 18.31 9.646 18.31 9.651 18.357 9.599 18.31 9.651 18.357 10.667 27.096 10.563 27.106 9.546 18.367 9.599 18.414 9.599 18.31"/>
      <polygon fill="#231F20" fill-rule="nonzero" points="7.79 18.362 7.79 18.31 7.842 18.31 7.79 18.362 7.842 18.31 9.599 18.31 9.599 18.414 7.842 18.414 7.895 18.362 7.79 18.362"/>
      <polygon fill="#231F20" fill-rule="nonzero" points="7.892 27.965 7.79 28.319 7.79 27.953 7.892 27.965 7.79 27.953 7.79 18.362 7.895 18.362 7.895 27.953 7.792 27.94"/>
      <polygon fill="#231F20" fill-rule="nonzero" points="8.806 24.009 8.839 23.888 8.901 23.997 8.811 24.047 8.906 24.034 7.892 27.966 7.792 27.941 8.806 24.01 8.901 23.997 8.806 24.01 8.806 24.01"/>
      <polygon fill="#ED192D" points="6.44 15.594 6.44 15.594 6.395 15.582 6.35 15.567 6.308 15.55 6.265 15.527 6.228 15.502 6.193 15.472 6.158 15.442 6.128 15.407 6.101 15.373 6.076 15.333 6.054 15.293 6.036 15.248 6.024 15.203 6.011 15.158 6.006 15.111 6.003 15.061 6.006 15.006 6.013 14.952 6.028 14.899 6.045 14.849 6.068 14.802 6.095 14.757 6.128 14.715 6.163 14.678 6.2 14.643 6.242 14.61 6.287 14.583 6.335 14.56 6.384 14.543 6.437 14.528 6.492 14.521 6.546 14.519 6.579 14.519 6.611 14.524 6.641 14.529 6.673 14.534 6.703 14.544 6.733 14.554 6.763 14.566 6.791 14.579 6.791 14.579 6.828 14.499 6.868 14.422 6.908 14.345 6.948 14.267 6.99 14.193 7.032 14.118 7.077 14.046 7.122 13.974 7.169 13.904 7.217 13.834 7.264 13.767 7.314 13.7 7.364 13.632 7.416 13.567 7.468 13.503 7.523 13.438 7.523 13.438 7.488 13.4 7.453 13.358 7.426 13.313 7.401 13.266 7.379 13.216 7.364 13.164 7.354 13.112 7.352 13.054 7.354 12.999 7.362 12.945 7.377 12.892 7.394 12.843 7.417 12.795 7.444 12.75 7.476 12.708 7.511 12.671 7.549 12.636 7.591 12.603 7.636 12.576 7.683 12.554 7.733 12.536 7.785 12.521 7.84 12.513 7.895 12.511 7.927 12.511 7.957 12.513 7.987 12.518 8.017 12.523 8.047 12.53 8.074 12.54 8.104 12.55 8.132 12.563 8.157 12.578 8.182 12.59 8.207 12.608 8.229 12.625 8.251 12.645 8.274 12.665 8.294 12.685 8.314 12.707 8.314 12.707 8.381 12.657 8.448 12.608 8.516 12.56 8.585 12.513 8.653 12.468 8.722 12.423 8.794 12.378 8.864 12.336 8.936 12.296 9.009 12.256 9.081 12.219 9.153 12.182 9.228 12.147 9.3 12.114 9.375 12.079 9.449 12.049 9.449 12.049 9.444 12.032 9.439 12.012 9.437 11.992 9.435 11.972 9.433 11.952 9.431 11.932 9.428 11.915 9.428 11.895 9.431 11.84 9.438 11.785 9.453 11.733 9.471 11.683 9.493 11.636 9.521 11.591 9.553 11.549 9.588 11.511 9.625 11.476 9.668 11.444 9.712 11.417 9.76 11.394 9.81 11.377 9.862 11.362 9.914 11.355 9.969 11.352 10.019 11.355 10.066 11.36 10.111 11.37 10.156 11.382 10.198 11.4 10.238 11.419 10.276 11.444 10.311 11.469 10.345 11.499 10.375 11.532 10.403 11.567 10.428 11.604 10.448 11.644 10.467 11.684 10.482 11.728 10.492 11.773 10.492 11.773 10.537 11.766 10.585 11.758 10.63 11.751 10.674 11.746 10.719 11.739 10.764 11.734 10.809 11.729 10.854 11.724 10.899 11.719 10.944 11.717 10.988 11.712 11.033 11.71 11.078 11.708 11.123 11.708 11.17 11.705 11.215 11.705 11.253 11.705 11.29 11.705 11.327 11.705 11.365 11.705 11.402 11.708 11.44 11.708 11.477 11.71 11.514 11.71 11.552 11.712 11.589 11.714 11.627 11.716 11.661 11.721 11.699 11.723 11.736 11.728 11.771 11.733 11.806 11.738 11.806 11.738 11.818 11.693 11.833 11.649 11.851 11.606 11.876 11.564 11.901 11.526 11.931 11.489 11.963 11.454 11.998 11.424 12.035 11.394 12.075 11.37 12.115 11.347 12.16 11.33 12.205 11.315 12.252 11.305 12.299 11.298 12.349 11.296 12.404 11.298 12.459 11.305 12.511 11.32 12.561 11.337 12.608 11.36 12.653 11.387 12.696 11.419 12.733 11.454 12.768 11.494 12.8 11.537 12.828 11.581 12.85 11.629 12.867 11.678 12.882 11.731 12.89 11.785 12.892 11.84 12.892 11.873 12.89 11.903 12.885 11.932 12.877 11.962 12.87 11.992 12.86 12.022 12.848 12.052 12.835 12.08 12.835 12.08 12.908 12.117 12.98 12.154 13.05 12.192 13.119 12.234 13.189 12.274 13.256 12.319 13.321 12.361 13.386 12.406 13.451 12.453 13.513 12.5 13.575 12.55 13.635 12.6 13.693 12.65 13.75 12.702 13.807 12.755 13.862 12.809 13.862 12.819 13.899 12.784 13.942 12.755 13.987 12.73 14.034 12.707 14.081 12.69 14.134 12.675 14.186 12.668 14.241 12.665 14.296 12.668 14.351 12.675 14.403 12.69 14.453 12.707 14.5 12.73 14.545 12.757 14.587 12.789 14.625 12.824 14.66 12.862 14.692 12.904 14.72 12.949 14.742 12.996 14.759 13.046 14.774 13.098 14.781 13.153 14.783 13.208 14.781 13.25 14.778 13.29 14.771 13.33 14.761 13.367 14.749 13.405 14.734 13.44 14.717 13.472 14.697 13.504 14.677 13.534 14.652 13.562 14.627 13.589 14.597 13.614 14.567 13.637 14.537 13.656 14.502 13.674 14.467 13.691 14.467 13.691 14.495 13.751 14.522 13.813 14.55 13.876 14.572 13.938 14.597 14.003 14.617 14.065 14.637 14.13 14.657 14.194 14.674 14.259 14.689 14.324 14.702 14.389 14.714 14.454 14.724 14.518 14.731 14.581 14.738 14.643 14.743 14.705 14.743 14.712 14.743 14.705 14.743 14.697 14.743 14.705 14.743 14.705 14.793 14.712 14.84 14.727 14.888 14.745 14.932 14.767 14.975 14.795 15.014 14.825 15.049 14.86 15.084 14.897 15.114 14.937 15.141 14.979 15.166 15.026 15.186 15.074 15.201 15.121 15.214 15.171 15.221 15.223 15.224 15.276 15.221 15.331 15.214 15.385 15.199 15.438 15.181 15.488 15.159 15.535 15.132 15.58 15.099 15.622 15.064 15.659 15.027 15.694 14.984 15.727 14.939 15.754 14.892 15.777 14.842 15.794 14.79 15.809 14.735 15.817 14.681 15.819 14.658 15.819 14.636 15.817 14.616 15.815 14.596 15.81 14.576 15.805 14.558 15.8 14.536 15.795 14.516 15.788 14.516 15.788 14.486 15.853 14.456 15.917 14.426 15.982 14.394 16.042 14.359 16.104 14.324 16.162 14.289 16.222 14.252 16.276 14.212 16.331 14.172 16.383 14.132 16.436 14.09 16.486 14.047 16.535 14.002 16.58 13.958 16.628 13.913 16.67 13.913 16.67 13.935 16.705 13.952 16.74 13.97 16.775 13.982 16.812 13.992 16.852 13.999 16.892 14.001 16.934 14.003 16.976 14.001 17.031 13.994 17.086 13.979 17.138 13.962 17.188 13.939 17.235 13.912 17.28 13.88 17.323 13.845 17.36 13.807 17.395 13.765 17.427 13.72 17.455 13.673 17.477 13.623 17.495 13.571 17.51 13.516 17.517 13.461 17.519 13.411 17.517 13.361 17.51 13.314 17.5 13.267 17.485 13.224 17.465 13.182 17.442 13.142 17.417 13.105 17.387 13.07 17.355 13.04 17.32 13.01 17.28 12.985 17.24 12.965 17.198 12.948 17.153 12.933 17.106 12.923 17.059 12.923 17.059 12.813 17.054 12.708 17.047 12.611 17.034 12.517 17.019 12.429 17.002 12.347 16.982 12.268 16.959 12.195 16.934 12.126 16.907 12.061 16.877 12.001 16.847 11.944 16.815 11.892 16.782 11.842 16.75 11.794 16.715 11.749 16.678 11.709 16.643 11.672 16.608 11.635 16.57 11.602 16.536 11.57 16.498 11.54 16.463 11.513 16.431 11.485 16.396 11.46 16.366 11.435 16.334 11.413 16.306 11.39 16.279 11.368 16.254 11.345 16.229 11.323 16.209 11.301 16.192 11.301 16.192 11.39 16.194 11.478 16.196 11.565 16.194 11.649 16.192 11.734 16.187 11.816 16.18 11.896 16.17 11.976 16.157 12.053 16.142 12.128 16.125 12.202 16.105 12.272 16.082 12.342 16.058 12.406 16.03 12.471 16 12.531 15.968 12.588 15.933 12.646 15.893 12.698 15.853 12.745 15.808 12.793 15.761 12.835 15.711 12.872 15.659 12.907 15.602 12.94 15.544 12.967 15.48 12.992 15.415 13.012 15.345 13.027 15.273 13.037 15.198 13.044 15.118 13.046 15.036 13.036 14.907 13.011 14.782 12.971 14.663 12.914 14.546 12.846 14.436 12.764 14.334 12.672 14.237 12.572 14.149 12.463 14.067 12.346 13.997 12.221 13.935 12.094 13.883 11.965 13.84 11.83 13.811 11.695 13.791 11.561 13.786 11.369 13.794 11.187 13.811 11.018 13.838 10.859 13.878 10.709 13.928 10.572 13.985 10.445 14.053 10.325 14.127 10.216 14.21 10.114 14.299 10.022 14.394 9.937 14.496 9.86 14.603 9.79 14.715 9.728 14.832 9.673 14.954 9.623 15.079 9.578 15.203 9.538 15.333 9.506 15.465 9.476 15.597 9.451 15.729 9.431 15.864 9.414 15.996 9.401 16.128 9.389 16.257 9.382 16.384 9.374 16.511 9.372 16.633 9.367 16.753 9.367 16.868 9.364 16.977 6.284 16.95 6.284 16.86 6.287 16.773 6.289 16.683 6.294 16.596 6.299 16.509 6.306 16.424 6.313 16.337 6.324 16.252 6.334 16.168 6.344 16.085 6.356 16.003 6.371 15.921 6.386 15.839 6.403 15.757 6.421 15.677 6.438 15.597 6.438 15.597"/>
      <polygon fill="#231F20" fill-rule="nonzero" points="6.285 16.999 6.233 16.999 6.233 16.947 6.285 16.999 6.233 16.947 6.233 16.857 6.235 16.768 6.237 16.678 6.242 16.591 6.247 16.504 6.254 16.416 6.261 16.329 6.271 16.245 6.281 16.16 6.291 16.075 6.303 15.993 6.318 15.908 6.333 15.826 6.351 15.744 6.368 15.664 6.388 15.582 6.488 15.607 6.473 15.684 6.455 15.764 6.438 15.846 6.423 15.928 6.408 16.008 6.396 16.09 6.386 16.17 6.376 16.255 6.366 16.339 6.359 16.427 6.352 16.509 6.347 16.596 6.342 16.683 6.339 16.773 6.337 16.857 6.337 16.947 6.284 16.895 6.284 17"/>
      <polygon fill="#231F20" fill-rule="nonzero" points="9.417 16.974 9.417 17.027 9.364 17.027 9.417 16.974 9.364 17.027 6.285 16.999 6.285 16.895 9.364 16.922 9.312 16.974 9.417 16.974"/>
      <polygon fill="#231F20" fill-rule="nonzero" points="11.562 13.836 11.562 13.836 11.372 13.843 11.195 13.86 11.028 13.888 10.874 13.925 10.727 13.975 10.595 14.03 10.47 14.095 10.356 14.167 10.249 14.246 10.149 14.334 10.062 14.426 9.98 14.525 9.903 14.63 9.835 14.737 9.775 14.852 9.721 14.971 9.673 15.093 9.628 15.218 9.588 15.345 9.556 15.475 9.529 15.604 9.504 15.734 9.484 15.868 9.466 15.998 9.454 16.13 9.442 16.259 9.435 16.384 9.428 16.511 9.426 16.633 9.421 16.75 9.421 16.865 9.419 16.974 9.314 16.974 9.317 16.865 9.317 16.75 9.322 16.628 9.325 16.506 9.332 16.379 9.339 16.249 9.351 16.12 9.364 15.988 9.381 15.853 9.401 15.719 9.426 15.584 9.459 15.45 9.491 15.315 9.531 15.183 9.576 15.059 9.628 14.931 9.683 14.807 9.748 14.687 9.82 14.57 9.897 14.461 9.984 14.356 10.081 14.259 10.186 14.167 10.298 14.082 10.423 14.005 10.552 13.935 10.694 13.875 10.846 13.825 11.011 13.783 11.183 13.756 11.369 13.738 11.564 13.73 11.564 13.73 11.564 13.835"/>
      <polygon fill="#231F20" fill-rule="nonzero" points="12.994 15.034 12.994 15.034 12.984 14.912 12.962 14.792 12.924 14.68 12.869 14.568 12.804 14.463 12.725 14.366 12.635 14.272 12.54 14.187 12.433 14.107 12.321 14.04 12.199 13.98 12.077 13.93 11.953 13.888 11.821 13.861 11.691 13.841 11.561 13.836 11.561 13.731 11.701 13.736 11.84 13.756 11.977 13.788 12.112 13.831 12.244 13.886 12.371 13.951 12.493 14.023 12.605 14.107 12.71 14.197 12.804 14.297 12.889 14.404 12.959 14.518 13.019 14.64 13.061 14.767 13.089 14.897 13.099 15.034 13.099 15.034 12.994 15.034"/>
      <polygon fill="#231F20" fill-rule="nonzero" points="11.27 16.232 11.136 16.133 11.302 16.138 11.27 16.232 11.302 16.138 11.392 16.14 11.477 16.142 11.561 16.14 11.646 16.138 11.728 16.133 11.81 16.126 11.888 16.116 11.965 16.103 12.042 16.088 12.114 16.073 12.186 16.053 12.254 16.031 12.321 16.006 12.386 15.981 12.448 15.951 12.505 15.921 12.56 15.886 12.615 15.849 12.662 15.811 12.707 15.769 12.755 15.724 12.794 15.677 12.829 15.63 12.862 15.572 12.892 15.52 12.919 15.458 12.941 15.395 12.961 15.331 12.974 15.263 12.984 15.191 12.991 15.114 12.993 15.034 13.098 15.034 13.096 15.119 13.089 15.201 13.079 15.278 13.061 15.356 13.041 15.43 13.014 15.498 12.986 15.565 12.952 15.627 12.914 15.685 12.874 15.742 12.83 15.794 12.782 15.844 12.732 15.891 12.675 15.934 12.615 15.976 12.555 16.011 12.493 16.046 12.426 16.076 12.361 16.105 12.289 16.13 12.216 16.153 12.139 16.173 12.062 16.193 11.985 16.208 11.903 16.22 11.821 16.23 11.738 16.237 11.651 16.242 11.566 16.245 11.477 16.247 11.387 16.245 11.297 16.242 11.33 16.148 11.27 16.232 11.27 16.232"/>
      <polygon fill="#231F20" fill-rule="nonzero" points="11.27 16.232 11.136 16.133 11.302 16.138 11.27 16.232 11.3 16.19 11.3 16.19 11.3 16.19 11.3 16.19 11.33 16.147 11.27 16.232 11.27 16.232"/>
      <polygon fill="#231F20" fill-rule="nonzero" points="12.924 17.004 12.967 17.007 12.974 17.05 12.869 17.064 12.919 17.109 12.809 17.104 12.702 17.096 12.602 17.084 12.505 17.069 12.416 17.051 12.334 17.029 12.251 17.007 12.177 16.982 12.104 16.952 12.037 16.922 11.975 16.89 11.915 16.857 11.863 16.825 11.81 16.79 11.76 16.752 11.713 16.715 11.673 16.68 11.633 16.643 11.596 16.605 11.561 16.568 11.528 16.531 11.499 16.496 11.471 16.461 11.444 16.426 11.419 16.396 11.394 16.364 11.371 16.336 11.349 16.311 11.327 16.286 11.307 16.264 11.289 16.247 11.269 16.232 11.329 16.147 11.354 16.167 11.381 16.189 11.406 16.216 11.429 16.241 11.451 16.271 11.474 16.299 11.499 16.331 11.524 16.361 11.551 16.396 11.578 16.426 11.608 16.461 11.641 16.498 11.671 16.531 11.708 16.568 11.743 16.6 11.783 16.635 11.825 16.673 11.87 16.705 11.917 16.735 11.97 16.767 12.024 16.8 12.082 16.827 12.144 16.857 12.211 16.882 12.281 16.907 12.358 16.929 12.441 16.947 12.525 16.964 12.618 16.979 12.712 16.992 12.814 16.999 12.924 17.004 12.974 17.049 12.924 17.004 12.924 17.004"/>
      <polygon fill="#231F20" fill-rule="nonzero" points="12.924 17.004 12.967 17.007 12.974 17.05 12.869 17.064 12.921 17.057 12.921 17.057 12.921 17.057 12.921 17.057 12.974 17.049 12.924 17.005 12.924 17.005"/>
      <polygon fill="#231F20" fill-rule="nonzero" points="13.46 17.57 13.46 17.57 13.405 17.568 13.35 17.56 13.3 17.547 13.246 17.532 13.201 17.51 13.156 17.485 13.111 17.458 13.069 17.425 13.031 17.391 12.999 17.351 12.966 17.308 12.939 17.263 12.916 17.216 12.897 17.169 12.882 17.116 12.869 17.064 12.974 17.049 12.981 17.091 12.996 17.134 13.011 17.176 13.028 17.214 13.051 17.248 13.078 17.286 13.105 17.316 13.138 17.346 13.17 17.373 13.205 17.395 13.245 17.415 13.285 17.433 13.325 17.448 13.369 17.456 13.414 17.463 13.459 17.465 13.459 17.465 13.459 17.569"/>
      <polygon fill="#231F20" fill-rule="nonzero" points="14.055 16.974 14.055 16.974 14.053 17.034 14.046 17.094 14.029 17.152 14.009 17.206 13.984 17.259 13.954 17.308 13.919 17.356 13.882 17.396 13.842 17.433 13.794 17.468 13.745 17.498 13.692 17.523 13.637 17.543 13.58 17.56 13.52 17.568 13.461 17.57 13.461 17.465 13.511 17.463 13.56 17.456 13.608 17.444 13.653 17.429 13.695 17.409 13.735 17.384 13.772 17.354 13.807 17.322 13.839 17.287 13.869 17.25 13.894 17.21 13.914 17.167 13.929 17.123 13.942 17.075 13.949 17.026 13.951 16.976 13.951 16.976 14.055 16.976"/>
      <polygon fill="#231F20" fill-rule="nonzero" points="13.868 16.698 13.841 16.661 13.876 16.631 13.946 16.706 13.953 16.638 13.977 16.678 13.997 16.715 14.015 16.753 14.03 16.795 14.042 16.84 14.049 16.885 14.052 16.93 14.054 16.975 13.95 16.975 13.948 16.935 13.946 16.895 13.939 16.86 13.932 16.825 13.922 16.793 13.904 16.76 13.889 16.728 13.869 16.698 13.876 16.631 13.869 16.698 13.869 16.698"/>
      <polygon fill="#231F20" fill-rule="nonzero" points="13.868 16.698 13.841 16.661 13.876 16.631 13.946 16.706 13.911 16.668 13.911 16.668 13.911 16.668 13.911 16.668 13.876 16.631 13.869 16.698 13.869 16.698"/>
      <polygon fill="#231F20" fill-rule="nonzero" points="14.466 15.766 14.484 15.724 14.529 15.736 14.499 15.836 14.561 15.806 14.531 15.873 14.501 15.938 14.471 16.003 14.436 16.065 14.401 16.13 14.367 16.187 14.332 16.247 14.292 16.305 14.252 16.359 14.212 16.414 14.17 16.467 14.127 16.519 14.082 16.569 14.037 16.616 13.993 16.663 13.945 16.706 13.876 16.631 13.918 16.589 13.963 16.541 14.008 16.499 14.048 16.449 14.09 16.402 14.127 16.349 14.167 16.3 14.207 16.245 14.242 16.193 14.277 16.133 14.312 16.076 14.347 16.016 14.377 15.958 14.407 15.894 14.436 15.829 14.466 15.766 14.529 15.737 14.466 15.766 14.466 15.766"/>
      <polygon fill="#231F20" fill-rule="nonzero" points="14.466 15.766 14.484 15.724 14.529 15.736 14.499 15.836 14.514 15.786 14.514 15.786 14.514 15.786 14.514 15.786 14.529 15.736 14.466 15.766 14.466 15.766"/>
      <polygon fill="#231F20" fill-rule="nonzero" points="14.678 15.871 14.678 15.871 14.653 15.871 14.628 15.868 14.603 15.865 14.581 15.858 14.561 15.853 14.543 15.848 14.519 15.843 14.499 15.836 14.528 15.736 14.548 15.744 14.568 15.749 14.586 15.754 14.606 15.759 14.623 15.762 14.638 15.764 14.658 15.766 14.678 15.766 14.678 15.766 14.678 15.871"/>
      <polygon fill="#231F20" fill-rule="nonzero" points="15.273 15.276 15.273 15.276 15.271 15.335 15.264 15.395 15.247 15.452 15.227 15.507 15.202 15.56 15.172 15.61 15.137 15.657 15.1 15.697 15.06 15.734 15.013 15.769 14.963 15.799 14.911 15.824 14.856 15.844 14.798 15.861 14.738 15.868 14.679 15.871 14.679 15.766 14.728 15.764 14.778 15.757 14.826 15.745 14.871 15.73 14.913 15.71 14.953 15.685 14.99 15.655 15.025 15.623 15.057 15.588 15.087 15.551 15.112 15.511 15.132 15.468 15.147 15.423 15.16 15.376 15.167 15.326 15.169 15.276 15.169 15.276 15.273 15.276"/>
      <polygon fill="#231F20" fill-rule="nonzero" points="14.735 14.757 14.688 14.752 14.688 14.705 14.793 14.705 14.745 14.652 14.803 14.663 14.855 14.678 14.905 14.697 14.954 14.722 15.002 14.752 15.047 14.785 15.084 14.822 15.122 14.864 15.154 14.907 15.184 14.952 15.211 15.004 15.234 15.056 15.249 15.106 15.263 15.161 15.27 15.218 15.272 15.275 15.168 15.275 15.166 15.228 15.159 15.181 15.149 15.136 15.134 15.091 15.116 15.049 15.094 15.007 15.069 14.967 15.042 14.929 15.009 14.897 14.977 14.865 14.942 14.837 14.905 14.812 14.865 14.792 14.82 14.777 14.778 14.762 14.735 14.757 14.688 14.705 14.735 14.757 14.735 14.757"/>
      <polygon fill="#231F20" fill-rule="nonzero" points="14.735 14.757 14.688 14.752 14.688 14.705 14.793 14.705 14.74 14.705 14.74 14.705 14.74 14.705 14.74 14.705 14.688 14.705 14.735 14.757 14.735 14.757"/>
      <polygon fill="#231F20" fill-rule="nonzero" points="14.793 14.703 14.793 14.705 14.688 14.712 14.688 14.705 14.793 14.697 14.793 14.705 14.688 14.705 14.688 14.697 14.793 14.705 14.793 14.712 14.688 14.705 14.688 14.708"/>
      <polygon fill="#231F20" fill-rule="nonzero" points="14.416 13.714 14.394 13.664 14.444 13.644 14.484 13.739 14.511 13.669 14.539 13.729 14.566 13.793 14.593 13.856 14.618 13.921 14.643 13.985 14.663 14.05 14.683 14.115 14.703 14.18 14.721 14.247 14.738 14.314 14.75 14.379 14.763 14.444 14.773 14.511 14.78 14.576 14.787 14.638 14.792 14.703 14.687 14.708 14.682 14.648 14.675 14.586 14.668 14.526 14.658 14.464 14.646 14.399 14.633 14.334 14.621 14.272 14.603 14.21 14.583 14.145 14.564 14.08 14.544 14.02 14.519 13.956 14.499 13.896 14.471 13.833 14.444 13.774 14.417 13.714 14.444 13.644 14.417 13.714 14.417 13.714"/>
      <polygon fill="#231F20" fill-rule="nonzero" points="14.416 13.714 14.394 13.664 14.444 13.644 14.484 13.739 14.464 13.691 14.464 13.691 14.464 13.691 14.464 13.691 14.444 13.644 14.416 13.714 14.416 13.714"/>
      <polygon fill="#231F20" fill-rule="nonzero" points="14.832 13.208 14.832 13.208 14.829 13.253 14.827 13.297 14.817 13.342 14.807 13.382 14.795 13.422 14.778 13.462 14.758 13.497 14.738 13.532 14.713 13.567 14.688 13.597 14.658 13.626 14.625 13.654 14.593 13.679 14.561 13.701 14.521 13.721 14.483 13.739 14.443 13.644 14.476 13.626 14.506 13.611 14.533 13.594 14.56 13.574 14.588 13.552 14.608 13.527 14.633 13.502 14.648 13.477 14.668 13.447 14.683 13.417 14.695 13.387 14.708 13.352 14.718 13.317 14.723 13.282 14.726 13.248 14.728 13.208 14.728 13.208 14.832 13.208"/>
      <polygon fill="#231F20" fill-rule="nonzero" points="14.237 12.613 14.237 12.613 14.297 12.615 14.357 12.622 14.414 12.639 14.469 12.659 14.521 12.684 14.571 12.714 14.619 12.749 14.658 12.786 14.696 12.826 14.731 12.873 14.761 12.923 14.786 12.976 14.805 13.03 14.823 13.088 14.83 13.147 14.833 13.207 14.728 13.207 14.726 13.157 14.719 13.107 14.707 13.06 14.692 13.015 14.672 12.973 14.647 12.933 14.617 12.896 14.585 12.861 14.55 12.828 14.512 12.799 14.473 12.774 14.43 12.754 14.385 12.739 14.338 12.726 14.288 12.719 14.238 12.716 14.238 12.716 14.238 12.612"/>
      <polygon fill="#231F20" fill-rule="nonzero" points="13.896 12.857 13.806 12.941 13.806 12.819 13.911 12.819 13.821 12.782 13.863 12.745 13.911 12.71 13.958 12.682 14.01 12.66 14.063 12.64 14.12 12.622 14.177 12.615 14.237 12.613 14.237 12.718 14.187 12.721 14.14 12.728 14.093 12.74 14.05 12.755 14.008 12.778 13.966 12.8 13.928 12.825 13.896 12.858 13.806 12.82 13.896 12.858 13.896 12.858"/>
      <polygon fill="#231F20" fill-rule="nonzero" points="13.896 12.772 13.911 12.787 13.911 12.809 13.896 12.772 13.911 12.809 13.911 12.819 13.806 12.819 13.806 12.809 13.821 12.847 13.896 12.772 13.896 12.772"/>
      <polygon fill="#231F20" fill-rule="nonzero" points="12.81 12.127 12.762 12.104 12.785 12.057 12.879 12.102 12.855 12.032 12.929 12.07 13.001 12.107 13.071 12.147 13.143 12.189 13.213 12.229 13.283 12.277 13.347 12.319 13.412 12.364 13.477 12.411 13.542 12.461 13.604 12.511 13.667 12.561 13.724 12.61 13.781 12.665 13.839 12.718 13.896 12.772 13.821 12.847 13.769 12.792 13.712 12.74 13.654 12.69 13.597 12.64 13.54 12.591 13.477 12.541 13.418 12.496 13.353 12.448 13.288 12.404 13.223 12.361 13.158 12.319 13.089 12.279 13.021 12.237 12.952 12.202 12.879 12.164 12.81 12.127 12.785 12.057 12.81 12.127 12.81 12.127"/>
      <polygon fill="#231F20" fill-rule="nonzero" points="12.81 12.127 12.762 12.104 12.785 12.057 12.879 12.102 12.832 12.079 12.832 12.079 12.832 12.079 12.832 12.079 12.785 12.057 12.81 12.127 12.81 12.127"/>
      <polygon fill="#231F20" fill-rule="nonzero" points="12.942 11.84 12.942 11.84 12.942 11.875 12.94 11.91 12.935 11.942 12.925 11.975 12.918 12.007 12.908 12.04 12.893 12.072 12.88 12.102 12.786 12.057 12.798 12.032 12.808 12.005 12.818 11.977 12.825 11.95 12.83 11.922 12.835 11.895 12.838 11.87 12.838 11.84 12.838 11.84 12.943 11.84"/>
      <polygon fill="#231F20" fill-rule="nonzero" points="12.346 11.242 12.346 11.242 12.406 11.244 12.466 11.252 12.523 11.27 12.578 11.29 12.631 11.315 12.68 11.345 12.728 11.379 12.767 11.417 12.805 11.462 12.84 11.507 12.87 11.556 12.895 11.609 12.915 11.664 12.932 11.721 12.939 11.781 12.941 11.84 12.837 11.84 12.834 11.79 12.827 11.741 12.814 11.693 12.799 11.648 12.779 11.606 12.754 11.566 12.724 11.526 12.692 11.492 12.657 11.459 12.62 11.429 12.58 11.404 12.537 11.384 12.493 11.37 12.445 11.357 12.396 11.35 12.346 11.348 12.346 11.348 12.346 11.243"/>
      <polygon fill="#231F20" fill-rule="nonzero" points="11.855 11.748 11.843 11.798 11.796 11.791 11.811 11.686 11.751 11.729 11.766 11.679 11.781 11.632 11.801 11.584 11.828 11.537 11.856 11.497 11.888 11.455 11.923 11.417 11.963 11.385 12.003 11.352 12.045 11.325 12.09 11.3 12.14 11.28 12.19 11.265 12.239 11.253 12.292 11.245 12.347 11.243 12.347 11.347 12.302 11.349 12.259 11.356 12.215 11.363 12.175 11.378 12.135 11.393 12.1 11.413 12.063 11.436 12.028 11.463 11.998 11.491 11.968 11.523 11.94 11.555 11.918 11.59 11.896 11.628 11.881 11.665 11.866 11.707 11.856 11.747 11.796 11.79 11.856 11.747 11.856 11.747"/>
      <polygon fill="#231F20" fill-rule="nonzero" points="11.855 11.748 11.843 11.798 11.796 11.791 11.811 11.686 11.804 11.739 11.804 11.739 11.804 11.739 11.804 11.739 11.797 11.791 11.856 11.748 11.856 11.748"/>
      <polygon fill="#231F20" fill-rule="nonzero" points="11.213 11.651 11.213 11.651 11.25 11.651 11.288 11.651 11.325 11.651 11.365 11.651 11.402 11.653 11.44 11.653 11.477 11.655 11.514 11.655 11.552 11.658 11.589 11.66 11.629 11.663 11.664 11.668 11.701 11.67 11.741 11.675 11.776 11.68 11.811 11.685 11.796 11.79 11.761 11.785 11.726 11.78 11.691 11.775 11.654 11.773 11.619 11.768 11.584 11.766 11.547 11.763 11.509 11.761 11.472 11.761 11.435 11.759 11.397 11.759 11.36 11.756 11.325 11.756 11.288 11.756 11.25 11.756 11.213 11.756 11.213 11.756 11.213 11.651"/>
      <polygon fill="#231F20" fill-rule="nonzero" points="10.498 11.825 10.45 11.833 10.438 11.783 10.543 11.763 10.483 11.721 10.528 11.713 10.575 11.706 10.62 11.698 10.665 11.693 10.71 11.685 10.757 11.68 10.802 11.675 10.847 11.67 10.892 11.665 10.936 11.663 10.981 11.658 11.029 11.655 11.074 11.653 11.121 11.653 11.168 11.651 11.213 11.651 11.213 11.756 11.168 11.756 11.121 11.759 11.079 11.759 11.034 11.761 10.991 11.763 10.946 11.768 10.902 11.77 10.857 11.775 10.812 11.78 10.767 11.785 10.725 11.79 10.68 11.797 10.635 11.802 10.59 11.809 10.543 11.817 10.498 11.824 10.438 11.781 10.498 11.824 10.498 11.824"/>
      <polygon fill="#231F20" fill-rule="nonzero" points="10.498 11.825 10.45 11.833 10.438 11.783 10.543 11.763 10.49 11.773 10.49 11.773 10.49 11.773 10.49 11.773 10.438 11.783 10.498 11.826 10.498 11.826"/>
      <polygon fill="#231F20" fill-rule="nonzero" points="9.967 11.3 9.967 11.3 10.022 11.302 10.072 11.307 10.122 11.319 10.171 11.331 10.219 11.351 10.264 11.374 10.303 11.401 10.341 11.429 10.381 11.461 10.413 11.496 10.443 11.536 10.471 11.576 10.493 11.621 10.513 11.663 10.53 11.713 10.543 11.763 10.438 11.783 10.431 11.743 10.419 11.703 10.399 11.665 10.381 11.63 10.359 11.595 10.334 11.566 10.307 11.536 10.277 11.508 10.244 11.486 10.209 11.463 10.175 11.446 10.137 11.431 10.097 11.419 10.058 11.411 10.013 11.406 9.968 11.403 9.968 11.403 9.968 11.298"/>
      <polygon fill="#231F20" fill-rule="nonzero" points="9.374 11.895 9.374 11.895 9.377 11.835 9.385 11.775 9.403 11.718 9.423 11.663 9.448 11.611 9.477 11.561 9.512 11.514 9.55 11.474 9.59 11.437 9.637 11.402 9.687 11.372 9.739 11.347 9.794 11.327 9.851 11.309 9.909 11.302 9.968 11.3 9.968 11.405 9.919 11.408 9.871 11.415 9.824 11.427 9.779 11.442 9.737 11.462 9.697 11.487 9.66 11.517 9.625 11.55 9.592 11.584 9.562 11.622 9.538 11.662 9.518 11.704 9.503 11.749 9.49 11.796 9.482 11.846 9.48 11.896 9.48 11.896 9.375 11.896"/>
      <polygon fill="#231F20" fill-rule="nonzero" points="9.499 12.037 9.511 12.079 9.469 12.097 9.429 12.002 9.399 12.062 9.394 12.044 9.387 12.022 9.385 12 9.383 11.98 9.38 11.96 9.378 11.94 9.375 11.917 9.375 11.895 9.48 11.895 9.48 11.912 9.482 11.925 9.485 11.945 9.487 11.965 9.49 11.985 9.492 12.002 9.494 12.02 9.499 12.037 9.469 12.097 9.499 12.037 9.499 12.037"/>
      <polygon fill="#231F20" fill-rule="nonzero" points="9.499 12.037 9.511 12.079 9.469 12.097 9.429 12.002 9.449 12.049 9.449 12.049 9.449 12.049 9.449 12.049 9.469 12.097"/>
      <polygon fill="#231F20" fill-rule="nonzero" points="8.345 12.75 8.306 12.779 8.273 12.74 8.353 12.675 8.28 12.665 8.35 12.615 8.418 12.565 8.485 12.518 8.555 12.471 8.624 12.423 8.694 12.378 8.766 12.334 8.838 12.291 8.911 12.251 8.983 12.211 9.055 12.172 9.13 12.134 9.205 12.099 9.277 12.067 9.354 12.032 9.429 12.002 9.469 12.097 9.394 12.127 9.322 12.161 9.249 12.194 9.175 12.229 9.105 12.266 9.033 12.301 8.961 12.341 8.888 12.381 8.821 12.423 8.749 12.468 8.679 12.513 8.614 12.555 8.545 12.602 8.477 12.65 8.41 12.7 8.345 12.75 8.273 12.74 8.345 12.75 8.345 12.75"/>
      <polygon fill="#231F20" fill-rule="nonzero" points="8.345 12.75 8.306 12.779 8.273 12.74 8.353 12.675 8.313 12.707 8.313 12.707 8.313 12.707 8.313 12.707 8.273 12.74 8.345 12.75 8.345 12.75"/>
      <polygon fill="#231F20" fill-rule="nonzero" points="7.895 12.458 7.895 12.458 7.929 12.458 7.964 12.461 7.994 12.466 8.027 12.471 8.062 12.481 8.092 12.491 8.124 12.501 8.156 12.516 8.181 12.533 8.209 12.546 8.236 12.566 8.261 12.586 8.286 12.606 8.308 12.628 8.331 12.651 8.353 12.676 8.274 12.74 8.256 12.72 8.239 12.703 8.216 12.685 8.196 12.665 8.176 12.65 8.154 12.636 8.131 12.623 8.107 12.611 8.084 12.601 8.057 12.591 8.032 12.581 8.007 12.576 7.979 12.571 7.949 12.566 7.925 12.564 7.895 12.564 7.895 12.564 7.895 12.459"/>
      <polygon fill="#231F20" fill-rule="nonzero" points="7.299 13.053 7.299 13.053 7.301 12.994 7.308 12.934 7.326 12.876 7.346 12.822 7.371 12.769 7.4 12.72 7.435 12.672 7.473 12.632 7.513 12.595 7.56 12.56 7.61 12.53 7.662 12.505 7.717 12.485 7.774 12.468 7.834 12.461 7.894 12.458 7.894 12.563 7.844 12.565 7.794 12.572 7.747 12.584 7.702 12.599 7.659 12.619 7.62 12.644 7.582 12.674 7.547 12.706 7.515 12.741 7.485 12.778 7.46 12.818 7.44 12.861 7.425 12.905 7.413 12.953 7.406 13.003 7.404 13.052 7.404 13.052 7.299 13.052"/>
      <polygon fill="#231F20" fill-rule="nonzero" points="7.561 13.4 7.596 13.435 7.563 13.472 7.483 13.402 7.485 13.474 7.448 13.435 7.411 13.387 7.381 13.337 7.353 13.288 7.329 13.233 7.314 13.175 7.301 13.116 7.299 13.053 7.404 13.053 7.406 13.106 7.413 13.151 7.428 13.198 7.447 13.243 7.47 13.288 7.495 13.327 7.527 13.365 7.56 13.4 7.563 13.472 7.56 13.4 7.56 13.4"/>
      <polygon fill="#231F20" fill-rule="nonzero" points="7.561 13.4 7.596 13.435 7.563 13.472 7.483 13.402 7.523 13.437 7.523 13.437 7.523 13.437 7.523 13.437 7.563 13.472 7.56 13.4 7.56 13.4"/>
      <polygon fill="#231F20" fill-rule="nonzero" points="6.838 14.6 6.816 14.65 6.766 14.625 6.816 14.53 6.744 14.555 6.781 14.476 6.821 14.396 6.861 14.319 6.903 14.242 6.945 14.167 6.988 14.09 7.033 14.017 7.078 13.945 7.127 13.873 7.175 13.803 7.222 13.736 7.272 13.669 7.322 13.599 7.377 13.534 7.429 13.469 7.484 13.402 7.564 13.472 7.509 13.534 7.456 13.599 7.407 13.664 7.357 13.729 7.307 13.796 7.26 13.863 7.212 13.933 7.167 14 7.122 14.072 7.078 14.144 7.035 14.217 6.993 14.291 6.956 14.369 6.916 14.446 6.876 14.521 6.838 14.6 6.766 14.625 6.838 14.6 6.838 14.6"/>
      <polygon fill="#231F20" fill-rule="nonzero" points="6.838 14.6 6.816 14.65 6.766 14.625 6.816 14.53 6.791 14.578 6.791 14.578 6.791 14.578 6.791 14.578 6.766 14.625 6.838 14.6 6.838 14.6"/>
      <polygon fill="#231F20" fill-rule="nonzero" points="6.547 14.466 6.547 14.466 6.584 14.466 6.619 14.471 6.649 14.476 6.686 14.483 6.721 14.493 6.751 14.503 6.784 14.518 6.816 14.53 6.766 14.625 6.744 14.613 6.717 14.603 6.687 14.593 6.662 14.583 6.634 14.581 6.604 14.576 6.574 14.571 6.547 14.571 6.547 14.571 6.547 14.466"/>
      <polygon fill="#231F20" fill-rule="nonzero" points="5.952 15.061 5.952 15.061 5.954 15.002 5.961 14.942 5.978 14.885 5.998 14.83 6.023 14.777 6.053 14.727 6.088 14.68 6.125 14.64 6.165 14.603 6.212 14.568 6.262 14.538 6.315 14.513 6.369 14.493 6.427 14.476 6.487 14.468 6.546 14.466 6.546 14.57 6.497 14.572 6.447 14.58 6.399 14.593 6.355 14.608 6.312 14.628 6.272 14.652 6.235 14.682 6.2 14.715 6.168 14.75 6.138 14.787 6.113 14.827 6.093 14.869 6.078 14.914 6.065 14.962 6.058 15.012 6.056 15.061 6.056 15.061 5.952 15.061"/>
      <polygon fill="#231F20" fill-rule="nonzero" points="6.45 15.542 6.502 15.555 6.49 15.607 6.39 15.582 6.43 15.647 6.38 15.632 6.333 15.617 6.285 15.597 6.238 15.572 6.195 15.544 6.158 15.512 6.121 15.48 6.088 15.44 6.059 15.403 6.031 15.36 6.006 15.315 5.986 15.266 5.974 15.218 5.959 15.168 5.954 15.116 5.952 15.061 6.056 15.061 6.058 15.106 6.063 15.148 6.073 15.188 6.086 15.231 6.101 15.27 6.121 15.305 6.143 15.343 6.168 15.375 6.195 15.405 6.228 15.432 6.26 15.46 6.293 15.482 6.33 15.502 6.367 15.517 6.41 15.532 6.45 15.542 6.49 15.607 6.45 15.542 6.45 15.542"/>
      <polygon fill="#231F20" fill-rule="nonzero" points="6.45 15.542 6.502 15.555 6.49 15.607 6.39 15.582 6.44 15.594 6.44 15.594 6.44 15.594 6.44 15.594 6.49 15.607 6.45 15.542 6.45 15.542"/>
      <polygon fill="#ED192D" points="10.58 17.662 10.565 17.662 10.523 17.66 10.453 17.66 10.358 17.66 10.241 17.66 10.102 17.66 9.945 17.658 9.77 17.658 9.581 17.658 9.377 17.658 9.163 17.658 8.936 17.658 8.704 17.658 8.465 17.658 8.221 17.658 7.974 17.658 7.728 17.66 7.481 17.66 7.239 17.66 7.003 17.66 6.771 17.66 6.549 17.66 6.338 17.66 6.138 17.66 5.952 17.662 5.782 17.662 5.633 17.662 5.501 17.662 5.389 17.662 5.304 17.662 5.242 17.662 5.207 17.662 5.207 16.882 10.58 16.882 10.58 16.892 10.58 16.917 10.58 16.955 10.58 17.007 10.58 17.067 10.58 17.132 10.58 17.204 10.58 17.276 10.58 17.351 10.58 17.42 10.58 17.488 10.58 17.545 10.58 17.595 10.58 17.632 10.58 17.655 10.58 17.662 10.58 17.662"/>
      <polygon fill="#231F20" fill-rule="nonzero" points="10.58 16.83 10.632 16.83 10.632 16.882 10.58 16.83 10.632 16.882 10.632 16.892 10.632 16.917 10.632 16.955 10.632 17.007 10.632 17.067 10.632 17.132 10.632 17.204 10.632 17.276 10.632 17.351 10.632 17.42 10.632 17.488 10.632 17.545 10.632 17.595 10.632 17.632 10.632 17.655 10.528 17.662 10.632 17.662 10.528 17.655 10.528 17.632 10.528 17.595 10.528 17.545 10.528 17.488 10.528 17.42 10.528 17.351 10.528 17.276 10.528 17.204 10.528 17.132 10.528 17.067 10.528 17.007 10.528 16.955 10.528 16.917 10.528 16.892 10.528 16.882 10.58 16.935 10.58 16.83"/>
      <polygon fill="#231F20" fill-rule="nonzero" points="5.154 16.882 5.154 16.83 5.207 16.83 5.154 16.882 5.207 16.83 10.58 16.83 10.58 16.935 5.207 16.935 5.259 16.882 5.154 16.882"/>
      <polygon fill="#231F20" fill-rule="nonzero" points="5.207 17.714 5.154 17.714 5.154 17.662 5.207 17.714 5.154 17.662 5.154 16.882 5.259 16.882 5.259 17.662 5.207 17.61 5.207 17.714"/>
      <polygon fill="#231F20" fill-rule="nonzero" points="10.528 17.662 10.528 17.662 10.563 17.714 10.523 17.712 10.453 17.712 10.358 17.712 10.241 17.712 10.102 17.712 9.945 17.71 9.77 17.71 9.581 17.71 9.377 17.71 9.163 17.71 8.936 17.71 8.704 17.71 8.465 17.71 8.221 17.71 7.974 17.71 7.728 17.712 7.481 17.712 7.239 17.712 7.003 17.712 6.771 17.712 6.549 17.712 6.338 17.712 6.138 17.712 5.952 17.714 5.782 17.714 5.633 17.714 5.501 17.714 5.389 17.714 5.304 17.714 5.242 17.714 5.207 17.714 5.207 17.61 5.242 17.61 5.304 17.61 5.389 17.61 5.501 17.61 5.633 17.61 5.782 17.61 5.952 17.61 6.138 17.607 6.338 17.607 6.549 17.607 6.771 17.607 7.003 17.607 7.239 17.607 7.481 17.607 7.728 17.607 7.974 17.605 8.221 17.605 8.465 17.605 8.704 17.605 8.936 17.605 9.163 17.605 9.377 17.605 9.581 17.605 9.77 17.605 9.945 17.605 10.102 17.607 10.241 17.607 10.358 17.607 10.453 17.607 10.523 17.607 10.568 17.61 10.632 17.662 10.632 17.662 10.528 17.662"/>
      <polygon fill="#231F20" fill-rule="nonzero" points="11.128 12.921 11.128 12.921 10.926 12.926 10.732 12.944 10.548 12.971 10.366 13.006 10.191 13.053 10.022 13.111 9.862 13.175 9.706 13.253 9.556 13.335 9.412 13.425 9.275 13.524 9.145 13.634 9.021 13.746 8.901 13.868 8.789 13.995 8.684 14.132 8.582 14.272 8.49 14.419 8.403 14.571 8.323 14.725 8.249 14.887 8.181 15.056 8.119 15.226 8.062 15.4 8.012 15.577 7.967 15.759 7.932 15.941 7.902 16.128 7.877 16.314 7.86 16.506 7.848 16.698 7.843 16.89 7.738 16.89 7.743 16.693 7.755 16.496 7.773 16.304 7.798 16.113 7.828 15.921 7.867 15.734 7.912 15.552 7.962 15.37 8.019 15.191 8.082 15.016 8.154 14.847 8.229 14.68 8.313 14.521 8.4 14.364 8.498 14.212 8.6 14.067 8.709 13.93 8.827 13.798 8.946 13.671 9.076 13.554 9.21 13.444 9.352 13.34 9.502 13.245 9.656 13.158 9.818 13.081 9.987 13.011 10.162 12.954 10.341 12.906 10.528 12.867 10.722 12.839 10.922 12.822 11.128 12.817 11.128 12.817 11.128 12.921"/>
      <polygon fill="#231F20" fill-rule="nonzero" points="13.821 14.725 13.716 14.725 13.711 14.616 13.699 14.506 13.682 14.401 13.652 14.301 13.617 14.204 13.577 14.11 13.529 14.02 13.477 13.935 13.415 13.853 13.35 13.773 13.278 13.699 13.203 13.626 13.123 13.557 13.039 13.492 12.949 13.432 12.854 13.372 12.76 13.315 12.66 13.268 12.556 13.218 12.451 13.175 12.346 13.136 12.237 13.096 12.127 13.063 12.015 13.034 11.905 13.006 11.791 12.986 11.679 12.966 11.566 12.949 11.454 12.936 11.345 12.928 11.235 12.923 11.128 12.921 11.128 12.817 11.24 12.819 11.35 12.824 11.464 12.831 11.581 12.843 11.694 12.861 11.811 12.881 11.925 12.906 12.04 12.933 12.157 12.963 12.267 12.995 12.381 13.035 12.491 13.075 12.6 13.122 12.705 13.172 12.81 13.224 12.909 13.282 13.004 13.341 13.099 13.406 13.188 13.476 13.273 13.546 13.353 13.623 13.43 13.703 13.499 13.787 13.562 13.875 13.619 13.969 13.671 14.064 13.716 14.164 13.751 14.271 13.781 14.375 13.803 14.49 13.816 14.604 13.821 14.724 13.716 14.724 13.821 14.724"/>
      <polygon fill="#231F20" fill-rule="nonzero" points="12.428 16.394 12.428 16.289 12.565 16.284 12.693 16.267 12.807 16.242 12.917 16.205 13.016 16.162 13.106 16.11 13.188 16.053 13.263 15.99 13.328 15.92 13.39 15.846 13.447 15.769 13.495 15.691 13.537 15.607 13.577 15.525 13.607 15.44 13.637 15.355 13.659 15.273 13.677 15.191 13.692 15.111 13.704 15.036 13.714 14.967 13.721 14.902 13.723 14.844 13.725 14.794 13.725 14.747 13.725 14.712 13.725 14.687 13.725 14.682 13.772 14.717 13.822 14.68 13.819 14.692 13.819 14.725 13.715 14.725 13.715 14.687 13.717 14.66 13.772 14.612 13.824 14.657 13.829 14.682 13.829 14.712 13.829 14.747 13.829 14.794 13.827 14.849 13.825 14.911 13.818 14.981 13.808 15.051 13.796 15.131 13.781 15.211 13.758 15.298 13.736 15.385 13.706 15.475 13.671 15.564 13.631 15.651 13.584 15.741 13.532 15.828 13.474 15.91 13.407 15.99 13.332 16.065 13.252 16.137 13.16 16.199 13.061 16.257 12.951 16.304 12.837 16.342 12.712 16.371 12.575 16.389 12.428 16.394 12.428 16.289 12.428 16.394"/>
      <polygon fill="#231F20" fill-rule="nonzero" points="11.41 16.217 11.4 16.19 11.43 16.202 11.492 16.215 11.574 16.23 11.671 16.24 11.781 16.25 11.895 16.26 12.01 16.267 12.122 16.272 12.227 16.277 12.316 16.282 12.391 16.284 12.446 16.286 12.476 16.289 12.466 16.393 12.428 16.393 12.428 16.289 12.466 16.289 12.466 16.393 12.441 16.391 12.386 16.389 12.311 16.386 12.222 16.381 12.117 16.376 12.005 16.371 11.885 16.363 11.771 16.353 11.661 16.343 11.559 16.333 11.472 16.318 11.4 16.301 11.345 16.278 11.305 16.216 11.409 16.216"/>
      <polygon fill="#ED192D" points="10.58 18.459 5.207 18.459 5.207 17.674 10.58 17.674"/>
      <polygon fill="#231F20" fill-rule="nonzero" points="10.58 17.622 10.632 17.622 10.632 17.674 10.58 17.622 10.632 17.674 10.632 18.459 10.528 18.459 10.528 17.674 10.58 17.727 10.58 17.622"/>
      <polygon fill="#231F20" fill-rule="nonzero" points="5.154 17.674 5.154 17.622 5.207 17.622 5.154 17.674 5.207 17.622 10.58 17.622 10.58 17.727 5.207 17.727 5.259 17.675 5.154 17.675"/>
      <polygon fill="#231F20" fill-rule="nonzero" points="5.207 18.512 5.154 18.512 5.154 18.459 5.207 18.512 5.154 18.459 5.154 17.674 5.259 17.674 5.259 18.459 5.207 18.407 5.207 18.512"/>
      <polygon fill="#231F20" fill-rule="nonzero" points="10.632 18.459 10.632 18.512 10.58 18.512 10.632 18.459 10.58 18.512 5.207 18.512 5.207 18.407 10.58 18.407 10.528 18.459 10.632 18.459"/>
      <polygon fill="#ED192D" points="11.228 18.016 4.522 18.016 4.522 17.351 11.228 17.351"/>
      <polygon fill="#231F20" fill-rule="nonzero" points="11.228 17.298 11.28 17.298 11.28 17.351 11.228 17.298 11.28 17.351 11.28 18.016 11.175 18.016 11.175 17.351 11.228 17.403 11.228 17.298"/>
      <polygon fill="#231F20" fill-rule="nonzero" points="4.469 17.351 4.469 17.298 4.522 17.298 4.469 17.351 4.522 17.298 11.228 17.298 11.228 17.403 4.522 17.403 4.574 17.351 4.469 17.351"/>
      <polygon fill="#231F20" fill-rule="nonzero" points="4.522 18.068 4.469 18.068 4.469 18.016 4.522 18.068 4.469 18.016 4.469 17.351 4.574 17.351 4.574 18.016 4.522 17.963 4.522 18.068"/>
      <polygon fill="#231F20" fill-rule="nonzero" points="11.28 18.016 11.28 18.068 11.228 18.068 11.28 18.016 11.228 18.068 4.522 18.068 4.522 17.964 11.228 17.964 11.175 18.016 11.28 18.016"/>
      <path stroke="#656263" stroke-width=".75" d="M0.96724,10.527005 L16.65974,10.535005 L16.65974,22.191505 C16.65974,25.916375 13.57274,29.600505 8.80674,29.600505 C4.38886,29.600505 0.92399,26.249255 0.95374,22.191505 L0.96724,10.526755 L0.96724,10.527005 Z"/>
      <text fill="#5A5758" font-family="Helvetica" font-size="8">
        <tspan x="3" y="8.247">BL</tspan>
      </text>
    </g>
  </g>
</svg>
