<svg xmlns="http://www.w3.org/2000/svg" width="29" height="43" viewBox="0 0 29 43">
  <g fill="none" fill-rule="evenodd" transform="translate(.712 -2.002)">
    <polygon fill="#FCCA6C" fill-rule="nonzero" points="12.728 32.835 13.71 37.732 13.727 38.347 12.206 38.181 8.18 44.559 7.183 44.213 5.938 41.128 6.63 37.849 .308 37.143 2.065 33.284 .045 31.167 0 31.178 2.393 27.193 6.057 27.827 6.966 23.555 6.945 23.555 10.113 25.008 10.14 27.124 14.138 26.654 18.33 21.452 22.286 22.725 25.247 20 27.169 21.687 23.905 24.828 25.537 26.17 27.584 29.504 24.748 31.316 19.769 31.911 16.249 32.066 12.728 32.835"/>
    <g transform="translate(5.543 .064)">
      <polygon fill="#FFF" points="16.183 10.5 16.183 22.146 16.173 22.527 16.143 22.903 16.093 23.275 16.023 23.638 15.936 23.997 15.831 24.348 15.707 24.692 15.567 25.028 15.41 25.355 15.236 25.673 15.047 25.985 14.845 26.287 14.626 26.576 14.391 26.855 14.145 27.123 13.886 27.38 13.614 27.627 13.33 27.858 13.034 28.078 12.727 28.284 12.409 28.479 12.08 28.656 11.741 28.82 11.395 28.967 11.038 29.102 10.675 29.216 10.301 29.316 9.922 29.4 9.536 29.465 9.145 29.513 8.746 29.54 8.343 29.55 7.939 29.54 7.541 29.513 7.15 29.465 6.764 29.4 6.385 29.316 6.011 29.216 5.648 29.102 5.291 28.967 4.945 28.82 4.606 28.656 4.277 28.479 3.961 28.284 3.652 28.078 3.356 27.858 3.072 27.627 2.8 27.38 2.539 27.123 2.292 26.855 2.06 26.576 1.841 26.287 1.637 25.985 1.447 25.673 1.276 25.355 1.119 25.028 .977 24.692 .855 24.348 .748 23.997 .66 23.638 .591 23.275 .541 22.903 .511 22.527 .501 22.146 .499 10.51 8.351 10.5 8.351 10.5 16.183 10.5 16.183 10.5"/>
      <polygon fill="#231F20" fill-rule="nonzero" points="8.351 10.448 8.351 10.448 16.183 10.448 16.183 10.552 8.351 10.552 8.351 10.552"/>
      <polygon fill="#231F20" fill-rule="nonzero" points="8.351 10.448 8.351 10.5 8.351 10.5 8.351 10.5 8.351 10.5 8.351 10.552 8.351 10.448"/>
      <polygon fill="#231F20" fill-rule="nonzero" points=".446 10.51 .446 10.458 .498 10.458 .446 10.51 .498 10.458 8.351 10.448 8.351 10.552 .498 10.562 .551 10.51 .446 10.51"/>
      <polygon fill="#231F20" fill-rule="nonzero" points=".449 22.146 .449 22.146 .447 10.51 .551 10.51 .553 22.146 .553 22.146 .449 22.146"/>
      <polygon fill="#231F20" fill-rule="nonzero" points="8.343 29.602 8.343 29.602 7.937 29.592 7.536 29.565 7.142 29.517 6.754 29.453 6.373 29.366 5.997 29.266 5.63 29.151 5.272 29.014 4.923 28.867 4.581 28.703 4.253 28.524 3.934 28.329 3.622 28.12 3.323 27.901 3.037 27.667 2.765 27.418 2.501 27.161 2.252 26.889 2.021 26.608 1.799 26.317 1.592 26.013 1.403 25.699 1.228 25.38 1.071 25.051 .927 24.712 .805 24.366 .698 24.01 .608 23.648 .538 23.282 .489 22.909 .459 22.53 .449 22.146 .553 22.146 .563 22.525 .593 22.899 .643 23.267 .713 23.629 .797 23.985 .905 24.331 1.027 24.672 1.166 25.006 1.323 25.33 1.492 25.649 1.682 25.958 1.884 26.257 2.1 26.543 2.332 26.82 2.576 27.086 2.835 27.343 3.107 27.587 3.388 27.816 3.682 28.035 3.989 28.239 4.302 28.434 4.631 28.608 4.968 28.773 5.311 28.92 5.665 29.052 6.026 29.166 6.398 29.266 6.774 29.348 7.157 29.413 7.546 29.46 7.942 29.488 8.343 29.498 8.343 29.498 8.343 29.602"/>
      <polygon fill="#231F20" fill-rule="nonzero" points="16.235 22.146 16.235 22.146 16.225 22.53 16.195 22.909 16.145 23.282 16.075 23.648 15.986 24.01 15.881 24.366 15.757 24.712 15.615 25.051 15.458 25.38 15.281 25.699 15.092 26.013 14.887 26.317 14.666 26.608 14.431 26.889 14.182 27.161 13.921 27.418 13.649 27.667 13.363 27.901 13.064 28.12 12.755 28.329 12.433 28.524 12.105 28.703 11.763 28.867 11.415 29.014 11.056 29.151 10.69 29.266 10.313 29.366 9.932 29.453 9.544 29.517 9.15 29.565 8.749 29.592 8.343 29.602 8.343 29.498 8.744 29.488 9.14 29.46 9.529 29.413 9.912 29.348 10.289 29.266 10.66 29.166 11.021 29.052 11.375 28.92 11.718 28.773 12.055 28.608 12.384 28.434 12.7 28.239 13.004 28.035 13.298 27.816 13.579 27.587 13.851 27.343 14.108 27.086 14.352 26.82 14.586 26.543 14.803 26.257 15.002 25.958 15.191 25.649 15.363 25.33 15.52 25.006 15.657 24.672 15.782 24.331 15.886 23.985 15.971 23.629 16.041 23.267 16.09 22.899 16.12 22.525 16.13 22.146 16.13 22.146 16.235 22.146"/>
      <polygon fill="#231F20" fill-rule="nonzero" points="16.183 10.448 16.235 10.448 16.235 10.5 16.183 10.448 16.235 10.5 16.235 22.146 16.13 22.146 16.13 10.5 16.183 10.552 16.183 10.448"/>
      <polygon fill="#231F20" points="5.212 11.651 5.045 11.691 4.88 11.738 4.721 11.795 4.564 11.86 4.414 11.932 4.27 12.012 4.128 12.102 3.993 12.194 3.864 12.296 3.742 12.403 3.622 12.516 3.513 12.635 3.408 12.76 3.309 12.887 3.219 13.021 3.134 13.158 3.057 13.298 2.99 13.442 2.927 13.592 2.875 13.741 2.83 13.896 2.793 14.05 2.765 14.207 2.745 14.366 2.738 14.526 2.736 14.688 2.746 14.85 2.766 15.009 2.794 15.171 2.834 15.333 2.883 15.492 2.943 15.652 2.993 15.766 3.05 15.876 3.113 15.983 3.182 16.083 3.255 16.18 3.337 16.272 3.421 16.359 3.511 16.441 3.606 16.516 3.706 16.588 3.81 16.653 3.92 16.713 4.032 16.768 4.146 16.815 4.266 16.855 4.388 16.89 4.495 16.905 4.605 16.912 4.712 16.92 4.819 16.92 4.924 16.915 5.028 16.905 5.133 16.89 5.233 16.87 5.332 16.843 5.429 16.81 5.524 16.773 5.616 16.728 5.706 16.676 5.793 16.616 5.875 16.551 5.955 16.476 6.015 16.414 6.07 16.347 6.122 16.28 6.169 16.207 6.212 16.135 6.249 16.058 6.281 15.978 6.306 15.896 6.329 15.811 6.344 15.724 6.351 15.635 6.353 15.542 6.351 15.445 6.338 15.346 6.321 15.243 6.296 15.139 6.296 15.139 6.276 15.079 6.248 15.022 6.216 14.964 6.179 14.909 6.136 14.855 6.091 14.805 6.042 14.757 5.992 14.713 5.937 14.67 5.882 14.633 5.825 14.598 5.767 14.568 5.71 14.543 5.653 14.523 5.595 14.506 5.541 14.496 5.511 14.496 5.478 14.498 5.448 14.498 5.418 14.5 5.386 14.505 5.356 14.51 5.326 14.515 5.296 14.523 5.266 14.53 5.239 14.538 5.212 14.55 5.184 14.56 5.157 14.573 5.132 14.588 5.109 14.603 5.087 14.62 5.047 14.655 5.012 14.695 4.982 14.735 4.957 14.78 4.935 14.827 4.915 14.877 4.898 14.932 4.883 14.992 4.923 15.002 4.96 15.012 5 15.024 5.04 15.039 5.077 15.056 5.112 15.076 5.144 15.099 5.177 15.121 5.204 15.149 5.227 15.176 5.246 15.209 5.259 15.243 5.269 15.278 5.269 15.318 5.267 15.361 5.254 15.405 5.237 15.428 5.22 15.45 5.2 15.473 5.18 15.495 5.16 15.515 5.135 15.535 5.112 15.552 5.085 15.567 5.06 15.582 5.033 15.592 5.003 15.602 4.973 15.609 4.941 15.614 4.908 15.616 4.876 15.614 4.841 15.609 4.776 15.594 4.716 15.569 4.664 15.537 4.617 15.497 4.577 15.45 4.542 15.397 4.512 15.34 4.487 15.28 4.47 15.215 4.455 15.148 4.447 15.081 4.442 15.014 4.442 14.944 4.447 14.877 4.457 14.809 4.469 14.747 4.494 14.677 4.524 14.61 4.556 14.543 4.591 14.48 4.631 14.418 4.673 14.358 4.721 14.301 4.768 14.246 4.821 14.197 4.875 14.149 4.933 14.107 4.992 14.067 5.055 14.035 5.12 14.005 5.184 13.98 5.254 13.962 5.301 13.947 5.346 13.935 5.394 13.923 5.438 13.915 5.486 13.908 5.533 13.903 5.578 13.901 5.625 13.899 5.673 13.901 5.718 13.903 5.765 13.908 5.812 13.915 5.857 13.923 5.905 13.935 5.949 13.947 5.997 13.962 6.116 13.997 6.231 14.045 6.336 14.102 6.438 14.169 6.53 14.246 6.617 14.329 6.699 14.421 6.774 14.518 6.841 14.622 6.904 14.73 6.961 14.842 7.011 14.959 7.053 15.078 7.093 15.2 7.123 15.322 7.15 15.447 7.158 15.509 7.163 15.569 7.168 15.629 7.173 15.691 7.176 15.751 7.176 15.811 7.178 15.868 7.176 15.928 7.176 15.988 7.173 16.045 7.171 16.105 7.169 16.162 7.164 16.222 7.159 16.279 7.154 16.337 7.147 16.397 7.142 16.454 7.135 16.511 7.128 16.571 7.12 16.628 7.113 16.688 7.106 16.745 7.099 16.805 7.089 16.862 7.082 16.922 7.075 16.982 7.068 17.042 7.06 17.102 7.053 17.162 7.046 17.224 7.039 17.284 7.032 17.346 10.577 17.346 10.579 17.263 10.581 17.184 10.581 17.102 10.579 17.022 10.577 16.942 10.572 16.86 10.567 16.78 10.56 16.7 10.553 16.621 10.543 16.541 10.533 16.461 10.523 16.381 10.511 16.302 10.498 16.222 10.483 16.145 10.471 16.065 10.456 15.986 10.441 15.906 10.423 15.826 10.408 15.746 10.391 15.669 10.373 15.589 10.356 15.509 10.341 15.43 10.324 15.35 10.306 15.271 10.289 15.191 10.271 15.109 10.254 15.029 10.239 14.949 10.221 14.867 10.206 14.787 10.181 14.688 10.154 14.59 10.124 14.493 10.092 14.399 10.057 14.304 10.02 14.215 9.98 14.122 9.937 14.033 9.895 13.946 9.85 13.858 9.803 13.771 9.753 13.684 9.703 13.599 9.653 13.515 9.601 13.43 9.546 13.345 9.484 13.258 9.422 13.171 9.357 13.086 9.29 13.004 9.222 12.924 9.155 12.847 9.085 12.77 9.013 12.697 8.943 12.625 8.869 12.555 8.794 12.488 8.719 12.424 8.642 12.359 8.565 12.299 8.485 12.239 8.405 12.184 8.323 12.129 8.241 12.08 8.156 12.03 8.069 11.982 7.985 11.938 7.895 11.895 7.808 11.855 7.718 11.818 7.626 11.783 7.534 11.751 7.439 11.721 7.345 11.693 7.247 11.671 7.15 11.648 7.05 11.629 6.951 11.611 6.896 11.601 6.844 11.591 6.789 11.581 6.734 11.574 6.682 11.566 6.627 11.559 6.572 11.554 6.52 11.549 6.465 11.547 6.41 11.545 6.355 11.543 6.303 11.541 6.248 11.541 6.193 11.541 6.141 11.541 6.086 11.543 6.031 11.545 5.976 11.547 5.924 11.552 5.869 11.555 5.814 11.56 5.76 11.567 5.707 11.572 5.653 11.579 5.598 11.587 5.543 11.594 5.49 11.602 5.436 11.612 5.381 11.622 5.326 11.632 5.274 11.642 5.219 11.652 5.219 11.652"/>
      <polygon fill="#231F20" points="11.622 19.227 6.059 19.227 6.011 19.224 5.964 19.217 5.917 19.207 5.874 19.189 5.832 19.169 5.792 19.147 5.757 19.12 5.722 19.09 5.692 19.057 5.665 19.02 5.64 18.983 5.62 18.94 5.605 18.898 5.593 18.853 5.586 18.806 5.583 18.758 5.583 18.758 5.586 18.708 5.593 18.661 5.605 18.616 5.62 18.571 5.64 18.531 5.665 18.492 5.692 18.454 5.722 18.422 5.757 18.389 5.792 18.362 5.832 18.34 5.874 18.32 5.917 18.305 5.964 18.293 6.011 18.285 6.059 18.283 11.622 18.283 11.669 18.285 11.716 18.293 11.763 18.305 11.806 18.32 11.848 18.34 11.888 18.362 11.923 18.389 11.958 18.422 11.988 18.454 12.015 18.492 12.04 18.531 12.06 18.571 12.075 18.616 12.088 18.661 12.095 18.708 12.098 18.758 12.098 18.758 12.095 18.806 12.088 18.853 12.075 18.898 12.06 18.94 12.04 18.983 12.015 19.02 11.988 19.057 11.958 19.09 11.923 19.12 11.888 19.147 11.848 19.169 11.806 19.189 11.763 19.207 11.716 19.217 11.669 19.224"/>
      <polygon fill="#231F20" points="11.001 18.108 6.592 18.108 6.53 18.101 6.472 18.084 6.42 18.056 6.375 18.016 6.335 17.971 6.308 17.919 6.29 17.862 6.283 17.799 6.283 17.799 6.29 17.737 6.308 17.677 6.335 17.625 6.375 17.58 6.42 17.54 6.472 17.513 6.53 17.495 6.592 17.488 11.001 17.488 11.064 17.495 11.123 17.513 11.176 17.54 11.22 17.58 11.26 17.625 11.288 17.677 11.305 17.737 11.312 17.799 11.312 17.799 11.305 17.862 11.288 17.919 11.26 17.971 11.22 18.016 11.176 18.056 11.123 18.084 11.064 18.101"/>
      <polygon fill="#231F20" points="11.313 20.001 6.283 20.001 6.226 19.996 6.171 19.979 6.121 19.951 6.081 19.917 6.046 19.874 6.019 19.825 6.001 19.77 5.996 19.712 5.996 19.712 6.001 19.655 6.019 19.6 6.046 19.55 6.081 19.508 6.121 19.473 6.171 19.446 6.226 19.428 6.283 19.423 11.313 19.423 11.37 19.428 11.425 19.446 11.475 19.473 11.517 19.508 11.552 19.55 11.579 19.6 11.597 19.655 11.602 19.712 11.602 19.712 11.597 19.77 11.579 19.825 11.552 19.874 11.517 19.917 11.475 19.951 11.425 19.979 11.37 19.996"/>
      <polygon fill="#231F20" points="8.799 20.146 11.106 20.146 12.317 27.709 10.254 26.167 8.799 27.734 7.344 26.167 5.279 27.709 6.492 20.146 8.799 20.146 8.799 20.146"/>
      <path stroke="#656263" stroke-width=".75" d="M0.513935,10.527095 L16.206435,10.535095 L16.206435,22.191465 C16.206435,25.916465 13.119435,29.600595 8.353445,29.600595 C3.935695,29.600595 0.470685,26.249465 0.500445,22.191465 L0.513945,10.526845 L0.513935,10.527095 Z"/>
      <text fill="#5A5758" font-family="Helvetica" font-size="8">
        <tspan x="2.489" y="8.249">BS</tspan>
      </text>
    </g>
  </g>
</svg>
