<svg xmlns="http://www.w3.org/2000/svg" width="131" height="170" viewBox="0 0 131 170">
  <g fill="none" fill-rule="evenodd" transform="translate(1.13 .871)">
    <polygon fill="#FCCA6C" fill-rule="nonzero" stroke="#FCCA6C" stroke-width=".709" points="33.369 66.613 32.607 65.617 30.628 67.596 25.247 66.945 23.711 65.147 21.512 64.773 19.437 66.82 15.798 68.439 14.193 67.25 13.571 66.71 11.62 64.635 10.237 65.506 7.276 62.822 6.197 63.86 5.312 62.878 7.429 60.194 5.948 59.613 3.984 57.69 9.215 52.296 12.285 49.322 17.127 47.122 20.143 43.857 23.879 41.049 25.691 39.071 29.44 34.547 33.492 36.606 35.54 39.346 34.765 42.071 37.366 44.547 35.166 46.539 32.745 50.247 32.261 53.443 32.676 57.551 37.573 58.852 36.44 60.956 34.517 64.692 33.369 66.613"/>
    <polygon fill="#FCCA6C" fill-rule="nonzero" stroke="#FCCA6C" stroke-width=".709" points="70.16 7.859 79.975 6.184 81.732 5.755 83.198 5.381 84.457 5.035 86.74 3.846 88.276 3.058 90.046 2.131 92.592 .802 95.774 0 97.268 3.141 98.582 4.109 98.859 7.111 97.213 8.895 91.416 12.078 91.333 12.866 93.048 12.811 94.183 16.491 93.38 19.645 94.847 23.034 93.615 24.639 93.228 27.323 90.046 30.962 91.457 31.653 96.133 31.875 98.762 29.952 100.657 31.681 104.157 31.611 109.11 34.241 120.08 32.704 121.491 34.766 123.857 34.378 125.047 42.126 120.731 46.165 116.29 42.278 113.37 45.405 119.001 50.482 116.982 53.428 116.968 56.431 113.385 62.795 113.606 64.248 110.977 69.269 112.015 71.178 113.731 76.076 112.873 83.99 123.027 87.075 122.266 91.018 123.193 91.363 129.294 93.632 128.519 98.142 128.699 103.773 123.663 106.526 122.155 104.008 119.029 104.022 118.918 108.047 115.543 109.556 116.94 121.882 117.051 122.892 115.446 124.234 112.651 126.586 108.957 125.175 104.752 131.76 99.907 134.596 96.466 136.782 94.653 139.839 91.291 141.112 90.6 136.298 86.27 140.421 80.819 144.003 79.38 148.486 73.736 151.668 72.435 154.158 66.39 154.158 63.941 154.158 59.127 157.548 57.37 160.729 55.668 163.787 54.617 165.71 47.658 168.449 46.856 160.674 47.921 157.561 44.006 152.262 43.19 151.17 43.812 149.952 42.678 149.537 41.377 149.067 38.168 147.891 32.911 145.982 31.334 148.03 29.632 147.573 30.089 143.962 28.18 143.132 26.755 146.107 21.885 151.834 19.838 151.681 18.136 148.03 16.684 148.278 16.172 146.065 15.01 146.162 12.561 142.011 14.955 137.515 16.656 138.566 20.488 137.543 22.509 140.668 23.768 137.75 24.044 137.445 27.199 134.36 28.914 132.728 29.384 132.41 31.177 131.608 30.228 128.855 27.82 131.138 24.846 129.117 23.49 127.125 23.241 126.544 20.958 125.396 18.828 125.355 18.482 125.935 17.265 127.347 16.351 127.07 15.369 126.779 14.428 124.787 13.045 124.262 12.881 126.448 9.988 127.665 9.061 127.306 9.974 124.884 10.389 122.118 9.836 120.015 10.901 117.662 9.725 108.559 10.993 106.691 10.12 105.308 14.082 105.571 17.541 101.587 19.368 101.905 20.557 103.109 21.304 103.51 24.293 101.96 25.095 98.211 23.614 97.243 26.215 94.172 27.751 92.954 29.577 90.353 29.342 89.579 30.518 87.863 34.931 83.256 35.789 83.864 38.21 81.167 38.417 80.115 39.455 76.906 37.297 74.333 35.457 74.969 33.174 74.485 33.977 71.649 36.964 70.279 39.026 66.101 43.038 63.542 44.352 59.018 43.052 54.882 44.49 52.239 47.312 53.83 50.051 51.589 48.585 48.559 46.067 45.155 47.907 40.632 49.429 38.806 49.069 38.321 46.344 34.669 43.979 35.582 45.293 40.383 43.315 40.95 39.192 33.922 36.605 33.009 36.01 29.08 38.487 27.118 41.572 24.752 43.986 22.674 49.194 25.455 48.516 28.554 53.648 34.185 53.206 34.779 50.453 37.145 53.123 38.916 55.004 36.675 58.269 38.128 59.653 43.053 57.716 45.031 58.823 46.788 61.908 44.478 63.347 42.583 63.595 42.153 63.969 41.808 65.324 40.313 64.329 37.021 66.902 32.4 68.728 32.151 70.07 33.272 72.367 30.975 70.388 29.882 70.125 28.692 68.977 27.157 67.343 24.028 65.265 19.516 64.801 18.704 63.983 15.564 64.246 10.362 59.791 8.425 60.095 7.194 68.403 8.162 70.16 7.859"/>
    <polygon fill="#FCCA6C" fill-rule="nonzero" stroke="#FCCA6C" stroke-width=".709" points="99.578 21.665 99.73 19.811 98.734 19.216 96.147 21.444 95.968 22.841 96.382 23.823 99.564 22.343 99.578 21.665"/>
    <polygon fill="#FCCA6C" fill-rule="nonzero" stroke="#FCCA6C" stroke-width=".709" points="7.733 75.973 7.332 79.598 4.482 83.97 2.006 83.569 0 80.622 5.035 74.825"/>
    <polygon fill="#FCCA6C" fill-rule="nonzero" stroke="#FCCA6C" stroke-width=".709" points="24.162 80.511 23.228 83.001 21.097 82.392 18.455 80.58 16.297 79.667 14.069 80.304 12.81 81.894 11.759 82.157 9.075 82.544 8.01 81.424 9.2 79.515 13.737 78.893 16.518 74.438 18.192 72.017 20.073 69.043 21.263 68.102 23.463 71.463 24.459 72.376 25.4 73.151 27.351 75.489 24.162 80.511"/>
    <g transform="translate(51.034 74.442)">
      <polygon fill="#FFF" points="16.18 10.492 16.182 22.141 16.172 22.522 16.142 22.898 16.092 23.27 16.022 23.633 15.935 23.992 15.828 24.343 15.706 24.687 15.566 25.023 15.407 25.352 15.235 25.671 15.046 25.98 14.842 26.281 14.622 26.57 14.391 26.849 14.144 27.118 13.885 27.375 13.613 27.622 13.327 27.853 13.031 28.072 12.724 28.279 12.405 28.471 12.079 28.65 11.74 28.812 11.394 28.962 11.038 29.094 10.671 29.211 10.3 29.311 9.922 29.393 9.535 29.458 9.144 29.505 8.746 29.532 8.342 29.542 7.939 29.532 7.54 29.505 7.147 29.458 6.76 29.393 6.382 29.311 6.01 29.211 5.644 29.094 5.288 28.962 4.942 28.812 4.603 28.65 4.274 28.471 3.958 28.279 3.649 28.072 3.352 27.853 3.068 27.622 2.797 27.375 2.538 27.118 2.291 26.849 2.057 26.57 1.84 26.281 1.636 25.98 1.447 25.671 1.272 25.352 1.115 25.023 .976 24.687 .851 24.343 .747 23.992 .66 23.633 .59 23.27 .54 22.898 .51 22.522 .5 22.141 .497 10.507 16.179 10.492 16.179 10.492"/>
      <polygon fill="#231F20" points="16.18 19.573 .501 19.573 .501 10.507 16.18 10.507"/>
      <polygon fill="#231F20" fill-rule="nonzero" points=".446 10.507 .446 10.455 .498 10.455 .446 10.507 .498 10.455 16.18 10.44 16.18 10.545 .498 10.56 .55 10.507 .446 10.507"/>
      <polygon fill="#231F20" fill-rule="nonzero" points=".448 22.141 .448 22.141 .446 10.507 .551 10.507 .554 22.141 .554 22.141 .449 22.141"/>
      <polygon fill="#231F20" fill-rule="nonzero" points="8.343 29.595 8.343 29.595 7.937 29.585 7.535 29.557 7.139 29.51 6.751 29.445 6.37 29.361 5.996 29.261 5.627 29.144 5.269 29.009 4.92 28.86 4.579 28.698 4.25 28.516 3.931 28.324 3.619 28.115 3.321 27.896 3.034 27.662 2.763 27.413 2.501 27.156 2.252 26.884 2.018 26.603 1.798 26.312 1.592 26.008 1.403 25.696 1.226 25.377 1.069 25.046 .927 24.707 .802 24.361 .698 24.005 .608 23.644 .538 23.277 .488 22.904 .458 22.525 .448 22.141 .553 22.141 .563 22.52 .593 22.894 .643 23.262 .713 23.624 .797 23.98 .902 24.326 1.026 24.667 1.163 25.001 1.32 25.327 1.492 25.646 1.682 25.953 1.883 26.252 2.098 26.538 2.332 26.815 2.576 27.081 2.833 27.338 3.104 27.582 3.386 27.811 3.68 28.03 3.986 28.235 4.3 28.427 4.629 28.603 4.965 28.765 5.309 28.915 5.662 29.044 6.026 29.161 6.395 29.261 6.771 29.341 7.155 29.406 7.546 29.453 7.942 29.48 8.343 29.49 8.343 29.49 8.343 29.595"/>
      <polygon fill="#231F20" fill-rule="nonzero" points="16.235 22.141 16.235 22.141 16.225 22.525 16.195 22.903 16.145 23.277 16.075 23.643 15.986 24.004 15.878 24.361 15.756 24.705 15.614 25.046 15.455 25.377 15.281 25.696 15.091 26.007 14.884 26.311 14.663 26.603 14.431 26.884 14.182 27.156 13.92 27.412 13.649 27.662 13.36 27.896 13.061 28.115 12.752 28.324 12.431 28.516 12.104 28.698 11.763 28.86 11.414 29.009 11.056 29.144 10.687 29.261 10.313 29.36 9.932 29.445 9.543 29.51 9.15 29.557 8.749 29.584 8.343 29.595 8.343 29.49 8.744 29.48 9.14 29.452 9.528 29.405 9.912 29.34 10.288 29.261 10.657 29.161 11.021 29.044 11.374 28.914 11.718 28.765 12.055 28.603 12.381 28.426 12.697 28.234 13.001 28.03 13.295 27.811 13.579 27.582 13.851 27.337 14.107 27.081 14.351 26.814 14.583 26.538 14.8 26.251 15.001 25.952 15.191 25.646 15.36 25.327 15.52 25.001 15.657 24.669 15.779 24.326 15.886 23.979 15.97 23.623 16.04 23.262 16.09 22.893 16.12 22.52 16.13 22.141 16.13 22.141 16.235 22.141"/>
      <polygon fill="#231F20" fill-rule="nonzero" points="16.18 10.44 16.232 10.44 16.232 10.493 16.18 10.44 16.232 10.493 16.235 22.141 16.13 22.141 16.128 10.493 16.181 10.545 16.181 10.44"/>
      <path stroke="#656263" stroke-width=".75" d="M0.51349,10.519615 L16.206,10.527615 L16.206,22.184105 C16.206,25.909115 13.119,29.593365 8.35299,29.593365 C3.93512,29.593365 0.47012,26.242105 0.49987,22.184105 L0.51347,10.519615 L0.51349,10.519615 Z"/>
      <text fill="#5A5758" font-family="Helvetica" font-size="8">
        <tspan x="2.821" y="8.24">FR</tspan>
      </text>
    </g>
  </g>
</svg>
