<svg xmlns="http://www.w3.org/2000/svg" width="78" height="113" viewBox="0 0 78 113">
  <g fill="none" fill-rule="evenodd" transform="translate(.054 .498)">
    <polygon fill="#CCECC1" fill-rule="nonzero" points="25.972 .335 34.714 9.19 41.989 12.469 44.661 11.529 46.705 11.818 53.729 12.024 62.981 13.73 63.05 16.103 63.776 25.539 64.191 30.795 61.798 32.497 53.262 39.346 57.025 41.933 61.991 43.08 65.409 39.608 69.973 40.77 73.031 41.739 76.572 50.953 74.456 62.49 73.695 65.686 77.375 72.202 76.655 75.426 72.394 78.179 69.489 82.828 66.114 86.023 57.993 86.05 56.541 87.794 54.535 91.322 53.621 92.581 49.001 95.652 45.515 89.648 39.317 88.472 36.993 89.551 35.43 91.543 33.41 100.563 28.333 107.784 17.681 109.528 11.925 112.475 9.103 108.145 5.7 107.287 1.596 107.328 2.158 102.874 0 99.11 17.141 88.873 16.519 81.887 16.477 81.319 15.19 79.438 12.672 75.702 18.33 73.088 16.615 69.948 19.838 63.639 15.328 60.886 8.619 49.528 7.056 46.858 3.86 45.765 4.994 41.905 9.809 40.148 14.54 37.104 16.961 29.053 15.439 24.542 18.801 20.807 19.022 17.445 18.994 16.546 18.358 11.676 17.93 11.04 18.483 10.223 25.33 0 25.972 .335"/>
    <g transform="translate(41.203 48.362)">
      <polygon fill="#ED192D" points="16.162 10.5 16.174 22.139 16.164 22.52 16.134 22.893 16.084 23.265 16.014 23.628 15.927 23.987 15.823 24.338 15.698 24.68 15.558 25.016 15.402 25.345 15.227 25.664 15.04 25.973 14.836 26.271 14.617 26.563 14.385 26.842 14.138 27.111 13.879 27.368 13.608 27.612 13.324 27.843 13.028 28.063 12.721 28.269 12.402 28.461 12.073 28.641 11.737 28.802 11.391 28.952 11.035 29.084 10.671 29.201 10.3 29.301 9.921 29.383 9.535 29.448 9.141 29.495 8.745 29.523 8.342 29.533 7.938 29.523 7.54 29.495 7.148 29.448 6.762 29.383 6.384 29.301 6.013 29.201 5.646 29.084 5.292 28.952 4.944 28.802 4.608 28.641 4.279 28.461 3.96 28.269 3.653 28.063 3.357 27.843 3.073 27.612 2.802 27.368 2.54 27.111 2.296 26.842 2.061 26.563 1.842 26.271 1.641 25.973 1.451 25.664 1.277 25.345 1.12 25.016 .98 24.68 .856 24.338 .751 23.987 .664 23.628 .594 23.265 .544 22.893 .514 22.52 .504 22.139 .494 10.5 16.161 10.5 16.161 10.5"/>
      <polygon fill="#231F20" fill-rule="nonzero" points=".443 10.5 .443 10.448 .495 10.448 .443 10.5 .495 10.448 16.162 10.448 16.162 10.552 .495 10.552 .547 10.5 .443 10.5"/>
      <polygon fill="#231F20" fill-rule="nonzero" points=".453 22.139 .453 22.139 .443 10.5 .547 10.5 .557 22.139 .557 22.139 .453 22.139"/>
      <polygon fill="#231F20" fill-rule="nonzero" points="8.342 29.585 8.342 29.585 7.936 29.575 7.535 29.547 7.141 29.5 6.753 29.435 6.372 29.35 5.998 29.251 5.629 29.134 5.273 28.999 4.922 28.85 4.583 28.688 4.254 28.506 3.933 28.314 3.624 28.105 3.325 27.886 3.038 27.652 2.767 27.405 2.503 27.148 2.256 26.877 2.022 26.595 1.8 26.301 1.596 26 1.407 25.688 1.23 25.37 1.073 25.038 .931 24.7 .806 24.356 .702 24 .612 23.638 .542 23.272 .492 22.898 .463 22.522 .453 22.139 .557 22.139 .567 22.517 .597 22.888 .647 23.257 .717 23.618 .802 23.975 .906 24.321 1.031 24.66 1.168 24.994 1.325 25.32 1.497 25.639 1.686 25.945 1.885 26.241 2.102 26.53 2.336 26.807 2.578 27.073 2.837 27.33 3.109 27.572 3.39 27.801 3.684 28.02 3.988 28.224 4.304 28.416 4.633 28.593 4.967 28.755 5.313 28.905 5.664 29.034 6.028 29.151 6.397 29.251 6.773 29.331 7.156 29.395 7.545 29.443 7.941 29.47 8.342 29.48 8.342 29.48 8.342 29.585"/>
      <polygon fill="#231F20" fill-rule="nonzero" points="16.227 22.139 16.227 22.139 16.217 22.522 16.187 22.899 16.137 23.272 16.067 23.638 15.977 24 15.873 24.356 15.748 24.7 15.606 25.038 15.449 25.37 15.273 25.689 15.085 26 14.879 26.301 14.657 26.595 14.425 26.877 14.176 27.148 13.915 27.405 13.643 27.652 13.357 27.886 13.058 28.105 12.749 28.314 12.427 28.506 12.099 28.688 11.76 28.85 11.411 28.999 11.052 29.134 10.686 29.251 10.313 29.35 9.931 29.435 9.543 29.5 9.147 29.547 8.748 29.575 8.342 29.585 8.342 29.48 8.743 29.47 9.137 29.443 9.528 29.395 9.912 29.331 10.288 29.251 10.656 29.151 11.018 29.034 11.371 28.905 11.715 28.755 12.049 28.593 12.378 28.416 12.694 28.224 12.998 28.02 13.292 27.801 13.573 27.572 13.845 27.33 14.102 27.073 14.346 26.807 14.577 26.53 14.794 26.241 14.996 25.945 15.183 25.639 15.355 25.32 15.511 24.993 15.649 24.66 15.773 24.321 15.878 23.975 15.963 23.618 16.032 23.257 16.082 22.888 16.112 22.517 16.122 22.139 16.122 22.139 16.227 22.139"/>
      <polygon fill="#231F20" fill-rule="nonzero" points="16.162 10.448 16.214 10.448 16.214 10.5 16.162 10.448 16.214 10.5 16.227 22.139 16.122 22.139 16.109 10.5 16.162 10.552 16.162 10.448"/>
      <polygon fill="#FDD213" points="9.563 14.81 9.456 14.808 9.349 14.801 9.244 14.788 9.139 14.771 9.04 14.751 8.94 14.723 8.84 14.694 8.745 14.659 8.653 14.619 8.561 14.576 8.474 14.531 8.389 14.479 8.307 14.427 8.228 14.369 8.151 14.307 8.078 14.242 8.008 14.175 7.943 14.105 7.881 14.033 7.821 13.956 7.766 13.879 7.717 13.797 7.669 13.714 7.627 13.627 7.59 13.54 7.557 13.448 7.53 13.356 7.505 13.263 7.487 13.166 7.472 13.069 7.465 12.969 7.462 12.87 7.465 12.77 7.472 12.673 7.487 12.576 7.505 12.479 7.53 12.387 7.557 12.295 7.59 12.205 7.627 12.118 7.669 12.031 7.717 11.948 7.766 11.866 7.821 11.789 7.881 11.712 7.943 11.639 8.008 11.57 8.078 11.502 8.151 11.438 8.228 11.375 8.307 11.318 8.389 11.266 8.474 11.216 8.561 11.168 8.653 11.126 8.745 11.086 8.84 11.051 8.94 11.021 9.04 10.994 9.139 10.974 9.244 10.957 9.349 10.944 9.456 10.937 9.563 10.935 9.672 10.937 9.777 10.944 9.884 10.957 9.986 10.974 10.088 10.994 10.188 11.021 10.288 11.051 10.382 11.086 10.475 11.126 10.567 11.168 10.654 11.216 10.741 11.266 10.823 11.318 10.903 11.375 10.978 11.438 11.052 11.502 11.122 11.57 11.187 11.639 11.249 11.712 11.309 11.789 11.364 11.866 11.414 11.948 11.461 12.031 11.503 12.118 11.541 12.205 11.573 12.295 11.601 12.387 11.626 12.479 11.643 12.576 11.658 12.673 11.666 12.77 11.668 12.87 11.666 12.969 11.658 13.069 11.643 13.166 11.626 13.263 11.601 13.356 11.573 13.448 11.541 13.54 11.503 13.627 11.461 13.714 11.414 13.797 11.364 13.879 11.309 13.956 11.249 14.033 11.187 14.105 11.122 14.175 11.052 14.242 10.978 14.307 10.903 14.369 10.823 14.427 10.741 14.479 10.654 14.531 10.567 14.576 10.475 14.619 10.382 14.659 10.288 14.694 10.188 14.723 10.088 14.751 9.986 14.771 9.884 14.788 9.777 14.801 9.672 14.808"/>
      <polygon fill="#231F20" fill-rule="nonzero" points="11.72 12.869 11.72 12.869 11.718 12.971 11.71 13.073 11.695 13.173 11.675 13.275 11.65 13.37 11.623 13.462 11.591 13.559 11.551 13.649 11.508 13.738 11.459 13.823 11.406 13.905 11.351 13.985 11.289 14.065 11.227 14.139 11.159 14.211 11.088 14.279 11.013 14.346 10.935 14.411 10.853 14.468 10.769 14.523 10.679 14.575 10.589 14.623 10.497 14.665 10.402 14.705 10.305 14.742 10.203 14.772 10.101 14.8 9.996 14.822 9.892 14.839 9.782 14.852 9.675 14.859 9.563 14.861 9.563 14.756 9.67 14.754 9.772 14.747 9.877 14.735 9.976 14.717 10.076 14.7 10.173 14.672 10.27 14.643 10.362 14.61 10.452 14.57 10.544 14.528 10.629 14.485 10.713 14.433 10.793 14.383 10.871 14.326 10.943 14.266 11.017 14.204 11.085 14.136 11.147 14.069 11.209 13.999 11.266 13.925 11.321 13.85 11.369 13.768 11.414 13.688 11.456 13.604 11.491 13.519 11.523 13.432 11.55 13.339 11.575 13.25 11.591 13.158 11.605 13.063 11.612 12.966 11.614 12.869 11.614 12.869 11.719 12.869"/>
      <polygon fill="#231F20" fill-rule="nonzero" points="9.563 10.881 9.563 10.881 9.675 10.883 9.782 10.89 9.891 10.903 9.996 10.92 10.101 10.942 10.203 10.97 10.305 11 10.402 11.037 10.497 11.077 10.589 11.12 10.679 11.169 10.769 11.219 10.853 11.274 10.935 11.331 11.013 11.396 11.087 11.463 11.159 11.531 11.227 11.603 11.289 11.678 11.351 11.757 11.406 11.837 11.459 11.919 11.508 12.004 11.551 12.093 11.591 12.183 11.623 12.278 11.65 12.37 11.675 12.465 11.695 12.567 11.71 12.666 11.718 12.766 11.72 12.868 11.615 12.868 11.613 12.771 11.606 12.676 11.591 12.582 11.576 12.489 11.551 12.4 11.524 12.308 11.492 12.223 11.457 12.138 11.414 12.054 11.37 11.974 11.322 11.892 11.267 11.817 11.21 11.742 11.148 11.673 11.086 11.605 11.018 11.538 10.944 11.476 10.872 11.416 10.794 11.359 10.714 11.309 10.63 11.259 10.545 11.214 10.453 11.172 10.363 11.132 10.271 11.099 10.174 11.069 10.077 11.042 9.977 11.025 9.877 11.007 9.773 10.995 9.671 10.988 9.564 10.985 9.564 10.985 9.564 10.88"/>
      <polygon fill="#231F20" fill-rule="nonzero" points="7.41 12.869 7.41 12.869 7.412 12.767 7.42 12.667 7.435 12.568 7.455 12.466 7.48 12.371 7.507 12.279 7.54 12.184 7.58 12.094 7.622 12.005 7.672 11.92 7.724 11.838 7.779 11.758 7.841 11.679 7.903 11.604 7.971 11.531 8.043 11.464 8.115 11.397 8.195 11.332 8.277 11.275 8.362 11.22 8.449 11.17 8.539 11.12 8.631 11.078 8.726 11.038 8.823 11.001 8.925 10.971 9.027 10.943 9.129 10.921 9.236 10.903 9.344 10.891 9.453 10.884 9.563 10.882 9.563 10.987 9.458 10.99 9.353 10.997 9.251 11.009 9.149 11.027 9.052 11.044 8.955 11.072 8.858 11.101 8.766 11.134 8.676 11.174 8.584 11.216 8.499 11.261 8.417 11.311 8.337 11.361 8.26 11.418 8.185 11.478 8.113 11.54 8.046 11.607 7.983 11.675 7.921 11.744 7.864 11.819 7.809 11.894 7.762 11.976 7.717 12.056 7.674 12.14 7.639 12.225 7.607 12.31 7.58 12.402 7.555 12.492 7.54 12.584 7.525 12.678 7.517 12.773 7.515 12.87 7.515 12.87 7.41 12.87"/>
      <polygon fill="#231F20" fill-rule="nonzero" points="9.563 14.862 9.563 14.862 9.453 14.86 9.344 14.853 9.237 14.841 9.129 14.823 9.027 14.801 8.925 14.773 8.823 14.744 8.726 14.706 8.631 14.666 8.539 14.624 8.449 14.576 8.362 14.524 8.277 14.469 8.195 14.412 8.115 14.347 8.043 14.28 7.971 14.213 7.904 14.14 7.841 14.066 7.779 13.986 7.725 13.906 7.672 13.824 7.622 13.74 7.58 13.65 7.54 13.56 7.508 13.463 7.48 13.371 7.455 13.276 7.436 13.174 7.421 13.075 7.413 12.972 7.411 12.87 7.515 12.87 7.517 12.967 7.525 13.065 7.54 13.159 7.555 13.251 7.58 13.341 7.607 13.433 7.64 13.52 7.675 13.605 7.717 13.69 7.762 13.769 7.809 13.852 7.864 13.926 7.921 14.001 7.984 14.071 8.046 14.138 8.113 14.205 8.186 14.268 8.26 14.327 8.338 14.385 8.417 14.435 8.499 14.487 8.584 14.529 8.676 14.572 8.766 14.612 8.858 14.644 8.955 14.674 9.052 14.701 9.149 14.719 9.252 14.736 9.354 14.749 9.458 14.756 9.563 14.758 9.563 14.758 9.563 14.862"/>
      <polygon fill="#231F20" points="9.52 14.179 9.376 14.172 9.237 14.152 9.102 14.12 8.975 14.078 8.85 14.02 8.736 13.956 8.626 13.881 8.526 13.794 8.437 13.702 8.355 13.599 8.285 13.492 8.225 13.378 8.178 13.256 8.143 13.131 8.123 12.999 8.115 12.865 8.123 12.73 8.143 12.6 8.178 12.473 8.225 12.354 8.285 12.239 8.355 12.13 8.437 12.027 8.526 11.935 8.626 11.851 8.736 11.774 8.85 11.709 8.975 11.654 9.102 11.609 9.237 11.577 9.376 11.557 9.52 11.55 9.665 11.557 9.804 11.577 9.939 11.609 10.068 11.654 10.191 11.709 10.308 11.774 10.415 11.851 10.517 11.935 10.606 12.027 10.686 12.13 10.758 12.239 10.818 12.354 10.866 12.473 10.9 12.6 10.92 12.73 10.927 12.865 10.92 12.999 10.9 13.131 10.866 13.256 10.818 13.378 10.758 13.492 10.686 13.599 10.606 13.702 10.517 13.794 10.415 13.881 10.308 13.956 10.191 14.02 10.068 14.078 9.939 14.12 9.804 14.152 9.665 14.172"/>
      <polygon fill="#231F20" fill-rule="nonzero" points="10.945 12.864 10.945 12.864 10.938 13.001 10.918 13.133 10.883 13.26 10.833 13.385 10.774 13.502 10.701 13.609 10.619 13.714 10.529 13.806 10.425 13.895 10.318 13.97 10.198 14.035 10.076 14.095 9.944 14.137 9.807 14.169 9.668 14.189 9.52 14.196 9.52 14.161 9.662 14.154 9.802 14.134 9.934 14.102 10.061 14.06 10.183 14.005 10.298 13.94 10.405 13.865 10.505 13.781 10.594 13.689 10.671 13.589 10.744 13.482 10.804 13.37 10.849 13.25 10.883 13.128 10.903 12.996 10.91 12.864 10.91 12.864 10.945 12.864"/>
      <polygon fill="#231F20" fill-rule="nonzero" points="9.52 11.531 9.52 11.531 9.667 11.538 9.807 11.558 9.944 11.591 10.076 11.636 10.198 11.693 10.317 11.758 10.425 11.835 10.529 11.922 10.619 12.014 10.701 12.119 10.774 12.228 10.833 12.345 10.883 12.467 10.918 12.597 10.938 12.727 10.945 12.864 10.91 12.864 10.903 12.732 10.883 12.602 10.848 12.477 10.804 12.36 10.744 12.248 10.671 12.139 10.594 12.039 10.505 11.947 10.405 11.865 10.298 11.787 10.183 11.723 10.061 11.67 9.934 11.626 9.802 11.593 9.662 11.573 9.52 11.566 9.52 11.566 9.52 11.531"/>
      <polygon fill="#231F20" fill-rule="nonzero" points="8.098 12.864 8.098 12.864 8.106 12.727 8.126 12.598 8.161 12.468 8.21 12.346 8.27 12.229 8.34 12.119 8.425 12.015 8.514 11.923 8.617 11.835 8.726 11.758 8.843 11.693 8.968 11.636 9.097 11.591 9.234 11.559 9.374 11.539 9.521 11.532 9.521 11.567 9.379 11.574 9.24 11.594 9.107 11.626 8.983 11.671 8.858 11.724 8.746 11.788 8.637 11.865 8.54 11.948 8.45 12.04 8.37 12.139 8.3 12.249 8.24 12.361 8.196 12.478 8.161 12.602 8.141 12.732 8.133 12.864 8.133 12.864 8.098 12.864"/>
      <polygon fill="#231F20" fill-rule="nonzero" points="9.52 14.197 9.52 14.197 9.374 14.19 9.234 14.17 9.097 14.137 8.967 14.095 8.843 14.035 8.726 13.971 8.616 13.896 8.514 13.806 8.424 13.714 8.34 13.61 8.27 13.502 8.21 13.385 8.16 13.261 8.125 13.134 8.105 13.002 8.097 12.865 8.132 12.865 8.14 12.997 8.16 13.129 8.195 13.251 8.24 13.37 8.3 13.483 8.37 13.59 8.449 13.689 8.539 13.781 8.636 13.866 8.745 13.941 8.858 14.006 8.982 14.06 9.107 14.103 9.239 14.135 9.378 14.155 9.52 14.162 9.52 14.162 9.52 14.197"/>
      <polygon fill="#231F20" points="9.002 14.013 10.118 13.95 10.126 13.95 10.133 13.958 10.148 13.971 10.166 13.991 10.186 14.013 10.213 14.043 10.243 14.075 10.28 14.113 10.323 14.155 10.373 14.2 10.427 14.25 10.49 14.302 10.559 14.36 10.639 14.417 10.726 14.479 10.821 14.542 10.883 14.581 10.945 14.619 11.005 14.656 11.067 14.691 11.13 14.726 11.192 14.758 11.252 14.793 11.314 14.826 11.376 14.858 11.436 14.89 11.498 14.923 11.561 14.955 11.623 14.99 11.685 15.023 11.75 15.055 11.812 15.09 11.835 15.105 11.859 15.12 11.882 15.14 11.902 15.16 11.922 15.182 11.942 15.207 11.959 15.229 11.974 15.252 12.002 15.304 12.029 15.354 12.051 15.406 12.076 15.459 12.099 15.513 12.118 15.566 12.138 15.621 12.158 15.675 12.176 15.728 12.196 15.782 12.213 15.837 12.23 15.892 12.248 15.95 12.266 16.004 12.285 16.059 12.303 16.114 12.325 16.179 12.348 16.246 12.368 16.311 12.39 16.376 12.412 16.441 12.435 16.505 12.457 16.57 12.48 16.635 12.5 16.699 12.522 16.762 12.544 16.827 12.567 16.892 12.587 16.956 12.609 17.021 12.632 17.086 12.651 17.148 12.674 17.213 12.694 17.278 12.716 17.343 12.736 17.407 12.756 17.472 12.778 17.537 12.798 17.604 12.818 17.669 12.838 17.734 12.858 17.801 12.878 17.866 12.898 17.933 12.915 17.998 12.935 18.065 12.955 18.133 12.973 18.2 12.985 18.245 12.998 18.292 13.01 18.339 13.02 18.387 13.028 18.434 13.035 18.482 13.04 18.529 13.043 18.576 13.043 18.624 13.035 18.668 13.028 18.713 13.013 18.756 12.993 18.798 12.969 18.838 12.936 18.875 12.899 18.91 12.871 18.93 12.844 18.95 12.811 18.965 12.779 18.98 12.747 18.992 12.714 19 12.682 19.007 12.652 19.012 11.486 19.03 11.489 19.052 11.496 19.115 11.509 19.217 11.526 19.356 11.549 19.528 11.574 19.732 11.601 19.964 11.633 20.221 11.668 20.502 11.706 20.804 11.746 21.122 11.788 21.454 11.83 21.8 11.875 22.156 11.92 22.52 11.965 22.886 12.012 23.255 12.057 23.623 12.104 23.987 12.149 24.346 12.192 24.695 12.234 25.034 12.276 25.357 12.314 25.664 12.351 25.95 12.386 26.214 12.416 26.456 12.443 26.668 12.468 26.85 12.488 26.999 12.503 27.114 12.515 27.188 12.376 27.258 12.241 27.323 12.114 27.388 11.992 27.45 11.875 27.51 11.763 27.567 11.659 27.622 11.556 27.674 11.462 27.724 11.372 27.771 11.285 27.816 11.203 27.859 11.126 27.899 11.053 27.933 10.986 27.966 10.921 27.996 10.859 28.023 10.802 28.046 10.75 28.066 10.699 28.083 10.652 28.098 10.607 28.108 10.568 28.115 10.53 28.118 10.493 28.118 10.461 28.113 10.431 28.106 10.403 28.093 10.376 28.078 10.351 28.059 10.328 28.034 10.308 28.006 10.279 27.951 10.264 27.899 10.259 27.849 10.267 27.797 10.286 27.745 10.319 27.692 10.359 27.637 10.411 27.582 10.473 27.523 10.543 27.458 10.625 27.391 10.712 27.316 10.809 27.236 10.914 27.152 11.026 27.059 11.143 26.957 11.183 26.92 11.206 26.888 11.218 26.86 11.221 26.838 11.214 26.82 11.202 26.805 11.187 26.793 11.169 26.786 9.767 26.786 8.436 19.925 8.429 19.927 8.412 19.929 8.387 19.936 8.359 19.941 8.329 19.948 8.304 19.956 8.287 19.958 8.28 19.96 8.282 19.98 8.294 20.037 8.312 20.13 8.334 20.254 8.364 20.409 8.399 20.59 8.436 20.797 8.481 21.026 8.526 21.275 8.578 21.542 8.631 21.824 8.685 22.118 8.743 22.424 8.803 22.735 8.862 23.052 8.922 23.371 8.982 23.692 9.042 24.008 9.102 24.32 9.159 24.626 9.214 24.92 9.266 25.202 9.319 25.471 9.363 25.72 9.408 25.951 9.446 26.158 9.48 26.342 9.51 26.497 9.533 26.624 9.55 26.716 9.563 26.776 9.565 26.796 9.56 26.796 9.545 26.796 9.517 26.796 9.482 26.796 9.44 26.796 9.388 26.796 9.328 26.796 9.261 26.796 9.186 26.798 9.106 26.798 9.022 26.798 8.929 26.798 8.835 26.798 8.735 26.798 8.631 26.798 8.523 26.798 8.414 26.798 8.304 26.798 8.19 26.798 8.075 26.798 7.96 26.798 7.846 26.798 7.731 26.798 7.619 26.798 7.507 26.798 7.397 26.798 7.288 26.798 7.186 26.798 7.084 26.798 6.986 26.796 6.894 26.796 6.807 26.796 6.81 26.771 6.815 26.694 6.825 26.572 6.84 26.407 6.855 26.203 6.875 25.961 6.897 25.687 6.922 25.383 6.95 25.055 6.977 24.701 7.009 24.327 7.039 23.936 7.074 23.535 7.106 23.121 7.141 22.703 7.176 22.279 7.209 21.856 7.243 21.437 7.276 21.024 7.311 20.623 7.341 20.232 7.373 19.861 7.4 19.507 7.428 19.178 7.453 18.874 7.475 18.603 7.495 18.361 7.51 18.159 7.525 17.995 7.535 17.875 7.54 17.8 7.543 17.775 7.426 17.775 7.314 17.775 7.207 17.775 7.107 17.775 7.01 17.775 6.915 17.775 6.828 17.775 6.741 17.775 6.659 17.773 6.579 17.773 6.499 17.773 6.424 17.773 6.35 17.773 6.277 17.773 6.203 17.771 6.133 17.771 6.061 17.771 5.988 17.771 5.914 17.771 5.841 17.771 5.766 17.771 5.689 17.771 5.61 17.771 5.528 17.771 5.443 17.771 5.355 17.771 5.266 17.773 5.169 17.773 5.069 17.773 4.967 17.775 4.857 17.775 4.743 17.777 4.641 16.764 4.703 16.762 4.768 16.76 4.832 16.755 4.9 16.75 4.967 16.742 5.034 16.737 5.101 16.727 5.169 16.72 5.238 16.71 5.306 16.699 5.373 16.687 5.443 16.675 5.507 16.662 5.575 16.647 5.639 16.632 5.704 16.615 5.714 16.612 5.732 16.607 5.754 16.602 5.784 16.595 5.819 16.585 5.858 16.575 5.903 16.56 5.953 16.547 6.008 16.532 6.065 16.515 6.128 16.495 6.192 16.475 6.26 16.455 6.329 16.433 6.402 16.408 6.474 16.383 6.549 16.356 6.626 16.328 6.701 16.301 6.778 16.271 6.855 16.241 6.93 16.208 7.007 16.176 7.079 16.141 7.152 16.109 7.221 16.071 7.291 16.036 7.356 15.999 7.418 15.962 7.478 15.924 7.533 15.884 7.583 15.844 7.657 15.782 7.73 15.72 7.805 15.658 7.874 15.595 7.946 15.533 8.014 15.468 8.084 15.403 8.151 15.336 8.216 15.269 8.278 15.201 8.34 15.129 8.4 15.057 8.457 14.982 8.514 14.905 8.567 14.823 8.619 14.741 9.005 14.013 9.005 14.013"/>
      <polygon fill="#FFF" points="10.263 13.141 10.258 13.093 10.258 13.041 10.261 12.984 10.263 12.924 10.268 12.859 10.271 12.794 10.271 12.729 10.271 12.665 10.264 12.602 10.254 12.543 10.236 12.488 10.214 12.438 10.181 12.396 10.142 12.361 10.092 12.333 10.03 12.316 9.943 12.303 9.855 12.293 9.763 12.285 9.671 12.283 9.579 12.283 9.487 12.285 9.397 12.293 9.31 12.303 9.228 12.318 9.148 12.336 9.076 12.358 9.009 12.383 8.949 12.413 8.899 12.446 8.857 12.483 8.827 12.525 8.804 12.575 8.789 12.637 8.777 12.71 8.772 12.792 8.772 12.881 8.774 12.974 8.782 13.073 8.792 13.17 8.804 13.27 8.817 13.367 8.834 13.462 8.852 13.551 8.872 13.634 8.889 13.708 8.909 13.771 8.926 13.823 8.959 13.9 8.989 13.96 9.019 14.005 9.049 14.037 9.079 14.062 9.108 14.077 9.141 14.092 9.176 14.107 9.248 14.104 9.325 14.102 9.405 14.102 9.487 14.102 9.569 14.099 9.652 14.097 9.731 14.092 9.809 14.084 9.881 14.072 9.95 14.057 10.015 14.034 10.072 14.007 10.12 13.972 10.162 13.932 10.192 13.882 10.212 13.822 10.224 13.763 10.237 13.708 10.244 13.658 10.254 13.613 10.259 13.571 10.264 13.531 10.266 13.493 10.268 13.459 10.271 13.424 10.271 13.389 10.271 13.354 10.271 13.317 10.268 13.277 10.266 13.234 10.266 13.189 10.264 13.14 10.264 13.14"/>
      <polygon fill="#231F20" points="9.371 12.822 9.359 12.797 9.338 12.777 9.314 12.759 9.281 12.747 9.246 12.739 9.209 12.732 9.169 12.729 9.129 12.729 9.087 12.734 9.049 12.739 9.015 12.747 8.982 12.757 8.957 12.767 8.937 12.782 8.925 12.797 8.923 12.812 8.943 12.849 8.98 12.862 9.03 12.855 9.09 12.842 9.15 12.832 9.207 12.832 9.257 12.852 9.292 12.905 9.292 12.944 9.289 12.987 9.287 13.034 9.284 13.084 9.282 13.136 9.279 13.189 9.277 13.241 9.275 13.291 9.275 13.341 9.273 13.388 9.273 13.43 9.275 13.468 9.277 13.5 9.282 13.525 9.287 13.543 9.294 13.553 9.321 13.563 9.366 13.568 9.423 13.573 9.483 13.576 9.545 13.576 9.6 13.576 9.647 13.576 9.677 13.573 9.677 13.505 9.398 13.503 9.383 13.468 9.373 13.431 9.365 13.389 9.363 13.344 9.361 13.296 9.361 13.247 9.363 13.197 9.365 13.144 9.367 13.094 9.369 13.047 9.372 13 9.374 12.955 9.377 12.915 9.377 12.88 9.374 12.848 9.369 12.823 9.369 12.823"/>
      <polygon fill="#FFF" points="10.068 14.787 9.074 14.787 8.98 14.042 9.184 14.541 9.924 14.541 10.165 14.008 10.069 14.787 10.069 14.787"/>
      <polygon fill="#231F20" points="9.07 13.141 9.052 13.139 9.035 13.134 9.02 13.129 9.01 13.116 8.997 13.106 8.992 13.091 8.987 13.074 8.985 13.056 8.987 13.041 8.992 13.026 8.997 13.011 9.01 12.999 9.02 12.989 9.035 12.982 9.052 12.977 9.07 12.974 9.085 12.977 9.1 12.982 9.115 12.989 9.127 12.999 9.137 13.011 9.144 13.026 9.149 13.041 9.152 13.056 9.149 13.074 9.144 13.091 9.137 13.106 9.127 13.116 9.115 13.129 9.1 13.134 9.085 13.139"/>
      <polygon fill="#231F20" points="9.847 13.138 9.829 13.136 9.814 13.131 9.799 13.124 9.787 13.114 9.777 13.102 9.769 13.087 9.764 13.072 9.762 13.054 9.764 13.037 9.769 13.022 9.777 13.009 9.787 12.997 9.799 12.987 9.814 12.979 9.829 12.974 9.847 12.972 9.862 12.974 9.877 12.979 9.892 12.987 9.904 12.997 9.914 13.009 9.921 13.022 9.926 13.037 9.928 13.054 9.926 13.072 9.921 13.087 9.914 13.102 9.904 13.114 9.892 13.124 9.877 13.131 9.862 13.136"/>
      <polygon fill="#FDD213" points="4.792 27.719 4.364 27.774 2.381 11.786 2.956 11.723 4.792 27.719 4.792 27.719"/>
      <polygon fill="#231F20" fill-rule="nonzero" points="2.951 11.671 3.001 11.666 3.008 11.718 2.951 11.671 3.008 11.718 4.844 27.714 4.74 27.724 2.904 11.728 2.961 11.776 2.951 11.671 2.951 11.671"/>
      <polygon fill="#231F20" fill-rule="nonzero" points="2.329 11.793 2.324 11.738 2.376 11.733 2.329 11.793 2.376 11.733 2.951 11.671 2.961 11.775 2.386 11.838 2.433 11.778 2.329 11.793 2.329 11.793"/>
      <polygon fill="#231F20" fill-rule="nonzero" points="4.371 27.826 4.319 27.831 4.311 27.781 4.371 27.826 4.311 27.781 2.328 11.793 2.433 11.778 4.416 27.766 4.356 27.721 4.371 27.826 4.371 27.826"/>
      <polygon fill="#231F20" fill-rule="nonzero" points="4.844 27.714 4.849 27.764 4.799 27.772 4.844 27.714 4.799 27.772 4.371 27.826 4.356 27.722 4.784 27.667 4.74 27.724 4.844 27.714 4.844 27.714"/>
      <polygon fill="#FDD213" points="2.685 12.025 2.62 12.03 2.555 12.032 2.495 12.027 2.436 12.02 2.378 12.01 2.323 11.995 2.271 11.975 2.224 11.952 2.179 11.927 2.139 11.9 2.102 11.868 2.072 11.833 2.044 11.795 2.025 11.756 2.01 11.716 2.002 11.671 2 11.626 2.005 11.584 2.015 11.539 2.03 11.496 2.052 11.457 2.079 11.417 2.112 11.379 2.149 11.344 2.189 11.312 2.234 11.279 2.284 11.252 2.339 11.227 2.394 11.207 2.453 11.187 2.516 11.175 2.58 11.165 2.645 11.16 2.707 11.158 2.769 11.16 2.829 11.167 2.887 11.177 2.942 11.192 2.991 11.212 3.041 11.234 3.084 11.259 3.126 11.286 3.161 11.319 3.193 11.354 3.218 11.391 3.238 11.431 3.253 11.471 3.263 11.516 3.266 11.561 3.261 11.605 3.251 11.648 3.236 11.69 3.213 11.73 3.186 11.77 3.154 11.807 3.116 11.845 3.074 11.877 3.029 11.907 2.979 11.935 2.927 11.959 2.87 11.982 2.812 11.999 2.75 12.014 2.685 12.024 2.685 12.024"/>
      <polygon fill="#231F20" fill-rule="nonzero" points="3.315 11.509 3.315 11.509 3.317 11.564 3.312 11.616 3.299 11.663 3.282 11.713 3.257 11.758 3.227 11.803 3.19 11.843 3.15 11.885 3.103 11.92 3.055 11.952 3.003 11.982 2.946 12.007 2.886 12.032 2.824 12.05 2.759 12.067 2.689 12.077 2.679 11.972 2.739 11.962 2.798 11.95 2.851 11.932 2.906 11.912 2.953 11.887 3 11.863 3.042 11.835 3.08 11.805 3.115 11.773 3.142 11.738 3.167 11.703 3.187 11.668 3.2 11.633 3.207 11.596 3.212 11.559 3.209 11.524 3.209 11.524 3.313 11.509 3.313 11.509"/>
      <polygon fill="#231F20" fill-rule="nonzero" points="2.575 11.113 2.572 11.113 2.642 11.108 2.707 11.106 2.774 11.108 2.836 11.115 2.899 11.127 2.959 11.142 3.011 11.165 3.066 11.187 3.111 11.215 3.158 11.244 3.198 11.282 3.233 11.322 3.263 11.364 3.285 11.411 3.302 11.456 3.315 11.509 3.21 11.524 3.203 11.486 3.19 11.451 3.173 11.419 3.153 11.387 3.123 11.357 3.093 11.329 3.056 11.304 3.016 11.282 2.971 11.259 2.924 11.242 2.874 11.227 2.822 11.22 2.764 11.212 2.707 11.209 2.647 11.212 2.588 11.217 2.585 11.217 2.575 11.113 2.575 11.113"/>
      <polygon fill="#231F20" fill-rule="nonzero" points="1.95 11.676 1.95 11.679 1.948 11.624 1.953 11.574 1.965 11.524 1.983 11.474 2.008 11.429 2.038 11.385 2.075 11.342 2.115 11.305 2.157 11.27 2.207 11.235 2.262 11.205 2.319 11.18 2.376 11.158 2.441 11.138 2.506 11.123 2.576 11.113 2.586 11.217 2.526 11.227 2.466 11.237 2.412 11.257 2.359 11.275 2.307 11.3 2.262 11.325 2.222 11.354 2.185 11.384 2.15 11.417 2.123 11.449 2.098 11.484 2.078 11.519 2.065 11.554 2.058 11.594 2.053 11.629 2.056 11.664 2.056 11.666 1.951 11.676 1.951 11.676"/>
      <polygon fill="#231F20" fill-rule="nonzero" points="2.69 12.077 2.69 12.077 2.623 12.082 2.555 12.085 2.49 12.08 2.428 12.073 2.366 12.06 2.308 12.046 2.251 12.023 2.199 12.001 2.151 11.973 2.107 11.943 2.064 11.906 2.032 11.866 1.999 11.824 1.977 11.776 1.959 11.729 1.949 11.676 2.054 11.666 2.059 11.704 2.072 11.736 2.089 11.769 2.111 11.801 2.139 11.831 2.171 11.858 2.206 11.883 2.248 11.906 2.291 11.928 2.338 11.945 2.391 11.96 2.443 11.968 2.5 11.975 2.555 11.98 2.617 11.978 2.68 11.973 2.68 11.973 2.69 12.078 2.69 12.078"/>
      <polygon fill="#FDD213" points="3.146 16.1 3.083 16.105 3.023 16.105 2.964 16.103 2.906 16.096 2.852 16.086 2.802 16.071 2.752 16.054 2.704 16.031 2.662 16.006 2.622 15.979 2.59 15.949 2.558 15.914 2.533 15.879 2.513 15.842 2.498 15.802 2.49 15.76 2.488 15.717 2.493 15.675 2.503 15.635 2.518 15.595 2.54 15.555 2.565 15.518 2.598 15.48 2.632 15.448 2.672 15.416 2.715 15.386 2.762 15.358 2.814 15.336 2.867 15.316 2.924 15.299 2.984 15.284 3.046 15.274 3.109 15.269 3.168 15.267 3.228 15.269 3.285 15.277 3.34 15.287 3.392 15.302 3.442 15.322 3.49 15.342 3.532 15.366 3.569 15.394 3.604 15.424 3.634 15.459 3.659 15.493 3.679 15.531 3.694 15.571 3.701 15.613 3.703 15.656 3.698 15.698 3.688 15.74 3.673 15.78 3.653 15.82 3.626 15.857 3.596 15.895 3.561 15.927 3.521 15.96 3.476 15.989 3.429 16.017 3.377 16.042 3.324 16.062 3.267 16.079 3.207 16.092 3.145 16.102 3.145 16.102"/>
      <polygon fill="#231F20" fill-rule="nonzero" points="3.753 15.607 3.753 15.604 3.755 15.656 3.75 15.706 3.738 15.754 3.721 15.798 3.698 15.846 3.668 15.888 3.633 15.928 3.596 15.965 3.551 16 3.504 16.033 3.454 16.062 3.396 16.088 3.342 16.11 3.28 16.127 3.217 16.142 3.15 16.152 3.14 16.048 3.197 16.038 3.254 16.028 3.307 16.01 3.357 15.993 3.404 15.968 3.449 15.943 3.491 15.916 3.526 15.886 3.559 15.858 3.584 15.823 3.608 15.791 3.626 15.759 3.638 15.724 3.646 15.686 3.651 15.651 3.649 15.619 3.649 15.617 3.754 15.607 3.754 15.607"/>
      <polygon fill="#231F20" fill-rule="nonzero" points="3.038 15.221 3.038 15.221 3.106 15.216 3.168 15.214 3.233 15.216 3.293 15.224 3.352 15.236 3.409 15.251 3.462 15.273 3.512 15.293 3.559 15.321 3.602 15.353 3.641 15.386 3.674 15.425 3.704 15.465 3.726 15.508 3.743 15.557 3.754 15.607 3.649 15.617 3.644 15.582 3.631 15.553 3.614 15.52 3.594 15.49 3.567 15.46 3.537 15.433 3.505 15.411 3.467 15.388 3.422 15.368 3.375 15.351 3.328 15.336 3.278 15.329 3.223 15.322 3.168 15.32 3.111 15.322 3.053 15.327 3.053 15.327 3.039 15.222 3.039 15.222"/>
      <polygon fill="#231F20" fill-rule="nonzero" points="2.438 15.766 2.438 15.763 2.436 15.714 2.441 15.664 2.454 15.619 2.471 15.572 2.496 15.527 2.523 15.484 2.561 15.442 2.598 15.407 2.64 15.372 2.688 15.34 2.74 15.31 2.795 15.288 2.85 15.265 2.909 15.248 2.974 15.23 3.039 15.22 3.054 15.325 2.994 15.335 2.939 15.348 2.885 15.365 2.835 15.382 2.785 15.405 2.743 15.43 2.705 15.457 2.668 15.487 2.635 15.517 2.608 15.549 2.585 15.582 2.566 15.617 2.553 15.649 2.546 15.684 2.541 15.719 2.544 15.754 2.544 15.752 2.439 15.767 2.439 15.767"/>
      <polygon fill="#231F20" fill-rule="nonzero" points="3.15 16.152 3.15 16.152 3.086 16.157 3.023 16.157 2.959 16.155 2.899 16.148 2.839 16.136 2.787 16.121 2.732 16.101 2.68 16.079 2.635 16.051 2.59 16.019 2.553 15.986 2.518 15.946 2.488 15.907 2.465 15.864 2.448 15.814 2.438 15.767 2.543 15.752 2.548 15.789 2.56 15.819 2.578 15.852 2.597 15.882 2.627 15.912 2.655 15.939 2.69 15.961 2.73 15.984 2.772 16.006 2.817 16.021 2.864 16.036 2.914 16.043 2.969 16.05 3.023 16.052 3.081 16.052 3.141 16.047 3.141 16.047 3.151 16.152 3.151 16.152"/>
      <polygon fill="#FFF" points="3.594 17.774 3.701 17.042 3.768 17.052 3.821 17.077 3.861 17.107 3.893 17.141 3.913 17.176 3.925 17.206 3.933 17.226 3.936 17.234 3.916 17.199 3.896 17.167 3.879 17.14 3.864 17.115 3.849 17.092 3.836 17.075 3.821 17.057 3.809 17.045 3.774 17.02 3.737 17 3.697 16.985 3.66 16.97 3.627 16.962 3.602 16.955 3.585 16.95 3.577 16.95 2.951 16.953 2.917 16.948 2.884 16.938 2.854 16.921 2.827 16.898 2.805 16.871 2.79 16.838 2.777 16.801 2.775 16.764 2.775 16.764 2.915 16.764 3.037 16.764 3.146 16.764 3.241 16.764 3.326 16.764 3.403 16.764 3.475 16.764 3.542 16.764 3.607 16.764 3.672 16.764 3.739 16.764 3.812 16.764 3.889 16.764 3.976 16.764 4.07 16.764 4.18 16.764 6.367 16.764 4.639 16.764 4.741 17.778 7.653 17.778 3.595 17.776 3.595 17.776"/>
      <polygon fill="#231F20" fill-rule="nonzero" points="7.652 17.724 7.652 17.829 3.594 17.827 3.594 17.722 7.652 17.725 7.652 17.83 7.652 17.725"/>
      <polygon fill="#231F20" fill-rule="nonzero" points="4.74 17.829 4.692 17.829 4.687 17.782 4.792 17.772 4.74 17.724 7.652 17.724 7.652 17.829 4.74 17.829 4.687 17.782 4.74 17.829 4.74 17.829"/>
      <polygon fill="#231F20" fill-rule="nonzero" points="4.585 16.768 4.58 16.71 4.638 16.71 4.638 16.815 4.69 16.758 4.792 17.772 4.687 17.782 4.585 16.768 4.638 16.71 4.585 16.768 4.585 16.768"/>
      <polygon fill="#231F20" fill-rule="nonzero" points="6.367 16.71 6.367 16.815 4.638 16.815 4.638 16.71 6.367 16.71 6.367 16.815"/>
      <polygon fill="#231F20" fill-rule="nonzero" points="4.179 16.71 4.179 16.71 6.367 16.71 6.367 16.815 4.179 16.815 4.179 16.815"/>
      <polygon fill="#231F20" fill-rule="nonzero" points="2.722 16.763 2.722 16.71 2.774 16.71 2.722 16.763 2.774 16.71 2.914 16.71 3.036 16.71 3.146 16.71 3.24 16.71 3.325 16.71 3.402 16.71 3.475 16.71 3.542 16.71 3.606 16.71 3.671 16.71 3.739 16.71 3.811 16.71 3.888 16.71 3.975 16.71 4.07 16.71 4.18 16.71 4.18 16.815 4.07 16.815 3.975 16.815 3.888 16.815 3.811 16.815 3.739 16.815 3.671 16.815 3.606 16.815 3.542 16.815 3.475 16.815 3.402 16.815 3.325 16.815 3.24 16.815 3.146 16.815 3.036 16.815 2.914 16.815 2.774 16.815 2.827 16.763 2.722 16.763"/>
      <polygon fill="#231F20" fill-rule="nonzero" points="2.722 16.763 2.722 16.71 2.774 16.71 2.722 16.763 2.774 16.763 2.774 16.763 2.774 16.763 2.774 16.763 2.827 16.763 2.722 16.763"/>
      <polygon fill="#231F20" fill-rule="nonzero" points="2.951 17.005 2.951 17.005 2.904 16.997 2.864 16.984 2.824 16.962 2.789 16.934 2.759 16.897 2.739 16.857 2.724 16.81 2.721 16.762 2.826 16.762 2.828 16.789 2.838 16.817 2.848 16.842 2.863 16.859 2.883 16.877 2.903 16.889 2.928 16.896 2.95 16.898 2.95 16.898 2.95 17.003"/>
      <polygon fill="#231F20" fill-rule="nonzero" points="3.567 17.002 3.577 17.002 2.951 17.005 2.951 16.9 3.577 16.898 3.587 16.898 3.567 17.003 3.567 17.003"/>
      <polygon fill="#231F20" fill-rule="nonzero" points="3.773 17.082 3.775 17.084 3.745 17.064 3.713 17.046 3.676 17.034 3.643 17.019 3.614 17.012 3.586 17.005 3.574 17.002 3.567 17.002 3.586 16.897 3.593 16.897 3.616 16.904 3.638 16.911 3.673 16.919 3.715 16.934 3.758 16.952 3.8 16.974 3.84 17.004 3.843 17.006 3.773 17.081 3.773 17.081"/>
      <polygon fill="#231F20" fill-rule="nonzero" points="3.987 17.224 3.89 17.261 3.87 17.226 3.85 17.194 3.833 17.166 3.818 17.141 3.806 17.122 3.796 17.107 3.781 17.092 3.773 17.082 3.843 17.007 3.86 17.022 3.875 17.042 3.89 17.062 3.907 17.087 3.922 17.112 3.94 17.139 3.96 17.171 3.98 17.206 3.882 17.244 3.987 17.224 3.987 17.224"/>
      <polygon fill="#231F20" fill-rule="nonzero" points="3.703 16.99 3.783 17.002 3.848 17.032 3.895 17.067 3.935 17.109 3.96 17.154 3.973 17.186 3.983 17.209 3.988 17.224 3.883 17.244 3.883 17.244 3.878 17.226 3.866 17.199 3.851 17.174 3.826 17.146 3.793 17.122 3.754 17.102 3.699 17.095 3.704 16.99 3.704 16.99"/>
      <polygon fill="#231F20" points="7.505 27.806 5.584 27.806 5.522 27.801 5.465 27.781 5.415 27.754 5.37 27.716 5.333 27.671 5.305 27.619 5.285 27.562 5.28 27.499 5.28 27.499 5.285 27.437 5.305 27.38 5.333 27.33 5.37 27.283 5.415 27.248 5.465 27.218 5.522 27.2 5.584 27.195 5.589 27.195 5.607 27.195 5.632 27.195 5.667 27.195 5.707 27.195 5.756 27.193 5.809 27.193 5.866 27.191 5.928 27.188 5.99 27.186 6.055 27.184 6.12 27.181 6.185 27.176 6.247 27.171 6.307 27.166 6.362 27.159 6.414 27.152 6.464 27.14 6.509 27.125 6.551 27.11 6.588 27.093 6.623 27.073 6.656 27.053 6.686 27.033 6.711 27.013 6.731 26.995 6.748 26.978 6.763 26.963 6.776 26.95 6.783 26.94 6.788 26.935 6.79 26.933 7.819 26.933 7.819 26.938 7.819 26.951 7.819 26.971 7.819 26.998 7.817 27.031 7.817 27.068 7.817 27.11 7.817 27.153 7.815 27.2 7.815 27.247 7.815 27.295 7.812 27.342 7.812 27.387 7.812 27.429 7.812 27.467 7.812 27.502 7.812 27.502 7.807 27.564 7.787 27.621 7.759 27.674 7.722 27.718 7.677 27.756 7.625 27.783 7.567 27.803 7.505 27.808 7.505 27.808"/>
      <polygon fill="#231F20" points="9.602 12.834 9.595 12.812 9.61 12.787 9.638 12.759 9.68 12.735 9.728 12.712 9.777 12.695 9.827 12.682 9.87 12.68 9.937 12.688 10.002 12.706 10.061 12.725 10.114 12.753 10.151 12.78 10.176 12.808 10.181 12.833 10.166 12.855 10.141 12.865 10.111 12.862 10.079 12.852 10.044 12.835 10.004 12.817 9.962 12.8 9.919 12.785 9.875 12.78 9.85 12.785 9.817 12.797 9.782 12.815 9.743 12.832 9.7 12.847 9.663 12.857 9.63 12.852 9.603 12.835 9.603 12.835"/>
      <polygon fill="#231F20" points="9.697 13.89 9.311 13.89 9.286 13.885 9.266 13.87 9.254 13.851 9.249 13.826 9.249 13.826 9.254 13.801 9.266 13.781 9.286 13.768 9.311 13.763 9.697 13.763 9.72 13.768 9.74 13.781 9.754 13.801 9.759 13.826 9.759 13.826 9.754 13.851 9.74 13.87 9.72 13.885"/>
      <polygon fill="#FFF" points="8.611 18.611 8.888 18.616 8.484 18.613 8.462 18.616 8.442 18.621 8.424 18.631 8.409 18.644 8.394 18.659 8.384 18.674 8.379 18.694 8.377 18.713 8.377 18.713 8.379 18.733 8.384 18.751 8.394 18.766 8.409 18.781 8.424 18.793 8.442 18.8 8.462 18.805 8.484 18.808 9.812 18.818 9.652 18.816 9.737 18.816 9.799 18.816 9.844 18.811 9.874 18.796 9.887 18.774 9.889 18.734 9.884 18.677 9.871 18.599 9.809 18.079 9.796 17.994 9.791 17.934 9.789 17.892 9.781 17.867 9.764 17.852 9.729 17.847 9.677 17.847 9.597 17.847 9.597 17.847 8.576 17.847 8.553 17.849 8.533 17.854 8.513 17.861 8.498 17.873 8.483 17.886 8.473 17.903 8.468 17.921 8.466 17.941 8.466 17.941 8.468 17.961 8.473 17.978 8.483 17.993 8.498 18.008 8.513 18.021 8.533 18.028 8.553 18.033 8.576 18.036 9.014 18.036 8.728 18.038 8.611 18.611 8.611 18.611"/>
      <polygon fill="#231F20" fill-rule="nonzero" points="8.693 18.031 8.701 18.003 8.728 18.003 8.728 18.073 8.764 18.046 8.646 18.619 8.576 18.604 8.694 18.031 8.728 18.003 8.694 18.031 8.694 18.031"/>
      <polygon fill="#231F20" fill-rule="nonzero" points="9.015 18.001 9.015 18.071 8.728 18.073 8.728 18.003 9.015 18.001 9.015 18.071"/>
      <polygon fill="#231F20" fill-rule="nonzero" points="8.576 18.001 8.576 18.001 9.015 18.001 9.015 18.071 8.576 18.071 8.576 18.071"/>
      <polygon fill="#231F20" fill-rule="nonzero" points="8.501 17.941 8.501 17.941 8.504 17.954 8.506 17.964 8.511 17.971 8.521 17.983 8.531 17.99 8.544 17.995 8.559 17.998 8.576 18 8.576 18.07 8.549 18.068 8.524 18.061 8.497 18.051 8.477 18.033 8.457 18.016 8.442 17.993 8.434 17.969 8.432 17.941 8.432 17.941 8.501 17.941"/>
      <polygon fill="#231F20" fill-rule="nonzero" points="8.501 17.941 8.467 17.941 8.467 17.941 8.467 17.941 8.467 17.941 8.432 17.941 8.501 17.941"/>
      <polygon fill="#231F20" fill-rule="nonzero" points="8.576 17.881 8.576 17.881 8.559 17.883 8.544 17.885 8.531 17.89 8.521 17.9 8.511 17.907 8.506 17.914 8.504 17.927 8.501 17.939 8.432 17.939 8.434 17.912 8.442 17.889 8.457 17.862 8.477 17.844 8.496 17.83 8.524 17.82 8.549 17.812 8.576 17.81 8.576 17.81 8.576 17.879"/>
      <polygon fill="#231F20" fill-rule="nonzero" points="9.598 17.881 9.598 17.881 8.576 17.881 8.576 17.811 9.598 17.811 9.598 17.811"/>
      <polygon fill="#231F20" fill-rule="nonzero" points="9.598 17.881 9.598 17.846 9.598 17.846 9.598 17.846 9.598 17.846 9.598 17.811"/>
      <polygon fill="#231F20" fill-rule="nonzero" points="9.775 18.083 9.775 18.083 9.762 17.998 9.757 17.936 9.754 17.896 9.751 17.884 9.751 17.884 9.726 17.882 9.676 17.882 9.597 17.882 9.597 17.812 9.676 17.812 9.731 17.812 9.776 17.819 9.811 17.849 9.824 17.886 9.826 17.931 9.831 17.988 9.843 18.073 9.843 18.073 9.773 18.083 9.773 18.083"/>
      <polygon fill="#231F20" fill-rule="nonzero" points="9.837 18.604 9.837 18.604 9.775 18.083 9.844 18.073 9.906 18.594 9.906 18.594 9.837 18.604 9.837 18.604"/>
      <polygon fill="#231F20" fill-rule="nonzero" points="9.652 18.85 9.652 18.78 9.737 18.78 9.797 18.78 9.834 18.775 9.852 18.77 9.852 18.765 9.854 18.733 9.849 18.681 9.836 18.604 9.906 18.594 9.918 18.671 9.923 18.733 9.92 18.78 9.896 18.82 9.853 18.845 9.801 18.85 9.736 18.85 9.652 18.85 9.652 18.78 9.652 18.85"/>
      <polygon fill="#231F20" fill-rule="nonzero" points="9.812 18.783 9.812 18.853 9.652 18.851 9.652 18.781 9.812 18.784 9.812 18.854 9.812 18.784"/>
      <polygon fill="#231F20" fill-rule="nonzero" points="8.484 18.773 8.484 18.773 9.812 18.783 9.812 18.853 8.484 18.843 8.484 18.843"/>
      <polygon fill="#231F20" fill-rule="nonzero" points="8.412 18.713 8.412 18.713 8.414 18.726 8.416 18.736 8.421 18.743 8.431 18.755 8.441 18.762 8.451 18.767 8.466 18.77 8.483 18.772 8.483 18.842 8.456 18.84 8.431 18.833 8.406 18.823 8.386 18.805 8.367 18.788 8.352 18.766 8.344 18.741 8.342 18.713 8.342 18.713 8.411 18.713"/>
      <polygon fill="#231F20" fill-rule="nonzero" points="8.412 18.713 8.377 18.713 8.377 18.713 8.377 18.713 8.377 18.713 8.342 18.713 8.412 18.713"/>
      <polygon fill="#231F20" fill-rule="nonzero" points="8.484 18.649 8.484 18.649 8.467 18.651 8.454 18.654 8.444 18.659 8.432 18.669 8.421 18.681 8.416 18.686 8.414 18.701 8.412 18.713 8.343 18.713 8.345 18.686 8.353 18.661 8.368 18.636 8.387 18.619 8.405 18.604 8.43 18.589 8.457 18.581 8.484 18.579 8.484 18.579 8.484 18.649"/>
      <polygon fill="#231F20" fill-rule="nonzero" points="8.888 18.581 8.888 18.651 8.484 18.649 8.484 18.579 8.888 18.581 8.888 18.651"/>
      <polygon fill="#231F20" fill-rule="nonzero" points="8.611 18.646 8.569 18.646 8.576 18.604 8.646 18.619 8.611 18.576 8.887 18.581 8.887 18.651 8.611 18.646 8.576 18.604 8.611 18.646 8.611 18.646"/>
      <polygon fill="#FFF" points="3.574 17.181 2.989 17.181 2.969 17.179 2.951 17.172 2.934 17.162 2.921 17.15 2.909 17.132 2.899 17.115 2.894 17.093 2.891 17.07 2.891 17.07 2.894 17.048 2.899 17.028 2.909 17.01 2.921 16.993 2.934 16.98 2.951 16.968 2.969 16.963 2.989 16.961 3.574 16.961 3.594 16.963 3.611 16.968 3.626 16.98 3.641 16.993 3.654 17.01 3.662 17.028 3.667 17.048 3.669 17.07 3.669 17.07 3.667 17.093 3.662 17.115 3.654 17.132 3.641 17.15 3.626 17.162 3.611 17.172 3.594 17.179"/>
      <polygon fill="#231F20" fill-rule="nonzero" points="3.721 17.069 3.721 17.069 3.719 17.099 3.711 17.129 3.699 17.156 3.681 17.184 3.659 17.204 3.636 17.216 3.606 17.229 3.574 17.234 3.574 17.129 3.582 17.129 3.587 17.126 3.594 17.119 3.602 17.114 3.609 17.107 3.611 17.1 3.614 17.085 3.616 17.07 3.616 17.07 3.721 17.07"/>
      <polygon fill="#231F20" fill-rule="nonzero" points="3.721 17.069 3.669 17.069 3.669 17.069 3.669 17.069 3.669 17.069 3.617 17.069 3.721 17.069"/>
      <polygon fill="#231F20" fill-rule="nonzero" points="3.574 16.907 3.574 16.907 3.604 16.909 3.636 16.922 3.659 16.939 3.681 16.957 3.698 16.984 3.711 17.009 3.719 17.036 3.721 17.069 3.616 17.069 3.614 17.056 3.611 17.044 3.609 17.034 3.602 17.027 3.594 17.019 3.587 17.012 3.585 17.014 3.575 17.012 3.575 17.012 3.575 16.907"/>
      <polygon fill="#231F20" fill-rule="nonzero" points="2.989 16.907 2.989 16.907 3.574 16.907 3.574 17.012 2.989 17.012 2.989 17.012"/>
      <polygon fill="#231F20" fill-rule="nonzero" points="2.839 17.069 2.839 17.069 2.842 17.037 2.85 17.007 2.865 16.982 2.882 16.96 2.902 16.94 2.93 16.92 2.96 16.91 2.99 16.908 2.99 17.012 2.98 17.014 2.975 17.014 2.967 17.019 2.962 17.024 2.954 17.037 2.949 17.047 2.946 17.057 2.944 17.069 2.944 17.069 2.839 17.069"/>
      <polygon fill="#231F20" fill-rule="nonzero" points="2.839 17.069 2.891 17.069 2.891 17.069 2.891 17.069 2.891 17.069 2.944 17.069 2.839 17.069"/>
      <polygon fill="#231F20" fill-rule="nonzero" points="2.989 17.234 2.989 17.234 2.956 17.229 2.929 17.219 2.901 17.204 2.882 17.181 2.864 17.159 2.849 17.131 2.841 17.099 2.838 17.069 2.943 17.069 2.945 17.084 2.948 17.097 2.953 17.104 2.961 17.116 2.966 17.118 2.974 17.123 2.981 17.128 2.989 17.128 2.989 17.128 2.989 17.233"/>
      <polygon fill="#231F20" fill-rule="nonzero" points="3.574 17.234 3.574 17.234 2.989 17.234 2.989 17.129 3.574 17.129 3.574 17.129"/>
      <polygon fill="#FFF" points="3.597 17.398 3.021 17.398 3.001 17.396 2.983 17.389 2.969 17.379 2.954 17.367 2.941 17.349 2.933 17.332 2.928 17.312 2.926 17.289 2.926 17.289 2.928 17.267 2.933 17.244 2.941 17.227 2.954 17.21 2.969 17.197 2.983 17.187 3.001 17.18 3.021 17.177 3.597 17.177 3.617 17.18 3.634 17.187 3.651 17.197 3.664 17.21 3.676 17.227 3.683 17.244 3.688 17.267 3.69 17.289 3.69 17.289 3.688 17.312 3.683 17.332 3.676 17.349 3.664 17.367 3.651 17.379 3.634 17.389 3.617 17.396"/>
      <polygon fill="#231F20" fill-rule="nonzero" points="3.743 17.288 3.743 17.288 3.741 17.321 3.733 17.348 3.721 17.373 3.704 17.398 3.684 17.42 3.656 17.435 3.629 17.445 3.597 17.45 3.597 17.346 3.604 17.346 3.611 17.341 3.619 17.336 3.624 17.334 3.632 17.324 3.635 17.314 3.637 17.301 3.639 17.289 3.639 17.289 3.743 17.289"/>
      <polygon fill="#231F20" fill-rule="nonzero" points="3.743 17.288 3.691 17.288 3.691 17.288 3.691 17.288 3.691 17.288 3.639 17.288 3.743 17.288"/>
      <polygon fill="#231F20" fill-rule="nonzero" points="3.597 17.124 3.597 17.124 3.629 17.129 3.656 17.139 3.684 17.154 3.704 17.176 3.721 17.201 3.733 17.229 3.741 17.259 3.743 17.288 3.639 17.288 3.637 17.274 3.635 17.259 3.632 17.251 3.624 17.241 3.619 17.238 3.611 17.233 3.604 17.228 3.597 17.228 3.597 17.228 3.597 17.123"/>
      <polygon fill="#231F20" fill-rule="nonzero" points="3.021 17.124 3.021 17.124 3.597 17.124 3.597 17.229 3.021 17.229 3.021 17.229"/>
      <polygon fill="#231F20" fill-rule="nonzero" points="2.874 17.288 2.874 17.288 2.876 17.258 2.884 17.229 2.896 17.201 2.914 17.174 2.936 17.154 2.959 17.141 2.989 17.129 3.021 17.124 3.021 17.229 3.013 17.229 3.008 17.231 3.001 17.238 2.993 17.243 2.986 17.25 2.983 17.258 2.981 17.273 2.978 17.288 2.978 17.288 2.873 17.288"/>
      <polygon fill="#231F20" fill-rule="nonzero" points="2.874 17.288 2.926 17.288 2.926 17.288 2.926 17.288 2.926 17.288 2.979 17.288 2.874 17.288"/>
      <polygon fill="#231F20" fill-rule="nonzero" points="3.021 17.45 3.021 17.45 2.989 17.445 2.959 17.433 2.936 17.42 2.914 17.4 2.897 17.373 2.884 17.348 2.876 17.321 2.874 17.288 2.979 17.288 2.982 17.301 2.984 17.313 2.987 17.323 2.994 17.33 3.002 17.335 3.009 17.342 3.014 17.344 3.022 17.344 3.022 17.344 3.022 17.449"/>
      <polygon fill="#231F20" fill-rule="nonzero" points="3.597 17.45 3.597 17.45 3.021 17.45 3.021 17.346 3.597 17.346 3.597 17.346"/>
      <polygon fill="#FFF" points="3.614 17.597 3.036 17.597 3.016 17.595 2.999 17.59 2.981 17.58 2.969 17.568 2.956 17.553 2.946 17.538 2.941 17.518 2.938 17.498 2.938 17.498 2.941 17.478 2.946 17.461 2.956 17.446 2.969 17.431 2.981 17.418 2.999 17.41 3.016 17.405 3.036 17.403 3.614 17.403 3.634 17.405 3.651 17.41 3.669 17.418 3.684 17.431 3.694 17.446 3.704 17.461 3.709 17.478 3.711 17.498 3.711 17.498 3.709 17.518 3.704 17.538 3.694 17.553 3.684 17.568 3.669 17.58 3.651 17.59 3.634 17.595"/>
      <polygon fill="#231F20" fill-rule="nonzero" points="3.763 17.498 3.763 17.498 3.761 17.528 3.751 17.557 3.736 17.582 3.724 17.602 3.699 17.622 3.671 17.637 3.644 17.647 3.614 17.649 3.614 17.544 3.624 17.542 3.632 17.542 3.639 17.537 3.644 17.532 3.651 17.522 3.656 17.517 3.656 17.507 3.659 17.497 3.659 17.497 3.764 17.497"/>
      <polygon fill="#231F20" fill-rule="nonzero" points="3.763 17.498 3.711 17.498 3.711 17.498 3.711 17.498 3.711 17.498 3.659 17.498 3.763 17.498"/>
      <polygon fill="#231F20" fill-rule="nonzero" points="3.614 17.351 3.614 17.351 3.644 17.353 3.669 17.36 3.696 17.372 3.724 17.395 3.736 17.414 3.751 17.437 3.761 17.467 3.763 17.497 3.659 17.497 3.656 17.487 3.656 17.482 3.651 17.475 3.644 17.465 3.641 17.462 3.634 17.46 3.624 17.458 3.614 17.456 3.614 17.456 3.614 17.351"/>
      <polygon fill="#231F20" fill-rule="nonzero" points="3.036 17.351 3.036 17.351 3.614 17.351 3.614 17.455 3.036 17.455 3.036 17.455"/>
      <polygon fill="#231F20" fill-rule="nonzero" points="2.886 17.498 2.886 17.498 2.888 17.468 2.899 17.438 2.914 17.413 2.928 17.395 2.951 17.375 2.981 17.361 3.006 17.354 3.036 17.352 3.036 17.456 3.026 17.458 3.016 17.46 3.011 17.46 3.009 17.465 2.999 17.478 2.994 17.483 2.994 17.488 2.991 17.498 2.991 17.498 2.886 17.498"/>
      <polygon fill="#231F20" fill-rule="nonzero" points="2.886 17.498 2.939 17.498 2.939 17.498 2.939 17.498 2.939 17.498 2.991 17.498 2.886 17.498"/>
      <polygon fill="#231F20" fill-rule="nonzero" points="3.036 17.65 3.036 17.65 3.006 17.648 2.979 17.638 2.949 17.623 2.929 17.603 2.914 17.585 2.899 17.558 2.889 17.528 2.887 17.498 2.991 17.498 2.994 17.508 2.994 17.518 2.999 17.52 3.009 17.533 3.014 17.538 3.019 17.543 3.026 17.543 3.036 17.545 3.036 17.545 3.036 17.649"/>
      <polygon fill="#231F20" fill-rule="nonzero" points="3.614 17.65 3.614 17.65 3.036 17.65 3.036 17.545 3.614 17.545 3.614 17.545"/>
      <polygon fill="#FFF" points="3.634 17.774 3.083 17.774 3.066 17.772 3.048 17.767 3.034 17.76 3.019 17.748 3.006 17.735 2.998 17.72 2.993 17.703 2.99 17.685 2.99 17.685 2.993 17.668 2.998 17.653 3.006 17.638 3.019 17.623 3.034 17.613 3.048 17.606 3.066 17.601 3.083 17.599 3.634 17.599 3.651 17.601 3.669 17.606 3.684 17.613 3.699 17.623 3.711 17.638 3.719 17.653 3.724 17.668 3.726 17.685 3.726 17.685 3.724 17.703 3.719 17.72 3.711 17.735 3.699 17.748 3.684 17.76 3.669 17.767 3.651 17.772"/>
      <polygon fill="#231F20" fill-rule="nonzero" points="3.778 17.685 3.778 17.685 3.776 17.712 3.769 17.737 3.754 17.764 3.734 17.787 3.714 17.802 3.687 17.817 3.662 17.824 3.635 17.826 3.635 17.721 3.642 17.719 3.652 17.717 3.654 17.717 3.664 17.707 3.669 17.705 3.669 17.703 3.671 17.693 3.674 17.685 3.674 17.685 3.778 17.685"/>
      <polygon fill="#231F20" fill-rule="nonzero" points="3.778 17.685 3.726 17.685 3.726 17.685 3.726 17.685 3.726 17.685 3.674 17.685 3.778 17.685"/>
      <polygon fill="#231F20" fill-rule="nonzero" points="3.634 17.545 3.634 17.545 3.661 17.548 3.686 17.556 3.711 17.568 3.733 17.583 3.753 17.608 3.766 17.633 3.773 17.655 3.778 17.685 3.674 17.685 3.674 17.68 3.671 17.672 3.669 17.667 3.664 17.662 3.656 17.657 3.651 17.655 3.641 17.652 3.634 17.65 3.634 17.65 3.634 17.546"/>
      <polygon fill="#231F20" fill-rule="nonzero" points="3.083 17.545 3.083 17.545 3.634 17.545 3.634 17.65 3.083 17.65 3.083 17.65"/>
      <polygon fill="#231F20" fill-rule="nonzero" points="2.939 17.685 2.939 17.685 2.944 17.655 2.951 17.632 2.963 17.607 2.983 17.582 3.006 17.567 3.03 17.555 3.055 17.547 3.083 17.544 3.083 17.649 3.075 17.651 3.065 17.654 3.06 17.656 3.053 17.661 3.048 17.666 3.046 17.671 3.043 17.679 3.043 17.684 3.043 17.684 2.938 17.684"/>
      <polygon fill="#231F20" fill-rule="nonzero" points="2.939 17.685 2.991 17.685 2.991 17.685 2.991 17.685 2.991 17.685 3.043 17.685 2.939 17.685"/>
      <polygon fill="#231F20" fill-rule="nonzero" points="3.083 17.826 3.083 17.826 3.056 17.824 3.031 17.817 3.004 17.802 2.984 17.787 2.964 17.765 2.949 17.738 2.942 17.713 2.939 17.685 3.044 17.685 3.047 17.693 3.049 17.703 3.049 17.705 3.054 17.707 3.064 17.717 3.066 17.717 3.076 17.719 3.084 17.721 3.084 17.721 3.084 17.826"/>
      <polygon fill="#231F20" fill-rule="nonzero" points="3.634 17.826 3.634 17.826 3.083 17.826 3.083 17.722 3.634 17.722 3.634 17.722"/>
      <polygon fill="#FDD213" points="10.813 17.802 8.965 17.802 8.965 16.546 10.813 16.546"/>
      <polygon fill="#FDD213" points="8.878 17.802 8.606 17.802 8.606 16.546 8.878 16.546"/>
      <polygon fill="#FDD213" points="8.534 17.802 8.352 17.802 8.352 16.546 8.534 16.546"/>
      <polygon fill="#FFF" points="8.89 18.422 8.89 18.611 8.449 18.611 8.427 18.608 8.407 18.603 8.387 18.596 8.372 18.584 8.357 18.569 8.347 18.554 8.342 18.536 8.339 18.516 8.339 18.516 8.342 18.497 8.347 18.479 8.357 18.462 8.372 18.449 8.387 18.437 8.407 18.43 8.427 18.425 8.449 18.423 8.89 18.423 8.89 18.423"/>
      <polygon fill="#231F20" fill-rule="nonzero" points="8.449 18.387 8.449 18.387 8.89 18.387 8.89 18.457 8.449 18.457 8.449 18.457"/>
      <polygon fill="#231F20" fill-rule="nonzero" points="8.305 18.516 8.305 18.516 8.307 18.489 8.314 18.467 8.329 18.439 8.349 18.422 8.369 18.407 8.396 18.397 8.421 18.39 8.449 18.388 8.449 18.458 8.431 18.461 8.416 18.463 8.404 18.468 8.394 18.478 8.384 18.485 8.379 18.492 8.377 18.504 8.375 18.516 8.375 18.516 8.305 18.516"/>
      <polygon fill="#231F20" fill-rule="nonzero" points="8.305 18.516 8.34 18.516 8.34 18.516 8.34 18.516 8.34 18.516 8.374 18.516"/>
      <polygon fill="#231F20" fill-rule="nonzero" points="8.449 18.646 8.449 18.646 8.422 18.643 8.397 18.636 8.37 18.626 8.349 18.609 8.33 18.591 8.315 18.569 8.308 18.544 8.306 18.516 8.375 18.516 8.377 18.529 8.379 18.539 8.384 18.546 8.394 18.558 8.404 18.565 8.417 18.57 8.432 18.572 8.449 18.574 8.449 18.574 8.449 18.644"/>
      <polygon fill="#231F20" fill-rule="nonzero" points="8.89 18.611 8.89 18.646 8.449 18.646 8.449 18.576 8.89 18.576 8.89 18.611 8.89 18.611"/>
      <polygon fill="#FFF" points="8.875 18.233 8.875 18.424 8.434 18.424 8.412 18.422 8.392 18.417 8.375 18.407 8.36 18.395 8.345 18.382 8.335 18.365 8.33 18.347 8.328 18.328 8.328 18.328 8.33 18.308 8.335 18.29 8.345 18.275 8.36 18.26 8.375 18.248 8.392 18.241 8.412 18.236 8.434 18.233 8.875 18.233 8.875 18.233"/>
      <polygon fill="#231F20" fill-rule="nonzero" points="8.434 18.198 8.434 18.198 8.875 18.198 8.875 18.267 8.434 18.267 8.434 18.267"/>
      <polygon fill="#231F20" fill-rule="nonzero" points="8.292 18.327 8.292 18.327 8.295 18.3 8.302 18.275 8.317 18.252 8.337 18.235 8.357 18.217 8.382 18.207 8.407 18.2 8.435 18.198 8.435 18.268 8.417 18.27 8.402 18.272 8.392 18.277 8.382 18.284 8.372 18.297 8.367 18.304 8.365 18.314 8.362 18.326 8.362 18.326 8.292 18.326"/>
      <polygon fill="#231F20" fill-rule="nonzero" points="8.292 18.327 8.327 18.327 8.327 18.327 8.327 18.327 8.327 18.327 8.362 18.327 8.292 18.327"/>
      <polygon fill="#231F20" fill-rule="nonzero" points="8.434 18.459 8.434 18.459 8.407 18.456 8.379 18.449 8.355 18.434 8.337 18.422 8.317 18.404 8.302 18.377 8.295 18.354 8.292 18.327 8.362 18.327 8.365 18.34 8.367 18.352 8.372 18.359 8.382 18.366 8.394 18.378 8.404 18.383 8.417 18.385 8.434 18.387 8.434 18.387 8.434 18.457"/>
      <polygon fill="#231F20" fill-rule="nonzero" points="8.875 18.424 8.875 18.459 8.434 18.459 8.434 18.39 8.875 18.39 8.875 18.424 8.875 18.424"/>
      <polygon fill="#FFF" points="8.868 18.225 8.868 18.033 8.467 18.031 8.475 18.031 8.492 18.031 8.514 18.031 8.534 18.031 8.547 18.031 8.542 18.031 8.519 18.031 8.467 18.031 8.442 18.023 8.42 18.008 8.4 17.988 8.382 17.966 8.37 17.944 8.36 17.926 8.355 17.911 8.352 17.906 8.342 17.886 8.327 17.869 8.312 17.856 8.294 17.846 8.274 17.841 8.257 17.839 8.237 17.841 8.22 17.846 8.22 17.846 8.202 17.856 8.19 17.869 8.18 17.884 8.173 17.901 8.168 17.921 8.168 17.941 8.17 17.963 8.177 17.983 8.177 17.983 8.177 17.988 8.182 17.995 8.187 18.008 8.199 18.028 8.216 18.055 8.242 18.09 8.276 18.135 8.294 18.155 8.311 18.172 8.326 18.187 8.344 18.202 8.361 18.212 8.381 18.219 8.401 18.221 8.423 18.224 8.867 18.224 8.867 18.224"/>
      <polygon fill="#231F20" fill-rule="nonzero" points="8.424 18.19 8.424 18.19 8.868 18.19 8.868 18.26 8.424 18.26 8.424 18.26"/>
      <polygon fill="#231F20" fill-rule="nonzero" points="8.305 18.113 8.305 18.113 8.32 18.13 8.337 18.148 8.349 18.163 8.365 18.175 8.377 18.18 8.389 18.185 8.407 18.188 8.424 18.19 8.424 18.26 8.397 18.258 8.374 18.255 8.347 18.245 8.325 18.23 8.305 18.213 8.287 18.198 8.27 18.18 8.25 18.158 8.25 18.158 8.305 18.113 8.305 18.113"/>
      <polygon fill="#231F20" fill-rule="nonzero" points="8.21 17.971 8.215 17.981 8.213 17.993 8.21 17.971 8.21 17.993 8.213 17.983 8.21 17.976 8.215 17.981 8.218 17.991 8.23 18.011 8.248 18.036 8.27 18.071 8.305 18.114 8.25 18.158 8.215 18.111 8.188 18.076 8.171 18.046 8.158 18.026 8.151 18.011 8.146 18.001 8.144 17.984 8.146 17.974 8.146 17.996 8.211 17.971 8.211 17.971"/>
      <polygon fill="#231F20" fill-rule="nonzero" points="8.235 17.879 8.232 17.879 8.222 17.884 8.217 17.892 8.209 17.902 8.204 17.912 8.202 17.927 8.202 17.939 8.204 17.957 8.209 17.972 8.144 17.996 8.134 17.972 8.131 17.944 8.131 17.917 8.139 17.892 8.149 17.867 8.161 17.847 8.182 17.83 8.206 17.815 8.204 17.815 8.234 17.879 8.234 17.879"/>
      <polygon fill="#231F20" fill-rule="nonzero" points="8.235 17.879 8.22 17.846 8.22 17.846 8.22 17.846 8.22 17.846 8.205 17.814"/>
      <polygon fill="#231F20" fill-rule="nonzero" points="8.32 17.919 8.32 17.921 8.312 17.906 8.302 17.893 8.292 17.883 8.282 17.878 8.267 17.876 8.257 17.873 8.245 17.876 8.234 17.878 8.205 17.814 8.23 17.807 8.257 17.804 8.282 17.807 8.307 17.814 8.331 17.829 8.351 17.844 8.371 17.866 8.384 17.891 8.384 17.893 8.319 17.918 8.319 17.918"/>
      <polygon fill="#231F20" fill-rule="nonzero" points="8.467 18.066 8.464 18.066 8.427 18.056 8.396 18.036 8.374 18.011 8.352 17.986 8.339 17.961 8.327 17.941 8.322 17.924 8.32 17.919 8.384 17.894 8.386 17.899 8.391 17.911 8.399 17.926 8.412 17.946 8.424 17.966 8.441 17.981 8.457 17.991 8.469 17.996 8.467 17.996 8.467 18.066"/>
      <polygon fill="#231F20" fill-rule="nonzero" points="8.467 18.066 8.467 17.996 8.475 17.996 8.492 17.996 8.514 17.996 8.534 17.996 8.547 17.996 8.542 18.066 8.519 18.066 8.467 18.066 8.467 17.996 8.519 17.996 8.542 17.996 8.547 18.066 8.534 18.066 8.514 18.066 8.492 18.066 8.475 18.066 8.467 18.066 8.467 17.996"/>
      <polygon fill="#231F20" fill-rule="nonzero" points="8.868 18.033 8.868 18.068 8.467 18.066 8.467 17.996 8.868 17.999 8.868 18.034 8.868 18.034"/>
      <path stroke="#656263" stroke-width=".75" d="M0.51036,10.50913 L16.20286,10.51726 L16.20286,22.17363 C16.20286,25.89851 13.11598,29.58276 8.34998,29.58276 C3.93198,29.58276 0.46698,26.23151 0.49698,22.17363 L0.51038,10.50913 L0.51036,10.50913 Z"/>
      <text fill="#5A5758" font-family="Helvetica" font-size="8">
        <tspan x="3.044" y="8.241">GL</tspan>
      </text>
    </g>
  </g>
</svg>
