<svg xmlns="http://www.w3.org/2000/svg" width="378" height="269" viewBox="0 0 378 269">
  <g fill="none" fill-rule="evenodd" transform="translate(.158 .123)">
    <polygon fill="#FFFA99" fill-rule="nonzero" points="368.073 47.105 370.679 58.172 370.347 64.812 367.525 71.909 362.075 76.087 365.381 81.303 365.782 86.615 357.371 93.145 361.3 97.309 359.681 101.584 354.107 107.712 356.209 111.088 356.611 116.358 357.524 118.06 358.312 121.311 359.64 121.491 367.774 120.135 377.112 127.84 376.13 137.829 374.235 149.117 371.8 150.058 369.628 152.631 362.075 146.724 358.81 149.477 354.092 146.862 350.579 146.365 346.733 150.265 344.036 147.678 341.573 148.937 336.883 147.761 336.04 142.436 332.277 140.402 329.192 142.408 327.061 140.471 326.467 136.307 329.247 130.206 326.729 127.328 325.041 123.594 320.629 129.072 316.023 126.609 303.502 132.945 297.512 132.268 296.475 135.007 297.554 139.475 293.362 141.91 292.241 146.766 289.987 150.196 286.334 152.576 288.313 158.303 286.321 162.108 286.695 171.639 288.548 174.793 286.293 180.687 286.695 182.319 289.89 182.72 290.748 186.095 294.981 188.268 305.439 184.878 312.744 192.003 312.01 198.436 305.163 200.967 305.038 206.1 301.524 208.631 300.985 214.345 303.461 219.436 308.109 223.641 310.571 225.841 316.506 236.106 310.475 244.586 305.868 246.744 298.093 245.928 295.106 249.083 289.89 245.707 292.698 239.911 291.606 234.39 286.114 231.651 279.044 230.157 278.408 226.643 279.985 221.691 275.434 217.403 278.726 210.195 270.205 201.825 267.908 201.686 263.882 204.786 259.802 201.466 255.651 203.541 252.179 206.902 244.433 207.995 240.476 212.546 234.887 214.179 231.968 216.06 224.955 211.537 222.16 214.58 223.225 216.932 220.873 219.713 223.267 223.766 221.15 225.426 220.846 228.884 215.16 229.299 212.864 226.464 205.974 231.292 201.506 231.374 198.172 229.217 193.759 229.397 188.087 226.145 186.275 227.64 179.289 218.357 174.863 208.673 167.946 205.588 169.426 201.659 167.904 194.701 166.188 192.542 167.42 176.578 165.428 174.226 167.434 171.432 167.586 166.23 160.959 169.426 159.742 171.542 159.244 176.191 157.058 178.75 152.493 177.021 147.762 170.463 148.882 167.918 146.586 166.327 136.045 168.208 132.171 171.003 130.124 171.294 128.394 174.074 129.654 180.963 126.817 184.381 123.332 185.557 123.982 190.19 130.055 194.576 130.511 198.035 129.543 200.857 131.452 203.983 130.151 205.879 129.861 208.964 130.732 211.468 134.08 212.45 133.804 218.398 134.163 223.725 132.075 224.776 130.829 229.41 125.282 239.205 124.936 244.918 124.66 249.552 119.499 250.494 118.213 256.871 115.64 257.106 114.215 265.683 111.407 268.187 109.83 268.311 108.612 268.311 107.078 268.49 102.927 265.866 98.624 259.516 92.343 256.071 92.095 255.725 88.733 249.224 89.314 243.454 89.494 241.684 89.549 241.213 86.478 237.201 84.707 232.193 86.685 229.122 88.816 225.649 86.837 222.924 86.754 220.392 87.446 217.099 87.93 217.058 91.915 215.011 92.551 208.038 90.877 203.528 94.031 196.265 90.31 189.195 92.039 182.223 88.525 177.021 83.517 177.491 81.138 175.942 80.308 173.161 80.543 172.525 76.946 167.904 76.254 162.398 76.144 160.641 77.319 151.164 80.764 145.824 78.675 140.927 72.768 137.745 67.193 140.401 63.886 140.401 64.232 135.808 62.849 132.322 59.764 135.614 55.697 134.507 52.446 136.375 54.715 143.181 51.961 146.17 37.297 152.478 27.765 151.454 20.627 149.061 10.155 150.154 5.728 148.107 5.659 137.468 0 131.727 .582 127.424 5.41 123.094 4.331 119.372 4.026 114.835 7.747 111.238 11.289 111.763 18.345 107.627 19.188 101.554 22.135 99.451 26.271 103.671 31.307 101.387 33.687 92.879 36.633 91.745 35.181 86.322 35.499 84.094 39.109 83.417 45.362 77.703 49.596 77.661 52.999 78.519 55.821 82.849 61.577 79.903 72.228 78.159 77.306 70.938 79.326 61.917 80.889 59.925 83.213 58.846 83.393 58.957 89.411 60.022 92.897 66.026 97.517 62.955 98.431 61.696 100.436 58.169 101.889 56.425 110.009 56.397 113.385 53.202 116.29 48.553 120.551 45.8 124.093 48.18 129.71 47.793 139.601 49.84 146.394 50.643 154.459 50.85 154.971 51.334 160.38 56.342 161.21 57.117 163.783 53.88 165.263 52.289 165.042 49.577 167.588 46.506 170.825 36.075 171.351 33.418 175.21 32.713 176.165 27.663 180.472 26.363 180.095 25.799 175.488 19.739 173.054 16.53 171.656 14.123 169.097 9.668 167.714 7.69 166.04 5.117 165.81 4.358 176.799 .678 178.638 0 182.25 4.856 188.268 2.02 191.643 .539 193.884 1.605 197.73 3.14 199.929 .761 207.012 .083 213.666 4.233 228.178 6.212 238.276 13.447 242.233 12.022 244.267 10.223 248.347 12.077 246.438 14.581 250.27 19.202 246.867 28.387 248.278 30.227 248.278 36.259 256.495 40.327 259.041 41.986 261.697 42.789 267.59 41.931 270.882 45.5 274.576 46.538 276.969 45.624 281.7 50.273 283.721 53.607 284.661 56.747 291.785 56.844 292.602 59.196 294.137 60.953 295.756 63.014 298.813 60.995 306.491 60.76 310.821 57.204 313.643 54.825 321.472 53.69 320.173 45.901 321.611 43.066 322.565 35.415 326.038 35.72 333.19 37.698 338.018 36.632 336.136 29.951 340.093 27.973 342.569 16.726 353.871 13.972 360.027 20.82 359.543 25.109 371.662 31.209 368.073 47.105"/>
    <g transform="translate(178.44 93.781)">
      <polygon fill="#FFF" points="16.193 19.533 16.196 21.995 16.186 22.376 16.156 22.752 16.107 23.121 16.037 23.487 15.95 23.845 15.842 24.197 15.72 24.541 15.581 24.877 15.422 25.203 15.25 25.522 15.06 25.833 14.856 26.132 14.637 26.424 14.405 26.703 14.158 26.972 13.899 27.228 13.628 27.473 13.341 27.707 13.045 27.926 12.738 28.133 12.42 28.325 12.093 28.501 11.755 28.666 11.408 28.815 11.052 28.947 10.686 29.062 10.315 29.162 9.936 29.246 9.55 29.311 9.159 29.358 8.76 29.386 8.357 29.396 7.953 29.386 7.554 29.358 7.161 29.311 6.775 29.246 6.396 29.162 6.025 29.062 5.659 28.947 5.303 28.815 4.956 28.666 4.617 28.501 4.288 28.325 3.972 28.133 3.663 27.926 3.367 27.707 3.083 27.473 2.811 27.228 2.552 26.972 2.306 26.703 2.071 26.424 1.855 26.132 1.651 25.833 1.461 25.522 1.287 25.203 1.13 24.877 .99 24.541 .866 24.197 .761 23.845 .674 23.487 .604 23.121 .554 22.752 .524 22.376 .514 21.995 .512 10.344 8.362 10.346 8.355 19.506 8.362 10.346 16.194 10.346 16.194 19.533 .512 19.533 16.194 19.533 16.194 19.533"/>
      <polygon fill="#231F20" points=".526 10.346 .526 14.877 .526 14.939 .526 19.533 3.214 19.533 4.433 19.533 4.433 14.939 4.433 14.877 4.433 10.346 3.214 10.346"/>
      <polygon fill="#FDD213" points="11.067 10.348 12.285 10.348 12.285 14.947 8.379 14.947 8.379 10.348"/>
      <polygon fill="#1377C7" points="13.503 10.348 12.285 10.348 12.285 14.947 16.193 14.947 16.193 10.348"/>
      <polygon fill="#1377C7" points="11.067 19.536 12.285 19.536 12.285 14.947 8.379 14.947 8.379 19.536"/>
      <polygon fill="#1377C7" points="11.069 13.699 8.379 13.699 8.379 10.348 11.069 10.348"/>
      <polygon fill="#231F20" fill-rule="nonzero" points="11.122 13.699 11.122 13.752 11.069 13.752 11.122 13.699 11.069 13.752 8.379 13.752 8.379 13.647 11.069 13.647 11.017 13.699 11.122 13.699"/>
      <polygon fill="#231F20" fill-rule="nonzero" points="11.069 10.348 11.122 10.348 11.122 13.699 11.017 13.699 11.017 10.348 11.069 10.348 11.069 10.348"/>
      <polygon fill="#231F20" fill-rule="nonzero" points="12.337 14.947 12.337 14.999 12.285 14.999 12.337 14.947 12.285 14.999 8.379 14.999 8.379 14.895 12.285 14.895 12.233 14.947 12.337 14.947"/>
      <polygon fill="#231F20" fill-rule="nonzero" points="12.285 10.348 12.337 10.348 12.337 14.947 12.233 14.947 12.233 10.348 12.285 10.348 12.285 10.348"/>
      <polygon fill="#FDD213" points="13.503 13.699 16.193 13.699 16.193 10.348 13.503 10.348"/>
      <polygon fill="#231F20" fill-rule="nonzero" points="13.503 13.751 13.451 13.751 13.451 13.699 13.556 13.699 13.503 13.647 16.194 13.647 16.194 13.751 13.503 13.751 13.451 13.699 13.503 13.751 13.503 13.751"/>
      <polygon fill="#231F20" fill-rule="nonzero" points="13.503 10.348 13.555 10.348 13.555 13.699 13.451 13.699 13.451 10.348 13.503 10.348 13.503 10.348"/>
      <polygon fill="#FDD213" points="13.503 19.536 12.285 19.536 12.285 14.947 16.193 14.947 16.193 19.536"/>
      <polygon fill="#1377C7" points="13.503 16.193 16.193 16.193 16.193 19.536 13.503 19.536"/>
      <polygon fill="#231F20" fill-rule="nonzero" points="13.451 16.193 13.451 16.14 13.503 16.14 13.451 16.193 13.503 16.14 16.193 16.14 16.193 16.245 13.503 16.245 13.555 16.193 13.451 16.193"/>
      <polygon fill="#231F20" fill-rule="nonzero" points="13.503 19.536 13.451 19.536 13.451 16.193 13.556 16.193 13.556 19.536 13.503 19.536 13.503 19.536"/>
      <polygon fill="#231F20" fill-rule="nonzero" points="12.233 14.947 12.233 14.895 12.285 14.895 12.233 14.947 12.285 14.895 16.193 14.895 16.193 14.999 12.285 14.999 12.337 14.947 12.233 14.947"/>
      <polygon fill="#231F20" fill-rule="nonzero" points="12.285 19.536 12.233 19.536 12.233 14.947 12.337 14.947 12.337 19.536 12.285 19.536 12.285 19.536"/>
      <polygon fill="#FDD213" points="11.069 16.193 8.379 16.193 8.379 19.536 11.069 19.536"/>
      <polygon fill="#231F20" fill-rule="nonzero" points="11.069 16.14 11.122 16.14 11.122 16.193 11.017 16.193 11.069 16.245 8.379 16.245 8.379 16.14 11.069 16.14 11.122 16.193 11.069 16.14 11.069 16.14"/>
      <polygon fill="#231F20" fill-rule="nonzero" points="11.069 19.536 11.017 19.536 11.017 16.193 11.122 16.193 11.122 19.536 11.069 19.536 11.069 19.536"/>
      <polygon fill="#231F20" fill-rule="nonzero" points=".512 19.591 .512 19.476 16.193 19.476 16.193 19.591 .512 19.591 .512 19.476"/>
      <polygon fill="#231F20" fill-rule="nonzero" points="16.251 19.533 16.251 19.591 16.193 19.591 16.251 19.533 16.193 19.591 .512 19.591 .512 19.476 16.193 19.476 16.136 19.533 16.251 19.533"/>
      <polygon fill="#231F20" fill-rule="nonzero" points="16.193 10.289 16.251 10.289 16.251 10.346 16.193 10.289 16.251 10.346 16.251 19.533 16.136 19.533 16.136 10.346 16.193 10.403 16.193 10.289"/>
      <polygon fill="#231F20" fill-rule="nonzero" points="8.304 10.346 8.304 10.289 8.362 10.289 8.304 10.346 8.362 10.289 16.194 10.289 16.194 10.403 8.362 10.403 8.419 10.346 8.304 10.346"/>
      <polygon fill="#231F20" fill-rule="nonzero" points="8.411 19.506 8.297 19.506 8.304 10.346 8.418 10.346 8.41 19.506 8.296 19.506 8.41 19.506"/>
      <polygon fill="#231F20" fill-rule="nonzero" points="8.361 10.289 8.419 10.289 8.419 10.346 8.361 10.289 8.419 10.346 8.411 19.506 8.296 19.506 8.303 10.346 8.361 10.403 8.361 10.289"/>
      <polygon fill="#231F20" fill-rule="nonzero" points=".455 10.344 .455 10.286 .512 10.286 .455 10.344 .512 10.286 8.361 10.288 8.361 10.403 .512 10.401 .569 10.344 .455 10.344"/>
      <polygon fill="#231F20" fill-rule="nonzero" points=".457 21.995 .457 21.995 .455 10.344 .57 10.344 .572 21.995 .572 21.995 .457 21.995"/>
      <polygon fill="#231F20" fill-rule="nonzero" points="8.357 29.453 8.357 29.453 7.95 29.443 7.549 29.416 7.153 29.368 6.765 29.304 6.384 29.216 6.01 29.117 5.641 29.002 5.28 28.868 4.931 28.718 4.592 28.551 4.261 28.374 3.942 28.18 3.631 27.973 3.332 27.752 3.045 27.515 2.771 27.271 2.51 27.012 2.263 26.74 2.026 26.459 1.807 26.165 1.603 25.864 1.411 25.55 1.237 25.228 1.077 24.899 .938 24.561 .811 24.214 .706 23.86 .619 23.499 .547 23.131 .497 22.757 .467 22.378 .457 21.995 .571 21.995 .581 22.373 .611 22.747 .661 23.111 .728 23.474 .815 23.831 .92 24.179 1.042 24.521 1.182 24.854 1.336 25.178 1.511 25.495 1.697 25.804 1.902 26.1 2.116 26.389 2.347 26.666 2.594 26.932 2.851 27.186 3.12 27.43 3.401 27.662 3.695 27.879 4.002 28.085 4.316 28.275 4.642 28.452 4.981 28.614 5.324 28.763 5.676 28.893 6.039 29.007 6.408 29.107 6.784 29.189 7.168 29.254 7.559 29.301 7.955 29.329 8.356 29.339 8.356 29.339 8.356 29.453"/>
      <polygon fill="#231F20" fill-rule="nonzero" points="16.253 21.995 16.253 21.995 16.243 22.378 16.213 22.757 16.163 23.131 16.091 23.499 16.004 23.86 15.897 24.214 15.772 24.56 15.633 24.899 15.471 25.228 15.299 25.55 15.107 25.863 14.903 26.165 14.681 26.459 14.447 26.74 14.2 27.012 13.939 27.271 13.665 27.515 13.376 27.752 13.077 27.973 12.768 28.18 12.447 28.374 12.118 28.551 11.779 28.718 11.43 28.868 11.069 29.002 10.7 29.117 10.327 29.216 9.946 29.304 9.557 29.368 9.163 29.416 8.762 29.443 8.356 29.453 8.356 29.338 8.757 29.328 9.153 29.301 9.542 29.254 9.926 29.189 10.302 29.107 10.671 29.007 11.034 28.892 11.386 28.763 11.729 28.613 12.068 28.451 12.392 28.275 12.708 28.085 13.012 27.878 13.306 27.662 13.59 27.43 13.859 27.186 14.116 26.932 14.363 26.665 14.592 26.389 14.808 26.1 15.013 25.803 15.199 25.494 15.371 25.178 15.528 24.854 15.668 24.52 15.787 24.179 15.895 23.83 15.982 23.474 16.049 23.11 16.099 22.747 16.129 22.373 16.139 21.994 16.139 21.994 16.253 21.994"/>
      <polygon fill="#231F20" fill-rule="nonzero" points="16.193 19.476 16.251 19.476 16.251 19.533 16.193 19.476 16.251 19.533 16.253 21.995 16.139 21.995 16.137 19.533 16.194 19.591 16.194 19.476"/>
      <polygon fill="#231F20" points="2.43 20.826 2.363 20.806 2.295 20.791 2.226 20.786 2.156 20.784 2.086 20.784 2.016 20.789 1.944 20.797 1.875 20.804 1.802 20.812 1.73 20.819 1.66 20.824 1.588 20.824 1.518 20.822 1.448 20.814 1.379 20.802 1.309 20.779 1.324 20.809 1.344 20.842 1.366 20.879 1.389 20.914 1.411 20.946 1.428 20.974 1.441 20.991 1.446 20.998 1.466 21.005 1.488 21.01 1.511 21.012 1.535 21.014 1.563 21.016 1.588 21.016 1.618 21.016 1.645 21.016 1.672 21.016 1.702 21.014 1.73 21.012 1.757 21.01 1.785 21.007 1.812 21.005 1.837 21.002 1.859 21 1.874 20.993 1.889 20.991 1.902 20.986 1.917 20.984 1.934 20.984 1.954 20.982 1.979 20.98 2.009 20.977 2.036 20.992 2.051 21.01 2.059 21.03 2.056 21.049 2.046 21.069 2.036 21.092 2.021 21.112 2.009 21.129 1.184 21.157 1.224 21.169 1.264 21.184 1.301 21.204 1.336 21.224 1.371 21.249 1.406 21.274 1.438 21.301 1.471 21.329 1.503 21.359 1.538 21.386 1.57 21.413 1.603 21.438 1.638 21.463 1.672 21.483 1.71 21.503 1.747 21.518 1.8 21.55 1.849 21.573 1.902 21.585 1.952 21.593 2.001 21.593 2.051 21.588 2.101 21.578 2.151 21.563 2.198 21.546 2.248 21.526 2.295 21.506 2.343 21.484 2.388 21.461 2.435 21.441 2.48 21.421 2.525 21.406 2.565 21.434 2.587 21.469 2.602 21.508 2.61 21.548 2.615 21.586 2.622 21.618 2.637 21.636 2.664 21.641 2.717 21.593 2.771 21.556 2.829 21.528 2.886 21.514 2.946 21.506 3.008 21.506 3.068 21.511 3.13 21.523 3.193 21.54 3.255 21.56 3.317 21.58 3.377 21.605 3.437 21.628 3.494 21.65 3.551 21.67 3.606 21.688 3.756 21.717 3.883 21.762 3.992 21.822 4.087 21.894 4.166 21.977 4.231 22.071 4.286 22.173 4.333 22.28 4.371 22.395 4.401 22.514 4.428 22.634 4.453 22.759 4.476 22.881 4.5 23 4.528 23.117 4.558 23.232 4.57 23.282 4.585 23.324 4.607 23.357 4.632 23.384 4.662 23.407 4.695 23.422 4.729 23.434 4.769 23.441 4.809 23.446 4.849 23.451 4.894 23.453 4.936 23.458 4.981 23.46 5.024 23.467 5.066 23.474 5.108 23.486 5.121 23.424 5.136 23.362 5.153 23.299 5.171 23.24 5.188 23.18 5.208 23.12 5.228 23.063 5.253 23.003 5.275 22.946 5.3 22.888 5.327 22.834 5.355 22.776 5.382 22.721 5.412 22.666 5.445 22.612 5.477 22.557 5.435 22.532 5.402 22.507 5.375 22.487 5.352 22.467 5.33 22.445 5.31 22.422 5.288 22.395 5.26 22.362 4.829 21.787 4.807 21.752 4.784 21.715 4.762 21.677 4.742 21.64 4.72 21.6 4.7 21.56 4.68 21.523 4.658 21.485 4.635 21.448 4.613 21.413 4.59 21.378 4.566 21.348 4.538 21.318 4.511 21.291 4.483 21.269 4.451 21.249 4.384 21.247 4.319 21.242 4.252 21.24 4.185 21.237 4.117 21.232 4.05 21.23 3.985 21.225 3.918 21.22 3.851 21.218 3.783 21.21 3.716 21.205 3.649 21.198 3.581 21.191 3.517 21.183 3.449 21.176 3.385 21.166 3.32 21.153 3.255 21.143 3.191 21.128 3.128 21.116 3.066 21.098 3.003 21.083 2.941 21.063 2.881 21.043 2.821 21.023 2.762 21.001 2.705 20.976 2.647 20.951 2.592 20.921 2.538 20.891 2.483 20.861 2.43 20.827 2.43 20.827"/>
      <polygon fill="#231F20" points="8.713 21.77 8.7 21.731 8.678 21.693 8.65 21.656 8.616 21.623 8.578 21.591 8.538 21.561 8.498 21.536 8.458 21.514 8.424 21.546 8.389 21.576 8.354 21.603 8.317 21.631 8.279 21.658 8.242 21.681 8.202 21.703 8.162 21.72 8.122 21.738 8.08 21.753 8.035 21.765 7.99 21.772 7.945 21.78 7.896 21.782 7.846 21.782 7.796 21.777 7.753 21.77 7.708 21.758 7.666 21.743 7.621 21.728 7.579 21.718 7.534 21.716 7.494 21.721 7.454 21.739 7.446 21.781 7.434 21.821 7.416 21.858 7.394 21.89 7.367 21.92 7.337 21.95 7.304 21.975 7.27 22 7.232 22.023 7.193 22.042 7.153 22.062 7.113 22.082 7.075 22.1 7.035 22.117 6.998 22.132 6.963 22.15 6.896 22.17 6.829 22.19 6.761 22.209 6.694 22.229 6.629 22.249 6.562 22.269 6.495 22.289 6.43 22.309 6.363 22.329 6.296 22.349 6.228 22.369 6.158 22.389 6.091 22.409 6.021 22.429 5.949 22.449 5.877 22.469 5.807 22.511 5.743 22.556 5.68 22.608 5.625 22.663 5.576 22.72 5.528 22.783 5.486 22.848 5.451 22.915 5.418 22.985 5.391 23.057 5.369 23.129 5.349 23.204 5.336 23.278 5.326 23.356 5.324 23.43 5.324 23.505 5.967 23.51 5.984 23.56 5.979 23.595 5.96 23.622 5.925 23.64 5.882 23.652 5.84 23.662 5.798 23.672 5.763 23.687 4.627 23.575 4.544 23.55 4.462 23.533 4.385 23.52 4.31 23.518 4.241 23.52 4.171 23.527 4.104 23.542 4.039 23.562 3.974 23.587 3.914 23.615 3.852 23.647 3.795 23.682 3.737 23.722 3.68 23.762 3.625 23.804 3.57 23.849 3.513 23.896 3.461 23.944 3.406 23.991 3.351 24.036 3.296 24.083 3.239 24.128 3.184 24.173 3.127 24.215 3.067 24.255 3.01 24.293 2.948 24.327 2.885 24.357 2.82 24.385 2.756 24.407 2.686 24.425 2.616 24.437 2.586 24.447 2.556 24.454 2.524 24.464 2.494 24.474 2.462 24.484 2.429 24.492 2.399 24.502 2.367 24.509 2.337 24.514 2.305 24.519 2.275 24.521 2.245 24.523 2.215 24.523 2.185 24.521 2.155 24.514 2.127 24.506 2.075 24.529 2.023 24.551 1.971 24.573 1.918 24.598 1.866 24.623 1.814 24.648 1.761 24.676 1.712 24.701 1.662 24.728 1.612 24.753 1.562 24.778 1.515 24.803 1.47 24.825 1.425 24.848 1.383 24.868 1.341 24.888 1.39 24.895 1.435 24.909 1.478 24.929 1.52 24.952 1.56 24.969 1.605 24.982 1.652 24.98 1.704 24.96 1.729 24.93 1.772 24.89 1.824 24.843 1.884 24.796 1.946 24.748 2.006 24.706 2.055 24.676 2.095 24.656 2.1 24.666 2.108 24.676 2.118 24.686 2.128 24.696 2.139 24.703 2.144 24.715 2.144 24.728 2.139 24.743 1.593 25.284 2.385 25.281 2.435 25.271 2.477 25.253 2.514 25.231 2.544 25.203 2.572 25.173 2.597 25.138 2.619 25.103 2.639 25.066 2.659 25.026 2.679 24.989 2.702 24.952 2.726 24.917 2.756 24.887 2.789 24.857 2.829 24.834 2.874 24.814 2.946 24.887 3.013 24.934 3.078 24.959 3.135 24.962 3.192 24.947 3.245 24.917 3.294 24.875 3.342 24.825 3.386 24.765 3.434 24.703 3.479 24.638 3.523 24.573 3.568 24.513 3.616 24.461 3.666 24.419 3.715 24.386 3.763 24.344 3.815 24.304 3.867 24.269 3.927 24.237 3.987 24.209 4.049 24.184 4.112 24.164 4.179 24.149 4.243 24.137 4.311 24.13 4.378 24.125 4.445 24.128 4.51 24.133 4.577 24.143 4.639 24.155 4.702 24.175 4.724 24.188 4.749 24.2 4.774 24.21 4.799 24.22 4.824 24.227 4.851 24.232 4.876 24.239 4.904 24.244 4.929 24.249 4.956 24.254 4.984 24.256 5.009 24.261 5.036 24.266 5.063 24.271 5.088 24.276 5.116 24.281 5.213 24.306 5.312 24.331 5.407 24.358 5.504 24.388 5.599 24.421 5.696 24.453 5.791 24.485 5.883 24.52 5.977 24.558 6.07 24.598 6.162 24.638 6.254 24.677 6.346 24.72 6.436 24.762 6.528 24.807 6.618 24.852 6.66 24.842 6.7 24.824 6.735 24.802 6.767 24.777 6.797 24.75 6.824 24.717 6.849 24.685 6.872 24.647 6.894 24.61 6.914 24.573 6.934 24.535 6.954 24.498 6.974 24.463 6.994 24.428 7.016 24.396 7.039 24.366 7.061 24.316 7.079 24.259 7.094 24.201 7.108 24.142 7.131 24.092 7.163 24.049 7.205 24.019 7.265 24.009 7.303 24.029 7.327 24.052 7.342 24.077 7.35 24.102 7.35 24.129 7.342 24.159 7.33 24.189 7.315 24.221 7.295 24.254 7.275 24.286 7.256 24.318 7.238 24.353 7.22 24.388 7.208 24.423 7.201 24.458 7.201 24.493 7.273 24.483 7.345 24.473 7.42 24.466 7.497 24.456 7.572 24.448 7.649 24.441 7.727 24.436 7.806 24.431 7.884 24.426 7.963 24.421 8.043 24.416 8.125 24.414 8.205 24.411 8.287 24.409 8.367 24.407 8.449 24.407 8.529 24.405 8.611 24.405 8.693 24.407 8.773 24.407 8.855 24.407 8.935 24.409 9.015 24.411 9.094 24.414 9.174 24.419 9.251 24.421 9.331 24.426 9.408 24.431 9.483 24.436 9.557 24.441 9.632 24.446 9.707 24.453 9.675 24.433 9.64 24.418 9.607 24.403 9.572 24.388 9.537 24.376 9.503 24.363 9.47 24.351 9.438 24.338 9.403 24.323 9.373 24.311 9.341 24.293 9.313 24.276 9.283 24.256 9.258 24.234 9.233 24.206 9.211 24.176 9.251 24.156 9.286 24.141 9.315 24.133 9.341 24.131 9.368 24.133 9.395 24.135 9.425 24.138 9.463 24.14 9.54 24.153 9.615 24.175 9.684 24.203 9.752 24.237 9.814 24.275 9.874 24.32 9.931 24.369 9.986 24.422 10.038 24.477 10.088 24.537 10.135 24.596 10.18 24.656 10.222 24.719 10.262 24.781 10.302 24.841 10.339 24.9 10.357 24.938 10.372 24.978 10.387 25.02 10.402 25.06 10.419 25.102 10.437 25.145 10.454 25.187 10.474 25.227 10.494 25.269 10.516 25.309 10.544 25.352 10.571 25.389 10.604 25.426 10.638 25.464 10.678 25.498 10.721 25.531 10.788 25.563 10.855 25.593 10.925 25.621 10.995 25.651 11.064 25.675 11.137 25.703 11.206 25.728 11.279 25.753 11.351 25.775 11.423 25.8 11.493 25.823 11.565 25.845 11.637 25.867 11.707 25.887 11.777 25.91 11.847 25.932 11.954 25.98 12.046 26.037 12.123 26.104 12.185 26.179 12.235 26.261 12.273 26.351 12.303 26.448 12.323 26.547 12.335 26.652 12.342 26.759 12.345 26.869 12.342 26.978 12.34 27.09 12.335 27.2 12.33 27.307 12.327 27.414 12.315 27.439 12.298 27.464 12.28 27.489 12.26 27.512 12.24 27.532 12.215 27.551 12.193 27.569 12.165 27.586 12.14 27.601 12.11 27.614 12.083 27.624 12.053 27.631 12.023 27.638 11.991 27.643 11.961 27.643 11.929 27.643 11.857 27.623 11.789 27.613 11.722 27.618 11.66 27.633 11.6 27.658 11.543 27.693 11.485 27.732 11.431 27.777 11.378 27.83 11.328 27.884 11.278 27.942 11.231 27.999 11.184 28.056 11.137 28.114 11.089 28.169 11.044 28.218 11.077 28.223 11.092 28.223 11.097 28.225 11.099 28.225 11.101 28.225 11.113 28.227 11.138 28.227 11.186 28.23 11.258 28.23 11.315 28.216 11.357 28.19 11.39 28.156 11.417 28.113 11.445 28.066 11.472 28.019 11.507 27.969 11.539 27.944 11.572 27.912 11.607 27.877 11.639 27.844 11.671 27.819 11.706 27.804 11.744 27.804 11.781 27.824 11.766 27.864 11.749 27.907 11.726 27.947 11.704 27.986 11.676 28.026 11.651 28.069 11.621 28.109 11.594 28.148 11.564 28.188 11.534 28.228 11.507 28.268 11.48 28.308 11.455 28.348 11.432 28.388 11.41 28.425 11.392 28.465 11.415 28.485 11.435 28.495 11.457 28.498 11.482 28.493 11.507 28.483 11.539 28.465 11.579 28.448 11.624 28.428 11.669 28.403 11.719 28.381 11.771 28.363 11.826 28.346 11.881 28.331 11.938 28.316 11.993 28.301 12.047 28.283 12.097 28.263 12.145 28.241 12.187 28.216 12.225 28.184 12.254 28.144 12.277 28.099 12.292 28.046 12.297 27.984 12.326 27.942 12.359 27.909 12.391 27.884 12.428 27.87 12.468 27.86 12.508 27.855 12.548 27.855 12.591 27.855 12.633 27.858 12.673 27.858 12.715 27.858 12.755 27.853 12.795 27.843 12.832 27.825 12.87 27.8 12.902 27.768 12.892 27.715 12.885 27.661 12.875 27.608 12.87 27.554 12.862 27.501 12.857 27.446 12.852 27.392 12.85 27.339 12.845 27.284 12.843 27.23 12.84 27.175 12.84 27.12 12.838 27.065 12.838 27.01 12.838 26.955 12.838 26.898 12.838 26.843 12.838 26.788 12.838 26.734 12.838 26.679 12.838 26.624 12.84 26.569 12.84 26.514 12.84 26.459 12.84 26.407 12.84 26.352 12.84 26.297 12.84 26.245 12.838 26.19 12.838 26.138 12.836 26.083 12.833 26.031 12.845 25.986 12.86 25.939 12.873 25.891 12.881 25.841 12.883 25.794 12.873 25.749 12.853 25.707 12.818 25.667 12.738 25.649 12.666 25.627 12.598 25.599 12.534 25.57 12.476 25.535 12.424 25.495 12.375 25.455 12.33 25.41 12.287 25.363 12.25 25.313 12.213 25.26 12.18 25.206 12.15 25.148 12.12 25.091 12.095 25.031 12.07 24.969 12.046 24.906 12.023 24.844 12.001 24.782 11.978 24.719 11.953 24.655 11.931 24.592 11.908 24.53 11.883 24.468 11.859 24.408 11.831 24.348 11.801 24.291 11.769 24.234 11.734 24.179 11.699 24.127 11.657 24.077 11.614 24.029 11.637 23.979 11.679 23.947 11.739 23.935 11.806 23.93 11.871 23.935 11.926 23.942 11.966 23.952 11.981 23.954 11.991 23.961 12.018 23.981 12.058 24.008 12.106 24.048 12.153 24.09 12.198 24.14 12.235 24.19 12.258 24.24 12.28 24.292 12.307 24.337 12.335 24.374 12.367 24.404 12.402 24.432 12.437 24.452 12.472 24.466 12.509 24.479 12.546 24.489 12.581 24.494 12.616 24.496 12.648 24.499 12.681 24.501 12.708 24.501 12.733 24.501 12.753 24.503 12.748 24.473 12.738 24.446 12.723 24.421 12.703 24.398 12.681 24.376 12.658 24.356 12.641 24.334 12.623 24.309 12.638 24.261 12.658 24.244 12.686 24.249 12.723 24.266 12.77 24.291 12.833 24.314 12.907 24.324 13 24.317 13.087 24.294 13.151 24.269 13.199 24.242 13.229 24.212 13.251 24.18 13.266 24.147 13.281 24.115 13.299 24.082 13.296 24.082 13.286 24.082 13.271 24.084 13.254 24.087 13.232 24.089 13.212 24.094 13.192 24.104 13.172 24.114 13.1 24.117 13.027 24.11 12.958 24.093 12.89 24.068 12.823 24.038 12.758 24.003 12.693 23.966 12.626 23.926 12.562 23.883 12.492 23.846 12.425 23.809 12.355 23.776 12.28 23.749 12.206 23.729 12.128 23.716 12.046 23.714 12.004 23.712 11.964 23.714 11.924 23.719 11.887 23.73 11.849 23.742 11.814 23.757 11.779 23.772 11.744 23.789 11.71 23.809 11.677 23.829 11.642 23.849 11.61 23.869 11.577 23.889 11.543 23.909 11.51 23.926 11.475 23.941 11.423 23.909 11.373 23.876 11.323 23.847 11.276 23.817 11.226 23.787 11.179 23.759 11.129 23.732 11.082 23.707 11.032 23.68 10.985 23.655 10.934 23.632 10.882 23.607 10.832 23.585 10.78 23.562 10.725 23.54 10.671 23.517 10.618 23.488 10.568 23.458 10.514 23.43 10.461 23.403 10.407 23.378 10.352 23.355 10.297 23.333 10.242 23.311 10.185 23.291 10.128 23.273 10.07 23.253 10.013 23.238 9.955 23.221 9.896 23.206 9.838 23.191 9.779 23.176 9.719 23.164 9.659 23.149 9.602 23.136 9.542 23.124 9.482 23.111 9.422 23.099 9.363 23.086 9.303 23.074 9.245 23.061 9.185 23.046 9.128 23.034 9.068 23.019 9.011 23.007 8.954 22.992 8.896 22.977 8.839 22.959 8.804 22.947 8.769 22.939 8.732 22.932 8.694 22.927 8.655 22.924 8.615 22.921 8.575 22.921 8.538 22.919 8.498 22.917 8.46 22.912 8.425 22.907 8.393 22.897 8.361 22.884 8.333 22.869 8.309 22.847 8.286 22.822 8.336 22.767 8.383 22.71 8.428 22.653 8.468 22.595 8.508 22.536 8.543 22.473 8.575 22.411 8.605 22.346 8.63 22.281 8.652 22.211 8.669 22.142 8.687 22.072 8.697 21.997 8.707 21.923 8.712 21.845 8.712 21.766 8.712 21.766"/>
      <polygon fill="#231F20" points="10.018 24.762 9.923 24.648 9.859 24.648 9.794 24.65 9.729 24.652 9.664 24.657 9.599 24.662 9.535 24.669 9.47 24.677 9.405 24.687 9.343 24.697 9.278 24.709 9.216 24.722 9.153 24.737 9.091 24.754 9.031 24.772 8.972 24.792 8.914 24.814 8.857 24.836 8.8 24.864 8.745 24.889 8.693 24.919 8.64 24.949 8.59 24.984 8.541 25.018 8.493 25.053 8.448 25.093 8.406 25.135 8.364 25.178 8.326 25.223 8.289 25.272 8.254 25.322 8.222 25.375 8.192 25.43 8.184 25.499 8.181 25.564 8.186 25.629 8.198 25.689 8.218 25.746 8.24 25.801 8.268 25.853 8.3 25.903 8.337 25.953 8.375 25.998 8.417 26.043 8.459 26.088 8.504 26.127 8.552 26.17 8.599 26.207 8.644 26.247 8.602 26.307 8.559 26.362 8.512 26.419 8.465 26.471 8.415 26.524 8.365 26.574 8.31 26.621 8.255 26.668 8.198 26.713 8.141 26.755 8.081 26.798 8.019 26.838 7.956 26.875 7.891 26.912 7.824 26.945 7.76 26.977 7.69 27.01 7.623 27.04 7.55 27.067 7.48 27.092 7.408 27.114 7.336 27.137 7.261 27.157 7.186 27.177 7.112 27.194 7.037 27.209 6.962 27.221 6.885 27.234 6.808 27.244 6.731 27.251 6.653 27.256 6.576 27.261 6.549 27.316 6.516 27.368 6.482 27.415 6.447 27.463 6.409 27.505 6.37 27.547 6.33 27.587 6.29 27.627 6.248 27.667 6.205 27.707 6.165 27.744 6.123 27.784 6.083 27.824 6.043 27.866 6.006 27.911 5.969 27.956 6.345 27.899 6.342 27.899 6.364 27.876 6.387 27.849 6.407 27.817 6.427 27.784 6.446 27.749 6.464 27.715 6.484 27.68 6.506 27.647 6.526 27.615 6.548 27.587 6.573 27.563 6.598 27.545 6.628 27.533 6.658 27.528 6.691 27.531 6.728 27.541 6.708 27.578 6.688 27.618 6.668 27.655 6.648 27.693 6.626 27.73 6.606 27.77 6.586 27.807 6.563 27.845 6.543 27.882 6.524 27.922 6.506 27.96 6.486 27.999 6.469 28.037 6.454 28.077 6.439 28.117 6.427 28.156 6.464 28.149 6.503 28.141 6.546 28.134 6.588 28.124 6.633 28.117 6.68 28.107 6.728 28.097 6.775 28.09 6.82 28.08 6.867 28.073 6.912 28.065 6.957 28.058 7 28.05 7.04 28.045 7.079 28.04 7.114 28.038 7.141 27.998 7.164 27.961 7.186 27.926 7.204 27.896 7.221 27.869 7.239 27.841 7.254 27.816 7.269 27.794 7.284 27.771 7.298 27.749 7.316 27.727 7.333 27.702 7.353 27.677 7.376 27.652 7.403 27.622 7.43 27.592 7.468 27.55 7.5 27.535 7.528 27.542 7.555 27.562 7.58 27.594 7.61 27.629 7.642 27.661 7.682 27.686 7.709 27.699 7.737 27.704 7.767 27.704 7.797 27.699 7.824 27.689 7.852 27.674 7.871 27.654 7.886 27.631 7.926 27.577 7.966 27.522 8.009 27.472 8.053 27.422 8.098 27.375 8.146 27.33 8.195 27.288 8.245 27.248 8.298 27.208 8.35 27.17 8.405 27.136 8.459 27.103 8.517 27.071 8.574 27.039 8.631 27.009 8.691 26.981 8.751 26.954 8.811 26.929 8.87 26.904 8.933 26.879 8.995 26.857 9.058 26.834 9.12 26.812 9.182 26.792 9.247 26.772 9.309 26.752 9.371 26.732 9.436 26.712 9.498 26.695 9.56 26.675 9.623 26.655 9.685 26.637 9.735 26.617 9.772 26.595 9.8 26.573 9.815 26.545 9.825 26.518 9.825 26.488 9.817 26.455 9.804 26.423 9.79 26.391 9.769 26.356 9.747 26.324 9.725 26.289 9.702 26.254 9.682 26.221 9.662 26.186 9.647 26.154 9.623 26.084 9.61 26.015 9.608 25.942 9.613 25.87 9.628 25.796 9.653 25.723 9.683 25.651 9.718 25.579 9.758 25.507 9.802 25.439 9.85 25.372 9.9 25.307 9.949 25.247 10.002 25.19 10.052 25.138 10.099 25.088 10.097 25.138 10.092 25.19 10.082 25.245 10.067 25.302 10.052 25.362 10.037 25.422 10.022 25.479 10.007 25.536 9.997 25.591 9.99 25.644 9.985 25.691 9.987 25.733 9.997 25.771 10.015 25.801 10.04 25.823 10.077 25.838 10.109 25.843 10.142 25.843 10.172 25.84 10.202 25.838 10.229 25.838 10.254 25.84 10.271 25.847 10.286 25.862 10.309 25.894 10.334 25.917 10.364 25.932 10.396 25.939 10.428 25.939 10.466 25.937 10.503 25.927 10.541 25.914 10.593 25.887 10.635 25.862 10.67 25.834 10.695 25.809 10.713 25.787 10.723 25.77 10.728 25.76 10.73 25.755 10.717 25.748 10.68 25.725 10.63 25.69 10.568 25.645 10.503 25.593 10.441 25.536 10.388 25.478 10.351 25.418 10.333 25.379 10.316 25.341 10.296 25.301 10.274 25.264 10.251 25.224 10.229 25.187 10.204 25.147 10.181 25.107 10.157 25.067 10.134 25.027 10.112 24.985 10.089 24.943 10.07 24.9 10.049 24.855 10.032 24.811 10.017 24.763 10.017 24.763"/>
      <polygon fill="#ED192D" points="9.846 24.879 9.911 24.879 9.963 24.884 10.003 24.892 10.036 24.899 10.058 24.906 10.073 24.911 10.08 24.916 10.083 24.918 10.185 25.11 10.178 25.108 10.155 25.098 10.123 25.086 10.08 25.068 10.033 25.053 9.981 25.036 9.928 25.018 9.876 25.006 9.836 24.996 9.786 24.989 9.734 24.984 9.682 24.979 9.632 24.974 9.592 24.972 9.565 24.97 9.555 24.97 9.56 24.965 9.572 24.955 9.597 24.942 9.63 24.925 9.67 24.907 9.719 24.895 9.779 24.885 9.846 24.88 9.846 24.88"/>
      <polygon fill="#231F20" points="12.499 20.709 12.437 20.627 12.459 20.61 12.482 20.595 12.507 20.582 12.532 20.572 12.559 20.562 12.586 20.557 12.616 20.552 12.646 20.549 12.711 20.554 12.768 20.572 12.823 20.599 12.87 20.634 12.908 20.679 12.937 20.729 12.955 20.784 12.962 20.843 12.962 20.863 12.96 20.881 12.958 20.901 12.953 20.918 12.948 20.936 12.941 20.953 12.933 20.97 12.926 20.988 12.796 20.861 12.814 20.854 12.831 20.849 12.849 20.842 12.869 20.837 12.886 20.834 12.906 20.829 12.924 20.829 12.941 20.826 13.003 20.831 13.063 20.848 13.115 20.876 13.163 20.91 13.2 20.955 13.23 21.005 13.248 21.06 13.255 21.12 13.255 21.145 13.253 21.167 13.248 21.19 13.243 21.212 13.233 21.235 13.222 21.255 13.21 21.274 13.197 21.294 13.088 21.13 13.105 21.128 13.12 21.128 13.135 21.125 13.15 21.125 13.215 21.13 13.275 21.147 13.327 21.175 13.375 21.212 13.414 21.255 13.444 21.304 13.462 21.359 13.469 21.419 13.467 21.449 13.465 21.476 13.457 21.504 13.447 21.531 13.434 21.556 13.419 21.581 13.402 21.603 13.382 21.623 13.315 21.424 13.362 21.439 13.404 21.454 13.439 21.474 13.467 21.496 13.492 21.524 13.507 21.558 13.517 21.598 13.522 21.646 13.522 21.678 13.522 21.711 13.519 21.74 13.517 21.77 13.51 21.803 13.499 21.84 13.482 21.88 13.459 21.925 13.459 21.925 13.41 21.838 13.355 21.75 13.298 21.666 13.236 21.584 13.171 21.504 13.103 21.427 13.031 21.352 12.959 21.28 12.884 21.21 12.807 21.145 12.73 21.083 12.65 21.023 12.568 20.968 12.488 20.916 12.406 20.869 12.324 20.824 12.242 20.784 12.167 20.746 12.097 20.717 12.035 20.689 11.98 20.667 11.928 20.647 11.878 20.632 11.833 20.619 11.788 20.609 11.743 20.604 11.701 20.601 11.656 20.604 11.609 20.607 11.559 20.615 11.507 20.622 11.449 20.635 11.412 20.76 11.427 20.755 11.442 20.75 11.457 20.748 11.471 20.746 11.486 20.743 11.501 20.741 11.519 20.739 11.534 20.739 11.599 20.744 11.656 20.761 11.711 20.788 11.756 20.823 11.796 20.868 11.826 20.918 11.843 20.973 11.85 21.033 11.768 21.045 11.785 21.035 11.803 21.028 11.82 21.023 11.838 21.018 11.858 21.013 11.875 21.01 11.895 21.008 11.915 21.008 11.98 21.013 12.037 21.03 12.092 21.058 12.139 21.095 12.179 21.138 12.207 21.187 12.226 21.242 12.233 21.302 12.233 21.317 12.231 21.334 12.229 21.349 12.227 21.367 12.222 21.384 12.217 21.399 12.212 21.417 12.204 21.432 12.199 21.362 12.264 21.367 12.321 21.384 12.376 21.409 12.424 21.447 12.461 21.489 12.491 21.539 12.508 21.594 12.516 21.653 12.516 21.673 12.514 21.693 12.511 21.711 12.506 21.731 12.501 21.748 12.496 21.763 12.489 21.78 12.481 21.795 12.417 21.708 12.479 21.716 12.536 21.734 12.586 21.761 12.633 21.796 12.668 21.841 12.698 21.888 12.716 21.943 12.721 22.003 12.721 22.023 12.718 22.04 12.716 22.06 12.714 22.077 12.709 22.095 12.702 22.112 12.694 22.13 12.684 22.145 12.649 22.082 12.701 22.095 12.748 22.117 12.793 22.147 12.83 22.182 12.86 22.222 12.883 22.267 12.898 22.317 12.903 22.369 12.903 22.391 12.9 22.414 12.895 22.436 12.89 22.459 12.883 22.479 12.875 22.499 12.865 22.518 12.853 22.536 12.818 22.439 12.845 22.459 12.87 22.479 12.89 22.499 12.907 22.521 12.92 22.546 12.93 22.573 12.937 22.606 12.939 22.641 12.939 22.666 12.939 22.691 12.937 22.715 12.934 22.741 12.932 22.768 12.93 22.793 12.925 22.818 12.92 22.843 12.913 22.867 12.905 22.895 12.898 22.922 12.885 22.95 12.875 22.977 12.86 23.007 12.845 23.037 12.828 23.067 12.718 23.251 12.718 23.177 12.716 23.099 12.708 23.025 12.696 22.95 12.681 22.875 12.661 22.803 12.639 22.728 12.614 22.656 12.584 22.584 12.554 22.512 12.519 22.439 12.479 22.37 12.44 22.302 12.397 22.233 12.352 22.168 12.305 22.101 12.255 22.038 12.203 21.976 12.148 21.914 12.093 21.854 12.036 21.797 11.978 21.742 11.919 21.687 11.859 21.635 11.797 21.585 11.734 21.535 11.672 21.49 11.607 21.445 11.545 21.405 11.48 21.366 11.416 21.331 11.351 21.296 11.284 21.263 11.216 21.233 11.149 21.203 11.079 21.176 11.01 21.149 10.937 21.124 10.868 21.099 10.795 21.074 10.72 21.051 10.648 21.032 10.574 21.012 10.499 20.992 10.424 20.974 10.349 20.959 10.275 20.944 10.198 20.932 10.123 20.922 10.046 20.912 9.968 20.905 9.891 20.898 9.814 20.893 9.739 20.89 9.662 20.888 9.585 20.888 9.508 20.89 9.43 20.895 9.353 20.9 9.278 20.908 9.201 20.918 9.126 20.928 9.049 20.943 8.974 20.958 8.94 20.968 8.907 20.981 8.877 20.993 8.848 21.005 8.818 21.02 8.79 21.035 8.763 21.05 8.738 21.068 8.765 21.083 8.793 21.095 8.82 21.108 8.85 21.118 8.88 21.128 8.91 21.135 8.94 21.142 8.972 21.147 9.005 21.154 9.037 21.159 9.067 21.166 9.099 21.173 9.131 21.181 9.164 21.188 9.194 21.198 9.224 21.21 9.274 21.23 9.316 21.26 9.353 21.295 9.383 21.335 9.411 21.377 9.438 21.42 9.468 21.462 9.5 21.499 9.423 21.514 9.348 21.529 9.274 21.544 9.204 21.557 9.134 21.569 9.067 21.576 9.002 21.579 8.937 21.579 8.878 21.571 8.815 21.559 8.758 21.541 8.701 21.514 8.646 21.477 8.591 21.432 8.539 21.377 8.487 21.312 8.442 21.342 8.397 21.374 8.349 21.407 8.305 21.442 8.257 21.477 8.21 21.509 8.163 21.539 8.113 21.569 8.063 21.594 8.011 21.616 7.958 21.631 7.904 21.641 7.846 21.646 7.786 21.641 7.726 21.628 7.662 21.609 7.634 21.604 7.607 21.597 7.58 21.592 7.55 21.587 7.522 21.582 7.492 21.577 7.462 21.575 7.432 21.57 7.403 21.568 7.373 21.568 7.345 21.566 7.315 21.568 7.288 21.568 7.263 21.57 7.238 21.575 7.213 21.58 7.201 21.62 7.183 21.657 7.158 21.694 7.128 21.729 7.096 21.761 7.059 21.791 7.019 21.819 6.976 21.841 6.939 21.838 6.902 21.841 6.867 21.848 6.835 21.855 6.8 21.865 6.767 21.87 6.735 21.87 6.7 21.863 6.745 21.841 6.787 21.811 6.83 21.776 6.865 21.736 6.892 21.691 6.909 21.641 6.914 21.587 6.904 21.529 6.885 21.507 6.862 21.492 6.837 21.479 6.812 21.469 6.788 21.464 6.76 21.464 6.73 21.464 6.703 21.467 6.673 21.472 6.643 21.479 6.616 21.484 6.586 21.494 6.558 21.501 6.531 21.506 6.506 21.514 6.481 21.519 6.414 21.554 6.381 21.524 6.351 21.492 6.329 21.462 6.312 21.432 6.297 21.407 6.289 21.387 6.284 21.375 6.282 21.37 6.787 21.183 6.772 21.138 6.742 21.106 6.7 21.081 6.653 21.066 6.598 21.059 6.538 21.054 6.478 21.051 6.419 21.049 6.364 21.046 6.316 21.039 6.276 21.024 6.246 21.004 6.231 20.971 6.234 20.929 6.254 20.874 6.294 20.802 6.287 20.772 6.27 20.745 6.247 20.72 6.225 20.695 6.207 20.67 6.199 20.645 6.207 20.618 6.235 20.585 6.319 20.627 6.402 20.657 6.481 20.675 6.558 20.685 6.631 20.687 6.703 20.68 6.773 20.665 6.842 20.645 6.91 20.62 6.977 20.587 7.044 20.555 7.109 20.518 7.174 20.478 7.241 20.438 7.308 20.398 7.375 20.358 7.418 20.336 7.463 20.313 7.507 20.293 7.555 20.274 7.602 20.256 7.649 20.241 7.699 20.226 7.747 20.211 7.794 20.199 7.841 20.189 7.886 20.182 7.931 20.175 7.973 20.17 8.013 20.165 8.05 20.165 8.085 20.165 8.17 20.17 8.247 20.175 8.317 20.182 8.382 20.192 8.439 20.202 8.491 20.214 8.542 20.232 8.586 20.247 8.628 20.267 8.668 20.289 8.708 20.314 8.748 20.341 8.786 20.369 8.825 20.401 8.865 20.436 8.908 20.473 8.905 20.466 8.903 20.444 8.896 20.414 8.891 20.379 8.884 20.344 8.876 20.312 8.874 20.287 8.871 20.274 8.879 20.215 8.899 20.16 8.931 20.108 8.973 20.063 9.025 20.028 9.085 19.998 9.153 19.98 9.225 19.973 9.287 19.978 9.345 19.991 9.397 20.008 9.447 20.036 9.489 20.066 9.524 20.103 9.554 20.145 9.574 20.19 9.514 20.203 9.514 20.198 9.514 20.193 9.514 20.191 9.514 20.186 9.522 20.126 9.542 20.071 9.574 20.019 9.617 19.976 9.669 19.939 9.729 19.911 9.796 19.894 9.868 19.887 9.945 19.892 10.018 19.907 10.08 19.929 10.132 19.959 10.177 19.997 10.212 20.039 10.237 20.086 10.252 20.139 10.147 20.141 10.162 20.088 10.192 20.039 10.232 19.994 10.282 19.956 10.337 19.924 10.399 19.899 10.466 19.884 10.533 19.879 10.605 19.884 10.673 19.902 10.735 19.926 10.787 19.964 10.832 20.006 10.865 20.056 10.887 20.111 10.894 20.171 10.894 20.181 10.894 20.191 10.891 20.198 10.891 20.205 10.829 20.18 10.849 20.13 10.879 20.085 10.919 20.043 10.969 20.008 11.023 19.98 11.081 19.961 11.141 19.948 11.2 19.943 11.265 19.948 11.325 19.965 11.377 19.991 11.425 20.028 11.465 20.07 11.494 20.12 11.512 20.175 11.519 20.235 11.519 20.247 11.517 20.257 11.517 20.27 11.515 20.28 11.512 20.292 11.51 20.302 11.507 20.312 11.504 20.322 11.442 20.297 11.459 20.257 11.484 20.22 11.517 20.188 11.551 20.158 11.594 20.135 11.639 20.118 11.686 20.108 11.736 20.103 11.798 20.108 11.858 20.125 11.91 20.153 11.957 20.187 11.997 20.232 12.025 20.282 12.045 20.337 12.052 20.397 12.052 20.409 12.052 20.422 12.05 20.432 12.05 20.444 12.048 20.454 12.046 20.467 12.041 20.477 12.039 20.489 11.934 20.469 11.957 20.439 11.984 20.412 12.014 20.387 12.046 20.365 12.084 20.347 12.121 20.335 12.163 20.328 12.206 20.325 12.268 20.33 12.328 20.347 12.38 20.375 12.428 20.41 12.467 20.454 12.495 20.504 12.515 20.559 12.523 20.619 12.523 20.631 12.523 20.644 12.521 20.656 12.519 20.666 12.516 20.679 12.513 20.691 12.511 20.701 12.506 20.714 12.506 20.714"/>
      <polygon fill="#FFF" fill-rule="nonzero" points="11.453 20.774 11.378 20.779 11.378 20.704 11.518 20.704 11.443 20.634 11.62 20.622 11.63 20.762 11.453 20.774 11.378 20.704 11.453 20.774 11.453 20.774"/>
      <polygon fill="#FFF" fill-rule="nonzero" points="11.112 20.358 11.114 20.358 11.188 20.363 11.261 20.383 11.328 20.41 11.388 20.45 11.443 20.5 11.48 20.56 11.507 20.627 11.517 20.704 11.378 20.704 11.373 20.662 11.355 20.624 11.333 20.589 11.303 20.559 11.263 20.535 11.216 20.512 11.169 20.502 11.114 20.497 11.116 20.497 11.111 20.358 11.111 20.358"/>
      <polygon fill="#FFF" fill-rule="nonzero" points="10.887 20.557 10.793 20.657 10.768 20.522 10.902 20.497 10.783 20.463 10.82 20.43 10.863 20.408 10.905 20.393 10.947 20.378 10.994 20.368 11.034 20.363 11.074 20.36 11.112 20.358 11.117 20.497 11.084 20.5 11.049 20.502 11.015 20.507 10.982 20.512 10.95 20.522 10.917 20.532 10.9 20.545 10.887 20.557 10.768 20.522 10.887 20.557 10.887 20.557"/>
      <polygon fill="#FFF" fill-rule="nonzero" points="10.887 20.557 10.793 20.657 10.768 20.522 10.902 20.497 10.835 20.51 10.835 20.51 10.835 20.51 10.835 20.51 10.768 20.522 10.887 20.557 10.887 20.557"/>
      <polygon fill="#FFF" fill-rule="nonzero" points="10.559 20.216 10.559 20.216 10.623 20.219 10.683 20.234 10.741 20.256 10.79 20.289 10.833 20.334 10.865 20.383 10.887 20.438 10.902 20.498 10.768 20.523 10.758 20.483 10.74 20.448 10.723 20.418 10.701 20.398 10.676 20.381 10.643 20.368 10.604 20.358 10.559 20.356 10.559 20.356 10.559 20.217"/>
      <polygon fill="#FFF" fill-rule="nonzero" points="10.307 20.42 10.245 20.5 10.193 20.413 10.312 20.343 10.197 20.336 10.235 20.299 10.28 20.271 10.324 20.254 10.369 20.239 10.419 20.226 10.466 20.221 10.514 20.216 10.559 20.216 10.559 20.356 10.524 20.356 10.482 20.361 10.444 20.366 10.404 20.373 10.369 20.383 10.339 20.395 10.32 20.408 10.307 20.42 10.193 20.413 10.307 20.42 10.307 20.42"/>
      <polygon fill="#FFF" fill-rule="nonzero" points="10.307 20.42 10.245 20.5 10.193 20.413 10.312 20.343 10.252 20.378 10.252 20.378 10.252 20.378 10.252 20.378 10.192 20.413 10.307 20.42 10.307 20.42"/>
      <polygon fill="#FFF" fill-rule="nonzero" points="9.991 20.151 9.991 20.151 10.038 20.153 10.083 20.163 10.13 20.178 10.172 20.201 10.215 20.228 10.25 20.263 10.282 20.3 10.312 20.343 10.193 20.412 10.172 20.385 10.15 20.357 10.125 20.338 10.103 20.32 10.076 20.308 10.048 20.298 10.018 20.293 9.991 20.29 9.991 20.29 9.991 20.15"/>
      <polygon fill="#FFF" fill-rule="nonzero" points="9.682 20.433 9.632 20.482 9.582 20.43 9.682 20.335 9.582 20.334 9.622 20.296 9.664 20.266 9.711 20.236 9.764 20.209 9.819 20.186 9.874 20.169 9.931 20.157 9.991 20.152 9.991 20.291 9.951 20.296 9.908 20.303 9.863 20.316 9.824 20.333 9.781 20.356 9.744 20.381 9.711 20.405 9.681 20.433 9.582 20.431 9.681 20.433 9.681 20.433"/>
      <polygon fill="#FFF" fill-rule="nonzero" points="9.682 20.433 9.632 20.482 9.582 20.43 9.682 20.335 9.632 20.383 9.632 20.383 9.632 20.383 9.632 20.383 9.582 20.43 9.681 20.432 9.681 20.432"/>
      <polygon fill="#FFF" fill-rule="nonzero" points="9.268 20.176 9.268 20.176 9.321 20.176 9.375 20.181 9.43 20.193 9.485 20.208 9.54 20.231 9.587 20.261 9.634 20.293 9.682 20.335 9.582 20.43 9.55 20.403 9.512 20.375 9.475 20.355 9.44 20.338 9.4 20.328 9.355 20.321 9.315 20.316 9.268 20.316 9.268 20.316 9.268 20.176"/>
      <polygon fill="#FFF" fill-rule="nonzero" points="8.845 20.363 8.855 20.353 8.885 20.333 8.93 20.303 8.985 20.271 9.047 20.238 9.116 20.208 9.191 20.186 9.268 20.176 9.268 20.315 9.221 20.32 9.167 20.338 9.107 20.363 9.054 20.39 9.004 20.423 8.964 20.448 8.94 20.467 8.93 20.472 8.845 20.363 8.845 20.363"/>
      <polygon fill="#FFF" points="8.045 20.722 8.045 20.722 8.03 20.747 8.01 20.771 7.983 20.791 7.953 20.809 7.918 20.821 7.88 20.834 7.838 20.839 7.796 20.841 7.756 20.839 7.716 20.832 7.679 20.822 7.646 20.807 7.617 20.789 7.592 20.769 7.569 20.747 7.552 20.724 7.552 20.724 7.569 20.702 7.592 20.679 7.619 20.66 7.649 20.642 7.684 20.63 7.719 20.62 7.758 20.612 7.798 20.61 7.843 20.612 7.883 20.617 7.92 20.627 7.955 20.639 7.985 20.657 8.01 20.677 8.03 20.696 8.045 20.721 8.045 20.721"/>
      <polygon fill="#231F20" points="7.811 20.799 7.783 20.797 7.758 20.789 7.734 20.776 7.714 20.761 7.696 20.741 7.684 20.722 7.676 20.697 7.674 20.672 7.676 20.644 7.684 20.622 7.696 20.599 7.714 20.579 7.734 20.564 7.756 20.552 7.783 20.542 7.811 20.539 7.838 20.542 7.863 20.549 7.888 20.562 7.908 20.577 7.925 20.596 7.938 20.619 7.946 20.641 7.948 20.669 7.946 20.694 7.938 20.719 7.925 20.741 7.908 20.759 7.888 20.776 7.866 20.788 7.838 20.796 7.811 20.798 7.811 20.798"/>
      <polygon fill="#ED192D" points="6.77 21.305 6.777 21.158 6.772 21.158 6.757 21.16 6.732 21.16 6.699 21.162 6.662 21.165 6.62 21.167 6.575 21.169 6.527 21.172 6.478 21.177 6.43 21.179 6.383 21.181 6.34 21.183 6.301 21.183 6.268 21.185 6.243 21.185 6.226 21.185 6.201 21.185 6.171 21.183 6.139 21.181 6.106 21.176 6.071 21.171 6.041 21.166 6.014 21.159 5.994 21.152 5.979 21.145 5.964 21.138 5.952 21.128 5.939 21.118 5.927 21.103 5.909 21.083 5.887 21.055 5.859 21.02 5.832 20.98 5.81 20.938 5.792 20.901 5.777 20.863 5.762 20.836 5.745 20.814 5.722 20.801 5.692 20.799 5.677 20.804 5.66 20.817 5.647 20.834 5.633 20.859 5.623 20.886 5.613 20.919 5.608 20.951 5.606 20.989 5.608 21.029 5.613 21.068 5.623 21.108 5.638 21.151 5.66 21.19 5.688 21.228 5.722 21.265 5.765 21.298 5.815 21.325 5.872 21.348 5.934 21.365 5.999 21.375 6.069 21.382 6.144 21.384 6.216 21.384 6.29 21.379 6.363 21.372 6.435 21.364 6.505 21.354 6.57 21.344 6.629 21.334 6.682 21.321 6.729 21.314 6.769 21.304 6.769 21.304"/>
      <polygon fill="#231F20" fill-rule="nonzero" points="5.785 21.27 5.785 21.268 5.83 21.292 5.883 21.315 5.943 21.33 6.005 21.34 6.072 21.348 6.144 21.35 6.217 21.35 6.289 21.345 6.361 21.338 6.431 21.331 6.5 21.321 6.565 21.311 6.622 21.301 6.675 21.288 6.722 21.281 6.762 21.271 6.777 21.341 6.737 21.351 6.69 21.358 6.637 21.37 6.575 21.381 6.51 21.39 6.441 21.401 6.366 21.407 6.294 21.415 6.217 21.419 6.144 21.419 6.067 21.418 5.995 21.41 5.928 21.399 5.863 21.38 5.8 21.357 5.746 21.327 5.746 21.324 5.785 21.269 5.785 21.269"/>
      <polygon fill="#231F20" fill-rule="nonzero" points="5.699 20.834 5.699 20.834 5.696 20.834 5.686 20.841 5.678 20.853 5.665 20.873 5.655 20.895 5.647 20.925 5.642 20.953 5.64 20.988 5.642 21.025 5.647 21.06 5.655 21.097 5.67 21.135 5.69 21.17 5.715 21.204 5.745 21.239 5.785 21.269 5.745 21.324 5.7 21.289 5.66 21.249 5.63 21.21 5.606 21.165 5.591 21.117 5.578 21.075 5.573 21.03 5.57 20.988 5.573 20.948 5.578 20.91 5.591 20.875 5.601 20.843 5.618 20.813 5.636 20.791 5.66 20.773 5.688 20.763 5.688 20.763 5.698 20.833 5.698 20.833"/>
      <polygon fill="#231F20" fill-rule="nonzero" points="5.833 21.041 5.833 21.043 5.803 20.998 5.778 20.953 5.761 20.915 5.746 20.878 5.733 20.856 5.723 20.838 5.713 20.833 5.698 20.833 5.688 20.764 5.733 20.769 5.768 20.788 5.793 20.816 5.81 20.848 5.825 20.886 5.843 20.923 5.863 20.963 5.888 20.998 5.888 21 5.833 21.04 5.833 21.04"/>
      <polygon fill="#231F20" fill-rule="nonzero" points="5.98 21.185 5.978 21.183 5.965 21.176 5.948 21.169 5.931 21.156 5.916 21.144 5.901 21.127 5.883 21.107 5.861 21.079 5.833 21.042 5.888 21.002 5.916 21.034 5.938 21.062 5.955 21.082 5.965 21.094 5.975 21.101 5.982 21.108 5.995 21.116 6.012 21.123 6.01 21.121 5.98 21.186 5.98 21.186"/>
      <polygon fill="#231F20" fill-rule="nonzero" points="6.226 21.222 6.226 21.222 6.199 21.222 6.169 21.22 6.134 21.218 6.102 21.213 6.067 21.208 6.035 21.203 6.005 21.193 5.98 21.186 6.01 21.122 6.025 21.129 6.05 21.134 6.077 21.139 6.112 21.144 6.144 21.149 6.174 21.151 6.204 21.153 6.226 21.153 6.226 21.153 6.226 21.222"/>
      <polygon fill="#231F20" fill-rule="nonzero" points="6.774 21.123 6.814 21.121 6.813 21.161 6.742 21.156 6.78 21.193 6.778 21.193 6.76 21.196 6.736 21.196 6.703 21.198 6.666 21.2 6.623 21.203 6.579 21.205 6.531 21.207 6.481 21.212 6.434 21.214 6.387 21.217 6.342 21.219 6.302 21.219 6.272 21.221 6.245 21.221 6.227 21.221 6.227 21.151 6.245 21.151 6.267 21.151 6.302 21.149 6.342 21.149 6.382 21.147 6.429 21.144 6.476 21.142 6.526 21.137 6.574 21.135 6.618 21.133 6.661 21.13 6.698 21.128 6.73 21.125 6.755 21.125 6.768 21.123 6.775 21.123 6.813 21.161 6.775 21.123 6.775 21.123"/>
      <polygon fill="#231F20" fill-rule="nonzero" points="6.804 21.307 6.802 21.332 6.777 21.339 6.762 21.269 6.735 21.302 6.742 21.155 6.812 21.16 6.804 21.307 6.777 21.339 6.804 21.307 6.804 21.307"/>
      <path stroke="#656263" stroke-width=".75" d="M0.52237,10.37759 L16.21487,10.38572 L16.21487,22.04222 C16.21487,25.76697 13.12762,29.45134 8.36175,29.45134 C3.944,29.45134 0.479,26.09997 0.50862,22.04222 L0.52232,10.37759 L0.52237,10.37759 Z"/>
      <text fill="#5A5758" font-family="Helvetica" font-size="8">
        <tspan x="2" y="8.094">GR</tspan>
      </text>
    </g>
  </g>
</svg>
