<svg xmlns="http://www.w3.org/2000/svg" width="147" height="107" viewBox="0 0 147 107">
  <g fill="none" fill-rule="evenodd" transform="translate(.666 .815)">
    <polygon fill="#CCE4F7" fill-rule="nonzero" stroke="#CCE4F7" stroke-width=".709" points="144.748 47.594 141.592 46.142 141.924 44.398 142.145 43.181 137.94 39.626 132.987 40.04 131.617 40.345 125.738 39.902 124.755 39.238 121.394 37.899 121.463 37.011 116.275 37.094 116.677 34.451 116.623 32.972 114.112 31.376 109.386 28.516 109.04 27.105 106.453 26.925 105.263 26.842 105.733 25.21 99.01 21.752 99.328 19.164 91.399 19.478 82.532 24.472 80.221 19.782 71.948 19.63 67.452 18.44 69.141 12.132 73.788 3.292 65.308 4.233 58.973 .263 55.763 2.877 48.251 4.897 41.349 1.978 40.657 2.075 37.489 0 29.673 2.905 31.305 11.136 33.2 11.067 33.283 12.464 32.232 16.296 27.086 17.043 25.73 20.378 20.971 21.097 20.57 29.203 15.466 29.605 13.764 36.176 9.392 39.012 8.438 44.725 13.902 43.121 19.533 43.439 27.376 42.775 35.4 39.178 39.827 40.658 45.526 47.81 44.419 50.688 39.854 52.459 34.874 53.565 36.133 56.567 34.24 60.012 22.203 63.482 20.751 64.921 22.01 74.867 21.041 80.401 10.223 88.91 6.391 94.291 0 98.468 3.79 100.682 4.552 100.677 6.667 98.187 9.005 105.242 15.563 101.41 20.556 96.402 21.58 94.908 22.95 94.327 23.752 96.319 29.521 97.716 31.679 93.829 35.954 92.197 37.891 91.311 39.523 88.365 39.813 87.769 41.639 84.311 42.262 82.692 44.656 81.392 44.31 78.638 44.531 78.237 48.875 76.467 50.701 79.718 63.29 76.964 62.958 70.186 67.025 68.54 67.316 66.022 65.947 63.061 68.201 62.743 74.551 62.355 75.437 64.376 75.921 64.32 79.919 64.569 84.442 65.386 87.14 65.454 89.589 65.69 95.136 64.639 101.224 59.34 103.409 59.409 109.552 56.628 112.042 57.195 118.226 59.077 122.099 58.578 122.473 58.523 128.933 59.021 132.295 60.46 137.345 58.233 145.977 54.415 144.524 52.657 140.263 54.415 138.341 53.612 139.018 52.962 143.681 48.576 144.747 47.594"/>
    <g transform="translate(66.57 28.762)">
      <polygon fill="#FFF" points="16.182 10.5 16.182 22.149 16.172 22.53 16.142 22.906 16.092 23.277 16.022 23.641 15.935 23.999 15.83 24.351 15.706 24.694 15.566 25.031 15.409 25.36 15.235 25.679 15.046 25.987 14.844 26.289 14.625 26.578 14.391 26.857 14.144 27.126 13.885 27.382 13.613 27.629 13.329 27.861 13.033 28.08 12.726 28.287 12.408 28.478 12.079 28.658 11.74 28.82 11.394 28.969 11.037 29.101 10.674 29.218 10.3 29.318 9.921 29.4 9.535 29.465 9.144 29.512 8.746 29.54 8.342 29.55 7.938 29.54 7.54 29.512 7.149 29.465 6.763 29.4 6.382 29.318 6.01 29.218 5.647 29.101 5.29 28.969 4.942 28.82 4.605 28.658 4.276 28.478 3.958 28.287 3.651 28.08 3.355 27.861 3.071 27.629 2.797 27.382 2.538 27.126 2.291 26.857 2.059 26.578 1.84 26.289 1.636 25.987 1.447 25.679 1.275 25.36 1.115 25.031 .976 24.694 .854 24.351 .746 23.999 .659 23.641 .59 23.277 .54 22.906 .51 22.53 .5 22.149 .5 10.512 8.35 10.5 8.343 29.55 8.35 10.5 16.182 10.5 16.182 10.5"/>
      <polygon fill="#231F20" fill-rule="nonzero" points="16.184 15.943 16.237 15.943 16.237 18.668 16.132 18.668 16.132 15.943 16.184 15.943 16.184 15.943"/>
      <polygon fill="#ED192D" points="16.182 13.223 8.345 13.223 8.345 10.502 16.182 10.502"/>
      <polygon fill="#ED192D" points="16.182 18.671 8.345 18.671 8.345 15.948 16.182 15.948"/>
      <polygon fill="#ED192D" points="16.182 21.386 16.184 21.386 16.184 22.149 16.184 22.213 16.184 22.276 16.182 22.34 16.18 22.403 16.178 22.465 16.175 22.53 16.173 22.592 16.168 22.654 16.163 22.717 16.158 22.779 16.153 22.842 16.146 22.904 16.139 22.966 16.132 23.028 16.125 23.088 16.117 23.15 16.107 23.213 16.097 23.273 16.087 23.335 16.077 23.395 16.067 23.454 16.054 23.517 16.042 23.577 16.029 23.636 16.017 23.696 16.002 23.756 15.99 23.816 15.975 23.876 15.96 23.933 15.942 23.993 15.927 24.052 15.91 24.11 15.908 24.11 8.347 24.11 8.347 21.387 16.184 21.387 16.184 21.387"/>
      <polygon fill="#ED192D" points="8.345 29.55 8.345 29.54 8.345 26.834 14.416 26.834 14.416 26.832 14.279 26.987 14.137 27.136 13.992 27.283 13.843 27.425 13.688 27.565 13.531 27.699 13.369 27.831 13.205 27.956 13.036 28.08 12.864 28.197 12.689 28.312 12.51 28.422 12.326 28.526 12.141 28.626 11.952 28.723 11.76 28.813 11.563 28.9 11.366 28.98 11.167 29.057 10.963 29.127 10.756 29.194 10.549 29.254 10.337 29.308 10.123 29.358 9.909 29.403 9.69 29.44 9.471 29.475 9.249 29.5 9.027 29.523 8.8 29.538 8.574 29.548 8.345 29.551 8.345 29.551"/>
      <polygon fill="#231F20" fill-rule="nonzero" points="8.297 10.5 8.297 10.448 8.35 10.448 8.297 10.5 8.35 10.448 16.182 10.448 16.182 10.552 8.35 10.552 8.402 10.5 8.297 10.5"/>
      <polygon fill="#231F20" fill-rule="nonzero" points="8.394 29.55 8.29 29.55 8.297 10.5 8.402 10.5 8.395 29.55 8.29 29.55 8.395 29.55"/>
      <polygon fill="#231F20" fill-rule="nonzero" points="8.35 10.448 8.402 10.448 8.402 10.5 8.35 10.448 8.402 10.5 8.395 29.55 8.29 29.55 8.297 10.5 8.35 10.552 8.35 10.448"/>
      <polygon fill="#231F20" fill-rule="nonzero" points=".448 10.512 .448 10.46 .5 10.46 .448 10.512 .5 10.46 8.35 10.448 8.35 10.552 .5 10.565 .552 10.512 .448 10.512"/>
      <polygon fill="#231F20" fill-rule="nonzero" points=".448 22.149 .448 22.149 .448 10.512 .552 10.512 .552 22.149 .552 22.149"/>
      <polygon fill="#231F20" fill-rule="nonzero" points="8.342 29.602 8.342 29.602 7.936 29.592 7.535 29.565 7.141 29.517 6.753 29.452 6.369 29.368 5.995 29.268 5.629 29.151 5.271 29.017 4.919 28.867 4.581 28.705 4.252 28.523 3.93 28.331 3.621 28.122 3.322 27.903 3.036 27.669 2.762 27.42 2.5 27.163 2.251 26.892 2.02 26.61 1.798 26.319 1.591 26.015 1.402 25.703 1.227 25.384 1.068 25.053 .926 24.712 .804 24.368 .697 24.012 .607 23.651 .537 23.284 .487 22.911 .458 22.532 .448 22.148 .552 22.148 .562 22.527 .592 22.901 .642 23.269 .712 23.631 .796 23.987 .904 24.333 1.026 24.677 1.163 25.008 1.322 25.335 1.492 25.654 1.681 25.96 1.883 26.259 2.099 26.545 2.331 26.822 2.575 27.088 2.832 27.345 3.106 27.589 3.387 27.818 3.681 28.038 3.985 28.242 4.301 28.434 4.63 28.611 4.964 28.772 5.31 28.922 5.664 29.051 6.025 29.169 6.394 29.268 6.773 29.348 7.156 29.413 7.545 29.46 7.941 29.487 8.342 29.497 8.342 29.497 8.342 29.602"/>
      <polygon fill="#231F20" fill-rule="nonzero" points="16.234 22.149 16.234 22.149 16.224 22.532 16.194 22.911 16.144 23.285 16.075 23.651 15.985 24.012 15.88 24.368 15.756 24.714 15.614 25.053 15.457 25.384 15.28 25.703 15.09 26.015 14.886 26.319 14.665 26.61 14.43 26.892 14.181 27.163 13.92 27.42 13.648 27.669 13.362 27.903 13.063 28.122 12.754 28.332 12.433 28.523 12.104 28.705 11.762 28.867 11.414 29.017 11.055 29.151 10.689 29.268 10.312 29.368 9.931 29.453 9.543 29.517 9.149 29.565 8.748 29.592 8.342 29.602 8.342 29.498 8.743 29.488 9.139 29.46 9.528 29.413 9.911 29.348 10.288 29.269 10.659 29.169 11.02 29.052 11.374 28.922 11.718 28.773 12.054 28.611 12.383 28.434 12.699 28.242 13.003 28.038 13.297 27.819 13.578 27.589 13.85 27.345 14.107 27.089 14.351 26.822 14.585 26.546 14.802 26.259 15.001 25.96 15.19 25.654 15.362 25.335 15.519 25.009 15.656 24.675 15.781 24.334 15.885 23.987 15.97 23.631 16.04 23.27 16.089 22.901 16.119 22.527 16.129 22.149 16.129 22.149 16.234 22.149"/>
      <polygon fill="#231F20" fill-rule="nonzero" points="16.182 10.448 16.234 10.448 16.234 10.5 16.182 10.448 16.234 10.5 16.234 22.149 16.129 22.149 16.129 10.5 16.182 10.552 16.182 10.448"/>
      <polygon fill="#231F20" fill-rule="nonzero" points="16.182 13.223 16.182 13.275 8.345 13.275 8.345 13.17 16.182 13.17 16.182 13.223 16.182 13.223"/>
      <polygon fill="#231F20" fill-rule="nonzero" points="8.345 15.948 8.345 15.896 16.182 15.896 16.182 16 8.345 16"/>
      <polygon fill="#231F20" fill-rule="nonzero" points="16.182 18.671 16.182 18.723 8.345 18.723 8.345 18.619 16.182 18.619 16.182 18.671 16.182 18.671"/>
      <polygon fill="#231F20" fill-rule="nonzero" points="15.905 24.109 15.905 24.161 8.345 24.161 8.345 24.057 15.905 24.057 15.905 24.109 15.905 24.109"/>
      <polygon fill="#231F20" fill-rule="nonzero" points="16.182 21.334 16.182 21.334 16.184 21.334 16.184 21.439 16.182 21.439 16.182 21.439"/>
      <polygon fill="#231F20" fill-rule="nonzero" points="8.345 21.386 8.345 21.334 16.182 21.334 16.182 21.439 8.345 21.439 8.345 21.386 8.345 21.386"/>
      <polygon fill="#231F20" fill-rule="nonzero" points="14.468 26.834 14.468 26.887 14.416 26.887 14.416 26.782 14.363 26.834 14.363 26.832 14.468 26.832 14.468 26.834 14.415 26.887 14.468 26.834 14.468 26.834"/>
      <polygon fill="#231F20" fill-rule="nonzero" points="8.345 26.834 8.345 26.782 14.416 26.782 14.416 26.887 8.345 26.887 8.345 26.834 8.345 26.834"/>
      <polygon fill="#ED192D" points="7.57 17.194 3.337 17.194 3.337 16.745 7.57 16.745"/>
      <polygon fill="#231F20" fill-rule="nonzero" points="7.57 16.693 7.622 16.693 7.622 16.745 7.57 16.693 7.622 16.745 7.622 17.194 7.518 17.194 7.518 16.745 7.57 16.798 7.57 16.693"/>
      <polygon fill="#231F20" fill-rule="nonzero" points="3.285 16.745 3.285 16.693 3.337 16.693 3.285 16.745 3.337 16.693 7.57 16.693 7.57 16.798 3.337 16.798 3.39 16.745 3.285 16.745"/>
      <polygon fill="#231F20" fill-rule="nonzero" points="3.337 17.246 3.285 17.246 3.285 17.194 3.337 17.246 3.285 17.194 3.285 16.745 3.39 16.745 3.39 17.194 3.337 17.141 3.337 17.246"/>
      <polygon fill="#231F20" fill-rule="nonzero" points="7.622 17.194 7.622 17.246 7.57 17.246 7.622 17.194 7.57 17.246 3.337 17.246 3.337 17.141 7.57 17.141 7.518 17.194 7.622 17.194"/>
      <polygon fill="#ED192D" points="6.96 17.806 3.945 17.806 3.945 17.358 6.96 17.358"/>
      <polygon fill="#231F20" fill-rule="nonzero" points="6.96 17.306 7.012 17.306 7.012 17.358 6.96 17.306 7.012 17.358 7.012 17.806 6.907 17.806 6.907 17.358 6.96 17.411 6.96 17.306"/>
      <polygon fill="#231F20" fill-rule="nonzero" points="3.893 17.358 3.893 17.306 3.945 17.306 3.893 17.358 3.945 17.306 6.96 17.306 6.96 17.41 3.945 17.41 3.998 17.358 3.893 17.358"/>
      <polygon fill="#231F20" fill-rule="nonzero" points="3.945 17.859 3.893 17.859 3.893 17.806 3.945 17.859 3.893 17.806 3.893 17.358 3.998 17.358 3.998 17.806 3.945 17.754 3.945 17.859"/>
      <polygon fill="#231F20" fill-rule="nonzero" points="7.012 17.806 7.012 17.859 6.96 17.859 7.012 17.806 6.96 17.859 3.945 17.859 3.945 17.754 6.96 17.754 6.907 17.807 7.012 17.807"/>
      <polygon fill="#ED192D" points="6.96 16.568 3.945 16.568 3.945 16.12 6.96 16.12"/>
      <polygon fill="#231F20" fill-rule="nonzero" points="6.96 16.068 7.012 16.068 7.012 16.12 6.96 16.068 7.012 16.12 7.012 16.569 6.907 16.569 6.907 16.12 6.96 16.172 6.96 16.068"/>
      <polygon fill="#231F20" fill-rule="nonzero" points="3.893 16.12 3.893 16.068 3.945 16.068 3.893 16.12 3.945 16.068 6.96 16.068 6.96 16.172 3.945 16.172 3.998 16.12 3.893 16.12"/>
      <polygon fill="#231F20" fill-rule="nonzero" points="3.945 16.621 3.893 16.621 3.893 16.569 3.945 16.621 3.893 16.569 3.893 16.12 3.998 16.12 3.998 16.569 3.945 16.516 3.945 16.621"/>
      <polygon fill="#231F20" fill-rule="nonzero" points="7.012 16.568 7.012 16.621 6.96 16.621 7.012 16.568 6.96 16.621 3.945 16.621 3.945 16.516 6.96 16.516 6.907 16.568 7.012 16.568"/>
      <polygon fill="#ED192D" points="4.411 24.779 4.396 24.779 5.452 28.095 6.494 24.779 7.827 26.319 6.803 17.988 5.452 17.988 4.102 17.988 3.078 26.319 4.411 24.779 4.411 24.779"/>
      <polygon fill="#231F20" fill-rule="nonzero" points="3.118 26.354 3.006 26.478 3.026 26.311 3.131 26.326 3.038 26.284 4.371 24.744 4.451 24.814 3.118 26.354 3.026 26.311 3.118 26.354 3.118 26.354"/>
      <polygon fill="#231F20" fill-rule="nonzero" points="4.05 17.981 4.055 17.936 4.102 17.936 4.102 18.041 4.155 17.996 3.131 26.326 3.026 26.311 4.05 17.981 4.102 17.936 4.05 17.981 4.05 17.981"/>
      <polygon fill="#231F20" fill-rule="nonzero" points="5.452 18.041 5.452 18.041 4.102 18.041 4.102 17.936 5.452 17.936 5.452 17.936"/>
      <polygon fill="#231F20" fill-rule="nonzero" points="6.803 17.936 6.85 17.936 6.855 17.981 6.75 17.996 6.803 18.041 5.452 18.041 5.452 17.936 6.803 17.936 6.855 17.981 6.803 17.936 6.803 17.936"/>
      <polygon fill="#231F20" fill-rule="nonzero" points="7.879 26.311 7.899 26.478 7.787 26.354 7.866 26.284 7.774 26.326 6.75 17.996 6.855 17.981 7.879 26.311 7.787 26.354 7.879 26.311 7.879 26.311"/>
      <polygon fill="#231F20" fill-rule="nonzero" points="6.444 24.764 6.471 24.675 6.534 24.744 6.444 24.764 6.534 24.744 7.866 26.284 7.787 26.354 6.454 24.814 6.543 24.794 6.444 24.764 6.444 24.764"/>
      <polygon fill="#231F20" fill-rule="nonzero" points="5.502 28.11 5.452 28.264 5.403 28.11 5.502 28.08 5.403 28.08 6.444 24.764 6.543 24.794 5.502 28.11 5.403 28.11 5.502 28.11"/>
      <polygon fill="#231F20" fill-rule="nonzero" points="4.396 24.779 4.446 24.764 5.502 28.08 5.403 28.11 4.346 24.794 4.396 24.779 4.396 24.779"/>
      <polygon fill="#ED192D" points="4.394 15.955 4.461 15.955 4.531 15.955 4.605 15.955 4.683 15.955 4.762 15.955 4.845 15.955 4.927 15.955 5.011 15.958 5.099 15.958 5.186 15.958 5.273 15.958 5.358 15.958 5.445 15.958 5.529 15.96 5.614 15.96 5.696 15.96 5.776 15.96 5.856 15.96 5.931 15.963 6.003 15.963 6.07 15.963 6.135 15.963 6.195 15.963 6.25 15.963 6.302 15.966 6.347 15.966 6.384 15.966 6.416 15.966 6.444 15.966 6.464 15.966 6.474 15.966 6.479 15.966 6.479 15.956 6.479 15.924 6.477 15.872 6.474 15.802 6.469 15.715 6.464 15.613 6.454 15.496 6.447 15.366 6.434 15.222 6.42 15.069 6.402 14.905 6.382 14.736 6.357 14.556 6.33 14.372 6.3 14.183 6.265 13.991 6.225 13.799 6.18 13.602 6.133 13.411 6.078 13.216 6.021 13.027 5.956 12.843 5.886 12.663 5.811 12.491 5.729 12.327 5.64 12.172 5.545 12.028 5.445 11.893 5.336 11.774 5.219 11.669 5.096 11.58 4.964 11.507 4.862 11.462 4.76 11.418 4.656 11.38 4.554 11.345 4.449 11.313 4.344 11.285 4.237 11.261 4.132 11.241 4.028 11.223 3.921 11.211 3.816 11.203 3.711 11.196 3.607 11.196 3.502 11.198 3.398 11.203 3.295 11.213 3.193 11.228 3.091 11.245 2.992 11.268 2.892 11.293 2.795 11.322 2.698 11.357 2.603 11.395 2.508 11.437 2.416 11.482 2.324 11.532 2.237 11.587 2.15 11.644 2.065 11.706 1.983 11.773 1.9 11.843 1.823 11.918 1.774 11.975 1.726 12.035 1.679 12.095 1.637 12.157 1.597 12.22 1.559 12.282 1.522 12.347 1.489 12.411 1.457 12.479 1.427 12.546 1.402 12.613 1.377 12.681 1.355 12.75 1.335 12.818 1.317 12.887 1.303 12.957 1.288 13.029 1.278 13.099 1.268 13.171 1.263 13.243 1.258 13.313 1.256 13.385 1.256 13.458 1.256 13.53 1.261 13.602 1.266 13.674 1.276 13.746 1.286 13.819 1.298 13.888 1.31 13.961 1.328 14.033 1.345 14.103 1.373 14.165 1.4 14.227 1.43 14.287 1.46 14.344 1.492 14.402 1.527 14.454 1.565 14.506 1.602 14.556 1.639 14.601 1.682 14.646 1.724 14.688 1.767 14.726 1.814 14.763 1.859 14.795 1.908 14.825 1.958 14.853 2.06 14.912 2.163 14.965 2.265 15.01 2.367 15.047 2.469 15.075 2.571 15.095 2.671 15.107 2.77 15.11 2.87 15.107 2.967 15.095 3.064 15.075 3.159 15.047 3.253 15.01 3.348 14.965 3.44 14.912 3.53 14.853 3.58 14.813 3.627 14.77 3.672 14.728 3.712 14.681 3.749 14.633 3.787 14.584 3.819 14.534 3.849 14.482 3.874 14.427 3.899 14.372 3.919 14.317 3.936 14.26 3.951 14.203 3.961 14.143 3.968 14.085 3.973 14.026 3.975 13.966 3.973 13.906 3.968 13.849 3.961 13.789 3.949 13.729 3.934 13.672 3.916 13.614 3.894 13.557 3.869 13.502 3.841 13.445 3.809 13.393 3.774 13.34 3.734 13.288 3.692 13.241 3.647 13.191 3.597 13.146 3.533 13.109 3.47 13.079 3.405 13.049 3.343 13.026 3.278 13.006 3.213 12.991 3.149 12.981 3.086 12.976 3.019 12.976 2.954 12.978 2.89 12.985 2.822 12.998 2.755 13.015 2.688 13.038 2.62 13.065 2.551 13.097 2.546 13.092 2.543 13.072 2.55 13.038 2.562 12.99 2.585 12.935 2.615 12.873 2.654 12.808 2.707 12.741 2.769 12.676 2.844 12.614 2.931 12.559 3.033 12.512 3.148 12.474 3.282 12.454 3.429 12.449 3.596 12.462 3.698 12.479 3.793 12.504 3.88 12.537 3.962 12.576 4.039 12.621 4.109 12.671 4.174 12.728 4.234 12.788 4.289 12.856 4.338 12.925 4.383 13 4.423 13.077 4.46 13.159 4.495 13.244 4.525 13.329 4.553 13.419 4.575 13.496 4.593 13.578 4.605 13.665 4.617 13.757 4.624 13.852 4.629 13.949 4.631 14.049 4.631 14.151 4.629 14.256 4.624 14.36 4.617 14.465 4.61 14.572 4.6 14.677 4.59 14.781 4.578 14.883 4.565 14.986 4.553 15.085 4.538 15.18 4.523 15.274 4.508 15.362 4.496 15.446 4.481 15.526 4.466 15.601 4.453 15.67 4.441 15.733 4.428 15.788 4.418 15.837 4.411 15.877 4.404 15.909 4.399 15.934 4.394 15.949 4.394 15.954 4.394 15.954"/>
      <polygon fill="#231F20" fill-rule="nonzero" points="4.603 13.405 4.603 13.405 4.625 13.484 4.645 13.569 4.658 13.659 4.67 13.753 4.677 13.851 4.682 13.948 4.685 14.05 4.685 14.152 4.682 14.259 4.677 14.364 4.67 14.468 4.663 14.578 4.653 14.683 4.643 14.787 4.631 14.889 4.618 14.994 4.606 15.094 4.591 15.188 4.576 15.283 4.561 15.37 4.549 15.455 4.534 15.537 4.519 15.612 4.506 15.682 4.494 15.744 4.481 15.799 4.471 15.848 4.464 15.888 4.454 15.921 4.449 15.948 4.444 15.963 4.444 15.968 4.345 15.943 4.345 15.938 4.35 15.923 4.355 15.901 4.36 15.868 4.367 15.828 4.377 15.779 4.389 15.724 4.402 15.661 4.414 15.592 4.429 15.517 4.444 15.44 4.456 15.355 4.471 15.268 4.486 15.173 4.501 15.079 4.514 14.979 4.526 14.879 4.539 14.777 4.549 14.673 4.559 14.568 4.566 14.463 4.573 14.359 4.578 14.254 4.58 14.152 4.58 14.05 4.578 13.953 4.573 13.856 4.566 13.763 4.553 13.674 4.541 13.589 4.526 13.509 4.503 13.435 4.503 13.435 4.603 13.405 4.603 13.405"/>
      <polygon fill="#231F20" fill-rule="nonzero" points="3.604 12.411 3.604 12.411 3.709 12.428 3.808 12.456 3.9 12.49 3.988 12.533 4.067 12.578 4.142 12.633 4.209 12.692 4.274 12.755 4.331 12.824 4.384 12.899 4.429 12.976 4.471 13.056 4.508 13.141 4.546 13.228 4.576 13.315 4.603 13.405 4.504 13.435 4.476 13.345 4.446 13.263 4.414 13.18 4.376 13.101 4.339 13.026 4.294 12.954 4.247 12.889 4.194 12.824 4.14 12.767 4.077 12.712 4.013 12.667 3.938 12.622 3.861 12.585 3.778 12.555 3.689 12.533 3.589 12.515 3.589 12.515 3.604 12.411 3.604 12.411"/>
      <polygon fill="#231F20" fill-rule="nonzero" points="2.573 13.146 2.576 13.143 2.496 13.108 2.491 13.068 2.501 13.025 2.513 12.973 2.538 12.913 2.571 12.849 2.613 12.779 2.668 12.707 2.735 12.639 2.815 12.572 2.907 12.515 3.014 12.463 3.136 12.425 3.278 12.403 3.43 12.398 3.604 12.41 3.589 12.515 3.43 12.502 3.288 12.507 3.161 12.525 3.054 12.562 2.957 12.605 2.875 12.657 2.805 12.714 2.748 12.777 2.698 12.839 2.661 12.899 2.633 12.958 2.613 13.008 2.601 13.051 2.596 13.078 2.596 13.078 2.526 13.053 2.528 13.05 2.573 13.145 2.573 13.145"/>
      <polygon fill="#231F20" fill-rule="nonzero" points="3.562 13.185 3.569 13.19 3.506 13.155 3.447 13.125 3.384 13.096 3.325 13.076 3.265 13.056 3.202 13.043 3.142 13.033 3.083 13.028 3.018 13.028 2.958 13.03 2.896 13.037 2.834 13.047 2.769 13.065 2.704 13.087 2.639 13.112 2.572 13.144 2.527 13.05 2.599 13.017 2.669 12.987 2.739 12.965 2.808 12.948 2.881 12.933 2.948 12.926 3.018 12.924 3.087 12.924 3.152 12.929 3.222 12.939 3.289 12.956 3.359 12.976 3.424 13.001 3.491 13.031 3.556 13.061 3.623 13.101 3.631 13.106 3.561 13.185 3.561 13.185"/>
      <polygon fill="#231F20" fill-rule="nonzero" points="3.499 14.81 3.496 14.81 3.544 14.772 3.591 14.732 3.634 14.692 3.671 14.648 3.706 14.6 3.743 14.553 3.773 14.506 3.801 14.456 3.825 14.403 3.85 14.351 3.868 14.299 3.885 14.244 3.898 14.192 3.908 14.134 3.915 14.08 3.92 14.022 3.922 13.965 3.92 13.908 3.915 13.853 3.908 13.796 3.898 13.741 3.883 13.686 3.865 13.631 3.845 13.576 3.821 13.524 3.795 13.469 3.763 13.419 3.731 13.369 3.693 13.32 3.651 13.275 3.609 13.228 3.561 13.185 3.631 13.106 3.683 13.153 3.731 13.205 3.773 13.255 3.815 13.31 3.853 13.365 3.885 13.419 3.915 13.479 3.94 13.537 3.965 13.596 3.982 13.656 3.997 13.716 4.012 13.781 4.02 13.843 4.025 13.903 4.028 13.965 4.025 14.027 4.02 14.09 4.012 14.15 4.002 14.212 3.985 14.274 3.967 14.334 3.945 14.391 3.92 14.449 3.895 14.506 3.863 14.561 3.828 14.613 3.79 14.666 3.75 14.713 3.708 14.763 3.661 14.807 3.613 14.852 3.561 14.895 3.558 14.895 3.499 14.81 3.499 14.81"/>
      <polygon fill="#231F20" fill-rule="nonzero" points="1.98 14.805 1.985 14.807 2.084 14.867 2.184 14.916 2.284 14.961 2.381 14.996 2.481 15.024 2.578 15.041 2.675 15.053 2.769 15.056 2.864 15.053 2.959 15.041 3.051 15.024 3.141 14.996 3.233 14.961 3.322 14.916 3.412 14.867 3.499 14.809 3.559 14.894 3.467 14.956 3.372 15.011 3.273 15.056 3.175 15.096 3.076 15.123 2.974 15.146 2.874 15.158 2.769 15.16 2.665 15.158 2.563 15.146 2.455 15.123 2.351 15.096 2.244 15.056 2.139 15.011 2.034 14.956 1.93 14.896 1.935 14.898 1.98 14.804 1.98 14.804"/>
      <polygon fill="#231F20" fill-rule="nonzero" points="1.394 14.09 1.392 14.083 1.42 14.145 1.447 14.205 1.477 14.262 1.504 14.319 1.537 14.374 1.569 14.424 1.607 14.476 1.642 14.523 1.679 14.566 1.719 14.608 1.759 14.651 1.799 14.686 1.846 14.72 1.886 14.753 1.933 14.78 1.981 14.805 1.936 14.9 1.883 14.87 1.831 14.837 1.781 14.805 1.734 14.765 1.689 14.725 1.644 14.683 1.599 14.636 1.562 14.588 1.522 14.536 1.485 14.484 1.447 14.429 1.415 14.369 1.382 14.312 1.352 14.249 1.325 14.185 1.298 14.122 1.296 14.115 1.395 14.09 1.395 14.09"/>
      <polygon fill="#231F20" fill-rule="nonzero" points="1.86 11.955 1.862 11.953 1.812 12.008 1.765 12.067 1.72 12.125 1.678 12.184 1.64 12.247 1.603 12.309 1.566 12.371 1.536 12.434 1.503 12.501 1.473 12.566 1.451 12.63 1.426 12.698 1.404 12.765 1.384 12.83 1.366 12.899 1.354 12.967 1.339 13.039 1.329 13.106 1.319 13.176 1.314 13.246 1.309 13.315 1.307 13.385 1.307 13.457 1.307 13.527 1.312 13.599 1.317 13.669 1.327 13.739 1.337 13.811 1.349 13.878 1.362 13.951 1.377 14.02 1.394 14.09 1.295 14.115 1.277 14.045 1.257 13.971 1.245 13.898 1.232 13.826 1.222 13.754 1.212 13.679 1.207 13.604 1.202 13.532 1.202 13.457 1.202 13.385 1.204 13.31 1.209 13.241 1.214 13.166 1.224 13.091 1.234 13.019 1.249 12.947 1.267 12.874 1.284 12.805 1.304 12.735 1.327 12.663 1.351 12.596 1.379 12.526 1.409 12.456 1.441 12.389 1.476 12.322 1.513 12.254 1.551 12.192 1.593 12.13 1.636 12.065 1.685 12.002 1.733 11.943 1.783 11.883 1.785 11.88 1.859 11.955 1.859 11.955"/>
      <polygon fill="#231F20" fill-rule="nonzero" points="4.942 11.554 4.942 11.554 4.842 11.509 4.74 11.464 4.638 11.429 4.538 11.394 4.434 11.362 4.331 11.334 4.227 11.312 4.122 11.292 4.02 11.275 3.915 11.262 3.813 11.255 3.709 11.247 3.607 11.247 3.504 11.25 3.4 11.255 3.3 11.265 3.2 11.28 3.101 11.297 3.004 11.318 2.906 11.342 2.812 11.372 2.715 11.407 2.623 11.442 2.53 11.484 2.441 11.529 2.351 11.577 2.264 11.631 2.179 11.686 2.097 11.748 2.015 11.813 1.935 11.883 1.861 11.955 1.786 11.881 1.866 11.803 1.95 11.734 2.032 11.664 2.12 11.602 2.209 11.542 2.296 11.487 2.391 11.435 2.486 11.39 2.583 11.348 2.68 11.308 2.777 11.273 2.877 11.243 2.979 11.218 3.081 11.193 3.186 11.176 3.29 11.161 3.395 11.151 3.5 11.146 3.607 11.144 3.714 11.144 3.818 11.151 3.925 11.158 4.035 11.17 4.142 11.188 4.247 11.207 4.356 11.235 4.464 11.262 4.568 11.295 4.673 11.33 4.78 11.37 4.882 11.414 4.987 11.459 4.987 11.459 4.942 11.554 4.942 11.554"/>
      <polygon fill="#231F20" fill-rule="nonzero" points="6.531 15.966 6.531 16.018 6.479 16.018 6.479 15.913 6.427 15.966 6.427 15.955 6.427 15.926 6.424 15.873 6.422 15.804 6.417 15.716 6.412 15.614 6.401 15.497 6.394 15.368 6.382 15.226 6.367 15.074 6.35 14.909 6.33 14.742 6.305 14.563 6.277 14.379 6.247 14.189 6.212 14 6.173 13.808 6.13 13.614 6.083 13.422 6.028 13.23 5.971 13.041 5.906 12.859 5.839 12.682 5.764 12.513 5.684 12.351 5.595 12.199 5.503 12.057 5.405 11.925 5.298 11.81 5.186 11.708 5.069 11.623 4.942 11.553 4.987 11.459 5.124 11.534 5.251 11.628 5.373 11.735 5.485 11.86 5.587 11.997 5.684 12.144 5.774 12.301 5.859 12.468 5.933 12.642 6.006 12.824 6.07 13.011 6.128 13.2 6.183 13.397 6.23 13.589 6.277 13.788 6.317 13.98 6.352 14.174 6.382 14.364 6.409 14.548 6.434 14.727 6.454 14.899 6.472 15.064 6.487 15.216 6.499 15.363 6.506 15.492 6.516 15.609 6.521 15.711 6.526 15.799 6.528 15.868 6.53 15.921 6.53 15.956 6.53 15.966 6.478 16.018 6.53 15.966 6.53 15.966"/>
      <polygon fill="#231F20" fill-rule="nonzero" points="4.394 16.008 4.329 16.008 4.344 15.943 4.443 15.968 4.394 15.903 4.461 15.903 4.531 15.903 4.605 15.903 4.683 15.903 4.762 15.903 4.845 15.903 4.927 15.903 5.011 15.905 5.099 15.905 5.186 15.905 5.273 15.905 5.358 15.905 5.445 15.905 5.529 15.907 5.614 15.907 5.696 15.907 5.776 15.907 5.856 15.907 5.931 15.909 6.003 15.909 6.07 15.909 6.135 15.909 6.195 15.909 6.25 15.909 6.302 15.912 6.347 15.912 6.384 15.912 6.416 15.912 6.444 15.912 6.464 15.912 6.474 15.912 6.479 15.912 6.479 16.017 6.474 16.017 6.464 16.017 6.444 16.017 6.416 16.017 6.384 16.017 6.347 16.017 6.302 16.017 6.25 16.015 6.195 16.015 6.135 16.015 6.07 16.015 6.003 16.015 5.931 16.015 5.856 16.012 5.776 16.012 5.696 16.012 5.614 16.012 5.529 16.012 5.445 16.01 5.358 16.01 5.273 16.01 5.186 16.01 5.099 16.01 5.011 16.01 4.927 16.007 4.845 16.007 4.762 16.007 4.683 16.007 4.605 16.007 4.531 16.007 4.461 16.007 4.394 16.007 4.344 15.942 4.394 16.007 4.394 16.007"/>
      <path stroke="#656263" stroke-width=".75" d="M0.51544,10.52698 L16.20807,10.53498 L16.20807,22.19136 C16.20807,25.91623 13.12094,29.6006 8.35494,29.6006 C3.93719,29.6006 0.47219,26.24923 0.50194,22.19136 L0.51544,10.52673 L0.51544,10.52698 Z"/>
      <text fill="#5A5758" font-family="Helvetica" font-size="8">
        <tspan x="3.269" y="8.25">JU</tspan>
      </text>
    </g>
  </g>
</svg>
