<svg xmlns="http://www.w3.org/2000/svg" width="139" height="155" viewBox="0 0 139 155">
  <g fill="none" fill-rule="evenodd" transform="translate(.488 .886)">
    <polygon fill="#FCCA6C" fill-rule="nonzero" stroke="#FCCA6C" stroke-width=".709" points="80.495 94.102 77.748 91.197 79.726 87.766 81.691 87.974 83.005 89.675 85.149 87.628 86.228 86.59 97.185 85.802 98.502 86.109 102.56 86.997 105.984 82.178 111.816 81.671 111.643 84.169 111.808 86.521 120.15 86.231 120.482 84.363 120.693 81.481 129.252 82.749 128.174 86.934 128.935 88.519 131.203 86.784 136.931 83.547 137.138 82.26 137.761 78.414 129.875 72.119 127.731 70.542 127.136 70.03 124.632 68.329 120.705 65.603 119.488 65.503 116.762 69.371 114.685 67.499 112.347 64.911 112.278 64.151 115.875 61.522 118.586 54.771 122.557 52.765 129.919 53.374 130.964 53.901 133.31 54.091 133.12 50.604 131.915 48.765 130.013 48.892 127.98 49.61 124.619 49.625 122.889 46.677 118.407 48.601 117.397 48.075 117.729 46.041 116.77 43.288 115.351 44.229 109.096 42.638 106.523 41.794 105.693 39.636 105.665 38.598 103.494 36.384 101.737 30.422 99.814 25.068 99.233 22.578 98.873 21.734 97.406 18.829 96.742 16.657 96.59 13.986 94.847 10.653 93.353 9.338 93.035 4.399 85.053 0 81.774 4.399 78.938 4.302 77.96 4.7 78.023 6.729 77.335 10.459 74.884 11.926 74.151 18.317 68.521 19.59 67.967 18.51 67.317 17.473 64.384 14.402 69.226 12.534 69.116 10.999 68.161 10.196 61.673 12.091 59.071 13.239 57.965 13.862 54.852 12.963 54.257 11.676 53.012 8.591 50.591 7.526 47.451 9.892 44.214 9.781 45.607 12.41 35.955 13.212 35.526 7.9 33.687 5.216 32.192 2.67 22.632 4.219 24.887 10.237 19.257 15.813 16.988 15.273 11.386 13.848 .055 16.283 0 19.755 1.646 21.319 3.845 27.129 4.33 26.783 8.729 33.645 7.927 36.772 9.006 42.209 9.85 47.854 7.332 49.113 6.018 51.367 7.678 59.281 7.152 62.076 8.521 62.629 6.377 70.999 11.261 77.113 13.239 84.224 20.447 84.335 23.67 83.976 23.615 91.585 16.103 105.516 7.47 108.684 6.336 111.493 9.601 113.928 7.844 118.285 7.581 118.963 4.634 120.305 6.986 131.608 7.788 132.286 12.88 136.602 17.818 140.766 23.629 145.692 24.168 147.282 24.293 148.043 25.953 149.344 30.587 152.996 37.933 148.735 43.433 149.233 46.441 143.727 46.842 143.008 45.1 139.784 42.249 134.554 42.789 133.766 46.967 127.665 47.119 126.821 47.908 122.284 47.741 116.888 50.979 113.761 52.791 112.004 55.613 113.111 54.438 116.971 56.194 117.705 60.912 108.864 65.45 105.516 67.013 103.718 63.955 98.281 66.39 96.551 71.481 94.047 74.649 95.458 80.473 94.102 80.495 94.102"/>
    <g transform="translate(42.83 50.951)">
      <polygon fill="#FFF" points="8.342 29.55 8.342 29.458 8.349 10.5 16.181 10.5 16.181 22.149 16.172 22.53 16.142 22.906 16.092 23.275 16.022 23.641 15.935 23.997 15.83 24.348 15.706 24.692 15.566 25.028 15.409 25.357 15.235 25.676 15.045 25.985 14.844 26.286 14.624 26.576 14.39 26.854 14.144 27.124 13.884 27.38 13.613 27.627 13.329 27.858 13.033 28.08 12.726 28.284 12.407 28.479 12.078 28.656 11.74 28.82 11.393 28.967 11.037 29.102 10.673 29.216 10.3 29.316 9.921 29.4 9.535 29.465 9.144 29.512 8.745 29.54 8.342 29.55 8.342 29.55"/>
      <polygon fill="#1377C7" points="8.342 29.458 8.342 29.55 7.939 29.54 7.54 29.512 7.149 29.465 6.763 29.4 6.381 29.316 6.01 29.216 5.647 29.102 5.29 28.967 4.942 28.82 4.605 28.656 4.277 28.479 3.958 28.284 3.651 28.08 3.355 27.858 3.071 27.627 2.797 27.38 2.538 27.124 2.291 26.854 2.06 26.575 1.84 26.286 1.636 25.985 1.447 25.676 1.275 25.357 1.115 25.028 .976 24.692 .854 24.348 .747 23.997 .66 23.641 .59 23.275 .54 22.906 .51 22.53 .5 22.149 .5 10.513 8.349 10.5 8.342 29.458 8.342 29.458"/>
      <polygon fill="#231F20" fill-rule="nonzero" points="8.297 10.5 8.297 10.448 8.35 10.448 8.297 10.5 8.35 10.448 16.182 10.448 16.182 10.552 8.35 10.552 8.402 10.5 8.297 10.5"/>
      <polygon fill="#231F20" fill-rule="nonzero" points="8.394 29.55 8.29 29.55 8.298 10.5 8.402 10.5 8.394 29.55 8.29 29.55"/>
      <polygon fill="#231F20" fill-rule="nonzero" points="8.35 10.448 8.402 10.448 8.402 10.5 8.35 10.448 8.402 10.5 8.394 29.55 8.289 29.55 8.297 10.5 8.35 10.552 8.35 10.448"/>
      <polygon fill="#231F20" fill-rule="nonzero" points=".448 10.513 .448 10.46 .5 10.46 .448 10.513 .5 10.46 8.35 10.448 8.35 10.552 .5 10.565 .552 10.513 .448 10.513"/>
      <polygon fill="#231F20" fill-rule="nonzero" points=".448 22.149 .448 22.149 .448 10.513 .552 10.513 .552 22.149 .552 22.149"/>
      <polygon fill="#231F20" fill-rule="nonzero" points="8.342 29.602 8.342 29.602 7.936 29.592 7.535 29.565 7.141 29.517 6.753 29.453 6.369 29.365 5.995 29.266 5.629 29.151 5.271 29.014 4.919 28.867 4.581 28.703 4.252 28.523 3.93 28.329 3.622 28.122 3.322 27.898 3.036 27.667 2.762 27.417 2.5 27.161 2.251 26.889 2.02 26.608 1.798 26.316 1.591 26.012 1.402 25.701 1.227 25.382 1.068 25.051 .926 24.71 .804 24.366 .697 24.009 .607 23.651 .537 23.282 .488 22.911 .458 22.532 .448 22.149 .552 22.149 .562 22.527 .592 22.901 .642 23.267 .712 23.631 .797 23.985 .904 24.331 1.026 24.675 1.163 25.006 1.322 25.332 1.491 25.651 1.681 25.958 1.883 26.256 2.099 26.543 2.331 26.819 2.575 27.086 2.832 27.343 3.106 27.587 3.387 27.818 3.681 28.038 3.985 28.239 4.301 28.434 4.63 28.608 4.964 28.772 5.31 28.92 5.664 29.052 6.025 29.166 6.394 29.266 6.773 29.348 7.156 29.413 7.545 29.46 7.941 29.487 8.342 29.497 8.342 29.497 8.342 29.602"/>
      <polygon fill="#231F20" fill-rule="nonzero" points="16.234 22.149 16.234 22.149 16.224 22.532 16.194 22.911 16.144 23.282 16.075 23.651 15.985 24.01 15.88 24.366 15.756 24.712 15.614 25.051 15.457 25.382 15.28 25.701 15.091 26.012 14.886 26.316 14.665 26.608 14.431 26.889 14.182 27.161 13.92 27.417 13.648 27.667 13.362 27.898 13.063 28.122 12.754 28.329 12.433 28.524 12.104 28.703 11.763 28.867 11.414 29.014 11.055 29.151 10.689 29.266 10.313 29.366 9.932 29.453 9.543 29.518 9.149 29.565 8.748 29.592 8.342 29.602 8.342 29.498 8.743 29.488 9.139 29.46 9.528 29.413 9.912 29.348 10.288 29.266 10.659 29.167 11.02 29.052 11.374 28.92 11.718 28.773 12.054 28.608 12.383 28.434 12.699 28.24 13.003 28.038 13.297 27.819 13.579 27.587 13.85 27.343 14.107 27.086 14.351 26.82 14.585 26.543 14.802 26.257 15.001 25.958 15.19 25.651 15.362 25.333 15.519 25.006 15.656 24.672 15.781 24.331 15.885 23.985 15.97 23.631 16.04 23.267 16.09 22.901 16.12 22.528 16.13 22.149 16.13 22.149 16.235 22.149"/>
      <polygon fill="#231F20" fill-rule="nonzero" points="16.182 10.448 16.234 10.448 16.234 10.5 16.182 10.448 16.234 10.5 16.234 22.149 16.129 22.149 16.129 10.5 16.182 10.552 16.182 10.448"/>
      <path stroke="#656263" stroke-width=".75" d="M0.51538,10.52709 L16.20788,10.53509 L16.20788,22.19159 C16.20788,25.91634 13.121,29.60059 8.35475,29.60059 C3.937,29.60059 0.47212,26.24934 0.502,22.19159 L0.5154,10.52684 L0.51538,10.52709 Z"/>
      <text fill="#5A5758" font-family="Helvetica" font-size="8">
        <tspan x="2.547" y="8.243">LU</tspan>
      </text>
    </g>
  </g>
</svg>
