<svg xmlns="http://www.w3.org/2000/svg" width="134" height="95" viewBox="0 0 134 95">
  <g fill="none" fill-rule="evenodd" transform="translate(.136 .492)">
    <polygon fill="#F9A690" fill-rule="nonzero" points="65.601 87.713 66.873 85.375 68.935 81.972 71.508 80.063 76.045 74.502 81.302 71.112 82.505 71.43 83.017 70.96 82.976 69.397 84.484 67.626 87.319 66.879 89.477 65.551 90.322 62.327 90.086 58.275 94.347 55.535 106.825 50.596 109.537 47.47 111.847 45.92 114.504 46.985 115.223 48.12 118.086 48.757 119.04 48.147 121.959 47.594 122.402 45.672 122.762 43.472 122.665 42.42 123.468 39.252 126.829 36.638 131.284 34.341 133.873 32.304 131.699 26.964 133.746 25.289 133.138 23.297 124.325 17.099 123.565 16.878 120.839 16.117 124.229 12.41 122.845 10.916 120.203 12.645 117.726 12.465 112.94 14.734 110.367 15.232 106.313 15.882 103.74 16.768 99.424 18.109 97.417 19.3 92.88 21.969 88.965 23.989 87.761 22.454 92.977 12.479 92.396 11.012 88.038 0 87.32 .005 73.915 11.349 63.291 16.537 62.225 22.402 58.005 22.79 53.288 28.932 58.849 33.582 54.63 37.497 46.537 40.817 40.575 47.969 32.593 51.553 28.29 53.946 14.857 58.857 13.17 56.34 10.984 58.29 7.609 62.482 0 69.675 6.073 80.396 5.99 85.584 5.312 92.778 9.847 94.269 19.102 90.741 21.274 89.274 26.434 85.802 27.984 84.848 29.838 84.004 31.332 83.312 34.652 82.662 38.429 82.039 40.241 81.182 43.395 76.865 46.881 73.503 48.099 72.95 55.832 69.463 58.862 68.108 59.387 69.63 58.295 75.149 57.921 77.031 62.569 81.154 62.21 83.505 62.652 83.658 62.5 85.083 61.85 87.393 65.601 87.713"/>
    <g transform="translate(44.221 42.314)">
      <polygon fill="#ED192D" points="11.122 29.054 11.12 28.907 11.12 10.5 16.162 10.5 16.175 22.139 16.17 22.433 16.15 22.727 16.12 23.016 16.08 23.3 16.025 23.581 15.96 23.86 15.886 24.134 15.801 24.403 15.704 24.67 15.599 24.931 15.482 25.185 15.355 25.437 15.221 25.681 15.073 25.923 14.919 26.157 14.757 26.384 14.585 26.608 14.403 26.822 14.217 27.031 14.02 27.233 13.816 27.43 13.604 27.617 13.384 27.799 13.158 27.971 12.926 28.137 12.687 28.294 12.44 28.441 12.189 28.583 11.93 28.715 11.666 28.837 11.397 28.95 11.123 29.054 11.123 29.054"/>
      <polygon fill="#FFF" points="11.12 28.907 11.122 29.054 11.04 29.082 10.96 29.112 10.878 29.136 10.793 29.164 10.711 29.189 10.629 29.214 10.544 29.236 10.459 29.259 10.375 29.281 10.29 29.301 10.205 29.323 10.12 29.341 10.033 29.361 9.949 29.378 9.861 29.393 9.774 29.408 9.687 29.423 9.6 29.438 9.51 29.451 9.423 29.463 9.333 29.473 9.246 29.483 9.156 29.493 9.067 29.5 8.977 29.508 8.888 29.515 8.798 29.52 8.706 29.525 8.616 29.527 8.524 29.53 8.434 29.532 8.342 29.532 8.262 29.532 8.182 29.53 8.105 29.53 8.025 29.527 7.948 29.522 7.869 29.52 7.791 29.515 7.714 29.51 7.634 29.503 7.557 29.498 7.48 29.491 7.403 29.481 7.328 29.474 7.251 29.464 7.173 29.454 7.099 29.441 7.022 29.431 6.947 29.419 6.872 29.404 6.797 29.391 6.723 29.377 6.648 29.362 6.573 29.347 6.499 29.329 6.426 29.312 6.352 29.294 6.279 29.277 6.207 29.257 6.135 29.237 6.063 29.217 5.991 29.197 5.918 29.175 5.921 29.107 5.921 10.501 11.12 10.501 11.12 28.908 11.12 28.908"/>
      <polygon fill="#85BB67" points="5.921 29.107 5.918 29.174 5.626 29.079 5.34 28.972 5.058 28.855 4.782 28.73 4.513 28.593 4.251 28.449 3.995 28.294 3.746 28.13 3.504 27.958 3.27 27.776 3.043 27.587 2.824 27.39 2.612 27.186 2.41 26.974 2.216 26.755 2.032 26.526 1.857 26.294 1.69 26.052 1.536 25.806 1.389 25.554 1.252 25.295 1.127 25.033 1.013 24.762 .908 24.488 .816 24.209 .734 23.925 .667 23.639 .609 23.344 .564 23.048 .532 22.749 .512 22.445 .505 22.139 .495 10.5 5.921 10.5 5.921 29.107 5.921 29.107"/>
      <polygon fill="#231F20" fill-rule="nonzero" points="11.067 10.5 11.067 10.448 11.12 10.448 11.067 10.5 11.12 10.448 16.162 10.448 16.162 10.552 11.12 10.552 11.172 10.5 11.068 10.5"/>
      <polygon fill="#231F20" fill-rule="nonzero" points="11.172 29.052 11.067 29.052 11.067 10.5 11.172 10.5 11.172 29.052 11.067 29.052"/>
      <polygon fill="#231F20" fill-rule="nonzero" points="11.12 10.448 11.172 10.448 11.172 10.5 11.12 10.448 11.172 10.5 11.172 29.052 11.067 29.052 11.067 10.5 11.12 10.552 11.12 10.448"/>
      <polygon fill="#231F20" fill-rule="nonzero" points="5.869 10.5 5.869 10.448 5.921 10.448 5.869 10.5 5.921 10.448 11.12 10.448 11.12 10.552 5.921 10.552 5.973 10.5 5.868 10.5"/>
      <polygon fill="#231F20" fill-rule="nonzero" points="5.973 29.186 5.869 29.186 5.869 10.5 5.973 10.5 5.973 29.186 5.869 29.186"/>
      <polygon fill="#231F20" fill-rule="nonzero" points="5.921 10.448 5.973 10.448 5.973 10.5 5.921 10.448 5.973 10.5 5.973 29.186 5.869 29.186 5.869 10.5 5.921 10.552 5.921 10.448"/>
      <polygon fill="#231F20" fill-rule="nonzero" points=".443 10.5 .443 10.448 .495 10.448 .443 10.5 .495 10.448 5.921 10.448 5.921 10.552 .495 10.552 .547 10.5 .443 10.5"/>
      <polygon fill="#231F20" fill-rule="nonzero" points=".453 22.139 .453 22.139 .443 10.5 .547 10.5 .557 22.139 .557 22.139 .453 22.139"/>
      <polygon fill="#231F20" fill-rule="nonzero" points="8.342 29.585 8.342 29.585 7.936 29.575 7.535 29.547 7.141 29.5 6.753 29.435 6.372 29.35 5.998 29.251 5.629 29.134 5.273 28.999 4.922 28.85 4.583 28.688 4.254 28.506 3.933 28.314 3.624 28.105 3.325 27.886 3.038 27.651 2.767 27.405 2.503 27.148 2.256 26.877 2.022 26.595 1.8 26.301 1.596 26 1.407 25.689 1.23 25.37 1.073 25.038 .931 24.7 .806 24.356 .702 24 .612 23.638 .543 23.272 .493 22.898 .463 22.522 .453 22.139 .557 22.139 .567 22.517 .597 22.888 .647 23.257 .717 23.618 .802 23.975 .906 24.321 1.031 24.66 1.168 24.994 1.325 25.32 1.497 25.639 1.686 25.945 1.885 26.241 2.102 26.53 2.336 26.807 2.578 27.074 2.837 27.33 3.108 27.572 3.39 27.801 3.684 28.02 3.988 28.225 4.304 28.416 4.633 28.593 4.967 28.755 5.313 28.905 5.664 29.034 6.028 29.151 6.397 29.251 6.773 29.331 7.157 29.395 7.545 29.443 7.941 29.47 8.343 29.48 8.343 29.48 8.343 29.585"/>
      <polygon fill="#231F20" fill-rule="nonzero" points="16.227 22.139 16.227 22.139 16.217 22.522 16.187 22.899 16.137 23.272 16.067 23.639 15.978 24 15.873 24.356 15.748 24.7 15.606 25.039 15.449 25.37 15.272 25.689 15.086 26 14.879 26.301 14.657 26.596 14.426 26.877 14.176 27.148 13.915 27.405 13.643 27.652 13.357 27.886 13.058 28.105 12.749 28.314 12.428 28.506 12.099 28.688 11.76 28.85 11.411 28.999 11.053 29.134 10.686 29.251 10.313 29.351 9.931 29.435 9.543 29.5 9.147 29.547 8.748 29.575 8.342 29.585 8.342 29.48 8.743 29.47 9.137 29.443 9.528 29.395 9.912 29.331 10.288 29.251 10.656 29.151 11.018 29.034 11.371 28.905 11.715 28.755 12.049 28.593 12.378 28.416 12.694 28.225 12.998 28.02 13.292 27.801 13.574 27.572 13.845 27.33 14.102 27.074 14.346 26.807 14.577 26.531 14.794 26.242 14.996 25.945 15.183 25.639 15.355 25.32 15.512 24.994 15.649 24.66 15.773 24.321 15.878 23.975 15.963 23.619 16.032 23.257 16.082 22.889 16.112 22.517 16.122 22.139 16.122 22.139 16.227 22.139"/>
      <polygon fill="#231F20" fill-rule="nonzero" points="16.162 10.448 16.214 10.448 16.214 10.5 16.162 10.448 16.214 10.5 16.227 22.139 16.122 22.139 16.11 10.5 16.162 10.552 16.162 10.448"/>
      <polygon fill="#FFF" points="13.88 12.695 15.679 12.693 15.679 13.283 13.887 13.283 13.89 15.074 13.3 15.074 13.3 13.283 11.501 13.283 11.501 12.693 13.295 12.693 13.295 10.904 13.88 10.904 13.88 12.695 13.88 12.695"/>
      <polygon fill="#231F20" fill-rule="nonzero" points="13.88 10.851 13.932 10.851 13.932 10.904 13.88 10.851 13.932 10.904 13.932 12.695 13.828 12.695 13.828 10.904 13.88 10.956 13.88 10.851"/>
      <polygon fill="#231F20" fill-rule="nonzero" points="13.242 10.904 13.242 10.851 13.295 10.851 13.242 10.904 13.295 10.851 13.88 10.851 13.88 10.956 13.295 10.956 13.347 10.904 13.242 10.904"/>
      <polygon fill="#231F20" fill-rule="nonzero" points="13.347 12.692 13.347 12.745 13.295 12.745 13.295 12.64 13.242 12.692 13.242 10.904 13.347 10.904 13.347 12.692 13.295 12.745 13.347 12.692 13.347 12.692"/>
      <polygon fill="#231F20" fill-rule="nonzero" points="11.449 12.692 11.449 12.64 11.501 12.64 11.449 12.692 11.501 12.64 13.295 12.64 13.295 12.745 11.501 12.745 11.553 12.692 11.449 12.692"/>
      <polygon fill="#231F20" fill-rule="nonzero" points="11.501 13.335 11.449 13.335 11.449 13.283 11.501 13.335 11.449 13.283 11.449 12.692 11.553 12.692 11.553 13.283 11.501 13.23 11.501 13.335"/>
      <polygon fill="#231F20" fill-rule="nonzero" points="13.3 13.23 13.352 13.23 13.352 13.283 13.247 13.283 13.3 13.335 11.501 13.335 11.501 13.23 13.3 13.23 13.352 13.283 13.3 13.23 13.3 13.23"/>
      <polygon fill="#231F20" fill-rule="nonzero" points="13.3 15.126 13.247 15.126 13.247 15.074 13.3 15.126 13.247 15.074 13.247 13.283 13.352 13.283 13.352 15.074 13.3 15.021 13.3 15.126"/>
      <polygon fill="#231F20" fill-rule="nonzero" points="13.942 15.074 13.942 15.126 13.89 15.126 13.942 15.074 13.89 15.126 13.3 15.126 13.3 15.022 13.89 15.022 13.838 15.074 13.942 15.074"/>
      <polygon fill="#231F20" fill-rule="nonzero" points="13.835 13.283 13.835 13.23 13.887 13.23 13.887 13.335 13.94 13.283 13.942 15.074 13.837 15.074 13.834 13.283 13.887 13.23 13.834 13.283 13.834 13.283"/>
      <polygon fill="#231F20" fill-rule="nonzero" points="15.731 13.283 15.731 13.335 15.679 13.335 15.731 13.283 15.679 13.335 13.887 13.335 13.887 13.23 15.679 13.23 15.626 13.283 15.731 13.283"/>
      <polygon fill="#231F20" fill-rule="nonzero" points="15.679 12.64 15.731 12.64 15.731 12.692 15.679 12.64 15.731 12.692 15.731 13.283 15.626 13.283 15.626 12.692 15.679 12.745 15.679 12.64"/>
      <polygon fill="#231F20" fill-rule="nonzero" points="13.88 12.747 13.828 12.747 13.828 12.695 13.932 12.695 13.88 12.642 15.679 12.639 15.679 12.744 13.88 12.746 13.828 12.694 13.88 12.746 13.88 12.746"/>
      <path stroke="#656263" stroke-width=".75" d="M0.510585,10.50939 L16.202955,10.5174 L16.202955,22.1739 C16.202955,25.89877 13.115955,29.58302 8.350085,29.58302 C3.932205,29.58302 0.467205,26.23164 0.496955,22.1739 L0.510555,10.50939 L0.510585,10.50939 Z"/>
      <text fill="#5A5758" font-family="Helvetica" font-size="8">
        <tspan x="1.981" y="8.241">NE</tspan>
      </text>
    </g>
  </g>
</svg>
