<svg xmlns="http://www.w3.org/2000/svg" width="75" height="71" viewBox="0 0 75 71">
  <g fill="none" fill-rule="evenodd" transform="translate(1.235 .747)">
    <polygon fill="#FFFA99" fill-rule="nonzero" stroke="#FFFA99" stroke-width=".709" points="35.451 69.654 41.766 66.057 34.641 61.824 33.88 59.001 32.75 54.824 31.369 49.956 30.249 45.75 29.771 43.811 31.902 40.74 33.825 41.46 32.801 46.827 34.558 46.813 35.803 45.361 38.487 42.22 41.047 42.22 41.641 47.339 51.989 46.343 51.159 39.91 53.552 38.07 52.488 34.846 49.32 33.435 50.467 31.153 53.248 28.497 55.863 27.32 59.086 27.625 66.64 24.387 66.515 20.971 69.254 19.753 69.019 17.207 68.701 13.846 72.574 8.949 72.561 7.648 71.856 6.023 65.769 8.686 58.035 9.32 50.49 7.672 50.934 1.078 42.882 .634 42.734 2.501 42.402 4.369 34.06 4.66 33.896 2.308 33.371 0 27.982 1.966 24.812 6.15 21.515 4.755 19.437 3.94 8.48 4.729 7.402 5.766 5.257 7.814 3.943 6.112 1.978 5.905 0 9.336 2.747 12.241 7.374 9.543 10.569 9.889 18.178 10.706 18.524 12.698 18.07 16.709 14.429 23.24 18.815 26.048 23.504 24.789 24.625 24.498 24.653 31.761 24.666 33.311 24.68 36.189 22.813 39.814 23.2 49.124 24.362 54.547 21.692 56.926 31.404 66.514 35.451 69.654"/>
    <g transform="translate(33.622 14.07)">
      <polygon fill="#ED192D" points="16.182 10.493 16.182 22.141 16.172 22.522 16.142 22.898 16.093 23.27 16.023 23.633 15.936 23.992 15.831 24.343 15.707 24.687 15.567 25.023 15.41 25.352 15.236 25.671 15.046 25.98 14.844 26.281 14.625 26.57 14.391 26.849 14.144 27.118 13.886 27.375 13.614 27.622 13.33 27.853 13.034 28.073 12.727 28.279 12.408 28.471 12.079 28.651 11.741 28.812 11.394 28.962 11.038 29.094 10.674 29.211 10.301 29.311 9.922 29.393 9.536 29.458 9.145 29.505 8.746 29.532 8.343 29.543 7.939 29.532 7.54 29.505 7.149 29.458 6.763 29.393 6.385 29.311 6.011 29.211 5.647 29.094 5.291 28.962 4.945 28.812 4.606 28.651 4.277 28.471 3.961 28.279 3.652 28.073 3.355 27.853 3.071 27.622 2.8 27.375 2.538 27.118 2.292 26.849 2.06 26.57 1.841 26.281 1.636 25.98 1.447 25.671 1.275 25.352 1.118 25.023 .976 24.687 .854 24.343 .747 23.992 .66 23.633 .59 23.27 .54 22.898 .51 22.522 .5 22.141 .498 10.508 16.183 10.493 16.183 10.493"/>
      <polygon fill="#FFF" points="9.665 17.465 9.665 12.802 10.729 12.802 10.729 11.917 12.389 11.917 12.389 12.802 13.133 12.802 13.133 11.917 14.967 11.917 14.967 12.926 14.287 12.926 14.287 13.328 14.287 13.328 14.287 13.328 14.287 13.328 14.287 13.729 14.967 13.729 14.967 14.742 13.133 14.742 13.133 13.853 12.389 13.853 12.389 14.742 11.397 14.742 11.397 15.134 11.397 15.134 11.397 15.525 12.389 15.525 12.389 16.411 13.133 16.411 13.133 15.525 14.967 15.525 14.967 16.536 14.287 16.536 14.287 16.937 14.287 16.937 14.287 16.937 14.287 16.937 14.287 17.341 14.967 17.341 14.967 18.35 13.133 18.35 13.133 17.463 12.389 17.463 12.389 18.35 10.729 18.35 10.729 17.465"/>
      <polygon fill="#231F20" fill-rule="nonzero" points="10.729 17.413 10.781 17.413 10.781 17.465 10.677 17.465 10.729 17.518 9.665 17.518 9.665 17.413 10.729 17.413 10.781 17.465 10.729 17.413 10.729 17.413"/>
      <polygon fill="#231F20" fill-rule="nonzero" points="10.729 18.402 10.677 18.402 10.677 18.35 10.729 18.402 10.677 18.35 10.677 17.465 10.781 17.465 10.781 18.35 10.729 18.297 10.729 18.402"/>
      <polygon fill="#231F20" fill-rule="nonzero" points="12.441 18.35 12.441 18.402 12.389 18.402 12.441 18.35 12.389 18.402 10.729 18.402 10.729 18.297 12.389 18.297 12.336 18.35 12.441 18.35"/>
      <polygon fill="#231F20" fill-rule="nonzero" points="12.336 17.463 12.336 17.41 12.389 17.41 12.389 17.515 12.441 17.463 12.441 18.35 12.336 18.35 12.336 17.463 12.389 17.41 12.336 17.463 12.336 17.463"/>
      <polygon fill="#231F20" fill-rule="nonzero" points="13.133 17.41 13.186 17.41 13.186 17.463 13.081 17.463 13.133 17.515 12.389 17.515 12.389 17.411 13.133 17.411 13.186 17.463 13.133 17.411 13.133 17.411"/>
      <polygon fill="#231F20" fill-rule="nonzero" points="13.133 18.402 13.081 18.402 13.081 18.35 13.133 18.402 13.081 18.35 13.081 17.463 13.186 17.463 13.186 18.35 13.133 18.297 13.133 18.402"/>
      <polygon fill="#231F20" fill-rule="nonzero" points="15.019 18.35 15.019 18.402 14.967 18.402 15.019 18.35 14.967 18.402 13.133 18.402 13.133 18.297 14.967 18.297 14.914 18.35 15.019 18.35"/>
      <polygon fill="#231F20" fill-rule="nonzero" points="14.967 17.288 15.019 17.288 15.019 17.341 14.967 17.288 15.019 17.341 15.019 18.35 14.914 18.35 14.914 17.341 14.967 17.393 14.967 17.288"/>
      <polygon fill="#231F20" fill-rule="nonzero" points="14.287 17.393 14.234 17.393 14.234 17.341 14.339 17.341 14.287 17.288 14.967 17.288 14.967 17.393 14.287 17.393 14.234 17.341 14.287 17.393 14.287 17.393"/>
      <polygon fill="#231F20" fill-rule="nonzero" points="14.339 16.937 14.339 16.937 14.339 17.341 14.234 17.341 14.234 16.937 14.234 16.937"/>
      <polygon fill="#231F20" fill-rule="nonzero" points="14.339 16.937 14.287 16.937 14.287 16.937 14.287 16.937 14.287 16.937 14.234 16.937 14.339 16.937"/>
      <polygon fill="#231F20" fill-rule="nonzero" points="14.339 16.937 14.287 16.937 14.287 16.937 14.287 16.937 14.287 16.937 14.234 16.937 14.339 16.937"/>
      <polygon fill="#231F20" fill-rule="nonzero" points="14.339 16.937 14.287 16.937 14.287 16.937 14.287 16.937 14.287 16.937 14.234 16.937 14.339 16.937"/>
      <polygon fill="#231F20" fill-rule="nonzero" points="14.234 16.536 14.234 16.484 14.287 16.484 14.287 16.588 14.339 16.536 14.339 16.937 14.234 16.937 14.234 16.536 14.287 16.484 14.234 16.536 14.234 16.536"/>
      <polygon fill="#231F20" fill-rule="nonzero" points="15.019 16.536 15.019 16.588 14.967 16.588 15.019 16.536 14.967 16.588 14.287 16.588 14.287 16.484 14.967 16.484 14.914 16.536 15.019 16.536"/>
      <polygon fill="#231F20" fill-rule="nonzero" points="14.967 15.472 15.019 15.472 15.019 15.525 14.967 15.472 15.019 15.525 15.019 16.536 14.914 16.536 14.914 15.525 14.967 15.577 14.967 15.472"/>
      <polygon fill="#231F20" fill-rule="nonzero" points="13.081 15.525 13.081 15.472 13.133 15.472 13.081 15.525 13.133 15.472 14.967 15.472 14.967 15.577 13.133 15.577 13.186 15.525 13.081 15.525"/>
      <polygon fill="#231F20" fill-rule="nonzero" points="13.186 16.411 13.186 16.464 13.133 16.464 13.133 16.359 13.081 16.412 13.081 15.525 13.186 15.525 13.186 16.412 13.133 16.464 13.186 16.412 13.186 16.412"/>
      <polygon fill="#231F20" fill-rule="nonzero" points="12.389 16.464 12.336 16.464 12.336 16.411 12.441 16.411 12.389 16.359 13.133 16.359 13.133 16.464 12.389 16.464 12.336 16.411 12.389 16.464 12.389 16.464"/>
      <polygon fill="#231F20" fill-rule="nonzero" points="12.389 15.472 12.441 15.472 12.441 15.525 12.389 15.472 12.441 15.525 12.441 16.412 12.336 16.412 12.336 15.525 12.389 15.577 12.389 15.472"/>
      <polygon fill="#231F20" fill-rule="nonzero" points="11.397 15.577 11.345 15.577 11.345 15.525 11.449 15.525 11.397 15.472 12.389 15.472 12.389 15.577 11.397 15.577 11.345 15.525 11.397 15.577 11.397 15.577"/>
      <polygon fill="#231F20" fill-rule="nonzero" points="11.449 15.134 11.449 15.134 11.449 15.525 11.345 15.525 11.345 15.134 11.345 15.134"/>
      <polygon fill="#231F20" fill-rule="nonzero" points="11.449 15.134 11.397 15.134 11.397 15.134 11.397 15.134 11.397 15.134 11.345 15.134 11.449 15.134"/>
      <polygon fill="#231F20" fill-rule="nonzero" points="11.345 14.742 11.345 14.69 11.397 14.69 11.397 14.795 11.449 14.743 11.449 15.134 11.345 15.134 11.345 14.743 11.397 14.69 11.345 14.743 11.345 14.743"/>
      <polygon fill="#231F20" fill-rule="nonzero" points="12.441 14.742 12.441 14.795 12.389 14.795 12.441 14.742 12.389 14.795 11.397 14.795 11.397 14.69 12.389 14.69 12.336 14.742 12.441 14.742"/>
      <polygon fill="#231F20" fill-rule="nonzero" points="12.336 13.853 12.336 13.801 12.389 13.801 12.389 13.905 12.441 13.853 12.441 14.742 12.336 14.742 12.336 13.853 12.389 13.801 12.336 13.853 12.336 13.853"/>
      <polygon fill="#231F20" fill-rule="nonzero" points="13.133 13.801 13.186 13.801 13.186 13.853 13.081 13.853 13.133 13.905 12.389 13.905 12.389 13.801 13.133 13.801 13.186 13.853 13.133 13.801 13.133 13.801"/>
      <polygon fill="#231F20" fill-rule="nonzero" points="13.133 14.795 13.081 14.795 13.081 14.742 13.133 14.795 13.081 14.742 13.081 13.853 13.186 13.853 13.186 14.742 13.133 14.69 13.133 14.795"/>
      <polygon fill="#231F20" fill-rule="nonzero" points="15.019 14.742 15.019 14.795 14.967 14.795 15.019 14.742 14.967 14.795 13.133 14.795 13.133 14.69 14.967 14.69 14.914 14.742 15.019 14.742"/>
      <polygon fill="#231F20" fill-rule="nonzero" points="14.967 13.676 15.019 13.676 15.019 13.729 14.967 13.676 15.019 13.729 15.019 14.742 14.914 14.742 14.914 13.729 14.967 13.781 14.967 13.676"/>
      <polygon fill="#231F20" fill-rule="nonzero" points="14.287 13.781 14.234 13.781 14.234 13.729 14.339 13.729 14.287 13.676 14.967 13.676 14.967 13.781 14.287 13.781 14.234 13.729 14.287 13.781 14.287 13.781"/>
      <polygon fill="#231F20" fill-rule="nonzero" points="14.339 13.328 14.339 13.328 14.339 13.729 14.234 13.729 14.234 13.328 14.234 13.328"/>
      <polygon fill="#231F20" fill-rule="nonzero" points="14.339 13.328 14.287 13.328 14.287 13.328 14.287 13.328 14.287 13.328 14.234 13.328 14.339 13.328"/>
      <polygon fill="#231F20" fill-rule="nonzero" points="14.339 13.328 14.287 13.328 14.287 13.328 14.287 13.328 14.287 13.328 14.234 13.328 14.339 13.328"/>
      <polygon fill="#231F20" fill-rule="nonzero" points="14.339 13.328 14.287 13.328 14.287 13.328 14.287 13.328 14.287 13.328 14.234 13.328 14.339 13.328"/>
      <polygon fill="#231F20" fill-rule="nonzero" points="14.234 12.926 14.234 12.874 14.287 12.874 14.287 12.979 14.339 12.926 14.339 13.328 14.234 13.328 14.234 12.926 14.287 12.874 14.234 12.926 14.234 12.926"/>
      <polygon fill="#231F20" fill-rule="nonzero" points="15.019 12.926 15.019 12.979 14.967 12.979 15.019 12.926 14.967 12.979 14.287 12.979 14.287 12.874 14.967 12.874 14.914 12.926 15.019 12.926"/>
      <polygon fill="#231F20" fill-rule="nonzero" points="14.967 11.865 15.019 11.865 15.019 11.918 14.967 11.865 15.019 11.918 15.019 12.926 14.914 12.926 14.914 11.918 14.967 11.97 14.967 11.865"/>
      <polygon fill="#231F20" fill-rule="nonzero" points="13.081 11.917 13.081 11.865 13.133 11.865 13.081 11.917 13.133 11.865 14.967 11.865 14.967 11.97 13.133 11.97 13.186 11.917 13.081 11.917"/>
      <polygon fill="#231F20" fill-rule="nonzero" points="13.186 12.802 13.186 12.854 13.133 12.854 13.133 12.75 13.081 12.802 13.081 11.917 13.186 11.917 13.186 12.802 13.133 12.854 13.186 12.802 13.186 12.802"/>
      <polygon fill="#231F20" fill-rule="nonzero" points="12.389 12.854 12.336 12.854 12.336 12.802 12.441 12.802 12.389 12.75 13.133 12.75 13.133 12.854 12.389 12.854 12.336 12.802 12.389 12.854 12.389 12.854"/>
      <polygon fill="#231F20" fill-rule="nonzero" points="12.389 11.865 12.441 11.865 12.441 11.918 12.389 11.865 12.441 11.918 12.441 12.802 12.336 12.802 12.336 11.918 12.389 11.97 12.389 11.865"/>
      <polygon fill="#231F20" fill-rule="nonzero" points="10.677 11.917 10.677 11.865 10.729 11.865 10.677 11.917 10.729 11.865 12.389 11.865 12.389 11.97 10.729 11.97 10.781 11.917 10.677 11.917"/>
      <polygon fill="#231F20" fill-rule="nonzero" points="10.781 12.802 10.781 12.854 10.729 12.854 10.729 12.75 10.677 12.802 10.677 11.917 10.781 11.917 10.781 12.802 10.729 12.854 10.781 12.802 10.781 12.802"/>
      <polygon fill="#231F20" fill-rule="nonzero" points="9.665 12.802 9.665 12.75 10.729 12.75 10.729 12.854 9.665 12.854 9.665 12.802 9.665 12.802"/>
      <polygon fill="#FFF" points="14.939 23.479 14.939 23.479 14.936 23.616 14.924 23.75 14.906 23.885 14.882 24.014 14.849 24.144 14.809 24.271 14.764 24.393 14.715 24.515 14.657 24.632 14.592 24.747 14.525 24.859 14.451 24.966 14.371 25.071 14.286 25.17 14.196 25.268 14.102 25.36 14.002 25.449 13.897 25.532 13.79 25.611 13.678 25.686 13.561 25.753 13.442 25.818 13.32 25.878 13.192 25.93 13.063 25.978 12.928 26.02 12.794 26.055 12.654 26.085 12.515 26.11 12.37 26.124 12.226 26.137 12.079 26.139 12.012 26.139 11.942 26.137 11.875 26.132 11.807 26.127 11.742 26.12 11.675 26.113 11.611 26.103 11.546 26.091 11.483 26.078 11.419 26.066 11.357 26.048 11.294 26.033 11.232 26.013 11.172 25.993 11.112 25.974 11.052 25.951 10.993 25.929 10.936 25.904 10.878 25.879 10.821 25.851 10.763 25.824 10.709 25.794 10.654 25.764 10.599 25.732 10.547 25.699 10.495 25.667 10.442 25.632 10.392 25.597 10.342 25.56 10.292 25.522 10.243 25.485 10.195 25.445 10.143 25.478 10.198 25.55 10.248 25.624 10.292 25.702 10.335 25.781 10.375 25.861 10.41 25.943 10.442 26.028 10.472 26.112 10.497 26.2 10.517 26.289 10.537 26.379 10.552 26.469 10.562 26.563 10.57 26.656 10.575 26.75 10.578 26.847 10.575 26.964 10.565 27.079 10.55 27.194 10.53 27.306 10.505 27.415 10.472 27.522 10.435 27.627 10.393 27.732 10.348 27.831 10.296 27.928 10.241 28.026 10.178 28.118 10.114 28.205 10.044 28.292 9.972 28.374 9.894 28.454 9.815 28.529 9.73 28.601 9.64 28.668 9.551 28.731 9.456 28.79 9.359 28.845 9.257 28.895 9.155 28.94 9.048 28.982 8.94 29.017 8.831 29.047 8.716 29.072 8.602 29.092 8.487 29.107 8.367 29.117 8.248 29.119 8.128 29.117 8.009 29.107 7.892 29.092 7.777 29.072 7.665 29.047 7.555 29.017 7.446 28.982 7.339 28.94 7.236 28.895 7.137 28.845 7.037 28.79 6.942 28.731 6.853 28.668 6.763 28.601 6.678 28.529 6.599 28.454 6.522 28.374 6.447 28.292 6.377 28.205 6.312 28.118 6.252 28.026 6.195 27.928 6.143 27.831 6.098 27.732 6.056 27.627 6.018 27.522 5.988 27.415 5.961 27.306 5.941 27.194 5.926 27.079 5.916 26.964 5.914 26.847 5.916 26.75 5.921 26.656 5.929 26.563 5.939 26.469 5.954 26.379 5.974 26.289 5.996 26.2 6.021 26.112 6.049 26.028 6.081 25.943 6.118 25.861 6.156 25.781 6.201 25.702 6.248 25.624 6.298 25.55 6.353 25.478 6.298 25.445 6.251 25.485 6.201 25.522 6.151 25.56 6.101 25.597 6.051 25.632 5.999 25.667 5.947 25.699 5.892 25.732 5.839 25.764 5.785 25.794 5.727 25.824 5.672 25.851 5.615 25.879 5.558 25.904 5.501 25.929 5.441 25.951 5.381 25.974 5.321 25.993 5.261 26.013 5.199 26.033 5.137 26.048 5.074 26.066 5.01 26.078 4.945 26.091 4.883 26.103 4.815 26.113 4.751 26.12 4.683 26.127 4.616 26.132 4.549 26.137 4.482 26.139 4.412 26.139 4.265 26.137 4.121 26.124 3.976 26.11 3.836 26.085 3.699 26.055 3.562 26.02 3.43 25.978 3.301 25.93 3.174 25.878 3.052 25.818 2.932 25.753 2.815 25.686 2.703 25.611 2.596 25.532 2.491 25.449 2.394 25.36 2.299 25.268 2.21 25.17 2.125 25.071 2.045 24.966 1.971 24.859 1.901 24.747 1.838 24.632 1.781 24.515 1.731 24.393 1.686 24.271 1.647 24.144 1.614 24.014 1.589 23.885 1.572 23.75 1.559 23.616 1.557 23.479 1.557 23.479 1.559 23.342 1.572 23.207 1.589 23.075 1.614 22.943 1.647 22.814 1.686 22.689 1.731 22.565 1.781 22.445 1.838 22.328 1.901 22.213 1.971 22.101 2.045 21.994 2.125 21.89 2.21 21.787 2.299 21.693 2.394 21.601 2.491 21.511 2.596 21.429 2.703 21.349 2.815 21.275 2.932 21.207 3.052 21.142 3.174 21.083 3.301 21.03 3.43 20.983 3.562 20.941 3.699 20.906 3.836 20.876 3.976 20.851 4.121 20.836 4.265 20.824 4.412 20.821 4.482 20.821 4.549 20.826 4.616 20.831 4.683 20.838 4.748 20.845 4.815 20.855 4.88 20.867 4.945 20.882 5.007 20.899 5.069 20.917 5.132 20.934 5.194 20.957 5.254 20.977 5.314 21.002 5.374 21.027 5.433 21.052 5.491 21.079 5.548 21.109 5.605 21.139 5.663 21.169 5.717 21.201 5.772 21.233 5.824 21.266 5.879 21.301 5.932 21.336 5.984 21.373 6.034 21.41 6.086 21.448 6.136 21.485 6.183 21.523 6.233 21.562 6.28 21.602 6.285 21.604 6.303 21.611 6.33 21.624 6.365 21.636 6.405 21.649 6.45 21.661 6.5 21.668 6.55 21.671 6.6 21.671 6.649 21.661 6.694 21.641 6.734 21.611 6.769 21.569 6.797 21.514 6.814 21.442 6.819 21.355 6.819 21.24 6.821 21.128 6.824 21.021 6.829 20.919 6.836 20.819 6.844 20.725 6.854 20.635 6.867 20.548 6.882 20.465 6.899 20.388 6.919 20.314 6.941 20.244 6.969 20.177 6.999 20.114 7.031 20.054 7.068 19.997 7.108 19.947 7.153 19.898 7.2 19.855 7.253 19.813 7.31 19.775 7.372 19.741 7.437 19.711 7.509 19.683 7.586 19.661 7.669 19.638 7.756 19.623 7.848 19.608 7.948 19.598 8.052 19.588 8.164 19.586 8.282 19.584 8.399 19.584 8.511 19.589 8.616 19.594 8.715 19.604 8.81 19.614 8.897 19.629 8.979 19.647 9.056 19.667 9.128 19.689 9.196 19.714 9.258 19.744 9.315 19.776 9.37 19.811 9.42 19.849 9.465 19.891 9.505 19.938 9.542 19.988 9.577 20.04 9.607 20.098 9.634 20.16 9.659 20.225 9.679 20.295 9.697 20.367 9.714 20.446 9.727 20.526 9.737 20.613 9.747 20.706 9.754 20.8 9.759 20.9 9.762 21.007 9.765 21.117 9.765 21.231 9.77 21.321 9.782 21.393 9.804 21.451 9.832 21.493 9.864 21.525 9.902 21.548 9.941 21.56 9.981 21.565 10.021 21.565 10.061 21.558 10.099 21.551 10.131 21.541 10.158 21.529 10.181 21.522 10.193 21.515 10.198 21.513 10.245 21.473 10.295 21.436 10.345 21.398 10.395 21.361 10.445 21.326 10.497 21.291 10.549 21.258 10.602 21.226 10.657 21.194 10.711 21.164 10.766 21.136 10.823 21.109 10.881 21.081 10.938 21.057 10.995 21.032 11.055 21.009 11.115 20.987 11.175 20.967 11.235 20.947 11.297 20.929 11.359 20.912 11.421 20.897 11.486 20.882 11.548 20.87 11.613 20.86 11.678 20.85 11.745 20.842 11.81 20.835 11.877 20.83 11.944 20.825 12.014 20.822 12.082 20.822 12.229 20.825 12.373 20.837 12.518 20.852 12.657 20.877 12.797 20.907 12.931 20.942 13.066 20.984 13.195 21.031 13.322 21.084 13.444 21.144 13.564 21.208 13.681 21.276 13.793 21.35 13.9 21.43 14.005 21.512 14.105 21.602 14.199 21.694 14.289 21.789 14.373 21.891 14.453 21.995 14.528 22.102 14.595 22.215 14.66 22.329 14.717 22.446 14.767 22.566 14.812 22.69 14.852 22.815 14.884 22.944 14.909 23.076 14.927 23.209 14.939 23.343 14.942 23.48 14.942 23.48"/>
      <polygon fill="#231F20" fill-rule="nonzero" points="12.079 20.768 12.079 20.768 12.229 20.771 12.376 20.784 12.523 20.799 12.665 20.824 12.807 20.856 12.944 20.891 13.081 20.933 13.213 20.981 13.343 21.036 13.467 21.095 13.587 21.163 13.706 21.23 13.821 21.307 13.93 21.387 14.035 21.471 14.137 21.564 14.234 21.656 14.326 21.753 14.411 21.858 14.493 21.965 14.571 22.074 14.638 22.187 14.705 22.304 14.762 22.423 14.815 22.545 14.86 22.672 14.9 22.799 14.934 22.934 14.959 23.068 14.977 23.203 14.989 23.34 14.991 23.479 14.887 23.479 14.885 23.345 14.872 23.213 14.855 23.083 14.83 22.954 14.8 22.829 14.76 22.707 14.715 22.585 14.668 22.468 14.611 22.353 14.548 22.241 14.481 22.129 14.409 22.025 14.332 21.922 14.247 21.823 14.16 21.731 14.067 21.639 13.97 21.551 13.866 21.472 13.761 21.392 13.651 21.32 13.537 21.252 13.417 21.19 13.298 21.13 13.173 21.081 13.046 21.033 12.914 20.991 12.782 20.956 12.645 20.928 12.508 20.904 12.366 20.889 12.224 20.876 12.079 20.874 12.079 20.874 12.079 20.769"/>
      <polygon fill="#231F20" fill-rule="nonzero" points="10.228 21.551 10.226 21.553 10.221 21.556 10.171 21.466 10.164 21.471 10.212 21.431 10.261 21.392 10.311 21.354 10.364 21.317 10.413 21.282 10.468 21.245 10.521 21.212 10.573 21.18 10.63 21.147 10.685 21.115 10.742 21.088 10.8 21.06 10.857 21.033 10.917 21.008 10.974 20.983 11.036 20.958 11.096 20.935 11.156 20.916 11.218 20.896 11.281 20.878 11.345 20.861 11.408 20.846 11.475 20.828 11.537 20.816 11.604 20.806 11.669 20.796 11.739 20.789 11.804 20.781 11.874 20.776 11.941 20.771 12.013 20.768 12.08 20.768 12.08 20.872 12.013 20.872 11.946 20.875 11.879 20.88 11.814 20.884 11.749 20.892 11.684 20.898 11.619 20.909 11.557 20.919 11.495 20.931 11.433 20.944 11.37 20.959 11.31 20.976 11.248 20.993 11.191 21.013 11.131 21.033 11.071 21.056 11.014 21.076 10.957 21.101 10.902 21.125 10.844 21.153 10.787 21.18 10.735 21.208 10.68 21.235 10.628 21.267 10.575 21.3 10.523 21.332 10.473 21.365 10.423 21.399 10.376 21.437 10.326 21.474 10.276 21.509 10.229 21.549 10.222 21.554 10.229 21.549 10.229 21.549"/>
      <polygon fill="#231F20" fill-rule="nonzero" points="9.815 21.232 9.815 21.232 9.82 21.317 9.83 21.381 9.85 21.429 9.87 21.461 9.895 21.486 9.922 21.501 9.95 21.508 9.982 21.513 10.014 21.513 10.049 21.506 10.084 21.501 10.112 21.491 10.136 21.481 10.159 21.473 10.166 21.468 10.171 21.466 10.221 21.556 10.216 21.558 10.199 21.568 10.177 21.575 10.147 21.59 10.109 21.6 10.069 21.61 10.025 21.617 9.977 21.617 9.93 21.612 9.877 21.594 9.83 21.564 9.791 21.524 9.756 21.472 9.731 21.405 9.716 21.325 9.711 21.231 9.711 21.231 9.815 21.231"/>
      <polygon fill="#231F20" fill-rule="nonzero" points="8.281 19.533 8.281 19.533 8.397 19.533 8.512 19.538 8.617 19.543 8.719 19.553 8.816 19.563 8.906 19.578 8.99 19.598 9.07 19.618 9.145 19.64 9.215 19.668 9.282 19.698 9.342 19.732 9.399 19.77 9.451 19.81 9.501 19.857 9.543 19.907 9.583 19.959 9.62 20.014 9.653 20.076 9.68 20.141 9.708 20.208 9.728 20.283 9.745 20.355 9.765 20.437 9.778 20.52 9.788 20.609 9.798 20.701 9.806 20.799 9.811 20.898 9.813 21.008 9.815 21.117 9.815 21.232 9.71 21.232 9.71 21.117 9.707 21.008 9.705 20.903 9.7 20.804 9.692 20.711 9.682 20.619 9.672 20.535 9.659 20.457 9.644 20.38 9.627 20.308 9.607 20.243 9.585 20.181 9.557 20.121 9.53 20.069 9.497 20.019 9.462 19.971 9.425 19.927 9.385 19.889 9.338 19.854 9.286 19.822 9.231 19.792 9.173 19.762 9.109 19.74 9.039 19.717 8.964 19.697 8.884 19.682 8.8 19.667 8.708 19.657 8.61 19.647 8.506 19.642 8.396 19.637 8.279 19.637 8.279 19.637 8.279 19.533"/>
      <polygon fill="#231F20" fill-rule="nonzero" points="6.766 21.356 6.766 21.356 6.766 21.242 6.769 21.13 6.771 21.02 6.776 20.918 6.784 20.816 6.791 20.721 6.801 20.629 6.814 20.542 6.828 20.457 6.848 20.378 6.868 20.3 6.891 20.228 6.921 20.159 6.951 20.091 6.985 20.029 7.025 19.969 7.067 19.914 7.115 19.862 7.165 19.817 7.222 19.772 7.282 19.732 7.347 19.695 7.416 19.665 7.491 19.635 7.571 19.613 7.655 19.588 7.748 19.573 7.84 19.558 7.942 19.548 8.049 19.538 8.163 19.536 8.281 19.534 8.281 19.638 8.163 19.641 8.054 19.643 7.952 19.653 7.855 19.663 7.762 19.678 7.68 19.693 7.6 19.713 7.526 19.735 7.456 19.76 7.396 19.79 7.337 19.823 7.282 19.858 7.234 19.897 7.189 19.937 7.147 19.985 7.11 20.03 7.075 20.084 7.045 20.142 7.015 20.199 6.99 20.264 6.968 20.331 6.948 20.403 6.933 20.478 6.918 20.558 6.906 20.645 6.895 20.732 6.888 20.827 6.88 20.924 6.875 21.026 6.873 21.131 6.871 21.243 6.871 21.357 6.871 21.357 6.767 21.357"/>
      <polygon fill="#231F20" fill-rule="nonzero" points="6.258 21.65 6.251 21.648 6.249 21.643 6.313 21.564 6.303 21.557 6.306 21.559 6.326 21.566 6.351 21.578 6.383 21.588 6.421 21.601 6.461 21.611 6.505 21.618 6.55 21.621 6.595 21.621 6.635 21.613 6.667 21.598 6.697 21.575 6.725 21.543 6.747 21.498 6.762 21.436 6.767 21.356 6.872 21.356 6.867 21.451 6.847 21.533 6.815 21.598 6.772 21.65 6.722 21.687 6.665 21.712 6.605 21.725 6.551 21.725 6.496 21.722 6.441 21.715 6.391 21.7 6.348 21.687 6.311 21.672 6.281 21.66 6.266 21.653 6.258 21.651 6.248 21.644 6.258 21.651 6.258 21.651"/>
      <polygon fill="#231F20" fill-rule="nonzero" points="4.412 20.768 4.412 20.768 4.484 20.768 4.551 20.773 4.621 20.778 4.688 20.786 4.755 20.793 4.823 20.803 4.89 20.816 4.957 20.833 5.022 20.851 5.084 20.868 5.147 20.886 5.211 20.908 5.271 20.928 5.333 20.956 5.393 20.98 5.456 21.005 5.513 21.033 5.573 21.063 5.63 21.093 5.687 21.125 5.745 21.157 5.799 21.19 5.852 21.222 5.906 21.257 5.961 21.295 6.013 21.332 6.063 21.369 6.116 21.407 6.168 21.444 6.215 21.484 6.265 21.524 6.312 21.564 6.248 21.643 6.2 21.604 6.15 21.564 6.103 21.529 6.056 21.491 6.004 21.454 5.954 21.417 5.901 21.379 5.852 21.347 5.797 21.312 5.744 21.279 5.689 21.247 5.637 21.215 5.58 21.187 5.523 21.157 5.468 21.127 5.411 21.1 5.353 21.075 5.293 21.05 5.236 21.028 5.176 21.008 5.117 20.985 5.054 20.968 4.992 20.95 4.932 20.933 4.87 20.921 4.808 20.908 4.74 20.898 4.678 20.891 4.611 20.884 4.546 20.879 4.479 20.874 4.412 20.874 4.412 20.874 4.412 20.769"/>
      <polygon fill="#231F20" fill-rule="nonzero" points="1.504 23.479 1.504 23.479 1.507 23.339 1.52 23.202 1.537 23.068 1.562 22.933 1.597 22.799 1.637 22.672 1.682 22.545 1.734 22.423 1.791 22.303 1.856 22.186 1.928 22.074 2.003 21.964 2.085 21.857 2.17 21.753 2.262 21.655 2.359 21.563 2.457 21.471 2.564 21.386 2.673 21.307 2.788 21.23 2.907 21.162 3.027 21.095 3.152 21.035 3.281 20.98 3.413 20.933 3.548 20.891 3.687 20.856 3.827 20.823 3.969 20.798 4.116 20.783 4.263 20.771 4.412 20.768 4.412 20.873 4.268 20.875 4.126 20.887 3.984 20.902 3.847 20.927 3.712 20.955 3.578 20.99 3.448 21.032 3.321 21.079 3.196 21.129 3.077 21.189 2.957 21.251 2.843 21.318 2.733 21.391 2.628 21.47 2.526 21.55 2.429 21.637 2.337 21.729 2.25 21.821 2.165 21.921 2.088 22.023 2.013 22.128 1.946 22.24 1.886 22.352 1.829 22.467 1.782 22.584 1.737 22.706 1.697 22.828 1.667 22.952 1.642 23.082 1.624 23.212 1.612 23.344 1.609 23.478 1.609 23.478 1.504 23.478"/>
      <polygon fill="#231F20" fill-rule="nonzero" points="1.504 23.479 1.557 23.479 1.557 23.479 1.557 23.479 1.557 23.479 1.609 23.479 1.504 23.479"/>
      <polygon fill="#231F20" fill-rule="nonzero" points="4.412 26.192 4.412 26.192 4.262 26.19 4.115 26.177 3.968 26.162 3.826 26.137 3.687 26.105 3.547 26.07 3.413 26.028 3.281 25.98 3.151 25.926 3.027 25.866 2.907 25.799 2.787 25.731 2.673 25.654 2.563 25.574 2.456 25.49 2.359 25.397 2.262 25.305 2.17 25.206 2.085 25.104 2.003 24.996 1.928 24.887 1.856 24.772 1.791 24.658 1.734 24.538 1.681 24.413 1.637 24.289 1.597 24.159 1.564 24.027 1.537 23.893 1.519 23.756 1.507 23.619 1.504 23.479 1.609 23.479 1.612 23.614 1.624 23.746 1.642 23.878 1.664 24.002 1.697 24.13 1.737 24.254 1.781 24.374 1.829 24.493 1.886 24.608 1.946 24.722 2.013 24.832 2.088 24.937 2.165 25.039 2.25 25.136 2.337 25.231 2.429 25.323 2.526 25.41 2.628 25.489 2.733 25.569 2.843 25.641 2.957 25.709 3.077 25.771 3.196 25.831 3.321 25.881 3.448 25.928 3.577 25.97 3.712 26.005 3.847 26.033 3.984 26.058 4.126 26.073 4.267 26.085 4.412 26.087 4.412 26.087 4.412 26.192"/>
      <polygon fill="#231F20" fill-rule="nonzero" points="6.265 25.405 6.293 25.38 6.325 25.4 6.27 25.489 6.33 25.484 6.283 25.524 6.233 25.564 6.183 25.601 6.13 25.639 6.081 25.674 6.026 25.711 5.974 25.743 5.919 25.776 5.866 25.808 5.809 25.838 5.752 25.87 5.695 25.898 5.637 25.925 5.577 25.95 5.52 25.975 5.458 26 5.398 26.023 5.338 26.043 5.276 26.062 5.214 26.082 5.149 26.097 5.087 26.115 5.019 26.13 4.955 26.142 4.892 26.154 4.823 26.165 4.755 26.172 4.688 26.179 4.618 26.184 4.551 26.189 4.481 26.191 4.412 26.191 4.412 26.086 4.481 26.086 4.546 26.084 4.613 26.079 4.678 26.074 4.746 26.066 4.808 26.059 4.873 26.049 4.935 26.036 4.999 26.024 5.062 26.014 5.124 25.996 5.184 25.981 5.246 25.961 5.303 25.942 5.363 25.922 5.423 25.899 5.481 25.879 5.538 25.854 5.593 25.829 5.65 25.802 5.702 25.775 5.759 25.747 5.812 25.717 5.864 25.685 5.919 25.652 5.971 25.62 6.021 25.588 6.071 25.553 6.118 25.515 6.168 25.478 6.218 25.443 6.265 25.403 6.325 25.398 6.265 25.403 6.265 25.403"/>
      <polygon fill="#231F20" fill-rule="nonzero" points="6.38 25.432 6.43 25.462 6.392 25.509 6.312 25.444 6.325 25.521 6.27 25.489 6.325 25.399 6.38 25.432 6.392 25.509 6.38 25.432 6.38 25.432"/>
      <polygon fill="#231F20" fill-rule="nonzero" points="5.861 26.847 5.861 26.847 5.864 26.747 5.869 26.653 5.877 26.558 5.887 26.461 5.902 26.369 5.925 26.276 5.947 26.187 5.972 26.097 6 26.01 6.035 25.923 6.072 25.838 6.109 25.756 6.157 25.674 6.204 25.596 6.256 25.519 6.314 25.444 6.393 25.509 6.341 25.579 6.294 25.651 6.246 25.728 6.204 25.806 6.167 25.883 6.129 25.962 6.099 26.045 6.072 26.127 6.047 26.211 6.025 26.301 6.007 26.388 5.992 26.475 5.982 26.568 5.975 26.657 5.97 26.752 5.967 26.847 5.967 26.847 5.863 26.847"/>
      <polygon fill="#231F20" fill-rule="nonzero" points="8.248 29.171 8.248 29.171 8.126 29.169 8.004 29.159 7.884 29.144 7.767 29.125 7.653 29.097 7.541 29.067 7.429 29.032 7.319 28.987 7.214 28.942 7.112 28.893 7.01 28.835 6.913 28.773 6.823 28.711 6.731 28.641 6.644 28.569 6.561 28.492 6.484 28.409 6.407 28.327 6.335 28.238 6.27 28.148 6.208 28.053 6.15 27.954 6.096 27.854 6.051 27.752 6.006 27.645 5.969 27.537 5.939 27.428 5.909 27.316 5.889 27.201 5.874 27.084 5.864 26.967 5.861 26.847 5.965 26.847 5.968 26.962 5.978 27.074 5.993 27.186 6.013 27.296 6.038 27.403 6.068 27.508 6.105 27.61 6.145 27.712 6.19 27.809 6.24 27.904 6.297 27.998 6.355 28.088 6.419 28.173 6.487 28.257 6.559 28.339 6.636 28.417 6.713 28.489 6.796 28.561 6.883 28.626 6.972 28.688 7.065 28.746 7.162 28.798 7.259 28.848 7.358 28.893 7.463 28.933 7.57 28.967 7.677 28.997 7.787 29.02 7.899 29.04 8.014 29.055 8.131 29.065 8.248 29.068 8.248 29.068 8.248 29.172"/>
      <polygon fill="#231F20" fill-rule="nonzero" points="10.629 26.847 10.629 26.847 10.627 26.967 10.617 27.084 10.602 27.201 10.582 27.315 10.555 27.427 10.523 27.539 10.485 27.644 10.44 27.751 10.396 27.853 10.341 27.953 10.286 28.053 10.221 28.147 10.157 28.237 10.084 28.324 10.01 28.409 9.932 28.491 9.85 28.568 9.763 28.641 9.671 28.71 9.581 28.773 9.484 28.835 9.385 28.892 9.28 28.942 9.175 28.987 9.066 29.032 8.956 29.067 8.844 29.097 8.727 29.124 8.61 29.144 8.493 29.159 8.371 29.169 8.249 29.171 8.249 29.066 8.366 29.063 8.483 29.053 8.595 29.038 8.707 29.018 8.819 28.996 8.926 28.966 9.031 28.931 9.136 28.891 9.235 28.846 9.335 28.796 9.429 28.744 9.521 28.687 9.611 28.625 9.698 28.56 9.781 28.488 9.858 28.415 9.935 28.338 10.005 28.258 10.072 28.171 10.137 28.087 10.197 27.997 10.251 27.902 10.301 27.808 10.346 27.71 10.386 27.608 10.423 27.504 10.456 27.402 10.478 27.294 10.498 27.185 10.513 27.073 10.523 26.961 10.525 26.846 10.525 26.846 10.629 26.846"/>
      <polygon fill="#231F20" fill-rule="nonzero" points="10.102 25.509 10.067 25.462 10.116 25.432 10.171 25.522 10.186 25.445 10.241 25.519 10.293 25.596 10.338 25.676 10.383 25.756 10.423 25.838 10.458 25.923 10.493 26.01 10.523 26.097 10.547 26.187 10.567 26.277 10.59 26.369 10.605 26.461 10.615 26.558 10.622 26.653 10.627 26.747 10.629 26.847 10.524 26.847 10.522 26.752 10.517 26.658 10.51 26.568 10.5 26.476 10.485 26.389 10.468 26.302 10.448 26.212 10.423 26.127 10.393 26.045 10.363 25.963 10.329 25.883 10.289 25.806 10.249 25.726 10.204 25.652 10.157 25.579 10.102 25.51 10.117 25.433 10.102 25.51 10.102 25.51"/>
      <polygon fill="#231F20" fill-rule="nonzero" points="10.169 25.4 10.201 25.38 10.228 25.405 10.164 25.484 10.224 25.489 10.171 25.522 10.117 25.432 10.169 25.4 10.229 25.405 10.169 25.4 10.169 25.4"/>
      <polygon fill="#231F20" fill-rule="nonzero" points="12.079 26.192 12.079 26.192 12.012 26.192 11.94 26.19 11.873 26.185 11.803 26.18 11.738 26.173 11.668 26.166 11.601 26.156 11.536 26.144 11.474 26.131 11.407 26.116 11.344 26.099 11.28 26.084 11.217 26.064 11.155 26.044 11.095 26.024 11.036 26.001 10.973 25.976 10.916 25.951 10.856 25.927 10.799 25.899 10.739 25.872 10.684 25.839 10.629 25.809 10.572 25.777 10.52 25.745 10.467 25.712 10.412 25.675 10.363 25.64 10.311 25.603 10.26 25.565 10.211 25.525 10.163 25.485 10.228 25.406 10.275 25.446 10.325 25.481 10.375 25.518 10.423 25.555 10.472 25.59 10.522 25.623 10.574 25.655 10.627 25.687 10.679 25.72 10.734 25.75 10.789 25.777 10.843 25.804 10.901 25.832 10.956 25.857 11.013 25.882 11.07 25.902 11.13 25.924 11.19 25.944 11.247 25.964 11.31 25.984 11.369 25.999 11.432 26.016 11.494 26.026 11.556 26.039 11.621 26.051 11.683 26.061 11.748 26.068 11.813 26.076 11.878 26.081 11.945 26.086 12.012 26.088 12.079 26.088 12.079 26.088 12.079 26.193"/>
      <polygon fill="#231F20" fill-rule="nonzero" points="14.992 23.479 14.992 23.479 14.99 23.618 14.977 23.755 14.96 23.892 14.932 24.027 14.9 24.159 14.86 24.289 14.815 24.413 14.763 24.538 14.705 24.657 14.638 24.772 14.571 24.886 14.494 24.996 14.411 25.103 14.327 25.205 14.234 25.305 14.137 25.397 14.035 25.489 13.931 25.574 13.821 25.654 13.707 25.731 13.587 25.798 13.467 25.866 13.343 25.925 13.213 25.98 13.081 26.027 12.944 26.07 12.807 26.105 12.665 26.137 12.523 26.162 12.376 26.177 12.229 26.189 12.08 26.191 12.08 26.087 12.224 26.085 12.366 26.072 12.508 26.057 12.645 26.032 12.782 26.005 12.914 25.97 13.046 25.928 13.173 25.88 13.298 25.83 13.418 25.771 13.537 25.708 13.652 25.641 13.761 25.569 13.866 25.489 13.97 25.409 14.068 25.322 14.16 25.23 14.247 25.136 14.332 25.038 14.409 24.936 14.481 24.832 14.549 24.722 14.611 24.607 14.668 24.493 14.715 24.373 14.76 24.254 14.8 24.129 14.833 24.002 14.855 23.877 14.872 23.745 14.885 23.613 14.887 23.479 14.887 23.479 14.992 23.479"/>
      <polygon fill="#231F20" fill-rule="nonzero" points="14.992 23.479 14.939 23.479 14.939 23.479 14.939 23.479 14.939 23.479 14.887 23.479 14.992 23.479"/>
      <polygon fill="#FFF" points="8.482 20.161 9.715 20.161 9.715 11.09 8.482 11.09"/>
      <polygon fill="#231F20" fill-rule="nonzero" points="8.43 11.09 8.43 11.038 8.482 11.038 8.482 11.143 8.534 11.09 8.534 20.161 8.43 20.161 8.43 11.09 8.482 11.038 8.43 11.09 8.43 11.09"/>
      <polygon fill="#231F20" fill-rule="nonzero" points="9.715 11.038 9.768 11.038 9.768 11.091 9.663 11.091 9.715 11.143 8.482 11.143 8.482 11.038 9.715 11.038 9.768 11.091 9.715 11.038 9.715 11.038"/>
      <polygon fill="#231F20" fill-rule="nonzero" points="9.768 20.161 9.768 20.213 9.715 20.213 9.715 20.108 9.663 20.161 9.663 11.09 9.768 11.09 9.768 20.161 9.716 20.213 9.768 20.161 9.768 20.161"/>
      <polygon fill="#231F20" fill-rule="nonzero" points="8.482 20.213 8.43 20.213 8.43 20.161 8.534 20.161 8.482 20.109 9.716 20.109 9.716 20.213 8.482 20.213 8.43 20.161 8.482 20.213 8.482 20.213"/>
      <polygon fill="#ED1C24" points="13.714 23.479 13.712 23.556 13.707 23.631 13.694 23.706 13.681 23.78 13.662 23.852 13.639 23.922 13.614 23.992 13.584 24.059 13.552 24.127 13.517 24.191 13.477 24.253 13.435 24.313 13.39 24.373 13.34 24.431 13.288 24.483 13.236 24.535 13.178 24.585 13.118 24.632 13.056 24.677 12.994 24.717 12.927 24.757 12.859 24.794 12.787 24.827 12.715 24.857 12.64 24.884 12.565 24.907 12.488 24.926 12.409 24.944 12.329 24.956 12.247 24.966 12.164 24.971 12.08 24.974 12.01 24.971 11.935 24.964 11.856 24.954 11.773 24.939 11.686 24.922 11.599 24.9 11.509 24.877 11.42 24.85 11.332 24.822 11.245 24.792 11.163 24.76 11.083 24.728 11.009 24.695 10.942 24.663 10.879 24.628 10.824 24.595 10.824 24.595 10.735 24.518 10.638 24.454 10.536 24.401 10.426 24.361 10.314 24.334 10.199 24.314 10.085 24.304 9.973 24.304 9.863 24.309 9.756 24.321 9.656 24.339 9.564 24.361 9.479 24.389 9.407 24.416 9.345 24.446 9.297 24.478 9.25 24.521 9.205 24.563 9.166 24.608 9.13 24.653 9.098 24.7 9.073 24.75 9.048 24.8 9.031 24.852 9.014 24.905 9.001 24.959 8.993 25.014 8.988 25.069 8.986 25.124 8.986 25.181 8.988 25.238 8.993 25.296 9.003 25.353 9.013 25.41 9.026 25.468 9.04 25.525 9.058 25.582 9.078 25.64 9.098 25.694 9.12 25.752 9.145 25.807 9.17 25.859 9.195 25.914 9.222 25.966 9.252 26.016 9.28 26.068 9.31 26.115 9.34 26.163 9.34 26.163 9.352 26.193 9.362 26.225 9.369 26.265 9.379 26.305 9.384 26.352 9.392 26.397 9.397 26.447 9.402 26.497 9.405 26.546 9.407 26.596 9.41 26.646 9.413 26.691 9.413 26.736 9.415 26.778 9.415 26.816 9.415 26.848 9.41 26.963 9.39 27.072 9.363 27.177 9.323 27.279 9.273 27.376 9.216 27.468 9.149 27.553 9.074 27.633 8.989 27.702 8.9 27.767 8.805 27.822 8.703 27.87 8.596 27.907 8.484 27.934 8.369 27.952 8.25 27.957 8.13 27.952 8.015 27.934 7.903 27.907 7.796 27.87 7.694 27.822 7.599 27.767 7.51 27.702 7.425 27.633 7.35 27.553 7.283 27.468 7.226 27.376 7.176 27.279 7.136 27.177 7.109 27.072 7.089 26.963 7.084 26.848 7.084 26.816 7.084 26.778 7.084 26.736 7.087 26.691 7.087 26.646 7.09 26.596 7.093 26.546 7.098 26.497 7.1 26.447 7.105 26.397 7.112 26.352 7.12 26.305 7.127 26.265 7.137 26.225 7.147 26.193 7.159 26.163 7.159 26.163 7.189 26.115 7.219 26.068 7.247 26.016 7.274 25.966 7.301 25.914 7.329 25.859 7.354 25.807 7.376 25.752 7.398 25.694 7.421 25.64 7.438 25.582 7.456 25.525 7.471 25.468 7.486 25.41 7.496 25.353 7.504 25.296 7.511 25.238 7.513 25.181 7.513 25.124 7.511 25.069 7.506 25.014 7.496 24.959 7.483 24.905 7.468 24.852 7.448 24.8 7.426 24.75 7.399 24.7 7.366 24.653 7.331 24.608 7.291 24.563 7.247 24.521 7.197 24.478 7.15 24.446 7.087 24.416 7.015 24.389 6.933 24.361 6.84 24.339 6.741 24.321 6.634 24.309 6.524 24.304 6.412 24.304 6.297 24.314 6.185 24.334 6.073 24.361 5.964 24.401 5.861 24.454 5.764 24.518 5.675 24.595 5.675 24.595 5.62 24.628 5.557 24.663 5.488 24.695 5.413 24.728 5.334 24.76 5.251 24.792 5.164 24.822 5.077 24.85 4.987 24.877 4.897 24.9 4.81 24.922 4.723 24.939 4.638 24.954 4.559 24.964 4.484 24.971 4.414 24.974 4.329 24.971 4.247 24.966 4.165 24.956 4.085 24.944 4.006 24.926 3.928 24.907 3.854 24.884 3.779 24.857 3.707 24.827 3.637 24.794 3.567 24.757 3.502 24.717 3.438 24.677 3.376 24.632 3.316 24.585 3.261 24.535 3.206 24.483 3.154 24.431 3.106 24.373 3.061 24.313 3.019 24.253 2.979 24.191 2.944 24.127 2.909 24.059 2.882 23.992 2.855 23.922 2.835 23.852 2.815 23.78 2.802 23.706 2.79 23.631 2.785 23.556 2.783 23.479 2.785 23.402 2.79 23.327 2.802 23.25 2.815 23.178 2.835 23.105 2.855 23.033 2.882 22.963 2.909 22.896 2.944 22.829 2.979 22.764 3.019 22.702 3.061 22.642 3.106 22.582 3.154 22.527 3.206 22.472 3.261 22.42 3.316 22.37 3.376 22.323 3.438 22.278 3.502 22.238 3.567 22.198 3.637 22.163 3.707 22.129 3.779 22.099 3.854 22.071 3.928 22.049 4.006 22.029 4.085 22.011 4.165 21.999 4.247 21.989 4.329 21.984 4.414 21.981 4.484 21.984 4.559 21.991 4.638 22.001 4.723 22.016 4.81 22.033 4.897 22.056 4.987 22.081 5.077 22.106 5.164 22.135 5.251 22.165 5.334 22.195 5.413 22.228 5.488 22.26 5.557 22.295 5.62 22.327 5.675 22.36 5.675 22.36 5.764 22.44 5.859 22.509 5.961 22.569 6.066 22.621 6.175 22.664 6.287 22.696 6.4 22.724 6.509 22.744 6.619 22.756 6.723 22.763 6.823 22.765 6.915 22.763 7 22.756 7.077 22.746 7.142 22.731 7.197 22.716 7.244 22.701 7.294 22.684 7.346 22.664 7.401 22.644 7.458 22.622 7.513 22.594 7.57 22.564 7.625 22.532 7.677 22.494 7.727 22.452 7.775 22.405 7.817 22.352 7.854 22.295 7.887 22.228 7.914 22.158 7.934 22.078 7.946 22.004 7.959 21.929 7.966 21.852 7.974 21.775 7.981 21.697 7.986 21.618 7.991 21.541 7.996 21.463 7.999 21.389 8.001 21.311 8.004 21.237 8.006 21.162 8.009 21.09 8.011 21.02 8.014 20.95 8.019 20.886 8.024 20.821 8.029 20.758 8.037 20.698 8.044 20.644 8.054 20.591 8.064 20.542 8.079 20.497 8.094 20.454 8.109 20.417 8.129 20.382 8.151 20.355 8.176 20.33 8.204 20.31 8.234 20.297 8.268 20.287 8.306 20.284 8.341 20.287 8.373 20.294 8.403 20.309 8.43 20.327 8.455 20.349 8.478 20.377 8.498 20.409 8.515 20.444 8.53 20.484 8.545 20.526 8.557 20.573 8.567 20.623 8.578 20.676 8.588 20.733 8.595 20.79 8.603 20.853 8.608 20.915 8.613 20.982 8.618 21.049 8.623 21.117 8.628 21.187 8.633 21.259 8.638 21.331 8.643 21.406 8.651 21.478 8.656 21.553 8.664 21.627 8.674 21.702 8.682 21.777 8.694 21.851 8.706 21.924 8.719 21.996 8.739 22.083 8.761 22.163 8.786 22.235 8.816 22.3 8.846 22.36 8.878 22.414 8.913 22.462 8.95 22.506 8.99 22.544 9.03 22.579 9.072 22.609 9.117 22.636 9.162 22.661 9.207 22.681 9.254 22.698 9.302 22.716 9.357 22.731 9.424 22.743 9.501 22.753 9.586 22.76 9.681 22.763 9.78 22.76 9.885 22.753 9.995 22.741 10.104 22.721 10.216 22.696 10.328 22.661 10.435 22.619 10.542 22.569 10.645 22.509 10.739 22.439 10.829 22.36 10.829 22.36 10.884 22.327 10.946 22.295 11.013 22.26 11.088 22.228 11.167 22.195 11.25 22.165 11.337 22.135 11.424 22.105 11.514 22.08 11.603 22.056 11.691 22.033 11.778 22.016 11.86 22.001 11.94 21.991 12.015 21.984 12.084 21.981 12.169 21.984 12.251 21.989 12.333 21.999 12.413 22.011 12.493 22.029 12.57 22.048 12.644 22.071 12.719 22.098 12.792 22.128 12.864 22.163 12.931 22.198 12.998 22.238 13.06 22.278 13.123 22.323 13.183 22.37 13.24 22.42 13.292 22.472 13.345 22.527 13.394 22.582 13.439 22.642 13.482 22.701 13.521 22.764 13.556 22.828 13.589 22.896 13.619 22.963 13.643 23.033 13.666 23.105 13.686 23.177 13.698 23.249 13.711 23.327 13.716 23.401 13.718 23.479 13.718 23.479"/>
      <polygon fill="#231F20" fill-rule="nonzero" points="12.079 21.929 12.079 21.929 12.167 21.932 12.251 21.937 12.336 21.947 12.418 21.96 12.501 21.98 12.58 22 12.657 22.022 12.734 22.05 12.809 22.082 12.882 22.117 12.951 22.154 13.021 22.194 13.086 22.237 13.15 22.281 13.21 22.331 13.27 22.384 13.325 22.436 13.377 22.493 13.43 22.551 13.477 22.613 13.52 22.673 13.562 22.738 13.599 22.805 13.632 22.875 13.661 22.944 13.689 23.016 13.711 23.091 13.731 23.166 13.746 23.243 13.758 23.323 13.763 23.4 13.765 23.48 13.661 23.48 13.659 23.405 13.654 23.333 13.642 23.258 13.632 23.191 13.612 23.121 13.589 23.051 13.567 22.984 13.537 22.919 13.505 22.854 13.472 22.792 13.435 22.732 13.392 22.672 13.35 22.615 13.303 22.563 13.25 22.51 13.201 22.458 13.146 22.411 13.086 22.366 13.026 22.321 12.966 22.284 12.901 22.244 12.837 22.211 12.764 22.176 12.695 22.149 12.622 22.122 12.55 22.099 12.475 22.079 12.398 22.064 12.321 22.052 12.241 22.042 12.162 22.037 12.079 22.035 12.079 22.035 12.079 21.93"/>
      <polygon fill="#231F20" fill-rule="nonzero" points="10.787 22.323 10.792 22.321 10.797 22.316 10.787 22.323 10.797 22.316 10.854 22.284 10.916 22.249 10.986 22.214 11.063 22.181 11.145 22.147 11.228 22.117 11.315 22.087 11.405 22.057 11.494 22.032 11.586 22.007 11.674 21.985 11.763 21.965 11.848 21.95 11.93 21.94 12.007 21.933 12.08 21.93 12.08 22.034 12.012 22.036 11.94 22.043 11.863 22.053 11.783 22.068 11.698 22.083 11.611 22.106 11.524 22.131 11.434 22.156 11.35 22.186 11.262 22.215 11.18 22.245 11.103 22.275 11.031 22.308 10.966 22.342 10.903 22.372 10.851 22.405 10.861 22.398 10.787 22.323 10.787 22.323"/>
      <polygon fill="#231F20" fill-rule="nonzero" points="10.787 22.323 10.792 22.321 10.797 22.316 10.787 22.323 10.824 22.36 10.824 22.36 10.824 22.36 10.824 22.36 10.861 22.398 10.787 22.323 10.787 22.323"/>
      <polygon fill="#231F20" fill-rule="nonzero" points="9.312 22.667 9.312 22.667 9.364 22.682 9.426 22.692 9.501 22.702 9.583 22.709 9.676 22.712 9.773 22.709 9.875 22.702 9.982 22.689 10.089 22.67 10.199 22.647 10.306 22.612 10.41 22.572 10.513 22.523 10.612 22.468 10.702 22.4 10.787 22.323 10.861 22.398 10.767 22.48 10.667 22.552 10.562 22.617 10.45 22.667 10.341 22.712 10.224 22.747 10.109 22.774 9.997 22.794 9.885 22.807 9.778 22.815 9.676 22.817 9.578 22.815 9.491 22.807 9.412 22.797 9.339 22.782 9.282 22.767 9.282 22.767 9.312 22.667 9.312 22.667"/>
      <polygon fill="#231F20" fill-rule="nonzero" points="8.766 21.987 8.766 21.987 8.784 22.071 8.806 22.149 8.829 22.216 8.859 22.278 8.886 22.336 8.916 22.388 8.948 22.43 8.983 22.472 9.02 22.505 9.058 22.54 9.095 22.567 9.14 22.592 9.18 22.614 9.222 22.634 9.267 22.649 9.312 22.667 9.282 22.766 9.232 22.749 9.182 22.729 9.135 22.709 9.085 22.682 9.04 22.652 8.993 22.619 8.951 22.584 8.908 22.542 8.868 22.495 8.831 22.443 8.796 22.385 8.764 22.323 8.734 22.255 8.707 22.178 8.684 22.096 8.662 22.006 8.662 22.006 8.766 21.986 8.766 21.986"/>
      <polygon fill="#231F20" fill-rule="nonzero" points="8.303 20.233 8.303 20.233 8.345 20.235 8.388 20.245 8.425 20.265 8.46 20.285 8.49 20.315 8.517 20.347 8.54 20.384 8.559 20.424 8.577 20.466 8.592 20.511 8.604 20.561 8.617 20.613 8.627 20.666 8.637 20.726 8.645 20.783 8.652 20.848 8.657 20.91 8.662 20.98 8.667 21.047 8.672 21.114 8.677 21.184 8.682 21.256 8.687 21.328 8.692 21.401 8.699 21.473 8.704 21.547 8.712 21.622 8.722 21.697 8.729 21.769 8.741 21.844 8.754 21.914 8.767 21.986 8.662 22.006 8.649 21.934 8.637 21.859 8.624 21.784 8.617 21.707 8.607 21.632 8.6 21.558 8.595 21.483 8.588 21.41 8.583 21.333 8.578 21.261 8.573 21.189 8.568 21.119 8.563 21.052 8.558 20.985 8.553 20.92 8.548 20.858 8.541 20.798 8.533 20.74 8.523 20.686 8.513 20.633 8.505 20.586 8.493 20.541 8.478 20.501 8.466 20.464 8.451 20.434 8.433 20.406 8.416 20.384 8.395 20.369 8.376 20.354 8.353 20.344 8.331 20.339 8.303 20.337 8.303 20.337 8.303 20.232"/>
      <polygon fill="#231F20" fill-rule="nonzero" points="7.88 22.069 7.88 22.069 7.892 21.997 7.904 21.922 7.912 21.847 7.919 21.77 7.927 21.693 7.932 21.616 7.937 21.539 7.942 21.461 7.944 21.387 7.946 21.309 7.949 21.235 7.951 21.16 7.954 21.088 7.957 21.018 7.959 20.949 7.964 20.881 7.969 20.817 7.974 20.754 7.981 20.692 7.989 20.637 7.999 20.582 8.012 20.53 8.027 20.48 8.042 20.438 8.059 20.395 8.084 20.353 8.109 20.321 8.139 20.291 8.176 20.266 8.213 20.248 8.256 20.236 8.303 20.234 8.303 20.339 8.276 20.341 8.249 20.348 8.226 20.355 8.209 20.37 8.189 20.39 8.169 20.412 8.154 20.439 8.141 20.472 8.127 20.514 8.112 20.554 8.104 20.601 8.094 20.651 8.086 20.706 8.079 20.763 8.074 20.826 8.069 20.89 8.064 20.953 8.061 21.022 8.058 21.092 8.056 21.164 8.054 21.239 8.052 21.314 8.05 21.391 8.047 21.466 8.042 21.543 8.037 21.62 8.032 21.702 8.025 21.779 8.018 21.857 8.01 21.936 7.997 22.011 7.985 22.088 7.985 22.088 7.88 22.068 7.88 22.068"/>
      <polygon fill="#231F20" fill-rule="nonzero" points="7.177 22.667 7.177 22.667 7.224 22.652 7.274 22.634 7.326 22.614 7.381 22.594 7.436 22.575 7.486 22.547 7.543 22.52 7.596 22.488 7.643 22.455 7.69 22.415 7.733 22.37 7.773 22.323 7.807 22.271 7.837 22.208 7.862 22.143 7.88 22.069 7.984 22.089 7.962 22.173 7.932 22.248 7.897 22.32 7.857 22.383 7.812 22.44 7.76 22.49 7.708 22.535 7.65 22.577 7.593 22.609 7.536 22.642 7.476 22.669 7.416 22.694 7.361 22.714 7.309 22.734 7.259 22.752 7.212 22.767 7.212 22.767 7.177 22.667 7.177 22.667"/>
      <polygon fill="#231F20" fill-rule="nonzero" points="5.7 22.316 5.705 22.321 5.71 22.323 5.7 22.316 5.71 22.323 5.794 22.4 5.884 22.467 5.983 22.524 6.083 22.574 6.19 22.614 6.297 22.646 6.407 22.671 6.514 22.691 6.621 22.704 6.723 22.712 6.82 22.714 6.91 22.712 6.992 22.704 7.064 22.694 7.127 22.681 7.177 22.666 7.212 22.766 7.152 22.781 7.085 22.798 7.002 22.808 6.915 22.815 6.82 22.818 6.718 22.815 6.611 22.808 6.499 22.796 6.387 22.776 6.272 22.746 6.155 22.714 6.043 22.669 5.933 22.614 5.829 22.552 5.729 22.48 5.635 22.397 5.645 22.404 5.7 22.315 5.7 22.315"/>
      <polygon fill="#231F20" fill-rule="nonzero" points="5.7 22.316 5.705 22.321 5.71 22.323 5.7 22.316 5.672 22.36 5.672 22.36 5.672 22.36 5.672 22.36 5.645 22.405 5.7 22.316 5.7 22.316"/>
      <polygon fill="#231F20" fill-rule="nonzero" points="4.412 21.929 4.412 21.929 4.484 21.932 4.561 21.939 4.644 21.949 4.731 21.964 4.82 21.984 4.908 22.007 5 22.032 5.089 22.057 5.179 22.086 5.266 22.116 5.348 22.146 5.431 22.181 5.508 22.214 5.58 22.249 5.642 22.283 5.7 22.316 5.645 22.406 5.593 22.373 5.53 22.343 5.463 22.308 5.391 22.276 5.314 22.246 5.231 22.216 5.144 22.186 5.059 22.156 4.97 22.131 4.882 22.106 4.795 22.084 4.71 22.069 4.628 22.054 4.551 22.044 4.479 22.037 4.412 22.035 4.412 22.035 4.412 21.93"/>
      <polygon fill="#231F20" fill-rule="nonzero" points="2.728 23.479 2.728 23.479 2.731 23.399 2.736 23.322 2.748 23.242 2.763 23.165 2.783 23.09 2.803 23.016 2.833 22.943 2.86 22.874 2.895 22.804 2.933 22.737 2.975 22.672 3.017 22.612 3.065 22.55 3.112 22.493 3.166 22.435 3.224 22.383 3.279 22.331 3.341 22.281 3.406 22.236 3.473 22.193 3.54 22.154 3.612 22.116 3.682 22.081 3.757 22.049 3.834 22.021 3.912 21.999 3.991 21.979 4.074 21.959 4.156 21.947 4.24 21.937 4.325 21.932 4.412 21.929 4.412 22.033 4.33 22.035 4.25 22.04 4.171 22.05 4.094 22.063 4.016 22.078 3.942 22.098 3.869 22.12 3.797 22.148 3.727 22.175 3.658 22.21 3.59 22.242 3.528 22.282 3.466 22.32 3.406 22.364 3.349 22.409 3.294 22.457 3.242 22.509 3.192 22.561 3.144 22.614 3.102 22.671 3.06 22.731 3.022 22.791 2.99 22.853 2.955 22.918 2.927 22.983 2.903 23.05 2.883 23.12 2.863 23.189 2.853 23.257 2.84 23.331 2.835 23.404 2.832 23.478 2.832 23.478 2.728 23.478"/>
      <polygon fill="#231F20" fill-rule="nonzero" points="4.412 25.026 4.412 25.026 4.325 25.024 4.24 25.019 4.155 25.009 4.073 24.996 3.991 24.976 3.911 24.956 3.834 24.934 3.757 24.907 3.684 24.874 3.612 24.842 3.54 24.802 3.472 24.762 3.405 24.72 3.341 24.675 3.278 24.625 3.223 24.573 3.166 24.52 3.111 24.465 3.064 24.406 3.016 24.343 2.974 24.283 2.932 24.219 2.894 24.151 2.86 24.082 2.832 24.012 2.802 23.94 2.782 23.868 2.762 23.793 2.747 23.713 2.735 23.636 2.73 23.559 2.727 23.479 2.832 23.479 2.835 23.554 2.84 23.626 2.852 23.698 2.862 23.768 2.882 23.838 2.902 23.905 2.927 23.972 2.954 24.037 2.989 24.102 3.022 24.164 3.059 24.224 3.101 24.284 3.144 24.341 3.191 24.396 3.241 24.446 3.293 24.498 3.348 24.546 3.405 24.59 3.465 24.635 3.527 24.673 3.59 24.713 3.657 24.748 3.724 24.78 3.796 24.807 3.869 24.835 3.941 24.857 4.016 24.877 4.093 24.892 4.17 24.905 4.25 24.915 4.329 24.92 4.412 24.922 4.412 24.922 4.412 25.026"/>
      <polygon fill="#231F20" fill-rule="nonzero" points="5.71 24.632 5.705 24.634 5.7 24.639 5.71 24.631 5.7 24.639 5.642 24.672 5.58 24.709 5.508 24.741 5.431 24.774 5.351 24.806 5.267 24.841 5.177 24.871 5.09 24.898 5 24.926 4.908 24.948 4.82 24.971 4.731 24.991 4.644 25.006 4.561 25.016 4.484 25.023 4.412 25.025 4.412 24.92 4.479 24.918 4.552 24.911 4.629 24.901 4.711 24.886 4.796 24.871 4.883 24.848 4.97 24.826 5.06 24.799 5.147 24.771 5.231 24.741 5.311 24.711 5.391 24.679 5.463 24.647 5.53 24.614 5.593 24.582 5.645 24.549 5.635 24.556 5.71 24.631 5.71 24.631"/>
      <polygon fill="#231F20" fill-rule="nonzero" points="5.71 24.632 5.705 24.634 5.7 24.639 5.71 24.631 5.672 24.594 5.672 24.594 5.672 24.594 5.672 24.594 5.635 24.557 5.71 24.631 5.71 24.631"/>
      <polygon fill="#231F20" fill-rule="nonzero" points="7.162 24.52 7.162 24.518 7.122 24.491 7.065 24.464 6.995 24.439 6.916 24.411 6.828 24.391 6.731 24.374 6.626 24.361 6.522 24.356 6.412 24.356 6.302 24.366 6.193 24.386 6.086 24.411 5.981 24.449 5.886 24.498 5.794 24.561 5.71 24.633 5.635 24.558 5.73 24.476 5.832 24.409 5.941 24.354 6.056 24.312 6.173 24.282 6.287 24.262 6.407 24.252 6.522 24.252 6.636 24.257 6.746 24.269 6.848 24.287 6.945 24.312 7.03 24.339 7.105 24.369 7.172 24.401 7.227 24.439 7.227 24.436 7.162 24.52 7.162 24.52"/>
      <polygon fill="#231F20" fill-rule="nonzero" points="7.11 26.139 7.113 26.134 7.142 26.087 7.172 26.042 7.2 25.99 7.227 25.94 7.252 25.888 7.279 25.835 7.304 25.785 7.327 25.731 7.349 25.673 7.369 25.621 7.387 25.566 7.404 25.509 7.419 25.454 7.432 25.399 7.442 25.344 7.449 25.287 7.457 25.232 7.46 25.18 7.46 25.123 7.457 25.071 7.452 25.021 7.442 24.968 7.432 24.916 7.417 24.869 7.399 24.819 7.377 24.771 7.352 24.726 7.322 24.682 7.29 24.639 7.252 24.599 7.21 24.56 7.163 24.52 7.227 24.435 7.28 24.48 7.327 24.525 7.369 24.575 7.407 24.622 7.442 24.672 7.472 24.727 7.494 24.779 7.516 24.834 7.531 24.891 7.546 24.949 7.556 25.006 7.561 25.066 7.563 25.123 7.563 25.18 7.561 25.243 7.553 25.302 7.546 25.36 7.536 25.419 7.519 25.479 7.504 25.539 7.486 25.596 7.469 25.656 7.444 25.714 7.422 25.771 7.399 25.826 7.374 25.88 7.347 25.938 7.317 25.99 7.29 26.04 7.262 26.092 7.232 26.142 7.202 26.189 7.204 26.184 7.11 26.14 7.11 26.14"/>
      <polygon fill="#231F20" fill-rule="nonzero" points="7.11 26.139 7.157 26.162 7.157 26.162 7.157 26.162 7.157 26.162 7.204 26.184 7.11 26.139 7.11 26.139"/>
      <polygon fill="#231F20" fill-rule="nonzero" points="7.03 26.847 7.03 26.847 7.03 26.815 7.03 26.777 7.03 26.732 7.032 26.687 7.032 26.645 7.034 26.593 7.037 26.54 7.042 26.49 7.044 26.441 7.049 26.388 7.057 26.343 7.064 26.294 7.072 26.254 7.084 26.209 7.094 26.174 7.109 26.139 7.204 26.184 7.194 26.209 7.184 26.239 7.177 26.274 7.169 26.313 7.162 26.358 7.154 26.403 7.149 26.451 7.147 26.5 7.142 26.55 7.139 26.598 7.137 26.645 7.137 26.692 7.134 26.737 7.134 26.777 7.134 26.815 7.134 26.847 7.134 26.847 7.029 26.847"/>
      <polygon fill="#231F20" fill-rule="nonzero" points="8.248 28.008 8.248 28.008 8.123 28.003 8.004 27.985 7.887 27.956 7.775 27.916 7.668 27.868 7.57 27.811 7.476 27.744 7.389 27.669 7.309 27.587 7.239 27.497 7.179 27.4 7.127 27.3 7.085 27.191 7.055 27.084 7.035 26.967 7.03 26.847 7.134 26.847 7.139 26.957 7.159 27.059 7.184 27.161 7.222 27.256 7.269 27.35 7.324 27.437 7.389 27.517 7.458 27.594 7.541 27.659 7.625 27.721 7.718 27.774 7.815 27.821 7.917 27.856 8.024 27.881 8.133 27.899 8.248 27.904 8.248 27.904 8.248 28.008"/>
      <polygon fill="#231F20" fill-rule="nonzero" points="9.466 26.847 9.466 26.847 9.461 26.967 9.441 27.084 9.411 27.191 9.369 27.3 9.317 27.4 9.257 27.497 9.187 27.587 9.107 27.669 9.02 27.744 8.925 27.811 8.828 27.868 8.721 27.916 8.609 27.955 8.492 27.985 8.372 28.003 8.248 28.008 8.248 27.903 8.362 27.898 8.472 27.881 8.579 27.856 8.681 27.821 8.778 27.773 8.871 27.721 8.955 27.659 9.037 27.594 9.107 27.517 9.172 27.437 9.227 27.35 9.274 27.255 9.312 27.161 9.337 27.059 9.356 26.956 9.361 26.847 9.361 26.847 9.466 26.847"/>
      <polygon fill="#231F20" fill-rule="nonzero" points="9.384 26.135 9.387 26.14 9.402 26.175 9.412 26.212 9.422 26.254 9.432 26.294 9.437 26.344 9.445 26.389 9.45 26.441 9.455 26.491 9.458 26.544 9.46 26.593 9.463 26.643 9.465 26.688 9.465 26.733 9.467 26.775 9.467 26.815 9.467 26.848 9.363 26.848 9.363 26.815 9.363 26.78 9.36 26.738 9.36 26.693 9.358 26.648 9.356 26.598 9.353 26.549 9.351 26.501 9.346 26.451 9.341 26.404 9.334 26.359 9.329 26.314 9.319 26.274 9.314 26.237 9.304 26.21 9.294 26.185 9.296 26.19 9.385 26.135 9.385 26.135"/>
      <polygon fill="#231F20" fill-rule="nonzero" points="9.384 26.135 9.339 26.162 9.339 26.162 9.339 26.162 9.339 26.162 9.294 26.189 9.384 26.135 9.384 26.135"/>
      <polygon fill="#231F20" fill-rule="nonzero" points="9.329 24.518 9.329 24.518 9.284 24.558 9.242 24.6 9.205 24.64 9.172 24.682 9.142 24.727 9.12 24.772 9.095 24.819 9.08 24.869 9.063 24.919 9.053 24.969 9.046 25.019 9.041 25.071 9.038 25.123 9.038 25.181 9.041 25.236 9.046 25.288 9.056 25.343 9.066 25.4 9.076 25.455 9.091 25.51 9.108 25.567 9.128 25.622 9.148 25.677 9.168 25.731 9.193 25.784 9.218 25.836 9.243 25.891 9.268 25.941 9.297 25.991 9.325 26.043 9.355 26.088 9.385 26.135 9.295 26.19 9.265 26.143 9.235 26.093 9.208 26.04 9.178 25.991 9.148 25.936 9.123 25.881 9.098 25.829 9.073 25.771 9.048 25.712 9.029 25.657 9.008 25.597 8.991 25.54 8.976 25.48 8.961 25.42 8.951 25.363 8.941 25.303 8.936 25.241 8.934 25.181 8.934 25.124 8.936 25.066 8.941 25.009 8.948 24.949 8.963 24.89 8.981 24.835 9.001 24.78 9.026 24.727 9.053 24.673 9.088 24.623 9.125 24.575 9.167 24.526 9.215 24.483 9.264 24.438 9.264 24.438 9.329 24.518 9.329 24.518"/>
      <polygon fill="#231F20" fill-rule="nonzero" points="10.796 24.64 10.791 24.635 10.786 24.633 10.796 24.641 10.786 24.633 10.702 24.561 10.609 24.498 10.515 24.448 10.41 24.411 10.303 24.386 10.191 24.366 10.081 24.356 9.972 24.356 9.867 24.361 9.763 24.374 9.665 24.391 9.578 24.411 9.496 24.439 9.426 24.463 9.369 24.491 9.329 24.518 9.264 24.439 9.319 24.401 9.386 24.369 9.461 24.339 9.548 24.311 9.645 24.286 9.748 24.269 9.857 24.257 9.972 24.252 10.086 24.252 10.206 24.262 10.323 24.281 10.44 24.311 10.555 24.354 10.664 24.409 10.767 24.476 10.861 24.558 10.851 24.551 10.796 24.641 10.796 24.641"/>
      <polygon fill="#231F20" fill-rule="nonzero" points="10.796 24.64 10.791 24.635 10.786 24.633 10.796 24.641 10.824 24.596 10.824 24.596 10.824 24.596 10.824 24.596 10.851 24.551 10.796 24.641 10.796 24.641"/>
      <polygon fill="#231F20" fill-rule="nonzero" points="12.079 25.026 12.079 25.026 12.007 25.024 11.93 25.017 11.848 25.007 11.763 24.992 11.674 24.972 11.586 24.95 11.494 24.927 11.404 24.9 11.317 24.872 11.228 24.843 11.143 24.808 11.063 24.775 10.986 24.743 10.916 24.711 10.854 24.673 10.797 24.641 10.851 24.551 10.904 24.583 10.966 24.616 11.031 24.648 11.103 24.681 11.183 24.713 11.263 24.743 11.347 24.773 11.434 24.8 11.524 24.828 11.611 24.85 11.698 24.873 11.783 24.887 11.863 24.902 11.94 24.913 12.012 24.92 12.08 24.922 12.08 24.922 12.08 25.026"/>
      <polygon fill="#231F20" fill-rule="nonzero" points="13.766 23.479 13.766 23.479 13.764 23.559 13.759 23.636 13.747 23.713 13.732 23.793 13.712 23.867 13.69 23.94 13.662 24.012 13.632 24.082 13.6 24.151 13.562 24.219 13.52 24.283 13.478 24.343 13.43 24.405 13.378 24.465 13.326 24.52 13.271 24.572 13.211 24.625 13.151 24.675 13.086 24.72 13.022 24.762 12.952 24.802 12.882 24.842 12.807 24.874 12.735 24.906 12.658 24.934 12.581 24.956 12.501 24.976 12.419 24.996 12.337 25.009 12.252 25.019 12.167 25.024 12.08 25.026 12.08 24.921 12.162 24.919 12.242 24.914 12.322 24.904 12.399 24.892 12.476 24.877 12.551 24.857 12.623 24.834 12.696 24.807 12.768 24.779 12.838 24.747 12.902 24.712 12.967 24.672 13.027 24.635 13.087 24.59 13.147 24.545 13.201 24.498 13.251 24.445 13.303 24.396 13.351 24.341 13.393 24.283 13.436 24.224 13.473 24.164 13.506 24.102 13.538 24.037 13.568 23.972 13.59 23.905 13.613 23.837 13.633 23.768 13.643 23.698 13.655 23.625 13.66 23.553 13.662 23.479 13.662 23.479 13.766 23.479"/>
      <polygon fill="#231F20" fill-rule="nonzero" points=".446 10.508 .446 10.455 .498 10.455 .446 10.508 .498 10.455 16.182 10.44 16.182 10.545 .498 10.56 .55 10.508 .446 10.508"/>
      <polygon fill="#231F20" fill-rule="nonzero" points=".448 22.141 .448 22.141 .446 10.508 .551 10.508 .554 22.141 .554 22.141 .449 22.141"/>
      <polygon fill="#231F20" fill-rule="nonzero" points="8.343 29.595 8.343 29.595 7.937 29.585 7.536 29.557 7.142 29.51 6.753 29.445 6.372 29.361 5.996 29.261 5.63 29.144 5.271 29.009 4.922 28.86 4.581 28.698 4.252 28.516 3.933 28.324 3.622 28.115 3.323 27.896 3.037 27.661 2.765 27.412 2.501 27.156 2.252 26.884 2.02 26.603 1.799 26.311 1.592 26.007 1.402 25.696 1.228 25.375 1.071 25.046 .927 24.707 .805 24.361 .698 24.005 .608 23.643 .538 23.277 .488 22.903 .458 22.525 .448 22.141 .553 22.141 .563 22.52 .593 22.893 .643 23.262 .713 23.623 .797 23.98 .904 24.326 1.026 24.667 1.166 25.001 1.323 25.33 1.492 25.646 1.682 25.953 1.883 26.252 2.1 26.538 2.332 26.815 2.576 27.081 2.835 27.338 3.106 27.582 3.388 27.811 3.682 28.03 3.988 28.235 4.302 28.426 4.631 28.603 4.967 28.765 5.311 28.915 5.665 29.044 6.026 29.161 6.397 29.261 6.773 29.341 7.157 29.405 7.546 29.453 7.942 29.48 8.343 29.49 8.343 29.49 8.343 29.595"/>
      <polygon fill="#231F20" fill-rule="nonzero" points="16.235 22.141 16.235 22.141 16.225 22.525 16.195 22.903 16.145 23.277 16.075 23.643 15.985 24.005 15.881 24.361 15.756 24.707 15.614 25.046 15.457 25.377 15.28 25.696 15.091 26.007 14.887 26.311 14.665 26.603 14.431 26.884 14.182 27.156 13.92 27.412 13.649 27.661 13.362 27.896 13.063 28.115 12.754 28.324 12.433 28.516 12.104 28.698 11.763 28.86 11.414 29.009 11.055 29.144 10.689 29.261 10.313 29.361 9.932 29.445 9.543 29.51 9.15 29.557 8.748 29.585 8.343 29.595 8.343 29.49 8.744 29.48 9.14 29.453 9.528 29.405 9.912 29.341 10.288 29.261 10.659 29.161 11.02 29.044 11.374 28.915 11.718 28.765 12.054 28.603 12.383 28.426 12.7 28.235 13.004 28.03 13.297 27.811 13.579 27.582 13.85 27.338 14.107 27.081 14.351 26.815 14.585 26.538 14.802 26.252 15.001 25.953 15.191 25.646 15.363 25.327 15.519 25.001 15.656 24.667 15.781 24.326 15.886 23.98 15.971 23.623 16.04 23.262 16.09 22.893 16.12 22.52 16.13 22.141 16.13 22.141 16.235 22.141"/>
      <polygon fill="#231F20" fill-rule="nonzero" points="16.182 10.44 16.235 10.44 16.235 10.493 16.182 10.44 16.235 10.493 16.235 22.141 16.13 22.141 16.13 10.493 16.182 10.545 16.182 10.44"/>
      <polygon fill="#FFF" points="6.848 17.465 6.848 12.802 5.787 12.802 5.787 11.917 4.128 11.917 4.128 12.802 3.383 12.802 3.383 11.917 1.549 11.917 1.549 12.926 2.23 12.926 2.23 13.328 2.23 13.328 2.23 13.328 2.23 13.328 2.23 13.729 1.549 13.729 1.549 14.742 3.383 14.742 3.383 13.853 4.128 13.853 4.128 14.742 5.117 14.742 5.117 15.134 5.117 15.134 5.117 15.525 4.128 15.525 4.128 16.411 3.383 16.411 3.383 15.525 1.549 15.525 1.549 16.536 2.23 16.536 2.23 16.937 2.23 16.937 2.23 16.937 2.23 16.937 2.23 17.341 1.549 17.341 1.549 18.35 3.383 18.35 3.383 17.463 4.128 17.463 4.128 18.35 5.787 18.35 5.787 17.465"/>
      <polygon fill="#231F20" fill-rule="nonzero" points="5.734 17.465 5.734 17.413 5.787 17.413 5.734 17.465 5.787 17.413 6.848 17.413 6.848 17.518 5.787 17.518 5.839 17.465 5.734 17.465"/>
      <polygon fill="#231F20" fill-rule="nonzero" points="5.839 18.35 5.839 18.402 5.787 18.402 5.787 18.297 5.734 18.35 5.734 17.465 5.839 17.465 5.839 18.35 5.787 18.402 5.839 18.35 5.839 18.35"/>
      <polygon fill="#231F20" fill-rule="nonzero" points="4.128 18.402 4.076 18.402 4.076 18.35 4.18 18.35 4.128 18.297 5.787 18.297 5.787 18.402 4.128 18.402 4.076 18.35 4.128 18.402 4.128 18.402"/>
      <polygon fill="#231F20" fill-rule="nonzero" points="4.128 17.41 4.18 17.41 4.18 17.463 4.128 17.41 4.18 17.463 4.18 18.35 4.076 18.35 4.076 17.463 4.128 17.515 4.128 17.411"/>
      <polygon fill="#231F20" fill-rule="nonzero" points="3.331 17.463 3.331 17.41 3.383 17.41 3.331 17.463 3.383 17.41 4.128 17.41 4.128 17.515 3.383 17.515 3.435 17.463 3.331 17.463"/>
      <polygon fill="#231F20" fill-rule="nonzero" points="3.435 18.35 3.435 18.402 3.383 18.402 3.383 18.297 3.331 18.35 3.331 17.463 3.435 17.463 3.435 18.35 3.383 18.402 3.435 18.35 3.435 18.35"/>
      <polygon fill="#231F20" fill-rule="nonzero" points="1.549 18.402 1.497 18.402 1.497 18.35 1.602 18.35 1.549 18.297 3.383 18.297 3.383 18.402 1.549 18.402 1.497 18.35 1.549 18.402 1.549 18.402"/>
      <polygon fill="#231F20" fill-rule="nonzero" points="1.497 17.341 1.497 17.289 1.549 17.289 1.549 17.393 1.602 17.341 1.602 18.35 1.497 18.35 1.497 17.341 1.549 17.289 1.497 17.341 1.497 17.341"/>
      <polygon fill="#231F20" fill-rule="nonzero" points="2.282 17.341 2.282 17.393 2.23 17.393 2.282 17.341 2.23 17.393 1.549 17.393 1.549 17.289 2.23 17.289 2.177 17.341 2.282 17.341"/>
      <polygon fill="#231F20" fill-rule="nonzero" points="2.282 16.937 2.282 16.937 2.282 17.341 2.177 17.341 2.177 16.937 2.177 16.937"/>
      <polygon fill="#231F20" fill-rule="nonzero" points="2.282 16.937 2.23 16.937 2.23 16.937 2.23 16.937 2.23 16.937 2.177 16.937 2.282 16.937"/>
      <polygon fill="#231F20" fill-rule="nonzero" points="2.282 16.937 2.23 16.937 2.23 16.937 2.23 16.937 2.23 16.937 2.177 16.937 2.282 16.937"/>
      <polygon fill="#231F20" fill-rule="nonzero" points="2.282 16.937 2.23 16.937 2.23 16.937 2.23 16.937 2.23 16.937 2.177 16.937 2.282 16.937"/>
      <polygon fill="#231F20" fill-rule="nonzero" points="2.23 16.484 2.282 16.484 2.282 16.536 2.23 16.484 2.282 16.536 2.282 16.937 2.177 16.937 2.177 16.536 2.23 16.588 2.23 16.484"/>
      <polygon fill="#231F20" fill-rule="nonzero" points="1.549 16.588 1.497 16.588 1.497 16.536 1.602 16.536 1.549 16.484 2.23 16.484 2.23 16.588 1.549 16.588 1.497 16.536 1.549 16.588 1.549 16.588"/>
      <polygon fill="#231F20" fill-rule="nonzero" points="1.497 15.525 1.497 15.472 1.549 15.472 1.549 15.577 1.602 15.525 1.602 16.536 1.497 16.536 1.497 15.525 1.549 15.472 1.497 15.525 1.497 15.525"/>
      <polygon fill="#231F20" fill-rule="nonzero" points="3.383 15.472 3.435 15.472 3.435 15.525 3.331 15.525 3.383 15.577 1.549 15.577 1.549 15.472 3.383 15.472 3.435 15.525 3.383 15.472 3.383 15.472"/>
      <polygon fill="#231F20" fill-rule="nonzero" points="3.383 16.464 3.331 16.464 3.331 16.411 3.383 16.464 3.331 16.411 3.331 15.525 3.435 15.525 3.435 16.411 3.383 16.359 3.383 16.464"/>
      <polygon fill="#231F20" fill-rule="nonzero" points="4.18 16.411 4.18 16.464 4.128 16.464 4.18 16.411 4.128 16.464 3.383 16.464 3.383 16.359 4.128 16.359 4.076 16.412 4.18 16.412"/>
      <polygon fill="#231F20" fill-rule="nonzero" points="4.076 15.525 4.076 15.472 4.128 15.472 4.128 15.577 4.18 15.525 4.18 16.411 4.075 16.411 4.075 15.525 4.128 15.472 4.075 15.525 4.075 15.525"/>
      <polygon fill="#231F20" fill-rule="nonzero" points="5.169 15.525 5.169 15.577 5.117 15.577 5.169 15.525 5.117 15.577 4.128 15.577 4.128 15.472 5.117 15.472 5.064 15.525 5.169 15.525"/>
      <polygon fill="#231F20" fill-rule="nonzero" points="5.169 15.134 5.169 15.134 5.169 15.525 5.064 15.525 5.064 15.134 5.064 15.134"/>
      <polygon fill="#231F20" fill-rule="nonzero" points="5.169 15.134 5.117 15.134 5.117 15.134 5.117 15.134 5.117 15.134 5.064 15.134 5.169 15.134"/>
      <polygon fill="#231F20" fill-rule="nonzero" points="5.117 14.69 5.169 14.69 5.169 14.742 5.117 14.69 5.169 14.742 5.169 15.134 5.064 15.134 5.064 14.742 5.117 14.795 5.117 14.69"/>
      <polygon fill="#231F20" fill-rule="nonzero" points="4.128 14.795 4.076 14.795 4.076 14.742 4.18 14.742 4.128 14.69 5.117 14.69 5.117 14.795 4.128 14.795 4.076 14.742 4.128 14.795 4.128 14.795"/>
      <polygon fill="#231F20" fill-rule="nonzero" points="4.128 13.801 4.18 13.801 4.18 13.853 4.128 13.801 4.18 13.853 4.18 14.743 4.076 14.743 4.076 13.853 4.128 13.905 4.128 13.801"/>
      <polygon fill="#231F20" fill-rule="nonzero" points="3.331 13.853 3.331 13.801 3.383 13.801 3.331 13.853 3.383 13.801 4.128 13.801 4.128 13.905 3.383 13.905 3.435 13.853 3.331 13.853"/>
      <polygon fill="#231F20" fill-rule="nonzero" points="3.435 14.742 3.435 14.795 3.383 14.795 3.383 14.69 3.331 14.742 3.331 13.853 3.435 13.853 3.435 14.742 3.383 14.795 3.435 14.742 3.435 14.742"/>
      <polygon fill="#231F20" fill-rule="nonzero" points="1.549 14.795 1.497 14.795 1.497 14.742 1.602 14.742 1.549 14.69 3.383 14.69 3.383 14.795 1.549 14.795 1.497 14.742 1.549 14.795 1.549 14.795"/>
      <polygon fill="#231F20" fill-rule="nonzero" points="1.497 13.729 1.497 13.676 1.549 13.676 1.549 13.781 1.602 13.729 1.602 14.742 1.497 14.742 1.497 13.729 1.549 13.676 1.497 13.729 1.497 13.729"/>
      <polygon fill="#231F20" fill-rule="nonzero" points="2.282 13.729 2.282 13.781 2.23 13.781 2.282 13.729 2.23 13.781 1.549 13.781 1.549 13.676 2.23 13.676 2.177 13.729 2.282 13.729"/>
      <polygon fill="#231F20" fill-rule="nonzero" points="2.282 13.328 2.282 13.328 2.282 13.729 2.177 13.729 2.177 13.328 2.177 13.328"/>
      <polygon fill="#231F20" fill-rule="nonzero" points="2.282 13.328 2.23 13.328 2.23 13.328 2.23 13.328 2.23 13.328 2.177 13.328 2.282 13.328"/>
      <polygon fill="#231F20" fill-rule="nonzero" points="2.282 13.328 2.23 13.328 2.23 13.328 2.23 13.328 2.23 13.328 2.177 13.328 2.282 13.328"/>
      <polygon fill="#231F20" fill-rule="nonzero" points="2.282 13.328 2.23 13.328 2.23 13.328 2.23 13.328 2.23 13.328 2.177 13.328 2.282 13.328"/>
      <polygon fill="#231F20" fill-rule="nonzero" points="2.23 12.874 2.282 12.874 2.282 12.926 2.23 12.874 2.282 12.926 2.282 13.328 2.177 13.328 2.177 12.926 2.23 12.979 2.23 12.874"/>
      <polygon fill="#231F20" fill-rule="nonzero" points="1.549 12.979 1.497 12.979 1.497 12.926 1.602 12.926 1.549 12.874 2.23 12.874 2.23 12.979 1.549 12.979 1.497 12.926 1.549 12.979 1.549 12.979"/>
      <polygon fill="#231F20" fill-rule="nonzero" points="1.497 11.917 1.497 11.865 1.549 11.865 1.549 11.97 1.602 11.917 1.602 12.926 1.497 12.926 1.497 11.917 1.549 11.865 1.497 11.917 1.497 11.917"/>
      <polygon fill="#231F20" fill-rule="nonzero" points="3.383 11.865 3.435 11.865 3.435 11.918 3.331 11.918 3.383 11.97 1.549 11.97 1.549 11.865 3.383 11.865 3.435 11.918 3.383 11.865 3.383 11.865"/>
      <polygon fill="#231F20" fill-rule="nonzero" points="3.383 12.854 3.331 12.854 3.331 12.802 3.383 12.854 3.331 12.802 3.331 11.917 3.435 11.917 3.435 12.802 3.383 12.75 3.383 12.854"/>
      <polygon fill="#231F20" fill-rule="nonzero" points="4.18 12.802 4.18 12.854 4.128 12.854 4.18 12.802 4.128 12.854 3.383 12.854 3.383 12.75 4.128 12.75 4.076 12.802 4.18 12.802"/>
      <polygon fill="#231F20" fill-rule="nonzero" points="4.076 11.917 4.076 11.865 4.128 11.865 4.128 11.97 4.18 11.917 4.18 12.802 4.075 12.802 4.075 11.917 4.128 11.865 4.075 11.917 4.075 11.917"/>
      <polygon fill="#231F20" fill-rule="nonzero" points="5.787 11.865 5.839 11.865 5.839 11.918 5.734 11.918 5.787 11.97 4.128 11.97 4.128 11.865 5.787 11.865 5.839 11.918 5.787 11.865 5.787 11.865"/>
      <polygon fill="#231F20" fill-rule="nonzero" points="5.787 12.854 5.734 12.854 5.734 12.802 5.787 12.854 5.734 12.802 5.734 11.917 5.839 11.917 5.839 12.802 5.787 12.75 5.787 12.854"/>
      <polygon fill="#231F20" fill-rule="nonzero" points="6.848 12.802 6.848 12.854 5.787 12.854 5.787 12.75 6.848 12.75 6.848 12.802 6.848 12.802"/>
      <polygon fill="#FFF" points="8.034 20.161 6.796 20.161 6.796 11.09 8.034 11.09"/>
      <polygon fill="#231F20" fill-rule="nonzero" points="8.034 11.038 8.086 11.038 8.086 11.091 8.034 11.038 8.086 11.091 8.086 20.161 7.981 20.161 7.981 11.091 8.034 11.143 8.034 11.038"/>
      <polygon fill="#231F20" fill-rule="nonzero" points="6.743 11.09 6.743 11.038 6.796 11.038 6.743 11.09 6.796 11.038 8.034 11.038 8.034 11.143 6.796 11.143 6.848 11.09 6.743 11.09"/>
      <polygon fill="#231F20" fill-rule="nonzero" points="6.796 20.213 6.743 20.213 6.743 20.161 6.796 20.213 6.743 20.161 6.743 11.09 6.848 11.09 6.848 20.161 6.796 20.109 6.796 20.213"/>
      <polygon fill="#231F20" fill-rule="nonzero" points="8.086 20.161 8.086 20.213 8.034 20.213 8.086 20.161 8.034 20.213 6.796 20.213 6.796 20.108 8.034 20.108 7.981 20.161 8.086 20.161"/>
      <polygon fill="#FFF" points="9.75 20.071 6.758 20.071 6.694 20.064 6.632 20.044 6.579 20.012 6.532 19.967 6.492 19.915 6.462 19.852 6.445 19.785 6.437 19.713 6.437 19.713 6.445 19.641 6.462 19.573 6.492 19.511 6.532 19.456 6.579 19.414 6.632 19.379 6.694 19.359 6.758 19.352 9.75 19.352 9.815 19.359 9.877 19.379 9.932 19.414 9.979 19.456 10.019 19.511 10.049 19.573 10.067 19.641 10.074 19.713 10.074 19.713 10.067 19.785 10.049 19.852 10.019 19.915 9.979 19.967 9.932 20.012 9.877 20.044 9.815 20.064"/>
      <polygon fill="#231F20" fill-rule="nonzero" points="10.127 19.712 10.127 19.712 10.119 19.795 10.099 19.869 10.064 19.941 10.019 20.001 9.964 20.054 9.899 20.091 9.825 20.116 9.75 20.124 9.75 20.019 9.805 20.012 9.855 19.997 9.899 19.97 9.939 19.933 9.974 19.888 9.999 19.835 10.014 19.776 10.022 19.713 10.022 19.713 10.127 19.713"/>
      <polygon fill="#231F20" fill-rule="nonzero" points="10.127 19.712 10.074 19.712 10.074 19.712 10.074 19.712 10.074 19.712 10.022 19.712 10.127 19.712"/>
      <polygon fill="#231F20" fill-rule="nonzero" points="9.75 19.299 9.75 19.299 9.825 19.306 9.9 19.331 9.965 19.371 10.019 19.42 10.064 19.483 10.099 19.555 10.119 19.63 10.127 19.712 10.022 19.712 10.014 19.65 9.999 19.59 9.975 19.537 9.939 19.49 9.9 19.455 9.855 19.425 9.805 19.41 9.75 19.403 9.75 19.403 9.75 19.299"/>
      <polygon fill="#231F20" fill-rule="nonzero" points="6.758 19.299 6.758 19.299 9.75 19.299 9.75 19.403 6.758 19.403 6.758 19.403"/>
      <polygon fill="#231F20" fill-rule="nonzero" points="6.385 19.712 6.385 19.712 6.392 19.63 6.412 19.556 6.447 19.483 6.492 19.421 6.546 19.371 6.609 19.331 6.683 19.306 6.758 19.299 6.758 19.404 6.703 19.411 6.653 19.426 6.611 19.456 6.571 19.491 6.537 19.538 6.512 19.59 6.497 19.65 6.49 19.713 6.49 19.713 6.385 19.713"/>
      <polygon fill="#231F20" fill-rule="nonzero" points="6.385 19.712 6.437 19.712 6.437 19.712 6.437 19.712 6.437 19.712 6.489 19.712 6.385 19.712"/>
      <polygon fill="#231F20" fill-rule="nonzero" points="6.758 20.123 6.758 20.123 6.684 20.115 6.609 20.09 6.547 20.053 6.492 20.001 6.447 19.941 6.412 19.869 6.392 19.794 6.385 19.712 6.49 19.712 6.497 19.774 6.512 19.834 6.537 19.886 6.571 19.931 6.611 19.968 6.654 19.996 6.704 20.011 6.758 20.018 6.758 20.018 6.758 20.122"/>
      <polygon fill="#231F20" fill-rule="nonzero" points="9.75 20.123 9.75 20.123 6.758 20.123 6.758 20.019 9.75 20.019 9.75 20.019"/>
      <polygon fill="#FFF" points="9.75 21.17 6.758 21.17 6.694 21.163 6.632 21.143 6.579 21.108 6.532 21.065 6.492 21.011 6.462 20.951 6.445 20.881 6.437 20.809 6.437 20.809 6.445 20.737 6.462 20.669 6.492 20.607 6.532 20.555 6.579 20.51 6.632 20.477 6.694 20.457 6.758 20.45 9.75 20.45 9.815 20.457 9.877 20.477 9.932 20.51 9.979 20.555 10.019 20.607 10.049 20.669 10.067 20.737 10.074 20.809 10.074 20.809 10.067 20.881 10.049 20.951 10.019 21.011 9.979 21.065 9.932 21.108 9.877 21.143 9.815 21.163"/>
      <polygon fill="#231F20" fill-rule="nonzero" points="10.127 20.808 10.127 20.808 10.119 20.891 10.099 20.968 10.064 21.038 10.019 21.1 9.964 21.15 9.899 21.19 9.825 21.215 9.75 21.222 9.75 21.117 9.805 21.11 9.855 21.095 9.899 21.065 9.939 21.03 9.974 20.983 9.999 20.933 10.014 20.871 10.022 20.809 10.022 20.809 10.127 20.809"/>
      <polygon fill="#231F20" fill-rule="nonzero" points="10.127 20.808 10.074 20.808 10.074 20.808 10.074 20.808 10.074 20.808 10.022 20.808 10.127 20.808"/>
      <polygon fill="#231F20" fill-rule="nonzero" points="9.75 20.397 9.75 20.397 9.825 20.404 9.9 20.429 9.965 20.467 10.019 20.519 10.064 20.579 10.099 20.651 10.119 20.726 10.127 20.808 10.022 20.808 10.014 20.746 9.999 20.686 9.975 20.634 9.939 20.589 9.9 20.551 9.855 20.524 9.805 20.509 9.75 20.502 9.75 20.502 9.75 20.397"/>
      <polygon fill="#231F20" fill-rule="nonzero" points="6.758 20.397 6.758 20.397 9.75 20.397 9.75 20.502 6.758 20.502 6.758 20.502"/>
      <polygon fill="#231F20" fill-rule="nonzero" points="6.385 20.808 6.385 20.808 6.392 20.726 6.412 20.652 6.447 20.579 6.492 20.52 6.546 20.467 6.609 20.43 6.683 20.405 6.758 20.398 6.758 20.503 6.703 20.51 6.653 20.524 6.611 20.552 6.571 20.589 6.537 20.634 6.512 20.687 6.497 20.746 6.49 20.809 6.49 20.809 6.385 20.809"/>
      <polygon fill="#231F20" fill-rule="nonzero" points="6.385 20.808 6.437 20.808 6.437 20.808 6.437 20.808 6.437 20.808 6.489 20.808 6.385 20.808"/>
      <polygon fill="#231F20" fill-rule="nonzero" points="6.758 21.222 6.758 21.222 6.684 21.215 6.609 21.19 6.547 21.15 6.492 21.1 6.447 21.038 6.412 20.968 6.392 20.891 6.385 20.809 6.49 20.809 6.497 20.871 6.512 20.933 6.537 20.983 6.571 21.031 6.611 21.065 6.654 21.095 6.704 21.11 6.758 21.117 6.758 21.117 6.758 21.222"/>
      <polygon fill="#231F20" fill-rule="nonzero" points="9.75 21.222 9.75 21.222 6.758 21.222 6.758 21.117 9.75 21.117 9.75 21.117"/>
      <polygon fill="#FFF" points="10.052 20.699 6.46 20.699 6.42 20.697 6.382 20.689 6.345 20.679 6.31 20.664 6.275 20.646 6.245 20.624 6.215 20.599 6.188 20.572 6.163 20.542 6.141 20.507 6.121 20.472 6.103 20.435 6.091 20.395 6.081 20.355 6.076 20.313 6.073 20.268 6.073 20.268 6.076 20.223 6.081 20.181 6.091 20.138 6.103 20.098 6.121 20.061 6.141 20.023 6.163 19.991 6.188 19.961 6.215 19.931 6.245 19.906 6.275 19.886 6.31 19.869 6.345 19.854 6.382 19.841 6.42 19.836 6.46 19.833 10.052 19.833 10.091 19.836 10.129 19.841 10.166 19.854 10.204 19.869 10.236 19.886 10.268 19.906 10.298 19.931 10.326 19.961 10.35 19.991 10.373 20.023 10.393 20.061 10.41 20.098 10.423 20.138 10.433 20.181 10.438 20.223 10.44 20.268 10.44 20.268 10.438 20.313 10.433 20.355 10.423 20.395 10.41 20.435 10.393 20.472 10.373 20.507 10.35 20.542 10.326 20.572 10.298 20.599 10.268 20.624 10.236 20.646 10.204 20.664 10.166 20.679 10.129 20.689 10.091 20.697"/>
      <polygon fill="#231F20" fill-rule="nonzero" points="10.493 20.268 10.493 20.268 10.49 20.318 10.485 20.365 10.472 20.41 10.46 20.455 10.44 20.497 10.418 20.535 10.393 20.572 10.365 20.607 10.333 20.639 10.3 20.667 10.263 20.691 10.226 20.711 10.183 20.729 10.141 20.739 10.099 20.749 10.052 20.751 10.052 20.646 10.084 20.644 10.116 20.639 10.149 20.629 10.181 20.617 10.208 20.602 10.236 20.582 10.263 20.56 10.286 20.537 10.308 20.512 10.328 20.48 10.345 20.447 10.36 20.415 10.373 20.38 10.38 20.345 10.385 20.308 10.387 20.268 10.387 20.268 10.492 20.268"/>
      <polygon fill="#231F20" fill-rule="nonzero" points="10.493 20.268 10.44 20.268 10.44 20.268 10.44 20.268 10.44 20.268 10.388 20.268 10.493 20.268"/>
      <polygon fill="#231F20" fill-rule="nonzero" points="10.052 19.782 10.052 19.782 10.097 19.785 10.142 19.792 10.184 19.804 10.226 19.822 10.264 19.842 10.298 19.864 10.336 19.894 10.366 19.926 10.393 19.959 10.418 19.996 10.44 20.039 10.46 20.078 10.473 20.126 10.485 20.171 10.49 20.218 10.493 20.268 10.388 20.268 10.386 20.228 10.381 20.191 10.374 20.151 10.362 20.118 10.347 20.084 10.33 20.051 10.31 20.024 10.287 19.996 10.262 19.969 10.24 19.949 10.21 19.932 10.182 19.917 10.15 19.904 10.118 19.892 10.088 19.889 10.053 19.887 10.053 19.887 10.053 19.782"/>
      <polygon fill="#231F20" fill-rule="nonzero" points="6.46 19.782 6.46 19.782 10.052 19.782 10.052 19.887 6.46 19.887 6.46 19.887"/>
      <polygon fill="#231F20" fill-rule="nonzero" points="6.021 20.268 6.021 20.268 6.023 20.218 6.028 20.171 6.041 20.126 6.053 20.078 6.073 20.039 6.095 19.996 6.12 19.959 6.148 19.926 6.178 19.894 6.213 19.864 6.25 19.842 6.287 19.822 6.327 19.804 6.369 19.792 6.414 19.785 6.459 19.782 6.459 19.887 6.424 19.889 6.394 19.892 6.362 19.904 6.332 19.917 6.3 19.932 6.277 19.949 6.252 19.969 6.227 19.996 6.205 20.024 6.185 20.051 6.168 20.084 6.153 20.118 6.14 20.151 6.132 20.191 6.127 20.228 6.124 20.268 6.124 20.268 6.02 20.268"/>
      <polygon fill="#231F20" fill-rule="nonzero" points="6.021 20.268 6.073 20.268 6.073 20.268 6.073 20.268 6.073 20.268 6.126 20.268 6.021 20.268"/>
      <polygon fill="#231F20" fill-rule="nonzero" points="6.46 20.751 6.46 20.751 6.412 20.749 6.37 20.739 6.327 20.729 6.287 20.712 6.248 20.692 6.213 20.664 6.18 20.639 6.148 20.607 6.121 20.572 6.096 20.535 6.073 20.497 6.054 20.455 6.041 20.41 6.028 20.365 6.023 20.318 6.021 20.268 6.126 20.268 6.129 20.308 6.134 20.345 6.142 20.38 6.155 20.415 6.169 20.447 6.187 20.48 6.207 20.512 6.229 20.537 6.252 20.56 6.279 20.585 6.304 20.602 6.334 20.617 6.364 20.629 6.396 20.639 6.429 20.644 6.461 20.646 6.461 20.646 6.461 20.751"/>
      <polygon fill="#231F20" fill-rule="nonzero" points="10.052 20.751 10.052 20.751 6.46 20.751 6.46 20.646 10.052 20.646 10.052 20.646"/>
      <path stroke="#656263" stroke-width=".75" d="M0.513555,10.51949 L16.206305,10.52761 L16.206305,22.18411 C16.206305,25.90911 13.119055,29.59336 8.353175,29.59336 C3.935175,29.59336 0.470175,26.24199 0.500055,22.18411 L0.513555,10.51949 L0.513555,10.51949 Z"/>
      <text fill="#5A5758" font-family="Helvetica" font-size="8">
        <tspan x=".541" y="8.241">NW</tspan>
      </text>
    </g>
  </g>
</svg>
