<svg xmlns="http://www.w3.org/2000/svg" width="97" height="70" viewBox="0 0 97 70">
  <g fill="none" fill-rule="evenodd" transform="translate(.737 1.29)">
    <polygon fill="#CCE4F7" fill-rule="nonzero" stroke="#CCE4F7" stroke-width=".709" points="70.993 60.112 72.602 63.584 76.821 61.218 82.839 62.063 83.226 64.082 92.025 61.26 90.254 55.048 89.964 54.025 89.825 53.54 90.725 43.538 94.916 39.498 93.007 37.05 87.487 36.8 77.139 37.797 76.545 32.678 73.985 32.678 71.302 35.818 70.056 37.27 68.299 37.284 69.323 31.917 67.4 31.197 65.269 34.268 65.748 36.207 66.868 40.413 68.249 45.282 69.378 49.459 70.139 52.281 77.264 56.515 70.993 60.112"/>
    <polygon fill="#CCE4F7" fill-rule="nonzero" stroke="#CCE4F7" stroke-width=".709" points="66.902 56.971 57.191 47.384 59.861 45.004 58.698 39.581 58.311 30.271 60.179 26.646 60.165 23.768 60.151 22.219 60.124 14.955 59.003 15.246 54.313 16.505 49.927 13.697 53.568 7.167 54.022 3.155 53.677 1.163 46.068 .346 42.872 0 38.224 2.698 32.4 4.054 29.232 2.643 24.14 5.147 21.706 6.876 24.763 12.313 23.2 14.112 18.662 17.46 13.945 26.3 12.188 25.566 13.364 21.706 10.541 20.6 8.73 22.357 5.492 25.483 5.658 30.879 4.87 35.417 4.717 36.26 .539 42.362 0 43.15 2.85 48.38 4.593 51.603 4.192 52.323 1.162 57.829 1.066 57.87 5.436 58.036 9.684 58.036 12.409 61.744 16.435 62.74 16.947 63.155 22.259 67.43 26.23 65.341 32.358 62.104 38.57 65.299 41.932 63.169 49.112 66.973 57.163 60.872 66.896 56.959 66.902 56.971"/>
    <g transform="translate(13.153 27.233)">
      <polygon fill="#FFF" points="16.182 10.493 16.182 22.141 16.172 22.522 16.142 22.898 16.093 23.27 16.023 23.633 15.936 23.992 15.831 24.343 15.706 24.687 15.567 25.023 15.41 25.352 15.236 25.671 15.046 25.98 14.844 26.281 14.625 26.57 14.391 26.85 14.145 27.119 13.886 27.375 13.614 27.622 13.33 27.853 13.033 28.073 12.727 28.279 12.408 28.471 12.079 28.651 11.74 28.812 11.394 28.962 11.038 29.094 10.674 29.211 10.301 29.311 9.922 29.393 9.536 29.458 9.145 29.505 8.746 29.533 8.343 29.543 7.939 29.533 7.54 29.505 7.149 29.458 6.763 29.393 6.385 29.311 6.011 29.211 5.647 29.094 5.291 28.962 4.945 28.812 4.606 28.651 4.277 28.471 3.961 28.279 3.652 28.073 3.355 27.853 3.071 27.622 2.8 27.375 2.538 27.119 2.292 26.85 2.06 26.57 1.841 26.281 1.636 25.98 1.447 25.671 1.275 25.352 1.118 25.023 .976 24.687 .854 24.343 .747 23.992 .66 23.633 .59 23.27 .54 22.898 .51 22.522 .5 22.141 .498 10.508 16.183 10.493 16.183 10.493"/>
      <polygon fill="#ED192D" points="8.285 20.574 8.173 20.574 8.064 20.574 7.962 20.577 7.865 20.579 7.77 20.584 7.683 20.589 7.598 20.594 7.521 20.604 7.446 20.614 7.379 20.627 7.317 20.644 7.257 20.662 7.204 20.682 7.157 20.704 7.112 20.731 7.075 20.761 7.042 20.796 7.015 20.831 6.992 20.873 6.975 20.918 6.963 20.968 6.955 21.023 6.953 21.08 6.955 21.145 6.963 21.212 6.978 21.287 6.995 21.364 7.02 21.449 7.047 21.539 7.082 21.636 7.122 21.738 7.167 21.848 7.456 22.742 9.187 22.729 9.394 21.848 9.479 21.636 9.543 21.449 9.586 21.287 9.608 21.145 9.608 21.023 9.588 20.918 9.549 20.831 9.489 20.761 9.409 20.704 9.307 20.662 9.187 20.627 9.045 20.604 8.886 20.589 8.704 20.579 8.505 20.574 8.286 20.574 8.286 20.574"/>
      <polygon fill="#231F20" fill-rule="nonzero" points="9.344 21.835 9.347 21.827 9.429 21.618 9.494 21.433 9.534 21.276 9.556 21.139 9.556 21.027 9.539 20.933 9.504 20.858 9.454 20.801 9.384 20.748 9.29 20.711 9.178 20.678 9.038 20.656 8.884 20.641 8.702 20.631 8.505 20.626 8.286 20.626 8.286 20.521 8.505 20.521 8.707 20.526 8.889 20.536 9.053 20.551 9.198 20.574 9.325 20.611 9.434 20.658 9.524 20.721 9.594 20.803 9.639 20.902 9.661 21.017 9.661 21.149 9.639 21.296 9.594 21.463 9.529 21.652 9.442 21.867 9.444 21.859 9.344 21.834 9.344 21.834"/>
      <polygon fill="#231F20" fill-rule="nonzero" points="9.237 22.742 9.23 22.781 9.188 22.781 9.188 22.677 9.138 22.717 9.344 21.835 9.444 21.86 9.237 22.742 9.187 22.782 9.237 22.742 9.237 22.742"/>
      <polygon fill="#231F20" fill-rule="nonzero" points="7.456 22.794 7.418 22.794 7.406 22.757 7.506 22.727 7.456 22.689 9.187 22.677 9.187 22.781 7.456 22.794 7.406 22.756 7.456 22.794 7.456 22.794"/>
      <polygon fill="#231F20" fill-rule="nonzero" points="7.214 21.827 7.216 21.832 7.505 22.726 7.406 22.756 7.117 21.862 7.119 21.867 7.213 21.827 7.213 21.827"/>
      <polygon fill="#231F20" fill-rule="nonzero" points="8.285 20.627 8.173 20.627 8.064 20.627 7.962 20.629 7.867 20.632 7.772 20.637 7.685 20.642 7.603 20.647 7.528 20.657 7.454 20.667 7.391 20.677 7.331 20.694 7.274 20.711 7.224 20.729 7.182 20.749 7.142 20.774 7.11 20.799 7.082 20.831 7.06 20.859 7.04 20.896 7.025 20.933 7.015 20.978 7.008 21.028 7.005 21.08 7.008 21.14 7.015 21.205 7.03 21.277 7.045 21.352 7.07 21.434 7.097 21.521 7.132 21.618 7.169 21.718 7.214 21.828 7.12 21.868 7.075 21.758 7.032 21.653 6.998 21.556 6.97 21.464 6.945 21.377 6.925 21.297 6.91 21.22 6.903 21.15 6.901 21.08 6.903 21.018 6.91 20.958 6.925 20.903 6.945 20.851 6.97 20.804 7.002 20.761 7.04 20.724 7.082 20.689 7.132 20.659 7.184 20.634 7.239 20.612 7.301 20.594 7.366 20.577 7.438 20.562 7.513 20.552 7.593 20.542 7.68 20.537 7.767 20.532 7.862 20.527 7.962 20.525 8.064 20.522 8.173 20.522 8.285 20.522 8.285 20.627"/>
      <polygon fill="#ED192D" points="16.18 19.573 .501 19.573 .501 10.508 16.18 10.508"/>
      <polygon fill="#231F20" fill-rule="nonzero" points="16.18 19.573 16.18 19.625 .501 19.625 .501 19.52 16.18 19.52 16.18 19.573 16.18 19.573"/>
      <polygon fill="#231F20" fill-rule="nonzero" points=".446 10.508 .446 10.455 .498 10.455 .446 10.508 .498 10.455 16.182 10.44 16.182 10.545 .498 10.56 .55 10.508 .446 10.508"/>
      <polygon fill="#231F20" fill-rule="nonzero" points=".448 22.141 .448 22.141 .446 10.508 .551 10.508 .554 22.141 .554 22.141 .449 22.141"/>
      <polygon fill="#231F20" fill-rule="nonzero" points="8.343 29.595 8.343 29.595 7.937 29.585 7.536 29.557 7.142 29.51 6.753 29.445 6.372 29.361 5.996 29.261 5.63 29.144 5.271 29.009 4.922 28.86 4.581 28.698 4.252 28.516 3.933 28.324 3.622 28.115 3.323 27.896 3.037 27.662 2.765 27.412 2.501 27.156 2.252 26.884 2.02 26.603 1.799 26.311 1.592 26.007 1.402 25.696 1.228 25.375 1.071 25.046 .927 24.707 .805 24.361 .697 24.005 .608 23.643 .538 23.277 .488 22.903 .458 22.525 .448 22.141 .553 22.141 .563 22.52 .593 22.894 .643 23.262 .712 23.623 .797 23.98 .904 24.326 1.026 24.667 1.166 25.001 1.323 25.33 1.492 25.646 1.681 25.953 1.883 26.252 2.1 26.538 2.332 26.815 2.576 27.081 2.835 27.338 3.106 27.582 3.388 27.811 3.682 28.03 3.988 28.235 4.302 28.426 4.631 28.603 4.967 28.765 5.311 28.915 5.665 29.044 6.026 29.161 6.397 29.261 6.773 29.341 7.157 29.405 7.546 29.453 7.942 29.48 8.343 29.49 8.343 29.49 8.343 29.595"/>
      <polygon fill="#231F20" fill-rule="nonzero" points="16.235 22.141 16.235 22.141 16.225 22.525 16.195 22.903 16.145 23.277 16.075 23.643 15.985 24.005 15.881 24.361 15.756 24.707 15.614 25.046 15.457 25.377 15.28 25.696 15.091 26.007 14.887 26.311 14.665 26.603 14.431 26.884 14.182 27.156 13.92 27.412 13.649 27.662 13.362 27.896 13.063 28.115 12.754 28.324 12.433 28.516 12.104 28.698 11.763 28.86 11.414 29.009 11.055 29.144 10.689 29.261 10.313 29.361 9.932 29.445 9.543 29.51 9.15 29.557 8.748 29.585 8.342 29.595 8.342 29.49 8.743 29.48 9.14 29.453 9.528 29.405 9.912 29.341 10.288 29.261 10.659 29.161 11.02 29.044 11.374 28.915 11.718 28.765 12.054 28.603 12.383 28.426 12.699 28.234 13.003 28.03 13.297 27.811 13.579 27.582 13.85 27.338 14.107 27.081 14.351 26.814 14.585 26.538 14.802 26.251 15.001 25.952 15.191 25.646 15.362 25.327 15.52 25.001 15.656 24.667 15.781 24.326 15.886 23.98 15.97 23.623 16.04 23.262 16.09 22.893 16.12 22.52 16.13 22.141 16.13 22.141 16.234 22.141"/>
      <polygon fill="#231F20" fill-rule="nonzero" points="16.182 10.44 16.235 10.44 16.235 10.493 16.182 10.44 16.235 10.493 16.235 22.141 16.13 22.141 16.13 10.493 16.182 10.545 16.182 10.44"/>
      <polygon fill="#FFF" points="7.924 11.589 7.924 18.123 6.178 18.123 6.178 17.406 5.702 17.406 5.702 18.123 3.869 18.123 3.869 16.875 5.209 16.875 5.209 16.608 5.209 16.608 5.209 16.342 3.869 16.342 3.869 15.096 5.702 15.096 5.702 15.814 6.178 15.814 6.178 15.096 6.898 15.096 6.898 14.855 6.898 14.855 6.898 14.618 6.178 14.618 6.178 13.898 5.702 13.898 5.702 14.618 3.869 14.618 3.869 13.37 5.209 13.37 5.209 13.103 5.209 13.103 5.209 12.834 3.869 12.834 3.869 11.589 5.702 11.589 5.702 12.306 6.178 12.306 6.178 11.589"/>
      <polygon fill="#231F20" fill-rule="nonzero" points="6.126 11.589 6.126 11.536 6.178 11.536 6.126 11.589 6.178 11.536 7.924 11.536 7.924 11.641 6.178 11.641 6.23 11.589 6.126 11.589"/>
      <polygon fill="#231F20" fill-rule="nonzero" points="6.23 12.306 6.23 12.358 6.178 12.358 6.178 12.254 6.126 12.306 6.126 11.589 6.23 11.589 6.23 12.306 6.178 12.359 6.23 12.306 6.23 12.306"/>
      <polygon fill="#231F20" fill-rule="nonzero" points="5.702 12.358 5.65 12.358 5.65 12.306 5.755 12.306 5.702 12.254 6.178 12.254 6.178 12.358 5.702 12.358 5.65 12.306 5.702 12.358 5.702 12.358"/>
      <polygon fill="#231F20" fill-rule="nonzero" points="5.702 11.536 5.755 11.536 5.755 11.589 5.702 11.536 5.755 11.589 5.755 12.306 5.65 12.306 5.65 11.589 5.702 11.641 5.702 11.536"/>
      <polygon fill="#231F20" fill-rule="nonzero" points="3.816 11.589 3.816 11.536 3.869 11.536 3.816 11.589 3.869 11.536 5.702 11.536 5.702 11.641 3.869 11.641 3.921 11.589 3.816 11.589"/>
      <polygon fill="#231F20" fill-rule="nonzero" points="3.869 12.887 3.816 12.887 3.816 12.834 3.869 12.887 3.816 12.834 3.816 11.589 3.921 11.589 3.921 12.834 3.869 12.782 3.869 12.887"/>
      <polygon fill="#231F20" fill-rule="nonzero" points="5.209 12.782 5.261 12.782 5.261 12.834 5.156 12.834 5.209 12.887 3.869 12.887 3.869 12.782 5.209 12.782 5.261 12.834 5.209 12.782 5.209 12.782"/>
      <polygon fill="#231F20" fill-rule="nonzero" points="5.156 13.103 5.156 13.103 5.156 12.834 5.261 12.834 5.261 13.103 5.261 13.103"/>
      <polygon fill="#231F20" fill-rule="nonzero" points="5.156 13.103 5.209 13.103 5.209 13.103 5.209 13.103 5.209 13.103 5.261 13.103 5.157 13.103"/>
      <polygon fill="#231F20" fill-rule="nonzero" points="5.261 13.37 5.261 13.422 5.209 13.422 5.209 13.318 5.156 13.37 5.156 13.103 5.261 13.103 5.261 13.37 5.209 13.422 5.261 13.37 5.261 13.37"/>
      <polygon fill="#231F20" fill-rule="nonzero" points="3.816 13.37 3.816 13.318 3.869 13.318 3.816 13.37 3.869 13.318 5.209 13.318 5.209 13.422 3.869 13.422 3.921 13.37 3.816 13.37"/>
      <polygon fill="#231F20" fill-rule="nonzero" points="3.869 14.67 3.816 14.67 3.816 14.618 3.869 14.67 3.816 14.618 3.816 13.37 3.921 13.37 3.921 14.618 3.869 14.566 3.869 14.67"/>
      <polygon fill="#231F20" fill-rule="nonzero" points="5.755 14.618 5.755 14.67 5.702 14.67 5.755 14.618 5.702 14.67 3.869 14.67 3.869 14.566 5.702 14.566 5.65 14.618 5.755 14.618"/>
      <polygon fill="#231F20" fill-rule="nonzero" points="5.65 13.898 5.65 13.846 5.702 13.846 5.702 13.95 5.755 13.898 5.755 14.618 5.65 14.618 5.65 13.898 5.702 13.846 5.65 13.898 5.65 13.898"/>
      <polygon fill="#231F20" fill-rule="nonzero" points="6.178 13.846 6.23 13.846 6.23 13.898 6.126 13.898 6.178 13.95 5.702 13.95 5.702 13.846 6.178 13.846 6.23 13.898 6.178 13.846 6.178 13.846"/>
      <polygon fill="#231F20" fill-rule="nonzero" points="6.178 14.67 6.126 14.67 6.126 14.618 6.178 14.67 6.126 14.618 6.126 13.898 6.23 13.898 6.23 14.618 6.178 14.566 6.178 14.67"/>
      <polygon fill="#231F20" fill-rule="nonzero" points="6.898 14.566 6.95 14.566 6.95 14.618 6.846 14.618 6.898 14.67 6.178 14.67 6.178 14.566 6.898 14.566 6.95 14.618 6.898 14.566 6.898 14.566"/>
      <polygon fill="#231F20" fill-rule="nonzero" points="6.846 14.855 6.846 14.855 6.846 14.618 6.95 14.618 6.95 14.855 6.95 14.855"/>
      <polygon fill="#231F20" fill-rule="nonzero" points="6.846 14.855 6.898 14.855 6.898 14.855 6.898 14.855 6.898 14.855 6.95 14.855 6.846 14.855"/>
      <polygon fill="#231F20" fill-rule="nonzero" points="6.95 15.096 6.95 15.149 6.898 15.149 6.898 15.044 6.846 15.096 6.846 14.855 6.95 14.855 6.95 15.096 6.898 15.149 6.95 15.096 6.95 15.096"/>
      <polygon fill="#231F20" fill-rule="nonzero" points="6.126 15.096 6.126 15.044 6.178 15.044 6.126 15.096 6.178 15.044 6.898 15.044 6.898 15.148 6.178 15.148 6.23 15.096 6.126 15.096"/>
      <polygon fill="#231F20" fill-rule="nonzero" points="6.23 15.814 6.23 15.866 6.178 15.866 6.178 15.761 6.126 15.814 6.126 15.096 6.23 15.096 6.23 15.814 6.178 15.866 6.23 15.814 6.23 15.814"/>
      <polygon fill="#231F20" fill-rule="nonzero" points="5.702 15.866 5.65 15.866 5.65 15.814 5.755 15.814 5.702 15.761 6.178 15.761 6.178 15.866 5.702 15.866 5.65 15.813 5.702 15.866 5.702 15.866"/>
      <polygon fill="#231F20" fill-rule="nonzero" points="5.702 15.044 5.755 15.044 5.755 15.096 5.702 15.044 5.755 15.096 5.755 15.814 5.65 15.814 5.65 15.096 5.702 15.149 5.702 15.044"/>
      <polygon fill="#231F20" fill-rule="nonzero" points="3.816 15.096 3.816 15.044 3.869 15.044 3.816 15.096 3.869 15.044 5.702 15.044 5.702 15.148 3.869 15.148 3.921 15.096 3.816 15.096"/>
      <polygon fill="#231F20" fill-rule="nonzero" points="3.869 16.394 3.816 16.394 3.816 16.342 3.869 16.394 3.816 16.342 3.816 15.096 3.921 15.096 3.921 16.342 3.869 16.29 3.869 16.394"/>
      <polygon fill="#231F20" fill-rule="nonzero" points="5.209 16.29 5.261 16.29 5.261 16.342 5.156 16.342 5.209 16.394 3.869 16.394 3.869 16.29 5.209 16.29 5.261 16.342 5.209 16.29 5.209 16.29"/>
      <polygon fill="#231F20" fill-rule="nonzero" points="5.156 16.608 5.156 16.608 5.156 16.342 5.261 16.342 5.261 16.608 5.261 16.608"/>
      <polygon fill="#231F20" fill-rule="nonzero" points="5.156 16.608 5.209 16.608 5.209 16.608 5.209 16.608 5.209 16.608 5.261 16.608 5.157 16.608"/>
      <polygon fill="#231F20" fill-rule="nonzero" points="5.261 16.875 5.261 16.927 5.209 16.927 5.209 16.823 5.156 16.875 5.156 16.608 5.261 16.608 5.261 16.875 5.209 16.927 5.261 16.875 5.261 16.875"/>
      <polygon fill="#231F20" fill-rule="nonzero" points="3.816 16.875 3.816 16.823 3.869 16.823 3.816 16.875 3.869 16.823 5.209 16.823 5.209 16.927 3.869 16.927 3.921 16.875 3.816 16.875"/>
      <polygon fill="#231F20" fill-rule="nonzero" points="3.869 18.175 3.816 18.175 3.816 18.123 3.869 18.175 3.816 18.123 3.816 16.875 3.921 16.875 3.921 18.123 3.869 18.071 3.869 18.175"/>
      <polygon fill="#231F20" fill-rule="nonzero" points="5.755 18.123 5.755 18.175 5.702 18.175 5.755 18.123 5.702 18.175 3.869 18.175 3.869 18.071 5.702 18.071 5.65 18.123 5.755 18.123"/>
      <polygon fill="#231F20" fill-rule="nonzero" points="5.65 17.406 5.65 17.353 5.702 17.353 5.702 17.458 5.755 17.406 5.755 18.123 5.65 18.123 5.65 17.406 5.702 17.353 5.65 17.406 5.65 17.406"/>
      <polygon fill="#231F20" fill-rule="nonzero" points="6.178 17.353 6.23 17.353 6.23 17.406 6.126 17.406 6.178 17.458 5.702 17.458 5.702 17.353 6.178 17.353 6.23 17.406 6.178 17.353 6.178 17.353"/>
      <polygon fill="#231F20" fill-rule="nonzero" points="6.178 18.175 6.126 18.175 6.126 18.123 6.178 18.175 6.126 18.123 6.126 17.406 6.23 17.406 6.23 18.123 6.178 18.071 6.178 18.175"/>
      <polygon fill="#231F20" fill-rule="nonzero" points="7.924 18.123 7.924 18.175 6.178 18.175 6.178 18.071 7.924 18.071"/>
      <polygon fill="#FFF" points="8.898 20.036 7.662 20.036 7.662 10.968 8.898 10.968"/>
      <polygon fill="#231F20" fill-rule="nonzero" points="8.898 10.916 8.951 10.916 8.951 10.968 8.898 10.916 8.951 10.968 8.951 20.036 8.846 20.036 8.846 10.968 8.898 11.021 8.898 10.916"/>
      <polygon fill="#231F20" fill-rule="nonzero" points="7.61 10.968 7.61 10.916 7.662 10.916 7.61 10.968 7.662 10.916 8.898 10.916 8.898 11.021 7.662 11.021 7.715 10.968 7.61 10.968"/>
      <polygon fill="#231F20" fill-rule="nonzero" points="7.662 20.089 7.61 20.089 7.61 20.036 7.662 20.089 7.61 20.036 7.61 10.968 7.715 10.968 7.715 20.036 7.662 19.984 7.662 20.089"/>
      <polygon fill="#231F20" fill-rule="nonzero" points="8.951 20.036 8.951 20.089 8.898 20.089 8.951 20.036 8.898 20.089 7.662 20.089 7.662 19.984 8.898 19.984 8.846 20.036 8.951 20.036"/>
      <polygon fill="#ED192D" points="3.522 22.53 3.522 22.53 3.605 22.395 3.692 22.271 3.782 22.151 3.874 22.041 3.971 21.942 4.068 21.847 4.17 21.76 4.275 21.68 4.379 21.608 4.489 21.543 4.596 21.484 4.708 21.434 4.82 21.389 4.932 21.349 5.044 21.317 5.159 21.292 5.271 21.269 5.383 21.257 5.498 21.247 5.607 21.245 5.719 21.245 5.829 21.252 5.936 21.264 6.044 21.282 6.148 21.302 6.25 21.329 6.35 21.359 6.447 21.394 6.539 21.431 6.631 21.474 6.719 21.521 6.801 21.571 6.958 21.675 7.095 21.78 7.212 21.885 7.314 21.987 7.399 22.089 7.468 22.191 7.523 22.288 7.563 22.385 7.59 22.48 7.605 22.57 7.61 22.659 7.603 22.744 7.586 22.826 7.561 22.906 7.529 22.981 7.486 23.053 7.439 23.12 7.386 23.183 7.329 23.24 7.267 23.292 7.202 23.34 7.135 23.382 7.068 23.417 7 23.447 6.931 23.472 6.863 23.489 6.799 23.499 6.736 23.501 6.677 23.499 6.624 23.487 6.574 23.469 6.532 23.442 6.532 23.442 6.599 23.404 6.672 23.36 6.744 23.307 6.814 23.25 6.883 23.188 6.943 23.118 6.995 23.046 7.035 22.969 7.06 22.886 7.067 22.802 7.055 22.714 7.017 22.625 6.958 22.533 6.868 22.44 6.746 22.346 6.591 22.251 6.527 22.219 6.46 22.186 6.392 22.161 6.323 22.139 6.253 22.119 6.183 22.102 6.111 22.089 6.038 22.082 5.964 22.077 5.892 22.074 5.817 22.077 5.745 22.084 5.67 22.094 5.595 22.107 5.521 22.124 5.448 22.144 5.374 22.171 5.301 22.199 5.229 22.231 5.16 22.269 5.087 22.309 5.02 22.353 4.95 22.401 4.885 22.453 4.818 22.51 4.756 22.57 4.693 22.635 4.633 22.702 4.574 22.777 4.519 22.852 4.464 22.934 4.412 23.019 4.365 23.106 4.32 23.193 4.28 23.278 4.247 23.365 4.217 23.449 4.192 23.534 4.172 23.619 4.155 23.703 4.145 23.786 4.138 23.865 4.133 23.947 4.133 24.025 4.138 24.104 4.145 24.179 4.158 24.256 4.175 24.328 4.192 24.401 4.217 24.47 4.242 24.54 4.272 24.605 4.305 24.67 4.342 24.732 4.379 24.794 4.422 24.852 4.466 24.906 4.516 24.961 4.566 25.011 4.618 25.058 4.676 25.103 4.733 25.146 4.795 25.186 4.858 25.223 5.019 25.303 5.166 25.355 5.293 25.382 5.406 25.384 5.505 25.369 5.588 25.334 5.66 25.285 5.72 25.222 5.767 25.15 5.807 25.07 5.834 24.983 5.857 24.896 5.872 24.806 5.88 24.719 5.882 24.637 5.882 24.562 5.882 24.562 5.926 24.585 5.969 24.615 6.006 24.654 6.038 24.702 6.068 24.754 6.093 24.814 6.111 24.879 6.126 24.949 6.136 25.021 6.138 25.095 6.136 25.173 6.126 25.25 6.111 25.33 6.091 25.407 6.061 25.481 6.028 25.556 5.986 25.626 5.936 25.693 5.879 25.755 5.814 25.81 5.742 25.86 5.663 25.905 5.573 25.937 5.476 25.965 5.371 25.98 5.256 25.985 5.132 25.98 4.997 25.96 4.855 25.93 4.701 25.883 4.539 25.823 4.365 25.748 4.277 25.703 4.192 25.656 4.108 25.603 4.026 25.544 3.943 25.481 3.866 25.414 3.792 25.342 3.717 25.267 3.65 25.188 3.582 25.105 3.52 25.018 3.46 24.926 3.406 24.831 3.356 24.734 3.311 24.632 3.271 24.527 3.236 24.42 3.206 24.311 3.184 24.196 3.164 24.081 3.154 23.962 3.149 23.842 3.151 23.718 3.161 23.593 3.176 23.466 3.201 23.337 3.233 23.205 3.273 23.073 3.323 22.938 3.38 22.804 3.447 22.667 3.522 22.53 3.522 22.53 3.522 22.53"/>
      <polygon fill="#231F20" fill-rule="nonzero" points="3.478 22.502 3.522 22.53 3.522 22.53 3.522 22.53 3.522 22.53 3.567 22.557 3.478 22.503 3.478 22.503"/>
      <polygon fill="#231F20" fill-rule="nonzero" points="4.342 25.796 4.342 25.796 4.252 25.748 4.165 25.701 4.078 25.646 3.996 25.586 3.911 25.522 3.831 25.452 3.754 25.38 3.679 25.302 3.61 25.22 3.54 25.138 3.478 25.048 3.415 24.954 3.36 24.857 3.308 24.757 3.263 24.652 3.221 24.545 3.186 24.436 3.156 24.323 3.131 24.206 3.112 24.089 3.101 23.965 3.096 23.843 3.098 23.716 3.108 23.589 3.123 23.459 3.148 23.327 3.183 23.192 3.223 23.055 3.275 22.918 3.333 22.781 3.4 22.642 3.477 22.502 3.567 22.557 3.495 22.692 3.427 22.826 3.37 22.958 3.323 23.09 3.283 23.217 3.253 23.347 3.228 23.474 3.213 23.598 3.203 23.721 3.201 23.843 3.206 23.96 3.216 24.074 3.236 24.186 3.256 24.299 3.286 24.406 3.321 24.51 3.358 24.612 3.403 24.712 3.45 24.807 3.505 24.899 3.562 24.988 3.625 25.073 3.689 25.155 3.754 25.232 3.829 25.305 3.901 25.377 3.976 25.442 4.055 25.502 4.138 25.561 4.22 25.611 4.302 25.659 4.387 25.701 4.387 25.701 4.342 25.796 4.342 25.796"/>
      <polygon fill="#231F20" fill-rule="nonzero" points="5.829 24.565 5.827 24.488 5.899 24.513 5.829 24.565 5.899 24.513 5.954 24.54 6.004 24.575 6.046 24.622 6.084 24.675 6.116 24.732 6.144 24.797 6.161 24.867 6.178 24.939 6.188 25.016 6.19 25.096 6.188 25.178 6.178 25.258 6.161 25.342 6.141 25.422 6.109 25.502 6.076 25.582 6.029 25.656 5.977 25.726 5.917 25.793 5.847 25.853 5.77 25.905 5.685 25.953 5.588 25.988 5.486 26.018 5.376 26.032 5.257 26.037 5.127 26.032 4.988 26.013 4.843 25.98 4.684 25.933 4.519 25.87 4.342 25.796 4.387 25.701 4.559 25.776 4.719 25.833 4.868 25.88 5.008 25.908 5.137 25.928 5.257 25.933 5.366 25.928 5.466 25.913 5.558 25.888 5.64 25.858 5.715 25.816 5.782 25.768 5.842 25.719 5.897 25.661 5.944 25.596 5.981 25.531 6.014 25.462 6.041 25.392 6.061 25.317 6.074 25.243 6.084 25.168 6.086 25.096 6.084 25.026 6.074 24.959 6.061 24.891 6.044 24.832 6.021 24.777 5.994 24.729 5.967 24.687 5.934 24.655 5.899 24.63 5.864 24.612 5.934 24.56 5.829 24.565 5.829 24.565"/>
      <polygon fill="#231F20" fill-rule="nonzero" points="5.829 24.565 5.827 24.488 5.899 24.513 5.829 24.565 5.882 24.563 5.882 24.563 5.882 24.563 5.882 24.563 5.934 24.561 5.829 24.566 5.829 24.566"/>
      <polygon fill="#231F20" fill-rule="nonzero" points="4.883 25.178 4.883 25.178 5.039 25.255 5.181 25.305 5.301 25.33 5.403 25.332 5.493 25.319 5.563 25.289 5.625 25.245 5.68 25.19 5.722 25.125 5.76 25.05 5.785 24.968 5.804 24.886 5.819 24.799 5.826 24.717 5.828 24.637 5.828 24.565 5.933 24.56 5.933 24.637 5.931 24.721 5.924 24.814 5.909 24.906 5.884 24.998 5.854 25.09 5.812 25.175 5.76 25.255 5.695 25.324 5.612 25.379 5.518 25.419 5.408 25.436 5.286 25.433 5.152 25.404 5 25.349 4.833 25.266 4.833 25.266 4.883 25.177 4.883 25.177"/>
      <polygon fill="#231F20" fill-rule="nonzero" points="4.457 23.043 4.457 23.046 4.412 23.131 4.367 23.215 4.327 23.298 4.297 23.382 4.267 23.464 4.242 23.547 4.225 23.631 4.207 23.711 4.197 23.791 4.189 23.87 4.184 23.95 4.184 24.022 4.189 24.1 4.197 24.172 4.21 24.246 4.224 24.316 4.242 24.386 4.267 24.453 4.289 24.521 4.319 24.583 4.349 24.645 4.386 24.705 4.421 24.765 4.464 24.82 4.506 24.872 4.553 24.927 4.601 24.974 4.651 25.019 4.708 25.061 4.763 25.104 4.823 25.141 4.883 25.178 4.833 25.268 4.768 25.231 4.703 25.188 4.643 25.146 4.586 25.098 4.531 25.049 4.479 24.996 4.427 24.942 4.379 24.884 4.337 24.824 4.297 24.76 4.26 24.695 4.225 24.628 4.195 24.56 4.168 24.488 4.143 24.416 4.125 24.341 4.105 24.266 4.093 24.187 4.085 24.11 4.08 24.027 4.08 23.945 4.085 23.861 4.093 23.781 4.103 23.696 4.121 23.606 4.143 23.522 4.168 23.434 4.198 23.347 4.232 23.258 4.272 23.171 4.317 23.081 4.367 22.991 4.367 22.994 4.457 23.044 4.457 23.044"/>
      <polygon fill="#231F20" fill-rule="nonzero" points="6.567 22.296 6.567 22.296 6.504 22.266 6.439 22.233 6.375 22.211 6.308 22.189 6.24 22.169 6.173 22.154 6.103 22.141 6.034 22.134 5.961 22.129 5.892 22.126 5.819 22.129 5.749 22.136 5.677 22.146 5.605 22.159 5.533 22.173 5.463 22.193 5.391 22.221 5.321 22.246 5.252 22.278 5.184 22.313 5.115 22.353 5.05 22.395 4.98 22.443 4.918 22.492 4.853 22.55 4.793 22.607 4.731 22.669 4.673 22.734 4.616 22.809 4.561 22.881 4.509 22.961 4.457 23.043 4.367 22.993 4.419 22.906 4.476 22.821 4.531 22.744 4.594 22.669 4.656 22.599 4.718 22.532 4.783 22.47 4.853 22.413 4.92 22.358 4.99 22.311 5.059 22.263 5.134 22.223 5.207 22.184 5.281 22.151 5.356 22.121 5.433 22.094 5.508 22.074 5.585 22.054 5.662 22.041 5.74 22.031 5.814 22.024 5.892 22.022 5.966 22.024 6.044 22.029 6.118 22.036 6.193 22.049 6.265 22.069 6.337 22.089 6.409 22.111 6.479 22.139 6.549 22.171 6.616 22.206 6.616 22.206 6.567 22.296 6.567 22.296"/>
      <polygon fill="#231F20" fill-rule="nonzero" points="6.499 23.481 6.437 23.432 6.507 23.394 6.499 23.481 6.507 23.394 6.571 23.359 6.641 23.317 6.711 23.265 6.778 23.21 6.845 23.15 6.903 23.085 6.95 23.018 6.987 22.948 7.007 22.876 7.014 22.804 7.004 22.729 6.972 22.649 6.917 22.565 6.833 22.48 6.716 22.388 6.566 22.296 6.616 22.206 6.775 22.303 6.903 22.4 6.997 22.5 7.062 22.599 7.104 22.699 7.119 22.799 7.111 22.896 7.081 22.988 7.039 23.073 6.982 23.15 6.919 23.225 6.847 23.29 6.775 23.349 6.7 23.402 6.626 23.449 6.556 23.489 6.564 23.402 6.499 23.481 6.499 23.481"/>
      <polygon fill="#231F20" fill-rule="nonzero" points="6.499 23.481 6.437 23.432 6.507 23.394 6.499 23.481 6.531 23.442 6.531 23.442 6.531 23.442 6.531 23.442 6.564 23.402 6.499 23.481 6.499 23.481"/>
      <polygon fill="#231F20" fill-rule="nonzero" points="6.828 21.526 6.828 21.526 6.987 21.633 7.127 21.74 7.247 21.847 7.351 21.952 7.441 22.056 7.513 22.164 7.57 22.266 7.613 22.368 7.64 22.468 7.658 22.565 7.663 22.659 7.656 22.751 7.636 22.839 7.611 22.923 7.576 23.006 7.531 23.08 7.481 23.152 7.424 23.217 7.364 23.277 7.299 23.332 7.232 23.382 7.159 23.427 7.09 23.464 7.02 23.494 6.945 23.521 6.873 23.541 6.803 23.551 6.736 23.553 6.669 23.551 6.609 23.536 6.552 23.516 6.499 23.481 6.564 23.402 6.597 23.422 6.639 23.437 6.684 23.447 6.736 23.449 6.794 23.447 6.853 23.437 6.916 23.422 6.98 23.399 7.045 23.369 7.11 23.337 7.172 23.297 7.235 23.252 7.294 23.202 7.349 23.148 7.397 23.088 7.442 23.025 7.482 22.956 7.511 22.888 7.536 22.814 7.551 22.736 7.559 22.659 7.554 22.574 7.542 22.492 7.515 22.403 7.477 22.311 7.425 22.218 7.357 22.121 7.278 22.022 7.178 21.922 7.064 21.82 6.929 21.718 6.775 21.615 6.775 21.615 6.83 21.526 6.83 21.526"/>
      <polygon fill="#231F20" fill-rule="nonzero" points="3.478 22.502 3.478 22.502 3.56 22.368 3.649 22.241 3.741 22.119 3.834 22.007 3.933 21.904 4.033 21.807 4.138 21.72 4.245 21.638 4.352 21.563 4.464 21.498 4.573 21.436 4.688 21.386 4.803 21.339 4.917 21.299 5.032 21.267 5.149 21.239 5.263 21.217 5.378 21.204 5.495 21.194 5.607 21.192 5.722 21.192 5.834 21.199 5.944 21.212 6.053 21.229 6.16 21.252 6.265 21.279 6.367 21.309 6.464 21.344 6.559 21.384 6.653 21.426 6.743 21.476 6.828 21.526 6.773 21.616 6.694 21.566 6.609 21.521 6.519 21.479 6.429 21.444 6.332 21.409 6.235 21.379 6.136 21.351 6.033 21.334 5.929 21.317 5.824 21.304 5.717 21.297 5.607 21.297 5.5 21.299 5.388 21.309 5.278 21.322 5.169 21.344 5.057 21.367 4.947 21.399 4.838 21.439 4.728 21.481 4.618 21.531 4.514 21.588 4.406 21.653 4.305 21.723 4.202 21.8 4.102 21.887 4.008 21.979 3.913 22.076 3.821 22.184 3.734 22.301 3.649 22.423 3.567 22.557 3.567 22.557 3.477 22.503 3.477 22.503"/>
      <polygon fill="#231F20" fill-rule="nonzero" points="3.478 22.502 3.522 22.53 3.522 22.53 3.522 22.53 3.522 22.53 3.567 22.557 3.478 22.503 3.478 22.503"/>
      <polygon fill="#ED192D" points="6.649 25.335 6.594 25.333 6.542 25.326 6.489 25.311 6.439 25.294 6.392 25.271 6.347 25.246 6.305 25.216 6.268 25.181 6.233 25.144 6.201 25.104 6.173 25.059 6.15 25.014 6.133 24.967 6.118 24.915 6.111 24.862 6.109 24.81 6.111 24.758 6.118 24.705 6.133 24.656 6.15 24.606 6.173 24.561 6.201 24.519 6.233 24.476 6.268 24.439 6.305 24.406 6.347 24.377 6.392 24.349 6.439 24.327 6.489 24.309 6.542 24.297 6.594 24.29 6.649 24.288 6.704 24.29 6.756 24.297 6.808 24.309 6.858 24.327 6.905 24.349 6.95 24.377 6.993 24.406 7.03 24.439 7.065 24.476 7.097 24.519 7.124 24.561 7.147 24.606 7.164 24.656 7.179 24.705 7.186 24.758 7.188 24.81 7.186 24.862 7.179 24.915 7.164 24.967 7.147 25.014 7.124 25.059 7.097 25.104 7.065 25.144 7.03 25.181 6.993 25.216 6.95 25.246 6.905 25.271 6.858 25.294 6.808 25.311 6.756 25.326 6.704 25.333"/>
      <polygon fill="#231F20" fill-rule="nonzero" points="7.242 24.809 7.242 24.809 7.24 24.866 7.232 24.924 7.214 24.981 7.194 25.034 7.169 25.083 7.139 25.133 7.105 25.178 7.067 25.218 7.025 25.255 6.978 25.29 6.93 25.318 6.878 25.34 6.823 25.36 6.766 25.377 6.708 25.384 6.649 25.386 6.649 25.282 6.698 25.28 6.746 25.273 6.793 25.26 6.838 25.245 6.88 25.223 6.923 25.201 6.96 25.176 6.992 25.143 7.025 25.108 7.055 25.073 7.079 25.034 7.1 24.994 7.115 24.951 7.127 24.904 7.135 24.857 7.137 24.809 7.137 24.809 7.242 24.809"/>
      <polygon fill="#231F20" fill-rule="nonzero" points="6.649 24.234 6.649 24.234 6.709 24.237 6.766 24.244 6.823 24.259 6.878 24.279 6.93 24.304 6.978 24.333 7.025 24.366 7.067 24.401 7.105 24.441 7.14 24.488 7.169 24.535 7.194 24.585 7.214 24.64 7.229 24.695 7.239 24.752 7.241 24.809 7.137 24.809 7.135 24.762 7.13 24.715 7.115 24.67 7.1 24.625 7.08 24.585 7.055 24.548 7.025 24.51 6.993 24.475 6.96 24.445 6.923 24.418 6.88 24.393 6.838 24.373 6.793 24.358 6.746 24.348 6.698 24.341 6.649 24.339 6.649 24.339 6.649 24.234"/>
      <polygon fill="#231F20" fill-rule="nonzero" points="6.056 24.809 6.056 24.809 6.058 24.752 6.068 24.695 6.083 24.64 6.103 24.585 6.128 24.535 6.157 24.488 6.192 24.44 6.23 24.401 6.272 24.366 6.32 24.333 6.367 24.303 6.419 24.278 6.474 24.258 6.531 24.244 6.588 24.237 6.648 24.234 6.648 24.338 6.598 24.34 6.551 24.347 6.504 24.357 6.459 24.372 6.416 24.392 6.374 24.417 6.337 24.445 6.304 24.475 6.272 24.509 6.242 24.547 6.217 24.584 6.197 24.624 6.182 24.669 6.167 24.714 6.162 24.761 6.16 24.808 6.16 24.808 6.056 24.808"/>
      <polygon fill="#231F20" fill-rule="nonzero" points="6.649 25.387 6.649 25.387 6.589 25.385 6.532 25.378 6.474 25.361 6.42 25.341 6.367 25.318 6.32 25.291 6.272 25.256 6.23 25.218 6.193 25.179 6.158 25.134 6.128 25.084 6.103 25.034 6.083 24.982 6.066 24.924 6.058 24.867 6.056 24.81 6.161 24.81 6.163 24.857 6.171 24.905 6.183 24.952 6.198 24.994 6.218 25.034 6.243 25.074 6.273 25.109 6.305 25.144 6.338 25.176 6.375 25.201 6.417 25.224 6.46 25.246 6.505 25.261 6.552 25.273 6.599 25.28 6.649 25.282 6.649 25.282 6.649 25.387"/>
      <polygon fill="#ED192D" points="5.166 27.059 5.112 27.057 5.059 27.05 5.007 27.037 4.957 27.017 4.91 26.997 4.865 26.97 4.825 26.94 4.785 26.905 4.75 26.87 4.72 26.828 4.693 26.786 4.671 26.741 4.653 26.691 4.638 26.641 4.63 26.589 4.628 26.536 4.63 26.484 4.638 26.432 4.653 26.382 4.671 26.334 4.693 26.29 4.72 26.245 4.75 26.205 4.785 26.167 4.825 26.135 4.865 26.105 4.91 26.078 4.957 26.055 5.007 26.038 5.059 26.025 5.112 26.017 5.166 26.014 5.221 26.017 5.276 26.025 5.328 26.038 5.378 26.055 5.426 26.078 5.468 26.105 5.51 26.135 5.55 26.167 5.582 26.205 5.615 26.245 5.642 26.29 5.665 26.334 5.682 26.382 5.697 26.432 5.704 26.484 5.707 26.536 5.704 26.589 5.697 26.641 5.682 26.691 5.665 26.741 5.642 26.786 5.615 26.828 5.582 26.87 5.55 26.905 5.51 26.94 5.468 26.97 5.426 26.997 5.378 27.017 5.328 27.037 5.276 27.05 5.221 27.057"/>
      <polygon fill="#231F20" fill-rule="nonzero" points="5.759 26.535 5.759 26.535 5.757 26.593 5.747 26.65 5.732 26.705 5.713 26.76 5.688 26.81 5.658 26.857 5.623 26.902 5.588 26.942 5.543 26.979 5.498 27.012 5.451 27.044 5.398 27.064 5.344 27.086 5.286 27.101 5.227 27.108 5.167 27.111 5.167 27.007 5.216 27.004 5.266 26.997 5.314 26.987 5.359 26.969 5.401 26.949 5.438 26.927 5.478 26.899 5.513 26.867 5.543 26.837 5.573 26.797 5.598 26.76 5.618 26.72 5.633 26.675 5.648 26.63 5.653 26.583 5.655 26.535 5.655 26.535 5.759 26.535"/>
      <polygon fill="#231F20" fill-rule="nonzero" points="5.166 25.963 5.166 25.963 5.226 25.965 5.286 25.972 5.344 25.987 5.398 26.006 5.451 26.031 5.498 26.061 5.543 26.091 5.588 26.129 5.623 26.171 5.657 26.213 5.687 26.263 5.712 26.313 5.732 26.363 5.747 26.42 5.757 26.478 5.759 26.535 5.654 26.535 5.652 26.487 5.647 26.44 5.632 26.398 5.618 26.353 5.597 26.313 5.573 26.273 5.543 26.236 5.513 26.203 5.478 26.176 5.438 26.146 5.401 26.121 5.358 26.101 5.314 26.086 5.266 26.076 5.216 26.069 5.166 26.067 5.166 26.067 5.166 25.963"/>
      <polygon fill="#231F20" fill-rule="nonzero" points="4.576 26.535 4.576 26.535 4.578 26.478 4.588 26.421 4.603 26.364 4.623 26.314 4.648 26.264 4.678 26.214 4.71 26.172 4.75 26.129 4.793 26.095 4.835 26.062 4.885 26.032 4.937 26.007 4.992 25.987 5.049 25.972 5.106 25.965 5.166 25.963 5.166 26.068 5.116 26.07 5.069 26.077 5.022 26.087 4.977 26.102 4.934 26.122 4.894 26.147 4.857 26.174 4.82 26.204 4.79 26.236 4.763 26.274 4.738 26.314 4.718 26.354 4.703 26.398 4.688 26.441 4.683 26.488 4.681 26.535 4.681 26.535 4.577 26.535"/>
      <polygon fill="#231F20" fill-rule="nonzero" points="5.166 27.111 5.166 27.111 5.107 27.108 5.049 27.101 4.992 27.086 4.937 27.064 4.885 27.044 4.835 27.012 4.793 26.979 4.75 26.942 4.711 26.902 4.678 26.857 4.648 26.81 4.624 26.76 4.603 26.705 4.588 26.65 4.578 26.593 4.576 26.535 4.681 26.535 4.683 26.583 4.688 26.63 4.703 26.675 4.718 26.72 4.738 26.76 4.763 26.797 4.79 26.837 4.82 26.867 4.857 26.899 4.894 26.927 4.934 26.949 4.977 26.969 5.022 26.987 5.069 26.997 5.116 27.004 5.166 27.007 5.166 27.007 5.166 27.111"/>
      <polygon fill="#ED192D" points="8.385 28.92 8.183 28.92 8.183 28.92 8.021 28.918 7.867 28.905 7.717 28.888 7.573 28.863 7.433 28.83 7.301 28.795 7.172 28.751 7.05 28.703 6.933 28.648 6.823 28.591 6.716 28.526 6.616 28.459 6.519 28.387 6.429 28.312 6.345 28.232 6.267 28.15 6.193 28.063 6.123 27.976 6.061 27.886 6.001 27.794 5.949 27.699 5.901 27.602 5.859 27.505 5.822 27.408 5.789 27.308 5.764 27.211 5.742 27.111 5.724 27.012 5.714 26.915 5.707 26.818 5.704 26.72 5.709 26.626 5.727 26.442 5.754 26.275 5.789 26.123 5.829 25.988 5.879 25.866 5.936 25.756 5.996 25.662 6.063 25.58 6.133 25.512 6.208 25.453 6.285 25.405 6.364 25.37 6.447 25.343 6.531 25.325 6.614 25.318 6.698 25.316 6.783 25.323 6.863 25.338 6.945 25.358 7.022 25.383 7.094 25.416 7.167 25.45 7.231 25.49 7.291 25.533 7.349 25.58 7.396 25.627 7.438 25.677 7.471 25.727 7.498 25.779 7.513 25.829 7.52 25.879 7.518 25.929 7.518 25.929 7.451 25.891 7.376 25.852 7.294 25.817 7.209 25.784 7.117 25.759 7.028 25.742 6.935 25.735 6.848 25.74 6.761 25.76 6.681 25.795 6.609 25.849 6.547 25.924 6.494 26.021 6.454 26.143 6.43 26.29 6.422 26.467 6.424 26.539 6.429 26.609 6.439 26.679 6.451 26.748 6.469 26.818 6.489 26.885 6.513 26.953 6.541 27.018 6.573 27.082 6.608 27.145 6.646 27.204 6.688 27.264 6.733 27.322 6.783 27.379 6.835 27.431 6.89 27.483 6.947 27.533 7.01 27.581 7.074 27.625 7.141 27.668 7.214 27.708 7.286 27.742 7.363 27.777 7.443 27.807 7.525 27.835 7.612 27.86 7.699 27.88 7.792 27.897 7.884 27.912 7.981 27.922 8.081 27.927 8.183 27.93 8.385 27.93 8.486 27.927 8.584 27.922 8.681 27.912 8.775 27.897 8.865 27.88 8.955 27.86 9.04 27.835 9.122 27.807 9.201 27.777 9.279 27.742 9.351 27.708 9.423 27.668 9.49 27.625 9.555 27.581 9.617 27.533 9.675 27.483 9.73 27.431 9.782 27.379 9.829 27.322 9.876 27.264 9.916 27.204 9.956 27.145 9.991 27.082 10.023 27.018 10.051 26.953 10.076 26.885 10.096 26.818 10.113 26.748 10.126 26.679 10.136 26.609 10.141 26.539 10.143 26.467 10.133 26.29 10.108 26.143 10.07 26.021 10.018 25.924 9.953 25.849 9.881 25.795 9.801 25.76 9.717 25.74 9.627 25.735 9.537 25.742 9.445 25.759 9.355 25.784 9.268 25.817 9.186 25.852 9.111 25.891 9.044 25.929 9.044 25.929 9.042 25.879 9.049 25.829 9.064 25.779 9.092 25.727 9.124 25.677 9.166 25.627 9.214 25.58 9.271 25.533 9.331 25.49 9.395 25.45 9.468 25.416 9.54 25.383 9.62 25.358 9.699 25.338 9.782 25.323 9.864 25.316 9.948 25.318 10.031 25.325 10.115 25.343 10.197 25.37 10.277 25.405 10.355 25.453 10.429 25.512 10.502 25.58 10.567 25.662 10.629 25.756 10.683 25.866 10.733 25.988 10.776 26.123 10.811 26.275 10.838 26.442 10.855 26.626 10.858 26.72 10.858 26.818 10.85 26.915 10.84 27.012 10.823 27.111 10.801 27.211 10.773 27.308 10.741 27.408 10.703 27.505 10.661 27.602 10.614 27.699 10.561 27.794 10.504 27.886 10.439 27.976 10.372 28.063 10.297 28.15 10.218 28.232 10.133 28.312 10.043 28.387 9.948 28.459 9.849 28.526 9.742 28.591 9.63 28.648 9.515 28.703 9.393 28.751 9.263 28.795 9.132 28.83 8.992 28.863 8.85 28.888 8.7 28.905 8.543 28.918 8.384 28.92 8.384 28.92 8.384 28.92"/>
      <polygon fill="#231F20" fill-rule="nonzero" points="8.385 28.972 8.385 28.92 8.385 28.92 8.385 28.92 8.385 28.92 8.385 28.867 8.385 28.972"/>
      <polygon fill="#231F20" fill-rule="nonzero" points="10.909 26.623 10.909 26.623 10.911 26.72 10.911 26.82 10.904 26.919 10.894 27.019 10.876 27.121 10.851 27.223 10.824 27.323 10.791 27.425 10.752 27.524 10.709 27.624 10.662 27.724 10.607 27.821 10.547 27.916 10.482 28.008 10.412 28.095 10.338 28.184 10.256 28.269 10.168 28.351 10.076 28.426 9.979 28.501 9.877 28.571 9.767 28.635 9.653 28.695 9.536 28.75 9.411 28.8 9.279 28.845 9.145 28.88 9.003 28.915 8.858 28.939 8.706 28.957 8.547 28.969 8.385 28.971 8.385 28.867 8.542 28.865 8.696 28.852 8.843 28.835 8.983 28.81 9.12 28.78 9.249 28.745 9.377 28.7 9.496 28.655 9.608 28.601 9.718 28.546 9.822 28.481 9.919 28.416 10.012 28.346 10.099 28.272 10.181 28.195 10.258 28.115 10.333 28.03 10.398 27.943 10.463 27.856 10.517 27.766 10.567 27.674 10.615 27.579 10.657 27.485 10.692 27.39 10.724 27.293 10.752 27.198 10.772 27.101 10.789 27.004 10.799 26.909 10.806 26.815 10.806 26.72 10.804 26.628 10.804 26.628 10.909 26.623 10.909 26.623"/>
      <polygon fill="#231F20" fill-rule="nonzero" points="9.073 25.973 9.008 26.012 8.993 25.938 9.073 25.973 8.993 25.938 8.991 25.875 9.001 25.816 9.018 25.758 9.048 25.699 9.083 25.644 9.13 25.591 9.18 25.539 9.24 25.489 9.305 25.447 9.372 25.404 9.447 25.367 9.524 25.332 9.606 25.307 9.691 25.285 9.775 25.27 9.862 25.262 9.952 25.264 10.039 25.272 10.129 25.292 10.216 25.319 10.303 25.357 10.386 25.409 10.465 25.471 10.54 25.544 10.61 25.631 10.675 25.73 10.732 25.842 10.784 25.969 10.826 26.109 10.864 26.263 10.891 26.433 10.909 26.622 10.804 26.627 10.787 26.448 10.759 26.284 10.727 26.134 10.685 26.004 10.637 25.887 10.585 25.78 10.525 25.691 10.466 25.613 10.396 25.551 10.326 25.494 10.254 25.451 10.181 25.419 10.104 25.392 10.025 25.377 9.947 25.369 9.868 25.367 9.791 25.374 9.711 25.389 9.636 25.406 9.559 25.431 9.491 25.461 9.422 25.493 9.359 25.531 9.305 25.573 9.25 25.618 9.205 25.66 9.168 25.708 9.138 25.753 9.113 25.797 9.101 25.84 9.096 25.88 9.099 25.917 9.019 25.882 9.074 25.972 9.074 25.972"/>
      <polygon fill="#231F20" fill-rule="nonzero" points="9.073 25.973 9.008 26.012 8.993 25.938 9.073 25.973 9.045 25.928 9.045 25.928 9.045 25.928 9.045 25.928 9.018 25.883 9.073 25.973 9.073 25.973"/>
      <polygon fill="#231F20" fill-rule="nonzero" points="10.091 26.466 10.091 26.466 10.081 26.294 10.059 26.154 10.024 26.04 9.977 25.953 9.919 25.885 9.855 25.838 9.785 25.808 9.71 25.791 9.628 25.786 9.546 25.793 9.459 25.808 9.371 25.832 9.289 25.862 9.21 25.897 9.137 25.935 9.073 25.972 9.018 25.883 9.088 25.845 9.165 25.803 9.249 25.768 9.341 25.733 9.433 25.708 9.531 25.688 9.628 25.681 9.725 25.686 9.82 25.709 9.909 25.749 9.989 25.811 10.061 25.893 10.119 26 10.159 26.13 10.186 26.284 10.196 26.466 10.196 26.466 10.092 26.466"/>
      <polygon fill="#231F20" fill-rule="nonzero" points="8.385 27.876 8.385 27.876 8.485 27.874 8.579 27.869 8.674 27.859 8.766 27.844 8.856 27.826 8.943 27.809 9.025 27.784 9.105 27.757 9.182 27.729 9.257 27.694 9.326 27.659 9.396 27.622 9.461 27.582 9.526 27.537 9.586 27.493 9.641 27.443 9.693 27.393 9.743 27.343 9.79 27.288 9.835 27.233 9.875 27.174 9.912 27.116 9.945 27.056 9.977 26.994 10.002 26.932 10.027 26.867 10.047 26.805 10.062 26.737 10.074 26.67 10.084 26.603 10.089 26.535 10.092 26.466 10.197 26.466 10.195 26.541 10.19 26.613 10.18 26.685 10.167 26.757 10.147 26.83 10.128 26.902 10.103 26.972 10.073 27.039 10.04 27.106 10.003 27.171 9.961 27.233 9.921 27.293 9.871 27.353 9.824 27.413 9.769 27.467 9.711 27.522 9.652 27.572 9.587 27.622 9.522 27.667 9.452 27.712 9.378 27.754 9.303 27.789 9.223 27.824 9.141 27.856 9.056 27.884 8.969 27.908 8.877 27.931 8.787 27.948 8.69 27.963 8.59 27.973 8.491 27.978 8.386 27.981 8.386 27.981 8.386 27.876"/>
      <polygon fill="#231F20" fill-rule="nonzero" points="8.183 27.876 8.183 27.876 8.385 27.876 8.385 27.981 8.183 27.981 8.183 27.981"/>
      <polygon fill="#231F20" fill-rule="nonzero" points="6.474 26.466 6.474 26.466 6.476 26.535 6.481 26.603 6.491 26.67 6.504 26.737 6.519 26.805 6.539 26.867 6.564 26.932 6.588 26.994 6.621 27.056 6.653 27.116 6.688 27.174 6.73 27.233 6.773 27.288 6.82 27.343 6.873 27.393 6.925 27.443 6.98 27.493 7.04 27.537 7.104 27.582 7.169 27.622 7.239 27.659 7.309 27.694 7.383 27.729 7.461 27.757 7.54 27.784 7.625 27.809 7.71 27.826 7.802 27.844 7.891 27.859 7.986 27.869 8.083 27.874 8.183 27.876 8.183 27.981 8.078 27.978 7.976 27.973 7.876 27.963 7.782 27.948 7.69 27.93 7.6 27.908 7.511 27.883 7.426 27.855 7.344 27.823 7.264 27.788 7.189 27.753 7.115 27.711 7.045 27.666 6.98 27.621 6.915 27.571 6.855 27.522 6.798 27.467 6.745 27.412 6.693 27.352 6.646 27.292 6.604 27.233 6.564 27.17 6.526 27.105 6.494 27.038 6.464 26.971 6.439 26.901 6.419 26.829 6.399 26.756 6.387 26.684 6.377 26.612 6.372 26.54 6.37 26.465 6.37 26.465 6.474 26.465"/>
      <polygon fill="#231F20" fill-rule="nonzero" points="7.57 25.938 7.555 26.012 7.491 25.973 7.57 25.938 7.491 25.973 7.426 25.935 7.354 25.898 7.274 25.863 7.194 25.833 7.105 25.808 7.02 25.793 6.935 25.786 6.856 25.791 6.776 25.808 6.709 25.838 6.646 25.886 6.589 25.953 6.542 26.04 6.505 26.155 6.482 26.294 6.475 26.466 6.37 26.466 6.378 26.284 6.405 26.13 6.447 26 6.505 25.893 6.572 25.811 6.654 25.749 6.746 25.709 6.841 25.686 6.936 25.681 7.035 25.688 7.13 25.708 7.225 25.733 7.314 25.768 7.399 25.803 7.476 25.845 7.546 25.883 7.466 25.917 7.571 25.937 7.571 25.937"/>
      <polygon fill="#231F20" fill-rule="nonzero" points="7.57 25.938 7.555 26.012 7.491 25.973 7.57 25.938 7.518 25.928 7.518 25.928 7.518 25.928 7.518 25.928 7.466 25.918 7.57 25.938 7.57 25.938"/>
      <polygon fill="#231F20" fill-rule="nonzero" points="5.657 26.623 5.657 26.623 5.675 26.433 5.702 26.264 5.74 26.11 5.779 25.97 5.832 25.843 5.892 25.731 5.954 25.631 6.026 25.544 6.098 25.472 6.178 25.41 6.26 25.357 6.347 25.32 6.434 25.293 6.524 25.273 6.611 25.265 6.701 25.263 6.791 25.271 6.873 25.286 6.96 25.308 7.04 25.333 7.117 25.368 7.192 25.405 7.259 25.448 7.324 25.49 7.383 25.54 7.433 25.592 7.481 25.644 7.516 25.699 7.546 25.759 7.563 25.816 7.573 25.876 7.57 25.938 7.466 25.919 7.468 25.881 7.463 25.841 7.451 25.799 7.426 25.754 7.396 25.709 7.358 25.662 7.313 25.619 7.259 25.575 7.204 25.532 7.141 25.495 7.072 25.463 7.004 25.433 6.93 25.408 6.852 25.39 6.775 25.375 6.695 25.368 6.616 25.37 6.539 25.378 6.459 25.393 6.382 25.42 6.31 25.453 6.237 25.495 6.168 25.552 6.1 25.615 6.038 25.692 5.981 25.782 5.926 25.889 5.879 26.006 5.839 26.135 5.806 26.285 5.779 26.449 5.761 26.629 5.761 26.629 5.657 26.624 5.657 26.624"/>
      <polygon fill="#231F20" fill-rule="nonzero" points="8.183 28.972 8.183 28.972 8.019 28.97 7.862 28.957 7.71 28.94 7.563 28.915 7.421 28.88 7.287 28.845 7.154 28.8 7.03 28.751 6.91 28.696 6.798 28.636 6.689 28.571 6.586 28.501 6.487 28.427 6.394 28.352 6.308 28.27 6.228 28.185 6.153 28.095 6.081 28.008 6.019 27.916 5.956 27.821 5.901 27.724 5.854 27.625 5.812 27.525 5.772 27.425 5.74 27.323 5.715 27.223 5.69 27.121 5.672 27.019 5.662 26.92 5.654 26.82 5.652 26.72 5.657 26.623 5.762 26.628 5.757 26.72 5.759 26.815 5.766 26.91 5.776 27.004 5.793 27.101 5.813 27.199 5.838 27.293 5.871 27.39 5.905 27.485 5.948 27.58 5.995 27.674 6.045 27.766 6.102 27.856 6.165 27.943 6.232 28.03 6.307 28.115 6.382 28.195 6.464 28.272 6.551 28.347 6.645 28.416 6.743 28.481 6.847 28.546 6.954 28.601 7.069 28.656 7.188 28.701 7.316 28.746 7.445 28.78 7.582 28.81 7.724 28.835 7.871 28.853 8.023 28.865 8.183 28.867 8.183 28.867 8.183 28.972"/>
      <polygon fill="#231F20" fill-rule="nonzero" points="8.183 28.972 8.183 28.92 8.183 28.92 8.183 28.92 8.183 28.92 8.183 28.867 8.183 28.972"/>
      <polygon fill="#231F20" fill-rule="nonzero" points="8.385 28.972 8.385 28.972 8.183 28.972 8.183 28.867 8.385 28.867 8.385 28.867"/>
      <polygon fill="#ED192D" points="13.041 22.53 13.041 22.53 12.959 22.395 12.872 22.271 12.782 22.151 12.69 22.041 12.593 21.942 12.496 21.847 12.393 21.76 12.289 21.68 12.184 21.608 12.077 21.543 11.967 21.484 11.855 21.434 11.746 21.389 11.634 21.349 11.519 21.317 11.407 21.292 11.292 21.269 11.18 21.257 11.068 21.247 10.956 21.245 10.847 21.245 10.737 21.252 10.627 21.264 10.52 21.282 10.418 21.302 10.316 21.329 10.216 21.359 10.119 21.394 10.024 21.431 9.935 21.474 9.847 21.521 9.763 21.571 9.606 21.675 9.471 21.78 9.352 21.885 9.25 21.987 9.165 22.089 9.095 22.191 9.04 22.288 9 22.385 8.973 22.48 8.958 22.57 8.953 22.659 8.96 22.744 8.978 22.826 9.002 22.906 9.035 22.981 9.077 23.053 9.125 23.12 9.177 23.183 9.234 23.24 9.296 23.292 9.359 23.34 9.426 23.382 9.496 23.417 9.563 23.447 9.633 23.472 9.7 23.489 9.765 23.499 9.827 23.501 9.885 23.499 9.939 23.487 9.989 23.469 10.031 23.442 10.031 23.442 9.964 23.404 9.892 23.36 9.82 23.307 9.747 23.25 9.68 23.188 9.62 23.118 9.568 23.046 9.528 22.969 9.503 22.886 9.495 22.802 9.51 22.714 9.545 22.625 9.608 22.533 9.697 22.44 9.819 22.346 9.974 22.251 10.038 22.219 10.105 22.186 10.173 22.161 10.24 22.139 10.31 22.119 10.382 22.102 10.454 22.089 10.527 22.082 10.599 22.077 10.671 22.074 10.746 22.077 10.82 22.084 10.895 22.094 10.968 22.107 11.042 22.124 11.117 22.144 11.189 22.171 11.261 22.199 11.334 22.231 11.406 22.269 11.476 22.309 11.546 22.353 11.613 22.401 11.68 22.453 11.745 22.51 11.809 22.57 11.872 22.635 11.932 22.702 11.992 22.777 12.046 22.852 12.101 22.934 12.153 23.019 12.2 23.106 12.245 23.193 12.283 23.278 12.318 23.365 12.348 23.449 12.373 23.534 12.393 23.619 12.408 23.703 12.42 23.786 12.427 23.865 12.43 23.947 12.43 24.025 12.425 24.104 12.418 24.179 12.406 24.256 12.391 24.328 12.371 24.401 12.348 24.47 12.321 24.54 12.291 24.605 12.258 24.67 12.224 24.732 12.184 24.794 12.141 24.852 12.097 24.906 12.049 24.961 11.999 25.011 11.945 25.058 11.89 25.103 11.832 25.146 11.77 25.186 11.708 25.223 11.543 25.303 11.399 25.355 11.269 25.382 11.157 25.384 11.06 25.369 10.976 25.334 10.903 25.285 10.846 25.222 10.796 25.15 10.759 25.07 10.729 24.983 10.709 24.896 10.694 24.806 10.686 24.719 10.683 24.637 10.683 24.562 10.683 24.562 10.638 24.585 10.596 24.615 10.559 24.654 10.524 24.702 10.496 24.754 10.471 24.814 10.451 24.879 10.439 24.949 10.429 25.021 10.427 25.095 10.429 25.173 10.437 25.25 10.452 25.33 10.474 25.407 10.501 25.481 10.536 25.556 10.579 25.626 10.629 25.693 10.683 25.755 10.748 25.81 10.82 25.86 10.903 25.905 10.99 25.937 11.087 25.965 11.194 25.98 11.309 25.985 11.433 25.98 11.568 25.96 11.71 25.93 11.864 25.883 12.026 25.823 12.2 25.748 12.288 25.703 12.372 25.656 12.457 25.603 12.539 25.544 12.619 25.481 12.699 25.414 12.773 25.342 12.846 25.267 12.915 25.188 12.983 25.105 13.045 25.018 13.102 24.926 13.157 24.831 13.207 24.734 13.252 24.632 13.294 24.527 13.329 24.42 13.356 24.311 13.381 24.196 13.399 24.081 13.411 23.962 13.413 23.842 13.413 23.718 13.403 23.593 13.386 23.466 13.361 23.337 13.329 23.205 13.289 23.073 13.242 22.938 13.182 22.804 13.117 22.667 13.04 22.53 13.04 22.53 13.04 22.53"/>
      <polygon fill="#231F20" fill-rule="nonzero" points="12.996 22.557 13.041 22.53 13.041 22.53 13.041 22.53 13.041 22.53 13.086 22.502 12.996 22.557 12.996 22.557"/>
      <polygon fill="#231F20" fill-rule="nonzero" points="12.179 25.701 12.179 25.701 12.264 25.659 12.346 25.611 12.428 25.562 12.508 25.502 12.588 25.442 12.665 25.374 12.737 25.305 12.809 25.233 12.877 25.153 12.942 25.073 13.004 24.989 13.059 24.899 13.113 24.807 13.161 24.712 13.206 24.613 13.246 24.51 13.281 24.406 13.308 24.299 13.33 24.187 13.348 24.074 13.36 23.96 13.362 23.843 13.362 23.721 13.352 23.599 13.335 23.474 13.31 23.347 13.28 23.217 13.24 23.088 13.195 22.958 13.136 22.826 13.071 22.692 12.996 22.557 13.086 22.503 13.166 22.642 13.23 22.782 13.29 22.919 13.34 23.058 13.38 23.193 13.415 23.327 13.439 23.459 13.457 23.589 13.467 23.716 13.467 23.843 13.464 23.965 13.452 24.089 13.434 24.207 13.407 24.324 13.38 24.436 13.344 24.545 13.3 24.652 13.255 24.757 13.203 24.857 13.148 24.954 13.088 25.049 13.026 25.138 12.956 25.223 12.884 25.302 12.811 25.38 12.734 25.454 12.652 25.522 12.572 25.586 12.488 25.646 12.4 25.701 12.313 25.748 12.224 25.796 12.224 25.796 12.179 25.701 12.179 25.701"/>
      <polygon fill="#231F20" fill-rule="nonzero" points="10.667 24.513 10.739 24.488 10.736 24.565 10.632 24.56 10.701 24.612 10.666 24.63 10.632 24.655 10.599 24.687 10.569 24.729 10.544 24.777 10.522 24.832 10.502 24.891 10.492 24.956 10.482 25.026 10.48 25.096 10.482 25.17 10.489 25.243 10.501 25.317 10.524 25.392 10.549 25.462 10.581 25.531 10.621 25.596 10.668 25.661 10.721 25.719 10.781 25.768 10.848 25.816 10.925 25.858 11.005 25.888 11.097 25.913 11.199 25.928 11.309 25.933 11.428 25.928 11.558 25.908 11.697 25.88 11.847 25.833 12.006 25.776 12.178 25.701 12.223 25.796 12.046 25.87 11.882 25.933 11.722 25.98 11.578 26.013 11.438 26.032 11.309 26.037 11.189 26.032 11.077 26.018 10.975 25.988 10.88 25.953 10.793 25.905 10.716 25.853 10.646 25.793 10.589 25.726 10.537 25.656 10.492 25.582 10.454 25.502 10.424 25.422 10.402 25.342 10.385 25.258 10.377 25.175 10.375 25.096 10.377 25.016 10.387 24.942 10.402 24.867 10.421 24.797 10.449 24.732 10.479 24.675 10.518 24.622 10.561 24.575 10.611 24.54 10.666 24.513 10.736 24.565 10.666 24.513 10.666 24.513"/>
      <polygon fill="#231F20" fill-rule="nonzero" points="10.667 24.513 10.739 24.488 10.736 24.565 10.632 24.56 10.684 24.562 10.684 24.562 10.684 24.562 10.684 24.562 10.736 24.564 10.666 24.512 10.666 24.512"/>
      <polygon fill="#231F20" fill-rule="nonzero" points="11.733 25.267 11.733 25.267 11.564 25.35 11.414 25.405 11.277 25.434 11.155 25.437 11.048 25.42 10.951 25.38 10.869 25.325 10.806 25.256 10.752 25.176 10.712 25.091 10.679 24.999 10.657 24.907 10.642 24.815 10.635 24.722 10.633 24.638 10.633 24.561 10.737 24.566 10.737 24.638 10.74 24.718 10.747 24.8 10.762 24.887 10.78 24.969 10.807 25.051 10.842 25.126 10.887 25.191 10.94 25.246 11.002 25.29 11.074 25.32 11.161 25.333 11.263 25.331 11.385 25.306 11.525 25.256 11.684 25.179 11.684 25.179 11.734 25.268 11.734 25.268"/>
      <polygon fill="#231F20" fill-rule="nonzero" points="12.199 22.991 12.199 22.991 12.249 23.08 12.294 23.17 12.331 23.257 12.368 23.347 12.398 23.434 12.423 23.521 12.446 23.608 12.461 23.696 12.473 23.778 12.481 23.862 12.484 23.947 12.484 24.027 12.479 24.109 12.472 24.186 12.46 24.266 12.442 24.34 12.422 24.415 12.4 24.487 12.37 24.56 12.34 24.627 12.307 24.694 12.27 24.759 12.228 24.824 12.185 24.884 12.138 24.938 12.088 24.996 12.036 25.048 11.979 25.098 11.924 25.145 11.864 25.188 11.799 25.23 11.734 25.267 11.684 25.178 11.744 25.14 11.804 25.103 11.859 25.06 11.914 25.018 11.966 24.973 12.014 24.926 12.058 24.874 12.101 24.819 12.143 24.764 12.18 24.704 12.213 24.644 12.245 24.582 12.275 24.52 12.3 24.453 12.322 24.385 12.343 24.316 12.355 24.246 12.367 24.171 12.375 24.099 12.38 24.022 12.38 23.947 12.378 23.867 12.37 23.793 12.358 23.71 12.343 23.628 12.325 23.546 12.301 23.464 12.271 23.382 12.238 23.297 12.201 23.215 12.156 23.13 12.111 23.045 12.111 23.045 12.201 22.99 12.201 22.99"/>
      <polygon fill="#231F20" fill-rule="nonzero" points="9.949 22.206 9.949 22.206 10.017 22.171 10.086 22.139 10.156 22.111 10.226 22.089 10.298 22.069 10.373 22.049 10.448 22.036 10.522 22.029 10.597 22.024 10.672 22.022 10.749 22.024 10.826 22.031 10.904 22.041 10.978 22.054 11.055 22.074 11.132 22.094 11.207 22.121 11.282 22.151 11.357 22.184 11.431 22.223 11.504 22.263 11.576 22.311 11.643 22.358 11.713 22.413 11.78 22.47 11.847 22.532 11.91 22.6 11.972 22.669 12.034 22.744 12.089 22.821 12.146 22.906 12.198 22.991 12.109 23.046 12.057 22.961 12.004 22.881 11.95 22.809 11.892 22.734 11.835 22.669 11.772 22.607 11.71 22.55 11.648 22.492 11.583 22.443 11.516 22.395 11.449 22.353 11.381 22.313 11.312 22.278 11.242 22.246 11.172 22.221 11.103 22.193 11.03 22.173 10.958 22.159 10.888 22.146 10.816 22.136 10.744 22.129 10.671 22.126 10.602 22.129 10.532 22.134 10.462 22.141 10.392 22.154 10.323 22.169 10.255 22.189 10.191 22.211 10.126 22.233 10.061 22.266 9.999 22.296 9.999 22.296 9.949 22.206 9.949 22.206"/>
      <polygon fill="#231F20" fill-rule="nonzero" points="10.057 23.394 10.126 23.432 10.064 23.481 9.999 23.402 10.007 23.489 9.937 23.449 9.863 23.402 9.788 23.349 9.713 23.29 9.643 23.225 9.581 23.15 9.524 23.073 9.481 22.988 9.451 22.896 9.444 22.799 9.462 22.699 9.502 22.599 9.569 22.5 9.664 22.4 9.791 22.303 9.95 22.206 10 22.296 9.851 22.388 9.733 22.48 9.649 22.565 9.592 22.649 9.562 22.729 9.549 22.804 9.556 22.876 9.576 22.948 9.613 23.018 9.661 23.085 9.718 23.15 9.783 23.21 9.853 23.265 9.922 23.317 9.992 23.359 10.057 23.394 10.065 23.481 10.057 23.394 10.057 23.394"/>
      <polygon fill="#231F20" fill-rule="nonzero" points="10.057 23.394 10.126 23.432 10.064 23.481 9.999 23.402 10.032 23.442 10.032 23.442 10.032 23.442 10.032 23.442 10.064 23.482 10.056 23.394 10.056 23.394"/>
      <polygon fill="#231F20" fill-rule="nonzero" points="9.79 21.615 9.79 21.615 9.636 21.718 9.504 21.82 9.386 21.922 9.287 22.022 9.207 22.121 9.14 22.218 9.088 22.311 9.05 22.403 9.023 22.492 9.011 22.574 9.006 22.659 9.014 22.736 9.028 22.814 9.053 22.888 9.083 22.956 9.123 23.025 9.168 23.088 9.215 23.148 9.27 23.202 9.33 23.252 9.389 23.297 9.452 23.337 9.519 23.369 9.584 23.399 9.649 23.422 9.711 23.437 9.771 23.447 9.828 23.449 9.878 23.447 9.925 23.437 9.968 23.422 10 23.402 10.065 23.481 10.012 23.516 9.955 23.536 9.893 23.551 9.828 23.553 9.761 23.551 9.691 23.541 9.619 23.521 9.544 23.494 9.475 23.464 9.402 23.427 9.33 23.382 9.265 23.332 9.201 23.277 9.141 23.217 9.083 23.152 9.033 23.08 8.989 23.006 8.954 22.923 8.929 22.839 8.909 22.751 8.901 22.659 8.906 22.565 8.923 22.468 8.951 22.368 8.993 22.266 9.05 22.164 9.123 22.057 9.212 21.952 9.317 21.847 9.439 21.74 9.576 21.633 9.735 21.526 9.735 21.526 9.79 21.615 9.79 21.615"/>
      <polygon fill="#231F20" fill-rule="nonzero" points="12.996 22.557 12.996 22.555 12.914 22.423 12.829 22.301 12.742 22.184 12.65 22.077 12.555 21.98 12.46 21.888 12.361 21.801 12.259 21.723 12.157 21.653 12.052 21.589 11.945 21.532 11.835 21.482 11.728 21.439 11.618 21.399 11.506 21.367 11.397 21.345 11.285 21.322 11.175 21.31 11.065 21.3 10.956 21.298 10.849 21.298 10.742 21.305 10.635 21.317 10.53 21.335 10.43 21.352 10.331 21.379 10.234 21.409 10.136 21.444 10.044 21.479 9.957 21.521 9.872 21.566 9.79 21.616 9.735 21.527 9.823 21.477 9.912 21.427 10.005 21.384 10.102 21.345 10.199 21.31 10.301 21.28 10.406 21.252 10.51 21.23 10.62 21.212 10.732 21.2 10.844 21.193 10.956 21.193 11.071 21.195 11.185 21.205 11.3 21.217 11.417 21.24 11.532 21.267 11.649 21.3 11.763 21.339 11.875 21.387 11.99 21.437 12.102 21.499 12.212 21.564 12.319 21.639 12.426 21.721 12.53 21.808 12.63 21.905 12.73 22.007 12.822 22.119 12.914 22.241 13.004 22.368 13.086 22.505 13.086 22.503 12.996 22.558 12.996 22.558"/>
      <polygon fill="#231F20" fill-rule="nonzero" points="12.996 22.557 13.041 22.53 13.041 22.53 13.041 22.53 13.041 22.53 13.086 22.502 12.996 22.557 12.996 22.557"/>
      <polygon fill="#ED192D" points="9.915 25.335 9.969 25.333 10.022 25.326 10.074 25.311 10.124 25.294 10.171 25.271 10.216 25.246 10.258 25.216 10.296 25.181 10.331 25.144 10.363 25.104 10.39 25.059 10.413 25.014 10.43 24.967 10.445 24.915 10.452 24.862 10.455 24.81 10.452 24.758 10.445 24.705 10.43 24.656 10.413 24.606 10.39 24.561 10.363 24.519 10.331 24.476 10.296 24.439 10.258 24.406 10.216 24.377 10.171 24.349 10.124 24.327 10.074 24.309 10.022 24.297 9.969 24.29 9.915 24.288 9.86 24.29 9.808 24.297 9.755 24.309 9.705 24.327 9.658 24.349 9.613 24.377 9.571 24.406 9.534 24.439 9.499 24.476 9.466 24.519 9.439 24.561 9.416 24.606 9.399 24.656 9.384 24.705 9.377 24.758 9.374 24.81 9.377 24.862 9.384 24.915 9.399 24.967 9.416 25.014 9.439 25.059 9.466 25.104 9.499 25.144 9.534 25.181 9.571 25.216 9.613 25.246 9.658 25.271 9.705 25.294 9.755 25.311 9.808 25.326 9.86 25.333"/>
      <polygon fill="#231F20" fill-rule="nonzero" points="9.426 24.809 9.426 24.809 9.428 24.857 9.436 24.904 9.449 24.951 9.464 24.994 9.484 25.033 9.508 25.073 9.538 25.108 9.571 25.143 9.603 25.175 9.641 25.2 9.683 25.223 9.725 25.245 9.77 25.26 9.817 25.273 9.865 25.28 9.915 25.282 9.915 25.386 9.855 25.384 9.797 25.377 9.74 25.36 9.685 25.34 9.633 25.318 9.585 25.29 9.538 25.255 9.496 25.218 9.458 25.178 9.424 25.133 9.394 25.083 9.369 25.034 9.349 24.981 9.332 24.924 9.324 24.866 9.321 24.809 9.321 24.809 9.425 24.809"/>
      <polygon fill="#231F20" fill-rule="nonzero" points="9.915 24.338 9.915 24.338 9.865 24.34 9.817 24.347 9.77 24.357 9.725 24.372 9.683 24.392 9.641 24.417 9.603 24.445 9.571 24.475 9.538 24.509 9.508 24.547 9.484 24.584 9.464 24.624 9.449 24.669 9.434 24.714 9.429 24.761 9.427 24.809 9.322 24.809 9.325 24.751 9.335 24.694 9.35 24.639 9.37 24.584 9.395 24.535 9.425 24.487 9.46 24.44 9.497 24.4 9.539 24.365 9.587 24.333 9.634 24.303 9.686 24.278 9.741 24.258 9.798 24.243 9.856 24.236 9.916 24.233 9.916 24.233 9.916 24.338"/>
      <polygon fill="#231F20" fill-rule="nonzero" points="10.403 24.809 10.403 24.809 10.401 24.762 10.396 24.714 10.381 24.67 10.366 24.625 10.346 24.585 10.321 24.547 10.291 24.51 10.259 24.475 10.226 24.445 10.189 24.418 10.147 24.393 10.104 24.373 10.059 24.358 10.012 24.348 9.965 24.341 9.915 24.339 9.915 24.234 9.975 24.237 10.032 24.244 10.089 24.259 10.144 24.279 10.196 24.304 10.244 24.334 10.291 24.366 10.333 24.401 10.371 24.441 10.406 24.489 10.436 24.536 10.461 24.586 10.481 24.64 10.496 24.695 10.506 24.753 10.509 24.81 10.509 24.81 10.404 24.81"/>
      <polygon fill="#231F20" fill-rule="nonzero" points="9.915 25.282 9.915 25.282 9.964 25.28 10.012 25.273 10.059 25.261 10.104 25.246 10.146 25.224 10.189 25.201 10.226 25.176 10.259 25.144 10.291 25.109 10.321 25.074 10.346 25.034 10.366 24.994 10.381 24.952 10.393 24.905 10.401 24.857 10.403 24.81 10.508 24.81 10.505 24.867 10.498 24.925 10.481 24.982 10.461 25.034 10.436 25.084 10.406 25.134 10.371 25.179 10.333 25.219 10.291 25.256 10.244 25.291 10.196 25.318 10.144 25.341 10.089 25.361 10.032 25.378 9.975 25.385 9.915 25.387 9.915 25.387 9.915 25.283"/>
      <polygon fill="#ED192D" points="11.397 27.059 11.452 27.057 11.504 27.05 11.556 27.037 11.606 27.017 11.654 26.997 11.698 26.97 11.741 26.94 11.778 26.905 11.813 26.87 11.845 26.828 11.873 26.786 11.895 26.741 11.913 26.691 11.927 26.641 11.935 26.589 11.938 26.536 11.935 26.484 11.927 26.432 11.913 26.382 11.895 26.334 11.873 26.29 11.845 26.245 11.813 26.205 11.778 26.167 11.741 26.135 11.698 26.105 11.654 26.078 11.606 26.055 11.556 26.038 11.504 26.025 11.452 26.017 11.397 26.014 11.342 26.017 11.29 26.025 11.237 26.038 11.188 26.055 11.14 26.078 11.095 26.105 11.053 26.135 11.016 26.167 10.981 26.205 10.948 26.245 10.921 26.29 10.899 26.334 10.881 26.382 10.866 26.432 10.859 26.484 10.856 26.536 10.859 26.589 10.866 26.641 10.881 26.691 10.899 26.741 10.921 26.786 10.948 26.828 10.981 26.87 11.016 26.905 11.053 26.94 11.095 26.97 11.14 26.997 11.188 27.017 11.237 27.037 11.29 27.05 11.342 27.057"/>
      <polygon fill="#231F20" fill-rule="nonzero" points="10.909 26.535 10.909 26.535 10.911 26.583 10.916 26.63 10.931 26.675 10.946 26.72 10.966 26.76 10.99 26.797 11.02 26.835 11.053 26.867 11.085 26.9 11.123 26.927 11.165 26.949 11.207 26.969 11.252 26.987 11.299 26.997 11.347 27.004 11.397 27.007 11.397 27.111 11.337 27.108 11.279 27.101 11.222 27.086 11.167 27.064 11.115 27.044 11.068 27.012 11.02 26.979 10.978 26.942 10.941 26.905 10.906 26.857 10.876 26.81 10.851 26.76 10.831 26.705 10.816 26.65 10.806 26.593 10.804 26.536 10.804 26.536 10.909 26.536"/>
      <polygon fill="#231F20" fill-rule="nonzero" points="11.397 26.067 11.397 26.067 11.347 26.069 11.3 26.076 11.252 26.086 11.207 26.101 11.165 26.121 11.123 26.146 11.085 26.173 11.053 26.203 11.021 26.238 10.991 26.273 10.966 26.313 10.946 26.353 10.931 26.398 10.916 26.44 10.911 26.487 10.909 26.535 10.804 26.535 10.806 26.478 10.816 26.42 10.831 26.363 10.851 26.313 10.876 26.263 10.906 26.213 10.941 26.168 10.978 26.128 11.02 26.094 11.068 26.061 11.115 26.031 11.167 26.006 11.222 25.987 11.279 25.972 11.337 25.965 11.397 25.963 11.397 25.963 11.397 26.067"/>
      <polygon fill="#231F20" fill-rule="nonzero" points="11.885 26.535 11.885 26.535 11.883 26.488 11.878 26.441 11.863 26.398 11.848 26.354 11.828 26.314 11.803 26.274 11.773 26.239 11.741 26.204 11.709 26.174 11.671 26.147 11.629 26.122 11.587 26.102 11.542 26.087 11.494 26.077 11.447 26.07 11.397 26.068 11.397 25.963 11.457 25.965 11.514 25.972 11.572 25.987 11.627 26.007 11.679 26.032 11.726 26.062 11.773 26.095 11.816 26.129 11.853 26.169 11.888 26.214 11.918 26.264 11.943 26.314 11.963 26.364 11.978 26.421 11.988 26.478 11.991 26.535 11.991 26.535 11.886 26.535"/>
      <polygon fill="#231F20" fill-rule="nonzero" points="11.397 27.006 11.397 27.006 11.447 27.003 11.494 26.996 11.541 26.986 11.586 26.969 11.629 26.949 11.671 26.927 11.708 26.899 11.741 26.867 11.773 26.834 11.803 26.797 11.828 26.76 11.848 26.72 11.863 26.675 11.878 26.63 11.883 26.583 11.885 26.535 11.989 26.535 11.986 26.593 11.976 26.65 11.962 26.705 11.942 26.76 11.917 26.809 11.887 26.857 11.852 26.904 11.814 26.942 11.772 26.979 11.725 27.011 11.677 27.044 11.625 27.064 11.57 27.086 11.513 27.101 11.456 27.108 11.396 27.111 11.396 27.111 11.396 27.006"/>
      <polygon fill="#ED192D" points="8.28 23.773 8.206 23.77 8.131 23.758 8.061 23.74 7.994 23.715 7.929 23.685 7.869 23.65 7.812 23.608 7.76 23.563 7.713 23.511 7.67 23.456 7.633 23.396 7.6 23.334 7.576 23.269 7.558 23.199 7.548 23.127 7.543 23.055 7.548 22.983 7.558 22.91 7.576 22.841 7.6 22.776 7.633 22.713 7.67 22.654 7.713 22.599 7.76 22.546 7.812 22.502 7.869 22.459 7.929 22.424 7.994 22.395 8.061 22.37 8.131 22.352 8.206 22.34 8.28 22.337 8.358 22.34 8.43 22.352 8.502 22.37 8.569 22.395 8.634 22.424 8.694 22.459 8.751 22.502 8.804 22.546 8.851 22.599 8.893 22.654 8.931 22.713 8.961 22.776 8.986 22.841 9.003 22.91 9.013 22.983 9.018 23.055 9.013 23.127 9.003 23.199 8.986 23.269 8.961 23.334 8.931 23.396 8.893 23.456 8.851 23.511 8.804 23.563 8.751 23.608 8.694 23.65 8.634 23.685 8.569 23.715 8.502 23.74 8.43 23.758 8.358 23.77"/>
      <polygon fill="#231F20" fill-rule="nonzero" points="9.07 23.055 9.07 23.055 9.065 23.133 9.055 23.21 9.035 23.285 9.008 23.354 8.975 23.422 8.936 23.486 8.891 23.544 8.841 23.601 8.784 23.648 8.721 23.693 8.659 23.733 8.589 23.763 8.517 23.79 8.44 23.81 8.363 23.823 8.28 23.825 8.28 23.72 8.353 23.718 8.42 23.706 8.487 23.691 8.549 23.668 8.609 23.638 8.667 23.609 8.719 23.569 8.766 23.526 8.811 23.479 8.851 23.427 8.886 23.372 8.913 23.315 8.936 23.255 8.951 23.19 8.961 23.123 8.966 23.055 8.966 23.055 9.07 23.055"/>
      <polygon fill="#231F20" fill-rule="nonzero" points="8.28 22.286 8.28 22.286 8.363 22.288 8.44 22.3 8.517 22.32 8.589 22.347 8.659 22.377 8.721 22.417 8.784 22.462 8.841 22.509 8.891 22.567 8.936 22.624 8.975 22.689 9.008 22.756 9.035 22.826 9.055 22.901 9.065 22.978 9.07 23.055 8.966 23.055 8.961 22.988 8.951 22.92 8.936 22.856 8.913 22.796 8.886 22.739 8.851 22.684 8.811 22.631 8.766 22.584 8.719 22.542 8.666 22.502 8.609 22.472 8.549 22.442 8.487 22.42 8.42 22.405 8.353 22.392 8.28 22.39 8.28 22.39 8.28 22.285"/>
      <polygon fill="#231F20" fill-rule="nonzero" points="7.491 23.055 7.491 23.055 7.496 22.978 7.506 22.901 7.526 22.826 7.553 22.754 7.588 22.689 7.628 22.625 7.673 22.567 7.722 22.51 7.78 22.463 7.842 22.418 7.904 22.378 7.974 22.348 8.047 22.321 8.121 22.301 8.201 22.288 8.281 22.286 8.281 22.391 8.211 22.393 8.141 22.405 8.076 22.42 8.014 22.443 7.954 22.473 7.897 22.503 7.844 22.543 7.797 22.585 7.752 22.632 7.713 22.684 7.678 22.739 7.648 22.799 7.625 22.856 7.61 22.921 7.6 22.988 7.595 23.056 7.595 23.056 7.491 23.056"/>
      <polygon fill="#231F20" fill-rule="nonzero" points="8.28 23.825 8.28 23.825 8.201 23.823 8.121 23.811 8.046 23.791 7.974 23.763 7.904 23.734 7.842 23.694 7.78 23.649 7.722 23.601 7.672 23.544 7.628 23.487 7.588 23.422 7.553 23.357 7.525 23.285 7.505 23.21 7.495 23.133 7.49 23.056 7.595 23.056 7.6 23.123 7.61 23.191 7.625 23.255 7.647 23.312 7.677 23.372 7.712 23.427 7.752 23.479 7.797 23.527 7.844 23.569 7.897 23.609 7.954 23.639 8.014 23.669 8.076 23.691 8.141 23.706 8.21 23.719 8.28 23.721 8.28 23.721 8.28 23.825"/>
      <polygon fill="#ED192D" points="8.285 22.246 8.221 22.241 8.159 22.228 8.099 22.208 8.041 22.181 7.987 22.146 7.934 22.104 7.887 22.054 7.842 22.002 7.802 21.942 7.767 21.877 7.735 21.807 7.71 21.735 7.688 21.658 7.673 21.578 7.663 21.493 7.661 21.409 7.663 21.324 7.673 21.239 7.688 21.16 7.71 21.085 7.735 21.01 7.767 20.943 7.802 20.878 7.842 20.819 7.887 20.766 7.934 20.717 7.987 20.674 8.041 20.639 8.099 20.612 8.159 20.592 8.221 20.579 8.285 20.574 8.348 20.579 8.41 20.592 8.47 20.612 8.527 20.639 8.579 20.674 8.632 20.717 8.679 20.766 8.722 20.819 8.761 20.878 8.799 20.943 8.829 21.01 8.856 21.085 8.876 21.16 8.891 21.239 8.901 21.324 8.904 21.409 8.901 21.493 8.891 21.578 8.876 21.658 8.856 21.735 8.829 21.807 8.799 21.877 8.761 21.942 8.722 22.002 8.679 22.054 8.632 22.104 8.579 22.146 8.527 22.181 8.47 22.208 8.41 22.228 8.348 22.241"/>
      <polygon fill="#231F20" fill-rule="nonzero" points="8.956 21.409 8.956 21.409 8.954 21.496 8.944 21.586 8.926 21.67 8.906 21.75 8.876 21.827 8.846 21.9 8.806 21.969 8.764 22.032 8.719 22.089 8.667 22.141 8.61 22.189 8.552 22.226 8.49 22.256 8.423 22.278 8.356 22.293 8.286 22.298 8.286 22.193 8.341 22.188 8.398 22.178 8.45 22.161 8.503 22.136 8.55 22.103 8.597 22.066 8.639 22.019 8.679 21.971 8.717 21.914 8.752 21.854 8.782 21.787 8.806 21.72 8.826 21.645 8.839 21.57 8.849 21.491 8.851 21.408 8.851 21.408 8.955 21.408"/>
      <polygon fill="#231F20" fill-rule="nonzero" points="8.285 20.522 8.285 20.522 8.355 20.527 8.422 20.542 8.49 20.564 8.552 20.594 8.609 20.632 8.667 20.679 8.719 20.731 8.764 20.789 8.806 20.851 8.846 20.918 8.876 20.99 8.906 21.07 8.926 21.147 8.943 21.232 8.953 21.322 8.955 21.409 8.85 21.409 8.848 21.327 8.838 21.247 8.826 21.172 8.806 21.1 8.781 21.03 8.751 20.968 8.716 20.906 8.679 20.848 8.639 20.801 8.597 20.754 8.549 20.716 8.502 20.684 8.45 20.659 8.398 20.641 8.34 20.631 8.285 20.626 8.285 20.626 8.285 20.522"/>
      <polygon fill="#231F20" fill-rule="nonzero" points="7.608 21.409 7.608 21.409 7.611 21.322 7.621 21.232 7.638 21.147 7.661 21.07 7.688 20.991 7.72 20.918 7.758 20.851 7.8 20.786 7.847 20.731 7.9 20.679 7.957 20.632 8.017 20.594 8.079 20.564 8.147 20.542 8.214 20.527 8.286 20.522 8.286 20.627 8.228 20.632 8.171 20.642 8.119 20.659 8.067 20.684 8.017 20.717 7.97 20.754 7.927 20.801 7.885 20.851 7.847 20.906 7.815 20.968 7.782 21.031 7.76 21.1 7.738 21.172 7.726 21.247 7.715 21.327 7.713 21.409 7.713 21.409 7.609 21.409"/>
      <polygon fill="#231F20" fill-rule="nonzero" points="8.285 22.298 8.285 22.298 8.213 22.293 8.146 22.278 8.079 22.256 8.016 22.226 7.957 22.189 7.899 22.141 7.847 22.089 7.799 22.034 7.757 21.969 7.72 21.9 7.688 21.827 7.66 21.75 7.638 21.67 7.62 21.586 7.61 21.496 7.607 21.409 7.712 21.409 7.714 21.491 7.724 21.571 7.736 21.645 7.759 21.72 7.781 21.788 7.813 21.855 7.846 21.915 7.883 21.969 7.926 22.019 7.968 22.067 8.016 22.104 8.065 22.136 8.118 22.161 8.17 22.179 8.227 22.189 8.284 22.194 8.284 22.194 8.284 22.299"/>
      <polygon fill="#ED192D" points="9.24 19.986 7.326 19.986 7.284 19.981 7.244 19.971 7.209 19.951 7.177 19.926 7.152 19.897 7.135 19.862 7.122 19.822 7.117 19.782 7.117 19.782 7.122 19.739 7.135 19.7 7.152 19.665 7.177 19.632 7.209 19.607 7.244 19.59 7.284 19.577 7.326 19.572 9.24 19.572 9.282 19.577 9.319 19.59 9.354 19.607 9.386 19.632 9.411 19.665 9.431 19.7 9.441 19.739 9.446 19.782 9.446 19.782 9.441 19.822 9.431 19.862 9.411 19.897 9.386 19.926 9.354 19.951 9.319 19.971 9.282 19.981"/>
      <polygon fill="#231F20" fill-rule="nonzero" points="9.499 19.782 9.499 19.782 9.494 19.832 9.479 19.882 9.454 19.927 9.424 19.964 9.384 19.994 9.339 20.019 9.292 20.034 9.24 20.039 9.24 19.934 9.272 19.929 9.299 19.924 9.324 19.909 9.349 19.889 9.369 19.867 9.384 19.842 9.389 19.812 9.394 19.782 9.394 19.782 9.499 19.782"/>
      <polygon fill="#231F20" fill-rule="nonzero" points="9.499 19.782 9.446 19.782 9.446 19.782 9.446 19.782 9.446 19.782 9.394 19.782 9.499 19.782"/>
      <polygon fill="#231F20" fill-rule="nonzero" points="9.24 19.52 9.24 19.52 9.292 19.525 9.339 19.543 9.382 19.563 9.424 19.595 9.454 19.635 9.479 19.68 9.494 19.73 9.499 19.782 9.394 19.782 9.389 19.75 9.384 19.72 9.369 19.695 9.349 19.67 9.327 19.653 9.299 19.638 9.272 19.631 9.24 19.626 9.24 19.626 9.24 19.521"/>
      <polygon fill="#231F20" fill-rule="nonzero" points="7.326 19.52 7.326 19.52 9.24 19.52 9.24 19.625 7.326 19.625 7.326 19.625"/>
      <polygon fill="#231F20" fill-rule="nonzero" points="7.065 19.782 7.065 19.782 7.07 19.73 7.087 19.68 7.107 19.637 7.139 19.595 7.182 19.563 7.224 19.543 7.274 19.525 7.326 19.52 7.326 19.625 7.294 19.63 7.264 19.637 7.237 19.652 7.214 19.669 7.197 19.692 7.182 19.719 7.175 19.749 7.17 19.781 7.17 19.781 7.065 19.781"/>
      <polygon fill="#231F20" fill-rule="nonzero" points="7.065 19.782 7.117 19.782 7.117 19.782 7.117 19.782 7.117 19.782 7.169 19.782 7.065 19.782"/>
      <polygon fill="#231F20" fill-rule="nonzero" points="7.326 20.039 7.326 20.039 7.274 20.034 7.224 20.019 7.179 19.994 7.139 19.964 7.107 19.924 7.087 19.882 7.07 19.832 7.065 19.782 7.169 19.782 7.174 19.812 7.181 19.842 7.196 19.869 7.214 19.889 7.239 19.909 7.263 19.924 7.293 19.929 7.326 19.934 7.326 19.934 7.326 20.039"/>
      <polygon fill="#231F20" fill-rule="nonzero" points="9.24 20.039 9.24 20.039 7.326 20.039 7.326 19.934 9.24 19.934 9.24 19.934"/>
      <polygon fill="#ED192D" points="9.24 20.612 7.326 20.612 7.284 20.607 7.244 20.597 7.209 20.577 7.177 20.552 7.152 20.522 7.135 20.487 7.122 20.447 7.117 20.407 7.117 20.407 7.122 20.365 7.135 20.328 7.152 20.293 7.177 20.26 7.209 20.235 7.244 20.215 7.284 20.205 7.326 20.2 9.24 20.2 9.282 20.205 9.319 20.215 9.354 20.235 9.386 20.26 9.411 20.293 9.431 20.328 9.441 20.365 9.446 20.407 9.446 20.407 9.441 20.447 9.431 20.487 9.411 20.522 9.386 20.552 9.354 20.577 9.319 20.597 9.282 20.607"/>
      <polygon fill="#231F20" fill-rule="nonzero" points="9.499 20.407 9.499 20.407 9.494 20.457 9.479 20.507 9.454 20.552 9.424 20.589 9.384 20.619 9.339 20.644 9.292 20.659 9.24 20.664 9.24 20.559 9.272 20.554 9.299 20.549 9.324 20.534 9.349 20.514 9.369 20.492 9.384 20.467 9.389 20.437 9.394 20.407 9.394 20.407 9.499 20.407"/>
      <polygon fill="#231F20" fill-rule="nonzero" points="9.499 20.407 9.446 20.407 9.446 20.407 9.446 20.407 9.446 20.407 9.394 20.407 9.499 20.407"/>
      <polygon fill="#231F20" fill-rule="nonzero" points="9.24 20.148 9.24 20.148 9.292 20.153 9.339 20.168 9.384 20.193 9.424 20.223 9.454 20.263 9.479 20.308 9.494 20.355 9.499 20.407 9.394 20.407 9.389 20.375 9.384 20.348 9.369 20.323 9.349 20.298 9.324 20.278 9.299 20.263 9.272 20.258 9.24 20.253 9.24 20.253 9.24 20.148"/>
      <polygon fill="#231F20" fill-rule="nonzero" points="7.326 20.148 7.326 20.148 9.24 20.148 9.24 20.253 7.326 20.253 7.326 20.253"/>
      <polygon fill="#231F20" fill-rule="nonzero" points="7.065 20.407 7.065 20.407 7.07 20.355 7.087 20.308 7.107 20.265 7.139 20.223 7.179 20.193 7.224 20.168 7.274 20.153 7.326 20.148 7.326 20.253 7.294 20.258 7.264 20.263 7.239 20.278 7.214 20.298 7.197 20.32 7.182 20.347 7.175 20.375 7.17 20.407 7.17 20.407 7.065 20.407"/>
      <polygon fill="#231F20" fill-rule="nonzero" points="7.065 20.407 7.117 20.407 7.117 20.407 7.117 20.407 7.117 20.407 7.169 20.407 7.065 20.407"/>
      <polygon fill="#231F20" fill-rule="nonzero" points="7.326 20.664 7.326 20.664 7.274 20.659 7.224 20.644 7.179 20.619 7.139 20.589 7.107 20.549 7.087 20.507 7.07 20.457 7.065 20.407 7.169 20.407 7.174 20.437 7.181 20.467 7.196 20.494 7.214 20.514 7.239 20.534 7.263 20.549 7.293 20.554 7.326 20.559 7.326 20.559 7.326 20.664"/>
      <polygon fill="#231F20" fill-rule="nonzero" points="9.24 20.664 9.24 20.664 7.326 20.664 7.326 20.559 9.24 20.559 9.24 20.559"/>
      <polygon fill="#ED192D" points="9.431 20.345 7.132 20.345 7.082 20.34 7.035 20.325 6.995 20.303 6.958 20.273 6.928 20.235 6.905 20.193 6.89 20.146 6.885 20.096 6.885 20.096 6.89 20.046 6.905 19.999 6.928 19.959 6.958 19.921 6.995 19.891 7.035 19.869 7.082 19.854 7.132 19.849 9.431 19.849 9.481 19.854 9.529 19.869 9.568 19.891 9.606 19.921 9.636 19.959 9.658 19.999 9.673 20.046 9.678 20.096 9.678 20.096 9.673 20.146 9.658 20.193 9.636 20.235 9.606 20.273 9.568 20.303 9.529 20.325 9.481 20.34"/>
      <polygon fill="#231F20" fill-rule="nonzero" points="9.73 20.096 9.73 20.096 9.725 20.156 9.705 20.213 9.68 20.263 9.643 20.31 9.598 20.345 9.549 20.373 9.491 20.393 9.431 20.398 9.431 20.293 9.471 20.288 9.508 20.278 9.538 20.26 9.568 20.236 9.591 20.208 9.611 20.173 9.621 20.136 9.626 20.096 9.626 20.096 9.73 20.096"/>
      <polygon fill="#231F20" fill-rule="nonzero" points="9.73 20.096 9.678 20.096 9.678 20.096 9.678 20.096 9.678 20.096 9.626 20.096 9.73 20.096"/>
      <polygon fill="#231F20" fill-rule="nonzero" points="9.431 19.797 9.431 19.797 9.491 19.802 9.549 19.822 9.598 19.849 9.643 19.884 9.678 19.929 9.706 19.979 9.725 20.036 9.73 20.096 9.626 20.096 9.621 20.056 9.611 20.019 9.593 19.989 9.568 19.959 9.538 19.934 9.508 19.916 9.471 19.906 9.431 19.901 9.431 19.901 9.431 19.797"/>
      <polygon fill="#231F20" fill-rule="nonzero" points="7.132 19.797 7.132 19.797 9.431 19.797 9.431 19.902 7.132 19.902 7.132 19.902 7.132 19.797"/>
      <polygon fill="#231F20" fill-rule="nonzero" points="6.833 20.096 6.833 20.096 6.838 20.036 6.858 19.979 6.885 19.929 6.92 19.884 6.965 19.849 7.015 19.822 7.072 19.802 7.132 19.797 7.132 19.902 7.092 19.907 7.055 19.917 7.025 19.934 6.995 19.959 6.97 19.989 6.953 20.019 6.942 20.056 6.937 20.096 6.937 20.096 6.833 20.096"/>
      <polygon fill="#231F20" fill-rule="nonzero" points="6.833 20.096 6.886 20.096 6.886 20.096 6.886 20.096 6.886 20.096 6.938 20.096 6.833 20.096"/>
      <polygon fill="#231F20" fill-rule="nonzero" points="7.132 20.397 7.132 20.397 7.072 20.392 7.015 20.372 6.965 20.345 6.92 20.31 6.883 20.263 6.858 20.213 6.838 20.156 6.833 20.096 6.938 20.096 6.943 20.136 6.953 20.173 6.973 20.208 6.995 20.235 7.025 20.26 7.055 20.278 7.092 20.288 7.132 20.293 7.132 20.293 7.132 20.397"/>
      <polygon fill="#231F20" fill-rule="nonzero" points="9.431 20.397 9.431 20.397 7.132 20.397 7.132 20.293 9.431 20.293 9.431 20.293"/>
      <path stroke="#656263" stroke-width=".75" d="M0.51344,10.519575 L16.20619,10.527575 L16.20619,22.184075 C16.20619,25.908825 13.11906,29.593075 8.35307,29.593075 C3.93507,29.593075 0.47006,26.241825 0.50007,22.184075 L0.51347,10.519325 L0.51344,10.519575 Z"/>
      <text fill="#5A5758" font-family="Helvetica" font-size="8">
        <tspan x=".822" y="8.994">OW</tspan>
      </text>
    </g>
  </g>
</svg>
