<svg xmlns="http://www.w3.org/2000/svg" width="178" height="197" viewBox="0 0 178 197">
  <g fill="none" fill-rule="evenodd" transform="translate(.599 1.339)">
    <path fill="#FCCA6C" fill-rule="nonzero" stroke="#FCCA6C" stroke-width=".709" d="M146.14064,7.19237 C145.50677,7.319 138.34251,9.7915 137.58164,10.04537 C136.82051,10.299 136.01577,11.85024 136.01577,11.85024 L133.60914,13.41349 L130.57877,11.14512 L130.48237,8.43312 L127.76287,6.94512 L124.93237,10.03012 L123.82612,9.62887 L121.86174,10.91574 L120.60262,15.60574 L118.98425,15.88199 L118.48625,14.65062 L116.74275,12.90787 L115.29037,13.53049 L115.40112,9.25537 L113.45012,8.71612 L108.01412,9.10337 L108.27687,7.31862 L111.22337,4.02612 L109.06512,3.30687 L108.124,0 L98.95225,2.82249 L97.76262,3.196 L96.711,3.52837 L96.91824,5.33987 L94.027,6.23987 L95.23087,7.66449 L98.66162,7.62329 L100.97187,4.89742 L103.76637,6.90404 L102.07899,9.14455 L104.7505,12.22967 L100.26662,16.35217 L96.711,14.70617 L90.74812,17.43167 L89.04737,15.35654 L87.8435,15.55054 L82.18487,15.92392 L82.29575,13.19842 L75.72437,11.0123 L73.31774,8.99267 L71.45012,13.79355 L65.99937,14.96892 L58.36287,15.64717 L56.16287,12.00867 L51.21075,14.41555 L48.402,11.95329 L42.426,13.98654 L42.14887,18.38617 L46.02287,20.75179 L45.76,22.27392 L45.511,23.49104 L48.95525,24.47342 L52.88474,26.6038 L50.76774,27.42005 L47.91762,28.15354 L47.15712,29.96592 L44.68062,28.20892 L42.68849,30.62992 L40.1015,30.21455 L37.70824,31.99917 L38.45537,36.59267 L35.68837,37.57492 L34.7615,43.38505 L29.21375,48.07504 L35.35687,56.79117 L37.9155,64.71842 L35.97887,68.42555 L32.34062,69.24242 L28.19049,74.60992 L30.73562,76.33942 L28.2735,82.43992 L18.06387,84.94405 L15.06149,87.22729 L6.55349,85.82979 L2.66587,86.64567 L0.01,89.34354 L0,90.50379 L1.64825,92.91292 L4.31125,96.3368 L9.63688,97.6048 L21.04913,96.59042 L25.74101,95.57592 L29.55013,95.04892 L34.58588,95.15992 L36.27313,96.47355 L33.01663,100.54554 L33.956,105.16017 L35.6995,106.5823 L37.81925,105.22692 L42.78475,108.15867 L43.43925,108.49529 L52.16851,117.34905 L59.44363,120.62754 L62.11513,119.68767 L64.15888,119.97654 L67.33213,119.66905 L73.5455,120.55667 L80.43488,121.88917 L80.50438,124.26179 L81.22988,133.6973 L81.6455,138.95417 L79.252,140.65579 L70.71651,147.50429 L74.479,150.0913 L79.44513,151.23917 L82.86288,147.76692 L87.42763,148.92867 L90.48488,149.89729 L94.02651,159.11167 L91.91038,170.64904 L91.14901,173.84505 L94.82913,180.36117 L94.1095,183.58454 L97.65138,185.96392 L103.26813,185.5768 L113.15951,187.6243 L119.95238,188.4268 L128.01751,188.63417 L128.52901,189.11855 L133.93826,194.1263 L134.76863,194.9008 L137.34163,191.6638 L138.82175,190.07305 L138.60076,187.36142 L141.14588,184.2898 L144.3835,173.85867 L144.90938,171.20242 L148.76888,170.49742 L149.7235,165.44704 L154.03038,164.14692 L153.65351,163.58354 L149.04663,157.52355 L146.61225,154.3143 L145.2145,151.9073 L142.65538,147.45254 L141.272,145.47392 L139.59801,142.90104 L139.30751,142.15392 L139.11375,139.71954 L138.92063,137.07705 L143.36113,134.11617 L146.54263,131.99992 L146.68126,129.70317 L147.05476,123.04904 L146.62563,121.02917 L145.18701,116.93455 L144.02526,113.66979 L142.39251,110.70904 L140.70526,105.63192 L140.67756,100.85892 L141.13343,98.50754 L142.32368,95.8928 L142.50343,95.28429 L144.91093,88.36717 L146.4463,83.71905 L148.65968,77.05042 L148.95018,76.67692 L151.23268,74.2838 L152.65718,71.71067 L155.50718,66.52292 L159.74031,62.7873 L161.3453,56.72817 L162.0783,53.94792 L164.91456,50.29542 L166.90281,47.71042 L173.61205,46.61755 L176.5168,43.26979 L176.64155,39.96317 L172.07981,36.14317 L171.88693,32.58805 L170.35068,27.16442 L171.63368,24.76017 L172.60168,21.45355 L165.75443,20.54029 L165.07693,18.24417 L162.48993,17.44167 L161.72856,19.3373 L159.98605,18.63129 L157.73043,13.19504 L156.25031,12.17092 L153.64993,10.20655 L152.6193,5.48917 C152.6193,5.48917 146.77431,7.06542 146.14018,7.19242 L146.14064,7.19237 Z"/>
    <g transform="translate(78.553 84.254)">
      <polygon fill="#85BB67" points="16.181 10.502 16.183 22.15 16.173 22.531 16.143 22.908 16.093 23.276 16.024 23.642 15.936 24.001 15.832 24.352 15.707 24.696 15.568 25.032 15.411 25.359 15.236 25.678 15.047 25.989 14.845 26.288 14.626 26.579 14.392 26.858 14.145 27.127 13.886 27.384 13.614 27.628 13.331 27.862 13.034 28.081 12.728 28.288 12.409 28.48 12.08 28.657 11.741 28.821 11.395 28.971 11.039 29.103 10.675 29.217 10.301 29.317 9.923 29.402 9.537 29.467 9.145 29.514 8.747 29.541 8.343 29.551 7.94 29.541 7.541 29.514 7.15 29.467 6.764 29.402 6.385 29.317 6.012 29.217 5.648 29.103 5.292 28.971 4.945 28.821 4.607 28.657 4.278 28.48 3.961 28.288 3.653 28.081 3.356 27.862 3.072 27.628 2.8 27.384 2.539 27.127 2.292 26.858 2.06 26.579 1.841 26.288 1.637 25.989 1.448 25.678 1.276 25.359 1.119 25.032 .977 24.696 .855 24.352 .748 24.001 .661 23.642 .591 23.276 .541 22.908 .511 22.531 .501 22.15 .499 10.499 16.181 10.501 16.181 10.501"/>
      <polygon fill="#231F20" fill-rule="nonzero" points=".447 10.499 .447 10.447 .499 10.447 .447 10.499 .499 10.447 16.181 10.449 16.181 10.553 .499 10.551 .552 10.499 .447 10.499"/>
      <polygon fill="#231F20" fill-rule="nonzero" points=".45 22.15 .45 22.15 .447 10.499 .551 10.499 .553 22.15 .553 22.15 .449 22.15"/>
      <polygon fill="#231F20" fill-rule="nonzero" points="8.344 29.604 8.344 29.604 7.938 29.594 7.537 29.566 7.143 29.519 6.755 29.454 6.374 29.367 5.997 29.267 5.631 29.153 5.273 29.018 4.924 28.869 4.582 28.704 4.254 28.525 3.935 28.333 3.623 28.124 3.324 27.902 3.038 27.668 2.767 27.421 2.502 27.165 2.253 26.893 2.022 26.612 1.8 26.318 1.593 26.016 1.404 25.702 1.229 25.384 1.073 25.055 .928 24.716 .806 24.37 .699 24.013 .609 23.652 .539 23.284 .49 22.912 .46 22.534 .45 22.15 .554 22.15 .564 22.529 .594 22.902 .644 23.269 .714 23.632 .799 23.989 .906 24.335 1.028 24.676 1.167 25.01 1.324 25.334 1.493 25.653 1.683 25.962 1.885 26.258 2.101 26.547 2.333 26.824 2.577 27.09 2.836 27.347 3.108 27.588 3.389 27.823 3.683 28.039 3.99 28.244 4.304 28.435 4.633 28.61 4.969 28.774 5.312 28.924 5.666 29.053 6.027 29.168 6.399 29.267 6.775 29.349 7.158 29.414 7.547 29.462 7.943 29.489 8.344 29.499 8.344 29.499 8.344 29.604"/>
      <polygon fill="#231F20" fill-rule="nonzero" points="16.236 22.15 16.236 22.15 16.226 22.534 16.196 22.912 16.146 23.284 16.077 23.652 15.987 24.013 15.882 24.37 15.758 24.716 15.616 25.055 15.459 25.384 15.282 25.702 15.092 26.016 14.888 26.318 14.666 26.612 14.432 26.893 14.183 27.165 13.922 27.421 13.65 27.668 13.364 27.902 13.065 28.124 12.756 28.333 12.434 28.525 12.106 28.704 11.764 28.869 11.416 29.018 11.057 29.153 10.691 29.267 10.314 29.367 9.933 29.454 9.545 29.519 9.151 29.566 8.75 29.594 8.344 29.604 8.344 29.499 8.745 29.489 9.141 29.462 9.53 29.414 9.913 29.349 10.29 29.267 10.661 29.168 11.022 29.053 11.376 28.924 11.719 28.774 12.056 28.61 12.385 28.435 12.701 28.244 13.005 28.039 13.299 27.823 13.58 27.588 13.852 27.347 14.109 27.09 14.353 26.824 14.587 26.547 14.803 26.258 15.003 25.962 15.192 25.653 15.364 25.334 15.521 25.01 15.658 24.676 15.782 24.335 15.887 23.989 15.972 23.632 16.042 23.269 16.091 22.902 16.121 22.529 16.131 22.15 16.131 22.15 16.236 22.15"/>
      <polygon fill="#231F20" fill-rule="nonzero" points="16.181 10.449 16.234 10.449 16.234 10.502 16.181 10.449 16.234 10.502 16.236 22.15 16.131 22.15 16.128 10.502 16.18 10.554 16.18 10.449"/>
      <polygon fill="#FFF" points="9.854 20.646 9.854 21.331 9.854 15.285 9.862 15.207 9.884 15.138 9.921 15.073 9.969 15.016 10.026 14.968 10.093 14.933 10.166 14.911 10.245 14.904 10.245 14.904 10.325 14.911 10.397 14.933 10.464 14.968 10.524 15.016 10.572 15.073 10.609 15.138 10.631 15.207 10.639 15.285 10.639 26.694 10.631 26.771 10.609 26.843 10.572 26.911 10.524 26.968 10.464 27.015 10.397 27.05 10.325 27.073 10.245 27.081 10.245 27.081 10.166 27.073 10.093 27.05 10.026 27.015 9.969 26.968 9.921 26.911 9.884 26.843 9.862 26.771 9.854 26.694"/>
      <polygon fill="#231F20" fill-rule="nonzero" points="9.801 26.694 9.801 26.694 9.801 20.646 9.906 20.646 9.906 26.694 9.906 26.694"/>
      <polygon fill="#231F20" fill-rule="nonzero" points="10.245 27.132 10.245 27.132 10.155 27.125 10.073 27.098 9.998 27.058 9.931 27.006 9.879 26.941 9.836 26.864 9.809 26.781 9.802 26.694 9.907 26.694 9.914 26.762 9.931 26.824 9.964 26.881 10.006 26.931 10.053 26.974 10.113 27.003 10.175 27.021 10.245 27.029 10.245 27.029 10.245 27.133"/>
      <polygon fill="#231F20" fill-rule="nonzero" points="10.245 27.132 10.245 27.08 10.245 27.08 10.245 27.08 10.245 27.08 10.245 27.028 10.245 27.132"/>
      <polygon fill="#231F20" fill-rule="nonzero" points="10.691 26.694 10.691 26.694 10.684 26.781 10.656 26.863 10.614 26.941 10.562 27.005 10.492 27.06 10.417 27.098 10.335 27.125 10.245 27.132 10.245 27.028 10.315 27.02 10.377 27.002 10.437 26.97 10.487 26.93 10.529 26.88 10.562 26.823 10.579 26.761 10.586 26.693 10.586 26.693 10.691 26.693"/>
      <polygon fill="#231F20" fill-rule="nonzero" points="10.691 15.285 10.691 15.285 10.691 26.694 10.586 26.694 10.586 15.285 10.586 15.285"/>
      <polygon fill="#231F20" fill-rule="nonzero" points="10.245 14.851 10.245 14.851 10.334 14.858 10.417 14.885 10.491 14.923 10.561 14.978 10.613 15.042 10.656 15.115 10.683 15.197 10.69 15.284 10.586 15.284 10.579 15.217 10.561 15.16 10.528 15.102 10.486 15.053 10.436 15.013 10.377 14.98 10.314 14.963 10.245 14.956 10.245 14.956 10.245 14.851"/>
      <polygon fill="#231F20" fill-rule="nonzero" points="10.245 14.851 10.245 14.903 10.245 14.903 10.245 14.903 10.245 14.903 10.245 14.956 10.245 14.851"/>
      <polygon fill="#231F20" fill-rule="nonzero" points="9.801 15.285 9.801 15.285 9.808 15.197 9.836 15.115 9.878 15.043 9.93 14.978 9.998 14.926 10.073 14.886 10.155 14.858 10.244 14.851 10.244 14.956 10.175 14.963 10.112 14.98 10.052 15.01 10.005 15.053 9.963 15.103 9.93 15.16 9.913 15.217 9.906 15.284 9.906 15.284 9.801 15.284"/>
      <polygon fill="#231F20" fill-rule="nonzero" points="9.854 21.331 9.801 21.331 9.801 15.285 9.906 15.285 9.906 21.331 9.854 21.331 9.854 21.331"/>
      <polygon fill="#FFF" points="9.851 26.694 9.851 15.285 9.849 15.245 9.842 15.207 9.832 15.172 9.815 15.137 9.795 15.103 9.772 15.073 9.745 15.043 9.715 15.015 9.68 14.99 9.645 14.968 9.605 14.95 9.565 14.933 9.52 14.921 9.476 14.911 9.428 14.906 9.381 14.904 9.381 14.904 9.334 14.906 9.286 14.911 9.241 14.921 9.199 14.933 9.159 14.95 9.119 14.968 9.085 14.99 9.05 15.015 9.02 15.043 8.992 15.073 8.97 15.103 8.95 15.137 8.935 15.172 8.923 15.207 8.916 15.245 8.914 15.285 8.914 26.694 8.916 26.734 8.923 26.771 8.935 26.809 8.95 26.843 8.97 26.878 8.992 26.911 9.02 26.941 9.05 26.968 9.085 26.993 9.119 27.016 9.159 27.033 9.199 27.051 9.241 27.063 9.286 27.073 9.334 27.078 9.381 27.081 9.381 27.081 9.428 27.078 9.476 27.073 9.52 27.063 9.565 27.051 9.605 27.033 9.645 27.016 9.68 26.993 9.715 26.968 9.745 26.941 9.772 26.911 9.795 26.878 9.815 26.843 9.832 26.809 9.842 26.771 9.849 26.734"/>
      <polygon fill="#231F20" fill-rule="nonzero" points="9.38 27.028 9.38 27.028 9.423 27.025 9.468 27.02 9.508 27.013 9.547 27 9.585 26.985 9.619 26.97 9.649 26.95 9.682 26.928 9.707 26.903 9.731 26.878 9.749 26.851 9.769 26.818 9.782 26.791 9.792 26.759 9.797 26.726 9.8 26.694 9.904 26.694 9.901 26.741 9.891 26.784 9.881 26.826 9.859 26.868 9.839 26.906 9.812 26.943 9.782 26.978 9.747 27.008 9.709 27.035 9.669 27.06 9.624 27.08 9.582 27.1 9.532 27.113 9.483 27.125 9.433 27.13 9.38 27.132 9.38 27.132 9.38 27.028"/>
      <polygon fill="#231F20" fill-rule="nonzero" points="9.38 27.028 9.38 27.08 9.38 27.08 9.38 27.08 9.38 27.08 9.38 27.132 9.38 27.028"/>
      <polygon fill="#231F20" fill-rule="nonzero" points="8.964 26.694 8.964 26.694 8.966 26.726 8.971 26.759 8.983 26.791 8.996 26.821 9.013 26.851 9.031 26.878 9.056 26.903 9.081 26.928 9.113 26.951 9.143 26.971 9.178 26.986 9.216 27.001 9.253 27.013 9.293 27.02 9.338 27.025 9.38 27.028 9.38 27.133 9.328 27.131 9.278 27.126 9.228 27.113 9.181 27.101 9.138 27.081 9.094 27.061 9.054 27.036 9.016 27.008 8.981 26.978 8.951 26.944 8.924 26.906 8.902 26.866 8.884 26.826 8.872 26.784 8.862 26.742 8.86 26.694 8.86 26.694 8.964 26.694"/>
      <polygon fill="#231F20" fill-rule="nonzero" points="8.964 15.285 8.964 15.285 8.964 26.694 8.86 26.694 8.86 15.285 8.86 15.285"/>
      <polygon fill="#231F20" fill-rule="nonzero" points="9.38 14.956 9.38 14.956 9.338 14.958 9.293 14.963 9.253 14.97 9.216 14.982 9.179 14.997 9.144 15.012 9.114 15.032 9.081 15.054 9.056 15.079 9.032 15.104 9.014 15.129 8.997 15.159 8.984 15.192 8.972 15.222 8.967 15.251 8.965 15.284 8.86 15.284 8.862 15.236 8.872 15.192 8.885 15.152 8.902 15.114 8.925 15.074 8.952 15.04 8.982 15.005 9.017 14.975 9.054 14.947 9.094 14.922 9.139 14.902 9.181 14.882 9.228 14.87 9.278 14.858 9.328 14.853 9.38 14.851 9.38 14.851 9.38 14.955"/>
      <polygon fill="#231F20" fill-rule="nonzero" points="9.38 14.956 9.38 14.903 9.38 14.903 9.38 14.903 9.38 14.903 9.38 14.851 9.38 14.956"/>
      <polygon fill="#231F20" fill-rule="nonzero" points="9.799 15.285 9.799 15.285 9.796 15.252 9.791 15.22 9.781 15.192 9.769 15.162 9.749 15.13 9.731 15.105 9.706 15.08 9.681 15.055 9.649 15.033 9.619 15.013 9.584 14.998 9.547 14.983 9.507 14.97 9.467 14.963 9.422 14.958 9.38 14.956 9.38 14.852 9.432 14.854 9.482 14.859 9.532 14.871 9.582 14.884 9.624 14.904 9.669 14.924 9.709 14.949 9.746 14.976 9.781 15.006 9.811 15.041 9.838 15.076 9.858 15.113 9.881 15.153 9.891 15.195 9.901 15.238 9.904 15.285 9.904 15.285 9.799 15.285"/>
      <polygon fill="#231F20" fill-rule="nonzero" points="9.799 26.694 9.799 26.694 9.799 15.285 9.904 15.285 9.904 26.694 9.904 26.694"/>
      <polygon fill="#FFF" points="8.797 22.235 8.797 17.965 8.797 11.792 8.79 11.712 8.768 11.638 8.733 11.57 8.686 11.513 8.626 11.466 8.561 11.428 8.486 11.406 8.407 11.399 8.407 11.399 8.327 11.406 8.255 11.428 8.187 11.466 8.13 11.513 8.083 11.57 8.045 11.638 8.023 11.712 8.015 11.792 8.015 17.965 8.015 22.235 8.015 28.408 8.023 28.488 8.045 28.56 8.083 28.627 8.13 28.685 8.187 28.732 8.255 28.769 8.327 28.792 8.407 28.799 8.407 28.799 8.486 28.792 8.561 28.769 8.626 28.732 8.686 28.685 8.733 28.627 8.768 28.56 8.79 28.488 8.797 28.408"/>
      <polygon fill="#231F20" fill-rule="nonzero" points="8.745 28.408 8.745 28.408 8.745 22.235 8.85 22.235 8.85 28.408 8.85 28.408"/>
      <polygon fill="#231F20" fill-rule="nonzero" points="8.407 28.747 8.407 28.747 8.476 28.74 8.541 28.722 8.596 28.69 8.648 28.648 8.69 28.6 8.72 28.54 8.738 28.478 8.746 28.408 8.85 28.408 8.842 28.498 8.815 28.58 8.775 28.655 8.723 28.722 8.656 28.775 8.581 28.817 8.496 28.844 8.407 28.851 8.407 28.851 8.407 28.747"/>
      <polygon fill="#231F20" fill-rule="nonzero" points="8.407 28.747 8.407 28.799 8.407 28.799 8.407 28.799 8.407 28.799 8.407 28.851 8.407 28.747"/>
      <polygon fill="#231F20" fill-rule="nonzero" points="8.067 28.408 8.067 28.408 8.075 28.478 8.093 28.54 8.125 28.597 8.168 28.647 8.217 28.69 8.275 28.722 8.337 28.739 8.407 28.746 8.407 28.851 8.317 28.844 8.235 28.817 8.158 28.774 8.093 28.722 8.041 28.657 7.998 28.58 7.971 28.498 7.964 28.408 7.964 28.408 8.068 28.408"/>
      <polygon fill="#231F20" fill-rule="nonzero" points="8.067 22.235 8.067 22.235 8.067 28.408 7.963 28.408 7.963 22.235 7.963 22.235"/>
      <polygon fill="#231F20" fill-rule="nonzero" points="8.067 17.965 8.067 17.965 8.067 22.235 7.963 22.235 7.963 17.965 7.963 17.965"/>
      <polygon fill="#231F20" fill-rule="nonzero" points="8.067 11.792 8.067 11.792 8.067 17.965 7.963 17.965 7.963 11.792 7.963 11.792"/>
      <polygon fill="#231F20" fill-rule="nonzero" points="8.407 11.451 8.407 11.451 8.337 11.459 8.274 11.476 8.217 11.508 8.167 11.551 8.125 11.601 8.092 11.658 8.075 11.723 8.067 11.792 7.963 11.792 7.97 11.703 7.997 11.618 8.039 11.541 8.092 11.476 8.156 11.424 8.234 11.381 8.316 11.354 8.406 11.346 8.406 11.346 8.406 11.451"/>
      <polygon fill="#231F20" fill-rule="nonzero" points="8.407 11.451 8.407 11.398 8.407 11.398 8.407 11.398 8.407 11.398 8.407 11.346 8.407 11.451"/>
      <polygon fill="#231F20" fill-rule="nonzero" points="8.745 11.792 8.745 11.792 8.737 11.722 8.72 11.657 8.69 11.598 8.647 11.55 8.595 11.508 8.54 11.475 8.476 11.458 8.406 11.45 8.406 11.345 8.496 11.353 8.58 11.381 8.655 11.423 8.722 11.475 8.775 11.543 8.814 11.617 8.842 11.702 8.85 11.792 8.85 11.792 8.745 11.792"/>
      <polygon fill="#231F20" fill-rule="nonzero" points="8.745 17.965 8.745 17.965 8.745 11.792 8.85 11.792 8.85 17.965 8.85 17.965"/>
      <polygon fill="#231F20" fill-rule="nonzero" points="8.745 22.235 8.745 22.235 8.745 17.965 8.85 17.965 8.85 22.235 8.85 22.235"/>
      <polygon fill="#FFF" points="6.957 20.646 6.957 21.331 6.957 15.285 6.949 15.207 6.926 15.138 6.889 15.073 6.842 15.016 6.782 14.968 6.715 14.933 6.642 14.911 6.563 14.904 6.563 14.904 6.483 14.911 6.411 14.933 6.343 14.968 6.286 15.016 6.239 15.073 6.201 15.138 6.179 15.207 6.171 15.285 6.171 26.694 6.179 26.771 6.201 26.843 6.239 26.911 6.286 26.968 6.343 27.015 6.411 27.05 6.483 27.073 6.563 27.081 6.563 27.081 6.642 27.073 6.715 27.05 6.782 27.015 6.842 26.968 6.889 26.911 6.926 26.843 6.949 26.771 6.957 26.694"/>
      <polygon fill="#231F20" fill-rule="nonzero" points="6.904 26.694 6.904 26.694 6.904 20.646 7.009 20.646 7.009 26.694 7.009 26.694"/>
      <polygon fill="#231F20" fill-rule="nonzero" points="6.563 27.028 6.563 27.028 6.633 27.02 6.695 27.002 6.755 26.97 6.805 26.93 6.847 26.88 6.88 26.823 6.897 26.761 6.904 26.693 7.009 26.693 7.002 26.781 6.974 26.863 6.932 26.94 6.88 27.005 6.81 27.06 6.735 27.097 6.653 27.125 6.563 27.132 6.563 27.132 6.563 27.027"/>
      <polygon fill="#231F20" fill-rule="nonzero" points="6.563 27.028 6.563 27.08 6.563 27.08 6.563 27.08 6.563 27.08 6.563 27.132 6.563 27.028"/>
      <polygon fill="#231F20" fill-rule="nonzero" points="6.224 26.694 6.224 26.694 6.231 26.761 6.249 26.824 6.281 26.881 6.323 26.931 6.371 26.973 6.43 27.003 6.493 27.02 6.563 27.028 6.563 27.133 6.473 27.126 6.391 27.098 6.316 27.059 6.249 27.006 6.196 26.941 6.154 26.864 6.127 26.782 6.12 26.695 6.12 26.695 6.224 26.695"/>
      <polygon fill="#231F20" fill-rule="nonzero" points="6.224 15.285 6.224 15.285 6.224 26.694 6.12 26.694 6.12 15.285 6.12 15.285"/>
      <polygon fill="#231F20" fill-rule="nonzero" points="6.563 14.956 6.563 14.956 6.493 14.963 6.431 14.98 6.371 15.01 6.323 15.053 6.281 15.102 6.249 15.16 6.231 15.217 6.224 15.284 6.12 15.284 6.127 15.197 6.154 15.115 6.197 15.042 6.249 14.978 6.316 14.925 6.391 14.885 6.473 14.858 6.563 14.851 6.563 14.851 6.563 14.956"/>
      <polygon fill="#231F20" fill-rule="nonzero" points="6.563 14.956 6.563 14.903 6.563 14.903 6.563 14.903 6.563 14.903 6.563 14.851 6.563 14.956"/>
      <polygon fill="#231F20" fill-rule="nonzero" points="6.904 15.285 6.904 15.285 6.897 15.217 6.88 15.16 6.847 15.103 6.805 15.053 6.755 15.013 6.695 14.981 6.633 14.963 6.563 14.956 6.563 14.852 6.653 14.859 6.735 14.886 6.81 14.923 6.879 14.978 6.932 15.043 6.974 15.115 7.001 15.197 7.008 15.285 7.008 15.285 6.904 15.285"/>
      <polygon fill="#231F20" fill-rule="nonzero" points="6.957 21.331 6.904 21.331 6.904 15.285 7.009 15.285 7.009 21.331 6.957 21.331 6.957 21.331"/>
      <polygon fill="#FFF" points="6.959 26.694 6.959 15.285 6.962 15.245 6.97 15.207 6.98 15.172 6.997 15.137 7.015 15.103 7.04 15.073 7.067 15.043 7.097 15.015 7.13 14.99 7.164 14.968 7.204 14.95 7.244 14.933 7.289 14.921 7.334 14.911 7.381 14.906 7.429 14.904 7.429 14.904 7.476 14.906 7.523 14.911 7.568 14.921 7.611 14.933 7.653 14.95 7.69 14.968 7.728 14.99 7.76 15.015 7.79 15.043 7.817 15.073 7.84 15.103 7.86 15.137 7.877 15.172 7.887 15.207 7.894 15.245 7.896 15.285 7.896 26.694 7.894 26.734 7.887 26.771 7.877 26.809 7.86 26.843 7.84 26.878 7.817 26.911 7.79 26.941 7.76 26.968 7.728 26.993 7.69 27.016 7.653 27.033 7.611 27.051 7.568 27.063 7.523 27.073 7.476 27.078 7.429 27.081 7.429 27.081 7.381 27.078 7.334 27.073 7.289 27.063 7.244 27.051 7.204 27.033 7.164 27.016 7.13 26.993 7.097 26.968 7.067 26.941 7.04 26.911 7.015 26.878 6.997 26.843 6.98 26.809 6.97 26.771 6.962 26.734"/>
      <polygon fill="#231F20" fill-rule="nonzero" points="7.427 27.132 7.427 27.132 7.375 27.13 7.325 27.125 7.275 27.113 7.225 27.1 7.183 27.081 7.138 27.061 7.098 27.036 7.064 27.008 7.029 26.978 6.999 26.943 6.969 26.906 6.949 26.866 6.929 26.826 6.919 26.784 6.909 26.742 6.907 26.694 7.011 26.694 7.013 26.727 7.018 26.759 7.028 26.791 7.043 26.821 7.058 26.851 7.078 26.879 7.103 26.904 7.128 26.929 7.158 26.951 7.188 26.971 7.223 26.986 7.26 27.001 7.3 27.013 7.34 27.02 7.385 27.025 7.427 27.028 7.427 27.028 7.427 27.133"/>
      <polygon fill="#231F20" fill-rule="nonzero" points="7.427 27.132 7.427 27.08 7.427 27.08 7.427 27.08 7.427 27.08 7.427 27.028 7.427 27.132"/>
      <polygon fill="#231F20" fill-rule="nonzero" points="7.948 26.694 7.948 26.694 7.946 26.741 7.936 26.784 7.926 26.826 7.904 26.868 7.884 26.906 7.857 26.943 7.827 26.978 7.792 27.008 7.757 27.035 7.714 27.06 7.672 27.08 7.627 27.1 7.58 27.113 7.53 27.125 7.48 27.13 7.428 27.132 7.428 27.028 7.47 27.025 7.515 27.02 7.555 27.013 7.592 27 7.632 26.985 7.665 26.97 7.697 26.95 7.727 26.928 7.752 26.903 7.777 26.878 7.794 26.851 7.814 26.818 7.827 26.791 7.837 26.759 7.842 26.726 7.844 26.694 7.844 26.694 7.948 26.694"/>
      <polygon fill="#231F20" fill-rule="nonzero" points="7.948 15.285 7.948 15.285 7.948 26.694 7.843 26.694 7.843 15.285 7.843 15.285"/>
      <polygon fill="#231F20" fill-rule="nonzero" points="7.427 14.851 7.427 14.851 7.48 14.853 7.529 14.858 7.579 14.871 7.627 14.883 7.672 14.903 7.714 14.923 7.756 14.948 7.791 14.975 7.826 15.005 7.856 15.04 7.883 15.075 7.903 15.112 7.925 15.152 7.936 15.194 7.946 15.237 7.948 15.284 7.843 15.284 7.841 15.252 7.836 15.219 7.826 15.192 7.813 15.162 7.793 15.13 7.776 15.105 7.751 15.08 7.726 15.055 7.696 15.032 7.664 15.012 7.631 14.997 7.591 14.983 7.554 14.97 7.514 14.963 7.469 14.958 7.427 14.956 7.427 14.956 7.427 14.852"/>
      <polygon fill="#231F20" fill-rule="nonzero" points="7.427 14.851 7.427 14.903 7.427 14.903 7.427 14.903 7.427 14.903 7.427 14.956 7.427 14.851"/>
      <polygon fill="#231F20" fill-rule="nonzero" points="6.907 15.285 6.907 15.285 6.909 15.237 6.919 15.195 6.929 15.153 6.949 15.115 6.969 15.075 6.999 15.038 7.029 15.005 7.063 14.976 7.098 14.948 7.138 14.923 7.183 14.903 7.225 14.883 7.275 14.871 7.325 14.858 7.375 14.853 7.427 14.851 7.427 14.956 7.385 14.958 7.34 14.963 7.3 14.97 7.26 14.982 7.223 14.997 7.188 15.012 7.158 15.032 7.128 15.055 7.103 15.08 7.078 15.107 7.058 15.13 7.043 15.159 7.029 15.192 7.019 15.219 7.014 15.252 7.012 15.284 7.012 15.284 6.907 15.284"/>
      <polygon fill="#231F20" fill-rule="nonzero" points="6.907 26.694 6.907 26.694 6.907 15.285 7.011 15.285 7.011 26.694 7.011 26.694"/>
      <polygon fill="#FFF" points="8.912 26.694 8.912 15.285 8.91 15.245 8.902 15.207 8.89 15.172 8.872 15.137 8.852 15.103 8.827 15.073 8.797 15.043 8.765 15.015 8.728 14.99 8.69 14.968 8.648 14.95 8.603 14.933 8.556 14.921 8.506 14.911 8.456 14.906 8.404 14.904 8.404 14.904 8.351 14.906 8.302 14.911 8.254 14.921 8.207 14.933 8.162 14.95 8.12 14.968 8.082 14.99 8.045 15.015 8.013 15.043 7.983 15.073 7.958 15.103 7.936 15.137 7.918 15.172 7.906 15.207 7.898 15.245 7.896 15.285 7.896 26.694 7.898 26.734 7.906 26.771 7.918 26.809 7.936 26.843 7.958 26.876 7.983 26.908 8.013 26.938 8.045 26.966 8.082 26.991 8.12 27.013 8.162 27.031 8.207 27.048 8.254 27.06 8.302 27.07 8.351 27.075 8.404 27.077 8.404 27.077 8.456 27.075 8.506 27.07 8.556 27.06 8.603 27.048 8.648 27.031 8.69 27.013 8.728 26.991 8.765 26.966 8.797 26.938 8.827 26.908 8.852 26.876 8.872 26.843 8.89 26.809 8.902 26.771 8.91 26.734"/>
      <polygon fill="#231F20" fill-rule="nonzero" points="8.404 27.025 8.404 27.025 8.454 27.023 8.499 27.018 8.544 27.011 8.588 26.999 8.628 26.984 8.668 26.966 8.7 26.947 8.733 26.924 8.763 26.902 8.788 26.874 8.81 26.847 8.827 26.819 8.842 26.789 8.852 26.76 8.857 26.727 8.859 26.695 8.964 26.695 8.962 26.742 8.952 26.785 8.937 26.829 8.917 26.869 8.895 26.907 8.868 26.944 8.833 26.977 8.798 27.009 8.755 27.036 8.713 27.061 8.668 27.079 8.619 27.099 8.569 27.111 8.514 27.123 8.459 27.128 8.404 27.13 8.404 27.13 8.404 27.026"/>
      <polygon fill="#231F20" fill-rule="nonzero" points="8.404 27.025 8.404 27.078 8.404 27.078 8.404 27.078 8.404 27.078 8.404 27.13 8.404 27.025"/>
      <polygon fill="#231F20" fill-rule="nonzero" points="7.948 26.694 7.948 26.694 7.95 26.726 7.955 26.759 7.965 26.789 7.98 26.816 8 26.846 8.023 26.873 8.047 26.901 8.077 26.923 8.11 26.946 8.142 26.966 8.182 26.983 8.222 26.998 8.267 27.011 8.309 27.018 8.354 27.023 8.404 27.025 8.404 27.129 8.349 27.127 8.294 27.122 8.242 27.11 8.192 27.097 8.142 27.077 8.097 27.06 8.055 27.035 8.013 27.007 7.978 26.975 7.943 26.943 7.916 26.905 7.891 26.87 7.871 26.828 7.856 26.783 7.846 26.741 7.843 26.693 7.843 26.693 7.947 26.693"/>
      <polygon fill="#231F20" fill-rule="nonzero" points="7.948 15.285 7.948 15.285 7.948 26.694 7.843 26.694 7.843 15.285 7.843 15.285"/>
      <polygon fill="#231F20" fill-rule="nonzero" points="8.404 14.956 8.404 14.956 8.354 14.958 8.309 14.963 8.267 14.97 8.222 14.982 8.182 14.997 8.142 15.015 8.11 15.034 8.077 15.057 8.048 15.079 8.02 15.107 8 15.132 7.98 15.162 7.965 15.191 7.955 15.221 7.95 15.251 7.948 15.284 7.843 15.284 7.846 15.236 7.856 15.191 7.871 15.152 7.891 15.112 7.916 15.072 7.946 15.037 7.979 15.004 8.013 14.972 8.056 14.945 8.098 14.92 8.143 14.902 8.193 14.882 8.243 14.87 8.295 14.857 8.35 14.852 8.405 14.85 8.405 14.85 8.405 14.955"/>
      <polygon fill="#231F20" fill-rule="nonzero" points="8.404 14.956 8.404 14.903 8.404 14.903 8.404 14.903 8.404 14.903 8.404 14.851 8.404 14.956"/>
      <polygon fill="#231F20" fill-rule="nonzero" points="8.86 15.285 8.86 15.285 8.858 15.252 8.853 15.222 8.843 15.192 8.828 15.162 8.81 15.132 8.79 15.108 8.763 15.08 8.733 15.058 8.701 15.035 8.668 15.015 8.628 14.998 8.589 14.983 8.544 14.971 8.499 14.964 8.454 14.959 8.404 14.957 8.404 14.852 8.459 14.854 8.514 14.859 8.568 14.871 8.618 14.884 8.668 14.904 8.713 14.921 8.755 14.946 8.798 14.974 8.833 15.006 8.865 15.038 8.895 15.073 8.917 15.113 8.937 15.153 8.952 15.193 8.962 15.238 8.964 15.285 8.964 15.285 8.859 15.285"/>
      <polygon fill="#231F20" fill-rule="nonzero" points="8.86 26.694 8.86 26.694 8.86 15.285 8.964 15.285 8.964 26.694 8.964 26.694"/>
      <polygon fill="#85BB67" points="10.862 16.744 5.945 16.744 5.945 15.865 10.862 15.865"/>
      <polygon fill="#231F20" fill-rule="nonzero" points="10.862 15.813 10.915 15.813 10.915 15.865 10.862 15.813 10.915 15.865 10.915 16.744 10.81 16.744 10.81 15.865 10.862 15.917 10.862 15.813"/>
      <polygon fill="#231F20" fill-rule="nonzero" points="5.893 15.865 5.893 15.813 5.945 15.813 5.893 15.865 5.945 15.813 10.862 15.813 10.862 15.917 5.945 15.917 5.997 15.865 5.893 15.865"/>
      <polygon fill="#231F20" fill-rule="nonzero" points="5.945 16.797 5.893 16.797 5.893 16.744 5.945 16.797 5.893 16.744 5.893 15.865 5.997 15.865 5.997 16.744 5.945 16.692 5.945 16.797"/>
      <polygon fill="#231F20" fill-rule="nonzero" points="10.915 16.744 10.915 16.797 10.862 16.797 10.915 16.744 10.862 16.797 5.945 16.797 5.945 16.692 10.862 16.692 10.81 16.744 10.915 16.744"/>
      <polygon fill="#85BB67" points="10.862 26.061 5.945 26.061 5.945 25.179 10.862 25.179"/>
      <polygon fill="#231F20" fill-rule="nonzero" points="10.862 25.127 10.915 25.127 10.915 25.179 10.862 25.127 10.915 25.179 10.915 26.061 10.81 26.061 10.81 25.179 10.862 25.232 10.862 25.127"/>
      <polygon fill="#231F20" fill-rule="nonzero" points="5.893 25.179 5.893 25.127 5.945 25.127 5.893 25.179 5.945 25.127 10.862 25.127 10.862 25.232 5.945 25.232 5.997 25.179 5.893 25.179"/>
      <polygon fill="#231F20" fill-rule="nonzero" points="5.945 26.114 5.893 26.114 5.893 26.061 5.945 26.114 5.893 26.061 5.893 25.179 5.997 25.179 5.997 26.061 5.945 26.009 5.945 26.114"/>
      <polygon fill="#231F20" fill-rule="nonzero" points="10.915 26.061 10.915 26.114 10.862 26.114 10.915 26.061 10.862 26.114 5.945 26.114 5.945 26.009 10.862 26.009 10.81 26.061 10.915 26.061"/>
      <polygon fill="#FFF" points="9.425 13.16 8.984 12.783 8.974 13.578 8.984 12.783 7.831 12.537 7.831 13.655 7.831 12.537 7.696 12.492 7.567 12.442 7.44 12.39 7.318 12.33 7.201 12.268 7.086 12.203 6.976 12.133 6.874 12.059 6.775 11.981 6.683 11.902 6.593 11.819 6.513 11.732 6.436 11.643 6.366 11.553 6.304 11.458 6.246 11.361 6.244 11.356 6.217 11.391 6.19 11.426 6.162 11.463 6.135 11.501 6.11 11.54 6.085 11.583 6.06 11.625 6.038 11.67 6.013 11.715 5.993 11.762 5.97 11.812 5.951 11.862 5.931 11.912 5.911 11.964 5.893 12.016 5.876 12.071 5.861 12.128 5.846 12.183 5.831 12.243 5.816 12.3 5.803 12.36 5.793 12.42 5.783 12.482 5.773 12.544 5.763 12.607 5.755 12.672 5.75 12.736 5.745 12.801 5.74 12.869 5.737 12.936 5.735 13.003 5.735 13.07 5.735 13.078 5.735 13.146 5.737 13.213 5.74 13.278 5.745 13.343 5.75 13.405 5.757 13.467 5.765 13.529 5.775 13.589 5.785 13.649 5.798 13.706 5.81 13.764 5.823 13.818 5.838 13.873 5.853 13.925 5.87 13.978 5.888 14.03 5.905 14.08 5.925 14.13 5.945 14.177 5.965 14.224 5.987 14.269 6.01 14.314 6.032 14.357 6.055 14.399 6.079 14.441 6.104 14.481 6.129 14.521 6.157 14.559 6.184 14.596 6.211 14.631 6.239 14.666 6.266 14.698 6.268 14.696 6.333 14.611 6.403 14.529 6.475 14.449 6.552 14.372 6.635 14.297 6.719 14.225 6.809 14.155 6.901 14.091 7.001 14.026 7.103 13.964 7.21 13.906 7.325 13.851 7.442 13.799 7.564 13.747 7.693 13.702 7.825 13.657 7.825 13.657 8.969 13.582 8.969 13.582 9.424 13.161 9.424 13.161"/>
      <polygon fill="#231F20" fill-rule="nonzero" points="9.004 13.618 8.992 13.63 8.972 13.633 8.967 13.529 8.935 13.544 9.391 13.123 9.46 13.197 9.004 13.618 8.972 13.633 9.004 13.618 9.004 13.618"/>
      <polygon fill="#231F20" fill-rule="nonzero" points="9.004 13.618 8.992 13.63 8.972 13.633 8.967 13.529 8.969 13.581 8.969 13.581 8.969 13.581 8.969 13.581 8.972 13.633 9.004 13.618 9.004 13.618"/>
      <polygon fill="#231F20" fill-rule="nonzero" points="7.811 13.605 7.816 13.603 7.824 13.603 7.811 13.605 7.824 13.603 8.967 13.529 8.972 13.633 7.829 13.708 7.841 13.705 7.811 13.605 7.811 13.605"/>
      <polygon fill="#231F20" fill-rule="nonzero" points="7.811 13.605 7.816 13.603 7.824 13.603 7.811 13.605 7.826 13.655 7.826 13.655 7.826 13.655 7.826 13.655 7.841 13.705 7.811 13.606 7.811 13.606"/>
      <polygon fill="#231F20" fill-rule="nonzero" points="6.231 14.657 6.226 14.665 6.294 14.577 6.363 14.493 6.438 14.413 6.518 14.333 6.6 14.256 6.687 14.184 6.779 14.112 6.871 14.047 6.974 13.98 7.078 13.917 7.188 13.858 7.302 13.803 7.422 13.75 7.544 13.696 7.676 13.651 7.811 13.606 7.841 13.705 7.711 13.75 7.584 13.795 7.462 13.845 7.347 13.897 7.233 13.952 7.128 14.007 7.029 14.069 6.931 14.132 6.839 14.197 6.752 14.264 6.67 14.336 6.588 14.408 6.513 14.483 6.443 14.563 6.374 14.643 6.311 14.725 6.306 14.733 6.232 14.658 6.232 14.658"/>
      <polygon fill="#231F20" fill-rule="nonzero" points="6.304 14.734 6.264 14.771 6.227 14.732 6.306 14.662 6.229 14.66 6.231 14.658 6.306 14.732 6.304 14.734 6.227 14.732 6.304 14.734 6.304 14.734"/>
      <polygon fill="#231F20" fill-rule="nonzero" points="5.788 13.077 5.788 13.077 5.788 13.145 5.791 13.209 5.794 13.274 5.799 13.336 5.804 13.399 5.812 13.461 5.819 13.521 5.829 13.581 5.839 13.638 5.851 13.695 5.861 13.75 5.874 13.805 5.889 13.857 5.904 13.91 5.921 13.959 5.939 14.012 5.956 14.062 5.973 14.109 5.993 14.156 6.013 14.201 6.036 14.246 6.058 14.288 6.08 14.331 6.101 14.373 6.125 14.413 6.15 14.453 6.173 14.49 6.2 14.527 6.228 14.562 6.253 14.597 6.28 14.632 6.307 14.662 6.228 14.732 6.2 14.697 6.173 14.662 6.143 14.627 6.116 14.587 6.088 14.55 6.061 14.507 6.036 14.468 6.011 14.423 5.986 14.381 5.964 14.338 5.941 14.291 5.919 14.246 5.899 14.196 5.879 14.149 5.857 14.096 5.839 14.046 5.821 13.994 5.804 13.939 5.789 13.887 5.774 13.83 5.762 13.775 5.747 13.715 5.734 13.658 5.724 13.595 5.714 13.536 5.707 13.471 5.699 13.408 5.694 13.346 5.689 13.279 5.687 13.214 5.684 13.144 5.684 13.077 5.684 13.077 5.789 13.077"/>
      <polygon fill="#231F20" fill-rule="nonzero" points="5.788 13.07 5.788 13.07 5.788 13.078 5.684 13.078 5.684 13.07 5.684 13.07"/>
      <polygon fill="#231F20" fill-rule="nonzero" points="6.204 11.321 6.254 11.264 6.291 11.334 6.197 11.379 6.284 11.391 6.257 11.423 6.232 11.458 6.204 11.493 6.177 11.531 6.154 11.568 6.13 11.61 6.105 11.65 6.085 11.695 6.06 11.737 6.04 11.782 6.017 11.832 5.997 11.882 5.98 11.932 5.96 11.981 5.943 12.031 5.925 12.086 5.91 12.141 5.895 12.196 5.88 12.256 5.865 12.313 5.855 12.37 5.845 12.427 5.835 12.49 5.825 12.552 5.815 12.614 5.808 12.677 5.803 12.741 5.798 12.806 5.793 12.871 5.79 12.938 5.787 13.003 5.787 13.07 5.683 13.07 5.683 13.003 5.686 12.933 5.688 12.866 5.693 12.796 5.698 12.732 5.703 12.667 5.71 12.599 5.72 12.537 5.73 12.475 5.74 12.412 5.75 12.35 5.765 12.288 5.78 12.23 5.795 12.171 5.81 12.116 5.825 12.056 5.842 12.001 5.859 11.946 5.879 11.892 5.902 11.842 5.922 11.792 5.944 11.742 5.964 11.692 5.989 11.645 6.014 11.6 6.039 11.555 6.063 11.513 6.091 11.471 6.118 11.433 6.146 11.394 6.176 11.359 6.203 11.321 6.29 11.334 6.203 11.321 6.203 11.321"/>
      <polygon fill="#231F20" fill-rule="nonzero" points="6.202 11.386 6.2 11.383 6.197 11.378 6.291 11.333 6.293 11.338 6.291 11.336 6.201 11.386 6.201 11.386"/>
      <polygon fill="#231F20" fill-rule="nonzero" points="7.846 12.487 7.883 12.499 7.883 12.537 7.779 12.537 7.816 12.587 7.679 12.542 7.547 12.489 7.417 12.437 7.293 12.377 7.176 12.312 7.058 12.248 6.946 12.175 6.842 12.101 6.742 12.021 6.648 11.941 6.555 11.857 6.473 11.767 6.396 11.675 6.324 11.583 6.259 11.486 6.201 11.386 6.291 11.336 6.349 11.431 6.409 11.523 6.476 11.61 6.553 11.697 6.63 11.782 6.717 11.862 6.807 11.941 6.907 12.016 7.006 12.091 7.113 12.158 7.225 12.223 7.343 12.283 7.462 12.342 7.587 12.395 7.714 12.442 7.846 12.487 7.883 12.537 7.846 12.487 7.846 12.487"/>
      <polygon fill="#231F20" fill-rule="nonzero" points="7.883 13.655 7.779 13.655 7.779 12.537 7.883 12.537 7.883 13.655 7.779 13.655"/>
      <polygon fill="#231F20" fill-rule="nonzero" points="7.779 12.537 7.779 12.472 7.841 12.485 7.821 12.589 7.883 12.537 7.883 13.655 7.779 13.655 7.779 12.537 7.841 12.485 7.779 12.537 7.779 12.537"/>
      <polygon fill="#231F20" fill-rule="nonzero" points="8.994 12.731 9.037 12.741 9.037 12.784 8.932 12.784 8.974 12.836 7.821 12.589 7.841 12.485 8.994 12.731 9.037 12.784 8.994 12.731 8.994 12.731"/>
      <polygon fill="#231F20" fill-rule="nonzero" points="9.027 13.578 8.922 13.578 8.932 12.783 9.037 12.783 9.027 13.578 8.922 13.578 9.027 13.578"/>
      <polygon fill="#231F20" fill-rule="nonzero" points="8.932 12.783 8.934 12.671 9.019 12.743 8.949 12.823 9.036 12.783 9.026 13.578 8.922 13.578 8.932 12.783 9.019 12.743 8.932 12.783 8.932 12.783"/>
      <polygon fill="#231F20" fill-rule="nonzero" points="9.425 13.16 9.39 13.199 8.949 12.823 9.019 12.743 9.46 13.12 9.425 13.16 9.425 13.16"/>
      <polygon fill="#85BB67" points="10.862 18.991 5.945 24.806 5.945 23.166 10.862 17.355"/>
      <polygon fill="#231F20" fill-rule="nonzero" points="10.823 17.32 10.915 17.213 10.915 17.355 10.823 17.32 10.915 17.355 10.915 18.991 10.81 18.991 10.81 17.355 10.902 17.39 10.823 17.32 10.823 17.32"/>
      <polygon fill="#231F20" fill-rule="nonzero" points="5.893 23.166 5.893 23.147 5.905 23.132 5.893 23.166 5.905 23.132 10.823 17.32 10.902 17.389 5.985 23.201 5.997 23.166 5.893 23.166"/>
      <polygon fill="#231F20" fill-rule="nonzero" points="5.985 24.841 5.893 24.948 5.893 24.806 5.985 24.841 5.893 24.806 5.893 23.166 5.997 23.166 5.997 24.806 5.905 24.771 5.985 24.841 5.985 24.841"/>
      <polygon fill="#231F20" fill-rule="nonzero" points="10.915 18.991 10.915 19.011 10.902 19.026 10.915 18.991 10.902 19.026 5.985 24.841 5.905 24.771 10.823 18.956 10.81 18.991 10.915 18.991"/>
      <polygon fill="#85BB67" points="10.862 24.806 10.862 23.166 5.945 17.355 5.945 18.991"/>
      <polygon fill="#231F20" fill-rule="nonzero" points="5.905 19.026 5.893 19.011 5.893 18.991 5.997 18.991 5.985 18.956 10.902 24.771 10.823 24.841 5.905 19.026 5.893 18.991 5.905 19.026 5.905 19.026"/>
      <polygon fill="#231F20" fill-rule="nonzero" points="5.893 17.355 5.893 17.213 5.985 17.32 5.905 17.39 5.997 17.355 5.997 18.991 5.893 18.991 5.893 17.355 5.985 17.32 5.893 17.355 5.893 17.355"/>
      <polygon fill="#231F20" fill-rule="nonzero" points="10.903 23.132 10.915 23.147 10.915 23.167 10.81 23.167 10.823 23.202 5.905 17.39 5.985 17.32 10.902 23.132 10.915 23.167 10.902 23.132 10.902 23.132"/>
      <polygon fill="#231F20" fill-rule="nonzero" points="10.915 24.806 10.915 24.948 10.823 24.841 10.902 24.771 10.81 24.806 10.81 23.167 10.915 23.167 10.915 24.806 10.823 24.841 10.915 24.806 10.915 24.806"/>
      <path stroke="#656263" stroke-width=".75" d="M0.514875,10.52857 L16.207375,10.53658 L16.207375,22.19308 C16.207375,25.91807 13.120495,29.60232 8.354255,29.60232 C3.936505,29.60232 0.471625,26.25108 0.501125,22.19308 L0.514925,10.52857 L0.514875,10.52857 Z"/>
      <text fill="#5A5758" font-family="Helvetica" font-size="8">
        <tspan x="2.489" y="8.248">SG</tspan>
      </text>
    </g>
  </g>
</svg>
