<svg xmlns="http://www.w3.org/2000/svg" width="141" height="129" viewBox="0 0 141 129">
  <g fill="none" fill-rule="evenodd" transform="translate(.456 .603)">
    <polygon fill="#E3BBE2" fill-rule="nonzero" stroke="#E3BBE2" stroke-width=".709" points="7.251 26.317 21.679 26.207 23.353 22.194 19.769 16.702 16.352 16.854 8.284 20.986 7.251 26.317"/>
    <polygon fill="#E3BBE2" fill-rule="nonzero" stroke="#E3BBE2" stroke-width=".709" points="34.388 0 31.843 4.039 29.698 6.087 26.365 6.502 18.784 1.618 16.28 6.612 23.321 9.49 21.396 12.081 23.186 15.858 24.777 15.194 29.19 13.492 31.321 12.87 38.515 12.302 38.21 7.309 39.718 5.205 38.736 1.512 36.205 1.664 34.388 0"/>
    <polygon fill="#E3BBE2" fill-rule="nonzero" points="125.104 24.164 125.67 23.675 122.585 17.324 124.591 13.728 126.777 11.555 128.202 12.565 129.682 16.356 130.803 21.613 129.89 21.71 125.924 23.536 134.814 27.7 135.216 29.388 135.589 31.602 138.826 31.395 139.006 32.127 139.753 35.213 139.075 38.699 138.591 39.695 138.19 40.58 137.401 40.968 135.949 45.049 133.777 49.559 131.923 50.209 126.265 53.668 123.207 54.844 123.028 50.251 119.984 50.085 117.01 49.476 116.54 49.116 114.64 48.293 112.011 55.113 111.693 55.985 109.507 56.967 105.33 58.433 103.531 63.095 103.158 63.538 101.512 67.854 98.869 70.095 98.219 70.386 96.102 71.658 93.575 69.612 96.105 71.659 93.571 69.611 90.379 73.23 86.644 69.08 84.458 72.662 80.681 72.124 69.822 62.038 67.774 62.923 64.952 64.196 62.987 65.344 60.843 65.593 55.254 65.911 54.064 66.161 48.586 67.337 49.471 68.582 50.799 70.131 51.602 71.072 52.044 74.946 52.086 76.647 56.153 79.94 56.845 81.406 60.885 81.199 60.829 83.523 62.558 86.761 62.309 89.513 65.339 89.721 67.815 92.723 67.11 94.605 68.244 96.638 67.622 98.298 67.165 99.46 66.1 99.432 63.444 101.217 63.417 104.454 61.825 105.201 60.857 103.832 57.177 103.998 56.637 103.597 53.691 104.136 50.689 104.468 49.886 105.686 47.604 100.65 44.435 99.225 41.033 101.356 39.788 100.581 37.062 101.757 36.841 102.421 38.404 104.731 35.43 109.352 33.341 113.087 30.795 114.789 28.277 115.854 27.295 116.241 24.5 117.432 25.718 121.25 27.004 122.993 26.424 124.985 25.566 126.244 23.145 126.991 20.849 127.462 19.202 125.4 18.953 119.714 15.162 120.946 14.54 121.181 8.425 121.139 6.253 113.143 9.38 112.133 13.212 114.402 17.68 112.908 19.354 111.289 16.505 109.186 17.487 107.622 20.447 106.184 20.185 104.842 23.172 103.098 26.631 104.289 28.305 103.389 31.487 98.547 28.222 97.952 27.491 92.848 22.147 94.526 19.975 95.315 18.315 95.716 14.123 101.374 10.587 101.882 8.536 101.577 10.113 99.432 8.176 94.964 5.091 91.74 2.836 92.598 .872 87.922 .443 86.428 0 84.865 11.856 79.261 14.471 78.017 16.338 77.325 15.412 74.558 18.068 73.008 21.36 71.307 25.455 70.823 26.7 68.748 27.931 66.727 28.859 64.777 31.28 63.836 35.319 62.522 40.285 60.917 45.142 54.83 44.186 53.627 46.801 51.427 42.957 46.806 39.801 45.354 40.134 43.61 40.355 42.393 36.149 38.838 31.197 39.252 29.827 39.557 23.947 39.114 22.965 38.45 19.604 37.111 19.672 36.222 20.777 29.893 24.208 30.225 27.821 30.121 28.056 33.497 30.795 34.908 35.831 33.912 38.197 30.232 37.657 26.967 48.641 26.109 46.151 23.896 46.276 19.51 49.928 21.683 52.515 22.084 53.566 20.562 55.738 20.755 55.766 19.068 57.8 11.763 53.513 9.536 53.981 3.863 60.774 5.87 63.79 4.458 62.725 2.3 65.823 1.623 66.612 5.012 72.644 6.451 74.719 9.771 72.422 13.88 70.915 14.71 69.545 16.329 69.13 18.861 69.655 21.904 67.469 25.971 65.284 27.507 59.169 27.479 60.787 35.227 61.009 36.278 60.871 36.928 61.521 40.221 70.292 39.017 72.879 38.685 78.662 40.276 83.255 46.972 90.601 48.757 91.749 48.356 94.308 41.562 99.842 40.014 101.032 38.021 108.972 35.171 106.98 31.63 109.111 29.79 110.882 28.116 115.184 30.716 120.634 27.825 121.395 26.013 124.646 24.56 125.67 23.675 125.104 24.164"/>
    <g transform="translate(45.2 34.03)">
      <polygon fill="#FFF" points="16.194 10.344 16.196 21.992 16.186 22.374 16.156 22.75 16.106 23.121 16.037 23.485 15.949 23.843 15.845 24.195 15.72 24.538 15.581 24.875 15.424 25.204 15.249 25.522 15.06 25.831 14.858 26.133 14.639 26.422 14.405 26.703 14.158 26.972 13.899 27.229 13.628 27.473 13.344 27.707 13.047 27.926 12.741 28.133 12.422 28.325 12.093 28.502 11.754 28.666 11.408 28.816 11.052 28.948 10.688 29.062 10.314 29.162 9.936 29.247 9.55 29.311 9.159 29.359 8.76 29.386 8.356 29.396 7.953 29.386 7.554 29.359 7.161 29.311 6.775 29.247 6.396 29.162 6.025 29.062 5.659 28.948 5.302 28.816 4.956 28.666 4.617 28.502 4.288 28.325 3.972 28.133 3.663 27.926 3.367 27.707 3.083 27.473 2.811 27.229 2.552 26.972 2.305 26.703 2.071 26.422 1.855 26.133 1.65 25.831 1.461 25.522 1.286 25.204 1.13 24.875 .99 24.538 .865 24.195 .761 23.843 .674 23.485 .604 23.121 .554 22.75 .524 22.374 .514 21.992 .512 10.359 16.194 10.344 16.194 10.344"/>
      <polygon fill="#ED192D" points="16.194 19.424 .515 19.424 .515 10.359 16.194 10.359"/>
      <polygon fill="#231F20" fill-rule="nonzero" points="16.194 19.424 16.194 19.476 .515 19.476 .515 19.372 16.194 19.372"/>
      <polygon fill="#231F20" fill-rule="nonzero" points=".46 10.359 .46 10.306 .512 10.306 .46 10.359 .512 10.306 16.194 10.291 16.194 10.396 .512 10.411 .565 10.359 .46 10.359"/>
      <polygon fill="#231F20" fill-rule="nonzero" points=".463 21.992 .463 21.992 .46 10.359 .564 10.359 .566 21.992 .566 21.992 .462 21.992"/>
      <polygon fill="#231F20" fill-rule="nonzero" points="8.357 29.448 8.357 29.448 7.951 29.438 7.55 29.411 7.154 29.364 6.765 29.299 6.384 29.212 6.01 29.112 5.642 28.998 5.283 28.863 4.934 28.714 4.593 28.549 4.264 28.37 3.945 28.178 3.634 27.969 3.335 27.747 3.048 27.513 2.777 27.266 2.515 27.01 2.266 26.738 2.032 26.454 1.813 26.163 1.606 25.859 1.417 25.547 1.24 25.228 1.083 24.897 .941 24.558 .816 24.212 .712 23.856 .622 23.495 .552 23.128 .502 22.755 .472 22.376 .462 21.992 .567 21.992 .577 22.371 .607 22.745 .657 23.113 .727 23.475 .811 23.831 .916 24.177 1.04 24.518 1.177 24.852 1.334 25.179 1.506 25.497 1.695 25.804 1.897 26.103 2.111 26.389 2.346 26.668 2.59 26.935 2.846 27.191 3.118 27.433 3.399 27.667 3.693 27.884 4 28.088 4.314 28.28 4.642 28.454 4.979 28.619 5.323 28.768 5.676 28.898 6.04 29.012 6.409 29.112 6.785 29.194 7.168 29.259 7.56 29.306 7.956 29.334 8.357 29.344 8.357 29.344 8.357 29.448"/>
      <polygon fill="#231F20" fill-rule="nonzero" points="16.249 21.992 16.249 21.992 16.239 22.376 16.209 22.755 16.159 23.128 16.089 23.495 16 23.856 15.895 24.212 15.77 24.558 15.628 24.897 15.472 25.228 15.295 25.547 15.105 25.859 14.901 26.163 14.679 26.454 14.445 26.738 14.196 27.01 13.934 27.266 13.663 27.513 13.377 27.747 13.077 27.969 12.769 28.178 12.447 28.37 12.118 28.549 11.777 28.714 11.428 28.863 11.07 28.998 10.703 29.112 10.327 29.212 9.946 29.299 9.558 29.364 9.164 29.411 8.763 29.439 8.357 29.448 8.357 29.344 8.758 29.334 9.154 29.306 9.543 29.259 9.926 29.194 10.302 29.112 10.674 29.012 11.035 28.898 11.388 28.768 11.732 28.619 12.069 28.454 12.397 28.28 12.714 28.088 13.018 27.884 13.312 27.667 13.593 27.433 13.865 27.191 14.121 26.935 14.365 26.668 14.6 26.389 14.816 26.103 15.016 25.804 15.205 25.497 15.377 25.179 15.534 24.852 15.671 24.518 15.795 24.177 15.9 23.831 15.985 23.475 16.054 23.113 16.104 22.745 16.134 22.371 16.144 21.992 16.144 21.992 16.249 21.992"/>
      <polygon fill="#231F20" fill-rule="nonzero" points="16.194 10.291 16.246 10.291 16.246 10.344 16.194 10.291 16.246 10.344 16.248 21.992 16.144 21.992 16.141 10.344 16.193 10.396 16.193 10.291"/>
      <path stroke="#656263" stroke-width=".75" d="M0.52764,10.37322 L16.22027,10.38122 L16.22027,22.03772 C16.22027,25.76259 13.13327,29.44684 8.36714,29.44684 C3.94939,29.44684 0.48452,26.09547 0.51426,22.03772 L0.52766,10.37296 L0.52764,10.37322 Z"/>
      <text fill="#5A5758" font-family="Helvetica" font-size="8">
        <tspan x="2" y="8.094">SO</tspan>
      </text>
    </g>
  </g>
</svg>
