<svg xmlns="http://www.w3.org/2000/svg" width="126" height="102" viewBox="0 0 126 102">
  <g fill="none" fill-rule="evenodd" transform="translate(.766 1.013)">
    <path fill="#E3BBE2" fill-rule="nonzero" stroke="#E3BBE2" stroke-width=".709" d="M111.38398,1.37513 L116.41973,1.48613 L118.11035,2.80625 L114.85048,6.87175 L115.78985,11.48638 L117.53335,12.90851 L119.6531,11.55313 L124.6186,14.48488 L117.77098,24.70825 L117.21773,25.52475 L117.64623,26.16126 L118.28248,31.03113 L118.30998,31.93013 L118.08936,35.29226 L114.72723,39.02701 L116.2491,43.5375 L113.8281,51.58876 L109.09698,54.63276 L104.28261,56.38988 L103.14798,60.24988 L106.34373,61.34263 L107.90685,64.01238 L114.61648,75.37038 L119.12661,78.12388 L115.9031,84.43238 L117.61848,87.57288 L111.96048,90.18713 L102.00011,95.31975 L94.70948,100.50775 L94.16998,99 L94.33598,92.63601 L89.96398,89.82776 L89.74248,85.88475 L89.07873,85.56663 L86.42273,84.2385 L82.64586,87.46226 L78.31573,84.36288 L69.83561,88.66588 L65.78223,92.26238 L63.02861,84.8195 L62.36448,83.0215 L57.73073,83.98938 L50.8826,82.343 L47.4671,81.63788 L44.52461,81.36063 L43.4711,71.80138 L39.43298,68.81676 L37.32673,69.526 C37.32673,69.526 37.56661,70.83475 37.32611,70.75775 C37.08535,70.68075 28.21386,72.92363 28.21386,72.92363 L18.61173,71.3115 L17.6306,70.68075 L18.92523,69.65688 L24.6531,66.41988 L24.86023,65.13313 L25.48348,61.28751 L17.59736,54.99213 L15.45348,53.41501 L14.85811,52.9035 L12.3541,51.20188 L8.42686,48.47613 L6.38611,49.70801 L3.59648,51.103 L2.40761,50.37175 L0.0696,47.78438 L5.68434189e-14,47.02388 L3.59712,44.39538 L6.30862,37.64363 L10.279,35.638 L17.64075,36.24675 L19.82737,36.9005 L23.12412,39.81713 L25.153,40.70475 L26.98487,40.90913 L35.347,40.02351 L35.4023,42.77613 L35.4158,43.28813 L38.2658,42.38913 L40.27168,41.98801 L43.1218,40.59088 L44.3113,39.99575 L45.03092,39.94025 L50.37055,39.5945 L52.7638,36.55049 L57.2743,32.77375 L60.26192,26.54824 L60.45568,23.726 L63.05642,22.13525 L61.2028,18.53812 L61.1475,17.55574 L59.03113,15.38412 L58.86512,12.56187 L65.51913,6.70975 L67.7585,4.18475 L74.09888,1.64862 L80.94612,0 L84.24287,0.25362 L86.39862,1.77525 L88.55437,5.57962 C88.55437,5.57962 92.73875,4.31137 94.8945,4.31137 C97.04988,4.31137 103.64388,2.78987 103.64388,2.78987 L111.384,1.37512 L111.38398,1.37513 L111.38398,1.37513 Z"/>
    <g transform="translate(69.36 43.374)">
      <polygon fill="#ED192D" points="16.162 10.5 16.174 22.139 16.164 22.52 16.134 22.893 16.085 23.265 16.015 23.628 15.928 23.987 15.823 24.338 15.699 24.68 15.559 25.016 15.402 25.345 15.228 25.664 15.041 25.973 14.837 26.271 14.617 26.563 14.386 26.842 14.139 27.111 13.88 27.368 13.606 27.612 13.322 27.843 13.028 28.063 12.719 28.269 12.403 28.461 12.074 28.641 11.735 28.802 11.389 28.952 11.033 29.084 10.669 29.201 10.298 29.301 9.919 29.383 9.533 29.448 9.142 29.495 8.746 29.523 8.342 29.533 7.939 29.523 7.54 29.495 7.149 29.448 6.763 29.383 6.384 29.301 6.011 29.201 5.647 29.084 5.291 28.952 4.944 28.802 4.605 28.641 4.279 28.461 3.96 28.269 3.654 28.063 3.357 27.843 3.074 27.612 2.802 27.368 2.543 27.111 2.296 26.842 2.062 26.563 1.845 26.271 1.641 25.973 1.452 25.664 1.28 25.345 1.123 25.016 .983 24.68 .859 24.338 .754 23.987 .667 23.628 .597 23.265 .547 22.893 .517 22.52 .507 22.139 .492 10.5 16.162 10.5 16.162 10.5"/>
      <polygon fill="#231F20" fill-rule="nonzero" points=".44 10.5 .44 10.448 .493 10.448 .44 10.5 .493 10.448 16.162 10.448 16.162 10.552 .493 10.552 .545 10.5 .44 10.5"/>
      <polygon fill="#231F20" fill-rule="nonzero" points=".455 22.139 .455 22.139 .44 10.5 .545 10.5 .56 22.139 .56 22.139 .455 22.139"/>
      <polygon fill="#231F20" fill-rule="nonzero" points="8.342 29.585 8.342 29.585 7.936 29.575 7.535 29.548 7.142 29.5 6.753 29.435 6.372 29.351 5.996 29.251 5.629 29.134 5.27 28.999 4.922 28.85 4.58 28.688 4.254 28.506 3.933 28.314 3.624 28.105 3.325 27.886 3.038 27.652 2.767 27.405 2.505 27.149 2.256 26.877 2.022 26.596 1.803 26.302 1.596 26 1.407 25.689 1.232 25.367 1.076 25.039 .934 24.7 .809 24.356 .704 24 .615 23.639 .545 23.272 .495 22.899 .465 22.523 .455 22.139 .56 22.139 .57 22.517 .6 22.889 .65 23.257 .72 23.619 .804 23.975 .909 24.321 1.033 24.66 1.17 24.994 1.327 25.323 1.496 25.639 1.686 25.945 1.888 26.242 2.102 26.531 2.336 26.807 2.58 27.074 2.837 27.33 3.108 27.572 3.39 27.801 3.684 28.02 3.988 28.225 4.304 28.417 4.631 28.593 4.967 28.755 5.311 28.905 5.664 29.034 6.026 29.151 6.397 29.251 6.773 29.331 7.157 29.396 7.545 29.443 7.941 29.47 8.342 29.48 8.342 29.48 8.342 29.585"/>
      <polygon fill="#231F20" fill-rule="nonzero" points="16.227 22.139 16.227 22.139 16.217 22.522 16.187 22.899 16.137 23.272 16.067 23.638 15.977 24 15.873 24.356 15.748 24.7 15.606 25.038 15.449 25.37 15.272 25.689 15.086 26 14.879 26.301 14.657 26.595 14.425 26.877 14.176 27.148 13.915 27.405 13.641 27.652 13.354 27.883 13.058 28.105 12.747 28.314 12.428 28.506 12.099 28.688 11.757 28.85 11.409 28.999 11.05 29.134 10.684 29.251 10.31 29.351 9.929 29.435 9.54 29.5 9.147 29.547 8.748 29.575 8.342 29.585 8.342 29.48 8.743 29.47 9.137 29.443 9.525 29.395 9.909 29.33 10.285 29.251 10.654 29.151 11.015 29.034 11.369 28.905 11.713 28.755 12.049 28.593 12.378 28.416 12.692 28.224 12.998 28.02 13.289 27.803 13.571 27.572 13.845 27.33 14.102 27.074 14.346 26.807 14.577 26.53 14.794 26.241 14.996 25.945 15.183 25.639 15.355 25.32 15.512 24.993 15.648 24.66 15.773 24.321 15.878 23.975 15.962 23.618 16.032 23.257 16.082 22.888 16.112 22.517 16.122 22.139 16.122 22.139 16.227 22.139"/>
      <polygon fill="#231F20" fill-rule="nonzero" points="16.162 10.448 16.214 10.448 16.214 10.5 16.162 10.448 16.214 10.5 16.227 22.139 16.122 22.139 16.11 10.5 16.162 10.552 16.162 10.448"/>
      <polygon fill="#FFF" points="13.175 13.38 15.447 13.377 15.447 14.122 13.18 14.122 13.185 16.389 12.44 16.389 12.44 14.122 10.163 14.122 10.163 13.377 12.43 13.377 12.43 11.112 13.175 11.112 13.175 13.379 13.175 13.379"/>
      <polygon fill="#231F20" fill-rule="nonzero" points="13.175 11.061 13.227 11.061 13.227 11.113 13.175 11.061 13.227 11.113 13.227 13.38 13.123 13.38 13.123 11.113 13.175 11.165 13.175 11.061"/>
      <polygon fill="#231F20" fill-rule="nonzero" points="12.378 11.113 12.378 11.061 12.43 11.061 12.378 11.113 12.43 11.061 13.175 11.061 13.175 11.165 12.43 11.165 12.482 11.113 12.378 11.113"/>
      <polygon fill="#231F20" fill-rule="nonzero" points="12.482 13.377 12.482 13.43 12.43 13.43 12.43 13.325 12.378 13.377 12.378 11.113 12.483 11.113 12.483 13.377 12.43 13.43 12.483 13.377 12.483 13.377"/>
      <polygon fill="#231F20" fill-rule="nonzero" points="10.111 13.377 10.111 13.325 10.163 13.325 10.111 13.377 10.163 13.325 12.43 13.325 12.43 13.43 10.163 13.43 10.216 13.377 10.111 13.377"/>
      <polygon fill="#231F20" fill-rule="nonzero" points="10.163 14.174 10.111 14.174 10.111 14.122 10.163 14.174 10.111 14.122 10.111 13.377 10.216 13.377 10.216 14.122 10.163 14.07 10.163 14.174"/>
      <polygon fill="#231F20" fill-rule="nonzero" points="12.44 14.07 12.492 14.07 12.492 14.122 12.388 14.122 12.44 14.175 10.163 14.175 10.163 14.07 12.44 14.07 12.492 14.122 12.44 14.07 12.44 14.07"/>
      <polygon fill="#231F20" fill-rule="nonzero" points="12.44 16.441 12.388 16.441 12.388 16.389 12.44 16.441 12.388 16.389 12.388 14.122 12.492 14.122 12.492 16.389 12.44 16.337 12.44 16.442"/>
      <polygon fill="#231F20" fill-rule="nonzero" points="13.237 16.389 13.237 16.442 13.185 16.442 13.237 16.389 13.185 16.442 12.44 16.442 12.44 16.337 13.185 16.337 13.133 16.389 13.238 16.389"/>
      <polygon fill="#231F20" fill-rule="nonzero" points="13.128 14.122 13.128 14.07 13.18 14.07 13.18 14.174 13.232 14.122 13.237 16.389 13.132 16.389 13.127 14.122 13.18 14.07 13.127 14.122 13.127 14.122"/>
      <polygon fill="#231F20" fill-rule="nonzero" points="15.499 14.122 15.499 14.175 15.447 14.175 15.499 14.122 15.447 14.175 13.18 14.175 13.18 14.07 15.447 14.07 15.395 14.122 15.499 14.122"/>
      <polygon fill="#231F20" fill-rule="nonzero" points="15.447 13.325 15.499 13.325 15.499 13.377 15.447 13.325 15.499 13.377 15.499 14.122 15.395 14.122 15.395 13.377 15.447 13.43 15.447 13.325"/>
      <polygon fill="#231F20" fill-rule="nonzero" points="13.175 13.432 13.123 13.432 13.123 13.38 13.227 13.38 13.175 13.328 15.447 13.326 15.447 13.43 13.175 13.432 13.123 13.38 13.175 13.432 13.175 13.432"/>
      <path stroke="#656263" stroke-width=".75" d="M0.507965,10.509235 L16.200715,10.517365 L16.200715,22.173865 C16.200715,25.898605 13.113465,29.582855 8.347585,29.582855 C3.929845,29.582855 0.464835,26.231605 0.494465,22.173865 L0.507965,10.509235 L0.507965,10.509235 Z"/>
      <text fill="#5A5758" font-family="Helvetica" font-size="8">
        <tspan x="2.538" y="8.239">SZ</tspan>
      </text>
    </g>
  </g>
</svg>
