<svg xmlns="http://www.w3.org/2000/svg" width="161" height="242" viewBox="0 0 161 242">
  <g fill="none" fill-rule="evenodd" transform="translate(.438 .438)">
    <path fill="#E3BBE2" fill-rule="nonzero" d="M115.5625,0 L112.46875,3.3125 L108.40625,2.1875 L105.15625,4.0625 L107.4375,10.875 L104.6875,13.84375 L90.03125,20.15625 L80.5,19.125 L73.34375,16.75 L62.875,17.84375 L58.4375,15.78125 L55.625,16.875 L50.8125,20.71875 L45.625,16.8125 L40.65625,18.40625 L36.96875,15.09375 L29.25,13.75 L26.1875,17.15625 L25.21875,24.46875 L26.03125,28.5625 L18.9375,30.1875 L17.46875,32.0625 L14.625,37.5 L0.1875,43.03125 L-5.68434189e-14,54.375 L9.25,50.71875 L14.5,55.03125 L13.125,60.1875 L13.78125,63.09375 L15.9375,66.5625 L14.96875,68.15625 L15.6875,76 L15.1875,86.9375 L14.75,91.09375 L11.71875,94.53125 L10.65625,98.6875 L7.40625,99.6875 L13.96875,110.65625 L11.1875,115.21875 L15.6875,116.34375 L16.84375,119.875 L29.96875,124 L31.78125,130.1875 L38.03125,137.03125 L38.6875,139.90625 L45,143.03125 L42.78125,146.25 L46.3125,149.1875 L46.8125,153.125 L54.28125,151.90625 L56.3125,155.03125 L64.5,158.125 L68.09375,159.46875 L75.25,154.4375 L76.71875,157.0625 L82.375,160.125 L86.21875,159.15625 L87.09375,157.9375 L97.03125,165.65625 L97.8125,169.96875 L95.28125,173.53125 L93.5,174.96875 L92.03125,177.84375 L90.3125,180.46875 L87.46875,181.59375 L85.71875,184.5 L84.90625,185.71875 L83.75,190.125 L83.7812,190.125 L91.3437,191.71875 L99.12495,197.84375 L100.2812,198.84375 L101.5937,200.03125 L103.56245,200.46875 L106.2812,200.125 L107.12495,203.375 L105.93745,207.25 L106.6562,209.28125 L109.5312,211.625 L111.2187,213.53125 L111.8437,214.875 L113.2812,219.84375 L114.8437,226.21875 L116.7812,226.53125 L117.2812,227.15625 L116.06245,228.125 L110.9687,234.65625 L110.62495,238.1875 L113.99995,237.1875 L117.7187,234.40625 L119.7187,234.65625 L122.62495,237.375 L126.06245,235.4375 L128.31245,236.53125 L127.6562,240.375 L132.7187,241.4375 L136.12495,239.875 L136.18745,234.90625 L139.43745,230.125 L140.02612,224.9495 L143.5937,222.25 L146.18745,217.9375 L146.49995,216.0625 L144.4687,217 L144.31245,213.375 L140.62495,211.9375 L137.18745,208.75 L134.49995,209.09375 L132.31245,208.21875 L132.87495,205.84375 L130.7187,204.03125 L130.99995,199.03125 L126.1562,195.8125 L127.31245,195.5625 L126.99995,193.1875 L129.8437,192.9375 L133.81245,189.125 L132.99995,187 L132.87495,185.4375 L132.7187,183.90625 L132.56245,182.40625 L131.24995,180.875 L129.24995,178.46875 L130.93745,173.375 L131.6562,172.125 L137.99995,168.90625 L143.0312,168.21875 L143.7187,166.625 L143.99995,164.0625 L145.81245,161.71875 L143.81245,155.65625 L142.1562,151.90625 L143.43745,150.90625 L152.4062,145.59375 L155.43745,140.71875 L159.4062,138.3125 L159.81245,136.15625 L155.6562,133.5625 L151.3437,127.1875 L145.06245,123.75 L144.81245,123.40625 L141.43745,116.90625 L142.0312,111.125 L142.2187,109.375 L142.2812,108.90625 L139.18745,104.875 L137.43745,99.875 L139.4062,96.8125 L141.5312,93.34375 L139.5625,90.625 L139.4688,88.0625 L140.1563,84.78125 L140.6563,84.75005 L144.62505,82.68755 L145.2813,75.7188 L143.5938,71.2188 L146.75005,63.93755 L143.0313,56.87505 L144.75005,49.9063 L141.25005,44.7188 L136.25005,45.18755 L133.8438,43.62505 L133.0313,40.8438 L133.25005,40.2188 L129.6563,35.5938 L128.9688,30.0938 L128.8751,28.31255 L130.03135,18.8438 L133.5001,13.50005 L131.40635,8.62505 L125.5001,5.43755 L119.90635,8.0938 L116.59385,8.0938 L116.9376,3.50005 L115.5626,0 L115.5625,0 Z M123.25,192.5 L123.78125,196.03125 L123.0625,198.875 L121.1875,198.40625 L123.25,192.5 Z"/>
    <g transform="translate(78.816 82.395)">
      <polygon fill="#1377C7" points="8.343 29.55 8.343 29.458 8.351 10.5 16.181 10.5 16.184 22.149 16.174 22.53 16.144 22.906 16.094 23.277 16.024 23.641 15.937 24 15.829 24.351 15.707 24.695 15.568 25.031 15.409 25.36 15.237 25.679 15.047 25.988 14.843 26.289 14.624 26.578 14.392 26.857 14.145 27.126 13.886 27.383 13.615 27.629 13.329 27.861 13.032 28.08 12.725 28.287 12.407 28.479 12.08 28.658 11.742 28.82 11.395 28.969 11.039 29.102 10.673 29.219 10.302 29.318 9.923 29.4 9.537 29.465 9.146 29.513 8.747 29.54 8.343 29.55 8.343 29.55"/>
      <polygon fill="#ED192D" points="8.343 29.458 8.343 29.55 7.94 29.54 7.541 29.512 7.147 29.465 6.761 29.4 6.382 29.318 6.011 29.218 5.645 29.101 5.289 28.969 4.943 28.82 4.604 28.658 4.275 28.478 3.959 28.287 3.65 28.08 3.353 27.861 3.069 27.629 2.798 27.382 2.539 27.126 2.292 26.857 2.058 26.578 1.841 26.289 1.637 25.987 1.447 25.678 1.273 25.36 1.116 25.031 .977 24.694 .852 24.351 .748 23.999 .66 23.641 .59 23.277 .541 22.906 .511 22.53 .501 22.148 .499 10.512 8.351 10.5 8.343 29.457 8.343 29.457"/>
      <polygon fill="#231F20" fill-rule="nonzero" points="8.298 10.5 8.298 10.448 8.35 10.448 8.298 10.5 8.35 10.448 16.18 10.448 16.18 10.552 8.35 10.552 8.403 10.5 8.298 10.5"/>
      <polygon fill="#231F20" fill-rule="nonzero" points="8.395 29.55 8.291 29.55 8.299 10.5 8.403 10.5 8.396 29.55 8.291 29.55 8.396 29.55"/>
      <polygon fill="#231F20" fill-rule="nonzero" points="8.35 10.448 8.403 10.448 8.403 10.5 8.35 10.448 8.403 10.5 8.396 29.55 8.291 29.55 8.299 10.5 8.351 10.552 8.351 10.448"/>
      <polygon fill="#231F20" fill-rule="nonzero" points=".446 10.513 .446 10.46 .498 10.46 .446 10.513 .498 10.46 8.35 10.448 8.35 10.552 .498 10.565 .551 10.512 .446 10.512"/>
      <polygon fill="#231F20" fill-rule="nonzero" points=".449 22.149 .449 22.149 .447 10.513 .551 10.513 .553 22.149 .553 22.149 .449 22.149"/>
      <polygon fill="#231F20" fill-rule="nonzero" points="8.343 29.602 8.343 29.602 7.937 29.592 7.536 29.565 7.14 29.517 6.751 29.453 6.37 29.368 5.996 29.268 5.628 29.151 5.269 29.017 4.92 28.867 4.579 28.705 4.25 28.523 3.931 28.332 3.62 28.122 3.321 27.903 3.034 27.669 2.763 27.42 2.501 27.163 2.252 26.892 2.018 26.61 1.799 26.319 1.592 26.015 1.403 25.703 1.226 25.385 1.069 25.053 .927 24.715 .802 24.368 .698 24.012 .608 23.651 .538 23.285 .489 22.911 .459 22.532 .449 22.149 .553 22.149 .563 22.527 .593 22.901 .643 23.27 .713 23.631 .798 23.987 .902 24.333 1.027 24.675 1.164 25.008 1.321 25.335 1.493 25.654 1.682 25.96 1.884 26.259 2.098 26.545 2.332 26.822 2.576 27.088 2.833 27.345 3.104 27.589 3.386 27.818 3.68 28.038 3.986 28.242 4.3 28.434 4.629 28.611 4.965 28.773 5.309 28.922 5.663 29.052 6.027 29.169 6.395 29.268 6.771 29.348 7.155 29.413 7.546 29.46 7.942 29.487 8.343 29.498 8.343 29.498 8.343 29.602"/>
      <polygon fill="#231F20" fill-rule="nonzero" points="16.235 22.149 16.235 22.149 16.225 22.532 16.195 22.911 16.145 23.285 16.076 23.651 15.986 24.012 15.879 24.368 15.757 24.712 15.615 25.053 15.455 25.385 15.281 25.704 15.092 26.015 14.885 26.319 14.663 26.61 14.432 26.892 14.183 27.163 13.921 27.42 13.649 27.669 13.36 27.903 13.061 28.123 12.752 28.332 12.431 28.524 12.105 28.705 11.763 28.867 11.415 29.017 11.056 29.151 10.687 29.268 10.313 29.368 9.932 29.453 9.544 29.517 9.15 29.565 8.749 29.592 8.343 29.602 8.343 29.498 8.744 29.488 9.14 29.46 9.529 29.413 9.912 29.348 10.289 29.269 10.657 29.169 11.021 29.052 11.375 28.922 11.719 28.773 12.055 28.611 12.381 28.434 12.698 28.242 13.001 28.038 13.296 27.819 13.579 27.59 13.851 27.345 14.108 27.089 14.352 26.822 14.584 26.546 14.8 26.259 15.002 25.96 15.191 25.654 15.361 25.335 15.52 25.009 15.657 24.677 15.779 24.334 15.886 23.987 15.971 23.631 16.041 23.27 16.09 22.901 16.12 22.528 16.13 22.149 16.13 22.149 16.235 22.149"/>
      <polygon fill="#231F20" fill-rule="nonzero" points="16.18 10.448 16.233 10.448 16.233 10.5 16.18 10.448 16.233 10.5 16.236 22.149 16.131 22.149 16.129 10.5 16.181 10.552 16.181 10.448"/>
      <path stroke="#656263" stroke-width=".75" d="M0.513875,10.52702 L16.206375,10.53515 L16.206375,22.19165 C16.206375,25.91652 13.119495,29.60077 8.353255,29.60077 C3.935625,29.60077 0.470625,26.24952 0.500505,22.19165 L0.513905,10.52702 L0.513875,10.52702 Z"/>
      <text fill="#5A5758" font-family="Helvetica" font-size="8">
        <tspan x="4.431" y="8.249">TI</tspan>
      </text>
    </g>
  </g>
</svg>
