<svg xmlns="http://www.w3.org/2000/svg" width="115" height="141" viewBox="0 0 115 141">
  <g fill="none" fill-rule="evenodd" transform="translate(1.044 .83)">
    <polygon fill="#F9A690" fill-rule="nonzero" stroke="#F9A690" stroke-width=".709" points="34.048 .709 36.154 0 40.192 2.985 40.192 7.55 41.246 12.544 44.188 12.821 47.604 13.526 54.452 15.173 59.086 14.205 59.75 16.003 62.503 23.446 66.557 19.849 75.037 15.546 79.367 18.645 83.144 15.422 85.8 16.75 86.464 17.068 86.685 21.011 91.057 23.819 90.891 30.183 91.431 31.691 98.721 26.503 108.682 21.37 111.199 25.106 112.486 26.987 112.528 27.555 113.15 34.541 96.009 44.778 98.167 48.542 97.605 52.996 91.222 58.71 87.612 59.388 87.294 61.616 88.746 67.039 85.8 68.173 83.421 76.681 78.385 78.964 74.248 74.744 71.301 76.847 70.458 82.921 63.402 87.057 59.861 86.531 56.139 90.128 56.444 94.666 57.523 98.387 52.695 102.718 52.113 107.02 57.772 112.761 57.906 123.4 55.005 124.48 50.204 128.325 45.031 124.424 40.05 126.015 36.357 122.708 28.651 121.367 25.58 124.756 24.625 132.075 25.413 136.184 18.33 137.802 16.872 139.67 6.032 133.887 1.757 119.485 5.119 110.147 4.981 104.004 3.563 101.459 .277 96.077 0 92.107 2.574 89.285 6.073 92.633 10.943 91.83 11.483 84.317 8.079 72.876 9.94 69.543 18.718 66.72 16.947 60.508 16.656 59.485 16.518 59.001 17.418 48.998 21.609 44.959 19.7 42.51 14.18 42.26 13.35 35.828 15.743 33.988 14.679 30.764 11.511 29.353 12.658 27.07 15.439 24.414 18.054 23.238 21.277 23.543 28.831 20.305 28.706 16.888 31.445 15.671 31.21 13.125 30.892 9.764 34.765 4.866 34.752 3.566 34.048 .709"/>
    <g transform="translate(35.04 56.785)">
      <polygon fill="#FDD213" points="16.159 10.5 16.174 22.139 16.164 22.52 16.134 22.896 16.085 23.265 16.015 23.628 15.927 23.987 15.823 24.338 15.698 24.682 15.559 25.018 15.402 25.345 15.228 25.664 15.041 25.973 14.836 26.274 14.617 26.563 14.385 26.842 14.139 27.111 13.88 27.368 13.606 27.612 13.322 27.846 13.028 28.065 12.719 28.269 12.403 28.464 12.074 28.641 11.735 28.802 11.389 28.952 11.032 29.084 10.669 29.201 10.298 29.301 9.919 29.383 9.533 29.448 9.142 29.495 8.746 29.523 8.342 29.533 7.939 29.523 7.54 29.495 7.149 29.448 6.763 29.383 6.384 29.301 6.01 29.201 5.647 29.084 5.29 28.952 4.944 28.802 4.605 28.641 4.279 28.464 3.96 28.269 3.654 28.065 3.357 27.846 3.073 27.612 2.802 27.368 2.543 27.111 2.296 26.842 2.062 26.563 1.845 26.274 1.641 25.973 1.451 25.664 1.28 25.345 1.123 25.018 .983 24.682 .858 24.338 .754 23.987 .667 23.628 .597 23.265 .547 22.896 .517 22.52 .507 22.139 .492 10.5 16.159 10.5 16.159 10.5"/>
      <polygon fill="#231F20" fill-rule="nonzero" points=".44 10.5 .44 10.448 .492 10.448 .44 10.5 .492 10.448 16.159 10.448 16.159 10.552 .492 10.552 .545 10.5 .44 10.5"/>
      <polygon fill="#231F20" fill-rule="nonzero" points=".455 22.139 .455 22.139 .44 10.5 .545 10.5 .56 22.139 .56 22.139 .455 22.139"/>
      <polygon fill="#231F20" fill-rule="nonzero" points="8.342 29.585 8.342 29.585 7.936 29.575 7.535 29.547 7.141 29.5 6.753 29.435 6.372 29.351 5.996 29.251 5.629 29.134 5.271 28.999 4.922 28.85 4.581 28.688 4.254 28.509 3.933 28.314 3.624 28.107 3.325 27.886 3.038 27.652 2.767 27.405 2.505 27.148 2.256 26.877 2.022 26.595 1.803 26.304 1.596 26 1.407 25.689 1.232 25.37 1.076 25.041 .933 24.702 .809 24.356 .704 24 .614 23.638 .545 23.272 .495 22.901 .465 22.522 .455 22.139 .56 22.139 .57 22.517 .6 22.891 .65 23.257 .72 23.618 .804 23.975 .909 24.321 1.033 24.662 1.17 24.996 1.327 25.32 1.497 25.639 1.686 25.945 1.888 26.244 2.102 26.531 2.336 26.807 2.58 27.074 2.837 27.33 3.109 27.572 3.39 27.806 3.684 28.023 3.988 28.225 4.304 28.419 4.631 28.593 4.967 28.755 5.311 28.905 5.664 29.034 6.026 29.151 6.397 29.251 6.773 29.331 7.157 29.395 7.545 29.443 7.941 29.47 8.342 29.48 8.342 29.48 8.342 29.585"/>
      <polygon fill="#231F20" fill-rule="nonzero" points="16.227 22.139 16.227 22.139 16.217 22.522 16.187 22.901 16.137 23.272 16.067 23.638 15.978 24 15.873 24.356 15.748 24.702 15.606 25.041 15.449 25.37 15.273 25.689 15.086 26 14.879 26.304 14.657 26.595 14.425 26.877 14.176 27.148 13.915 27.405 13.641 27.652 13.354 27.886 13.058 28.107 12.746 28.314 12.428 28.509 12.096 28.688 11.758 28.85 11.409 28.999 11.05 29.134 10.684 29.251 10.31 29.351 9.929 29.435 9.541 29.5 9.147 29.547 8.748 29.575 8.342 29.585 8.342 29.48 8.743 29.47 9.137 29.443 9.525 29.395 9.909 29.33 10.285 29.251 10.654 29.151 11.015 29.034 11.369 28.905 11.713 28.755 12.052 28.593 12.378 28.419 12.692 28.224 12.998 28.023 13.29 27.806 13.571 27.572 13.845 27.33 14.102 27.074 14.346 26.807 14.577 26.53 14.794 26.244 14.996 25.945 15.183 25.639 15.355 25.32 15.512 24.996 15.649 24.662 15.773 24.321 15.878 23.975 15.963 23.618 16.032 23.257 16.082 22.891 16.112 22.517 16.122 22.139 16.122 22.139 16.227 22.139"/>
      <polygon fill="#231F20" fill-rule="nonzero" points="16.159 10.448 16.212 10.448 16.212 10.5 16.159 10.448 16.212 10.5 16.227 22.139 16.122 22.139 16.107 10.5 16.159 10.552 16.159 10.448"/>
      <polygon fill="#231F20" points="8.519 16.441 8.449 16.441 8.399 16.441 8.352 16.443 8.305 16.448 8.255 16.455 8.208 16.465 8.16 16.475 8.115 16.49 8.07 16.505 8.026 16.525 7.983 16.545 7.941 16.565 7.901 16.59 7.861 16.615 7.824 16.645 7.789 16.672 7.754 16.705 7.714 16.682 7.674 16.662 7.637 16.642 7.597 16.622 7.555 16.602 7.515 16.585 7.475 16.567 7.433 16.55 7.393 16.535 7.35 16.523 7.305 16.51 7.263 16.5 7.219 16.49 7.174 16.483 7.129 16.478 7.081 16.476 7.022 16.478 6.967 16.483 6.917 16.49 6.872 16.5 6.83 16.51 6.792 16.523 6.757 16.535 6.727 16.548 6.7 16.56 6.678 16.572 6.66 16.585 6.645 16.595 6.633 16.605 6.626 16.612 6.621 16.615 6.619 16.617 6.617 16.615 6.607 16.608 6.589 16.598 6.567 16.583 6.535 16.563 6.495 16.543 6.445 16.521 6.385 16.496 6.348 16.489 6.31 16.484 6.27 16.482 6.233 16.48 6.193 16.48 6.156 16.482 6.119 16.487 6.081 16.492 6.044 16.499 6.007 16.509 5.972 16.521 5.937 16.534 5.902 16.551 5.869 16.569 5.84 16.589 5.81 16.611 5.753 16.566 5.695 16.516 5.64 16.469 5.583 16.416 5.528 16.364 5.476 16.312 5.424 16.257 5.371 16.202 5.319 16.145 5.269 16.09 5.222 16.033 5.172 15.976 5.125 15.918 5.08 15.861 5.035 15.804 4.99 15.746 4.955 15.692 4.92 15.634 4.89 15.577 4.861 15.517 4.831 15.457 4.806 15.395 4.781 15.333 4.758 15.27 4.736 15.208 4.719 15.143 4.701 15.078 4.686 15.014 4.674 14.946 4.661 14.879 4.654 14.814 4.646 14.747 4.641 14.679 4.636 14.612 4.636 14.545 4.636 14.478 4.639 14.41 4.646 14.343 4.651 14.278 4.661 14.211 4.674 14.144 4.686 14.079 4.701 14.014 4.721 13.949 4.741 13.887 4.761 13.822 4.786 13.762 4.813 13.7 4.848 13.635 4.886 13.57 4.928 13.508 4.97 13.443 5.015 13.381 5.062 13.321 5.11 13.259 5.157 13.197 5.207 13.137 5.257 13.074 5.307 13.015 5.357 12.952 5.404 12.89 5.451 12.828 5.496 12.766 5.541 12.703 5.581 12.638 5.621 12.574 5.656 12.509 5.691 12.444 5.718 12.377 5.745 12.307 5.765 12.237 5.783 12.168 5.795 12.095 5.8 12.021 5.8 11.946 5.795 11.869 5.785 11.789 5.765 11.707 5.74 11.625 5.708 11.54 5.693 11.51 5.678 11.48 5.663 11.448 5.648 11.415 5.633 11.385 5.616 11.353 5.598 11.321 5.578 11.291 5.558 11.261 5.536 11.233 5.513 11.206 5.488 11.184 5.461 11.161 5.431 11.141 5.401 11.124 5.366 11.111 5.374 11.159 5.384 11.211 5.392 11.261 5.399 11.313 5.407 11.368 5.412 11.42 5.417 11.475 5.419 11.53 5.417 11.582 5.414 11.637 5.407 11.689 5.397 11.742 5.382 11.794 5.365 11.841 5.34 11.891 5.313 11.936 5.258 12.003 5.2 12.071 5.143 12.135 5.086 12.2 5.024 12.265 4.964 12.327 4.902 12.39 4.839 12.452 4.777 12.512 4.715 12.574 4.65 12.634 4.588 12.694 4.525 12.753 4.463 12.816 4.401 12.876 4.339 12.938 4.279 13 4.219 13.063 4.162 13.125 4.107 13.19 4.05 13.255 3.997 13.319 3.947 13.387 3.898 13.454 3.85 13.524 3.805 13.593 3.763 13.666 3.723 13.74 3.686 13.817 3.653 13.895 3.623 13.974 3.596 14.057 3.556 14.156 3.524 14.256 3.496 14.355 3.477 14.453 3.462 14.55 3.454 14.644 3.449 14.739 3.452 14.834 3.459 14.928 3.469 15.02 3.484 15.113 3.503 15.205 3.528 15.294 3.556 15.384 3.586 15.474 3.621 15.563 3.656 15.651 3.696 15.738 3.736 15.825 3.78 15.912 3.825 15.997 3.872 16.084 3.92 16.169 3.967 16.253 4.017 16.335 4.067 16.42 4.119 16.502 4.169 16.584 4.219 16.669 4.269 16.751 4.316 16.831 4.364 16.913 4.361 16.926 4.356 16.936 4.349 16.944 4.339 16.946 4.274 16.918 4.206 16.896 4.139 16.876 4.075 16.858 4.007 16.844 3.94 16.834 3.873 16.824 3.803 16.819 3.736 16.817 3.668 16.815 3.601 16.817 3.534 16.819 3.464 16.827 3.397 16.834 3.33 16.844 3.265 16.856 3.198 16.871 3.13 16.886 3.066 16.901 3.001 16.921 2.934 16.941 2.871 16.961 2.807 16.983 2.744 17.005 2.682 17.03 2.62 17.055 2.56 17.08 2.5 17.105 2.44 17.133 2.383 17.16 2.326 17.187 2.271 17.215 2.306 17.325 2.351 17.432 2.403 17.534 2.468 17.631 2.537 17.726 2.617 17.813 2.702 17.897 2.794 17.975 2.891 18.047 2.993 18.111 3.101 18.171 3.21 18.221 3.325 18.266 3.439 18.304 3.556 18.331 3.673 18.351 3.731 18.361 3.786 18.369 3.843 18.371 3.9 18.371 3.957 18.371 4.012 18.369 4.069 18.367 4.124 18.362 4.182 18.36 4.236 18.357 4.291 18.355 4.346 18.355 4.401 18.355 4.456 18.357 4.508 18.365 4.56 18.375 4.565 18.452 4.572 18.529 4.58 18.606 4.59 18.681 4.601 18.756 4.615 18.831 4.628 18.905 4.645 18.98 4.663 19.052 4.683 19.125 4.705 19.194 4.728 19.266 4.753 19.336 4.78 19.406 4.808 19.473 4.84 19.543 4.87 19.61 4.905 19.675 4.942 19.74 4.979 19.805 5.019 19.869 5.059 19.931 5.104 19.994 5.149 20.056 5.196 20.116 5.246 20.176 5.298 20.233 5.353 20.29 5.408 20.348 5.465 20.402 5.525 20.457 5.588 20.51 5.695 20.574 5.789 20.644 5.871 20.721 5.944 20.804 6.006 20.891 6.061 20.983 6.106 21.077 6.148 21.175 6.183 21.274 6.218 21.376 6.248 21.479 6.278 21.581 6.305 21.683 6.337 21.785 6.37 21.884 6.407 21.982 6.43 22.044 6.452 22.104 6.469 22.166 6.487 22.231 6.501 22.293 6.514 22.358 6.524 22.42 6.534 22.485 6.541 22.55 6.546 22.615 6.549 22.68 6.549 22.744 6.549 22.812 6.546 22.876 6.541 22.941 6.536 23.006 6.528 23.071 6.518 23.133 6.505 23.198 6.493 23.263 6.478 23.325 6.461 23.387 6.443 23.45 6.423 23.512 6.401 23.572 6.378 23.632 6.354 23.691 6.326 23.749 6.299 23.806 6.269 23.863 6.239 23.918 6.206 23.973 6.177 24.055 6.157 24.135 6.144 24.215 6.139 24.294 6.144 24.372 6.154 24.449 6.169 24.526 6.191 24.601 6.219 24.675 6.249 24.75 6.284 24.822 6.321 24.895 6.358 24.967 6.401 25.036 6.441 25.106 6.483 25.176 6.433 25.246 6.386 25.318 6.343 25.393 6.301 25.468 6.264 25.545 6.226 25.622 6.194 25.702 6.166 25.784 6.139 25.866 6.116 25.951 6.097 26.035 6.082 26.123 6.069 26.212 6.059 26.299 6.054 26.389 6.051 26.481 6.054 26.598 6.064 26.715 6.079 26.83 6.101 26.942 6.129 27.054 6.164 27.164 6.201 27.268 6.246 27.373 6.296 27.475 6.351 27.575 6.408 27.669 6.473 27.764 6.542 27.854 6.615 27.941 6.692 28.023 6.774 28.103 6.859 28.18 6.949 28.25 7.041 28.319 7.138 28.384 7.238 28.444 7.34 28.499 7.444 28.549 7.554 28.596 7.664 28.636 7.778 28.673 7.895 28.703 8.012 28.728 8.132 28.748 8.254 28.763 8.378 28.773 8.503 28.775 8.503 28.775 8.628 28.773 8.752 28.763 8.872 28.748 8.991 28.728 9.111 28.703 9.226 28.673 9.338 28.636 9.447 28.596 9.554 28.549 9.659 28.499 9.759 28.444 9.858 28.384 9.953 28.319 10.043 28.25 10.132 28.18 10.215 28.103 10.294 28.023 10.372 27.941 10.441 27.854 10.509 27.764 10.571 27.669 10.631 27.575 10.683 27.475 10.73 27.373 10.775 27.268 10.812 27.164 10.845 27.054 10.87 26.942 10.892 26.83 10.907 26.715 10.917 26.598 10.92 26.481 10.917 26.389 10.912 26.299 10.902 26.212 10.89 26.123 10.875 26.035 10.855 25.951 10.83 25.866 10.805 25.784 10.775 25.702 10.743 25.622 10.708 25.545 10.668 25.468 10.628 25.393 10.583 25.318 10.536 25.246 10.486 25.176 10.528 25.106 10.568 25.036 10.611 24.967 10.648 24.895 10.685 24.822 10.72 24.75 10.75 24.675 10.778 24.601 10.8 24.526 10.815 24.449 10.825 24.372 10.83 24.294 10.825 24.215 10.813 24.135 10.793 24.055 10.763 23.973 10.73 23.918 10.701 23.863 10.671 23.806 10.643 23.749 10.616 23.691 10.591 23.632 10.569 23.572 10.546 23.512 10.526 23.45 10.509 23.387 10.491 23.325 10.476 23.263 10.464 23.198 10.451 23.133 10.441 23.071 10.434 23.006 10.429 22.941 10.424 22.876 10.422 22.812 10.422 22.744 10.422 22.68 10.424 22.615 10.429 22.55 10.436 22.485 10.446 22.42 10.456 22.358 10.469 22.293 10.484 22.231 10.501 22.166 10.519 22.104 10.541 22.044 10.563 21.982 10.601 21.884 10.633 21.785 10.666 21.683 10.693 21.581 10.723 21.479 10.753 21.376 10.788 21.274 10.823 21.175 10.865 21.077 10.91 20.983 10.965 20.891 11.027 20.804 11.099 20.721 11.182 20.644 11.276 20.574 11.383 20.51 11.446 20.457 11.506 20.402 11.563 20.348 11.62 20.29 11.672 20.233 11.725 20.176 11.775 20.116 11.822 20.056 11.867 19.994 11.911 19.931 11.954 19.869 11.994 19.805 12.031 19.74 12.066 19.675 12.101 19.61 12.133 19.543 12.163 19.473 12.193 19.406 12.218 19.336 12.243 19.266 12.268 19.194 12.288 19.125 12.307 19.052 12.325 18.98 12.343 18.905 12.357 18.831 12.37 18.756 12.38 18.681 12.39 18.606 12.4 18.529 12.405 18.452 12.41 18.375 12.462 18.365 12.514 18.357 12.569 18.355 12.624 18.355 12.679 18.355 12.733 18.357 12.788 18.36 12.846 18.362 12.9 18.367 12.958 18.369 13.013 18.371 13.07 18.371 13.127 18.371 13.185 18.369 13.239 18.361 13.297 18.351 13.414 18.331 13.531 18.304 13.645 18.266 13.76 18.221 13.87 18.171 13.977 18.111 14.079 18.047 14.176 17.975 14.268 17.897 14.353 17.813 14.432 17.726 14.502 17.631 14.567 17.534 14.619 17.432 14.664 17.325 14.699 17.215 14.644 17.187 14.587 17.16 14.53 17.133 14.47 17.105 14.41 17.08 14.35 17.055 14.29 17.03 14.228 17.005 14.164 16.983 14.101 16.961 14.037 16.941 13.972 16.921 13.907 16.901 13.84 16.886 13.775 16.871 13.708 16.856 13.641 16.844 13.573 16.834 13.506 16.827 13.439 16.819 13.369 16.817 13.302 16.815 13.234 16.817 13.167 16.819 13.1 16.824 13.03 16.834 12.963 16.844 12.896 16.858 12.831 16.876 12.763 16.896 12.696 16.918 12.632 16.946 12.624 16.944 12.617 16.936 12.614 16.926 12.612 16.913 12.659 16.831 12.706 16.751 12.756 16.669 12.806 16.584 12.856 16.502 12.906 16.42 12.956 16.335 13.003 16.253 13.053 16.169 13.1 16.084 13.147 15.997 13.192 15.912 13.235 15.825 13.275 15.738 13.314 15.651 13.352 15.563 13.384 15.474 13.414 15.384 13.442 15.294 13.467 15.205 13.487 15.113 13.501 15.02 13.511 14.928 13.519 14.834 13.521 14.739 13.516 14.644 13.509 14.55 13.494 14.453 13.475 14.355 13.447 14.256 13.415 14.156 13.375 14.057 13.347 13.974 13.317 13.895 13.285 13.817 13.248 13.74 13.208 13.666 13.165 13.593 13.121 13.524 13.073 13.454 13.023 13.387 12.974 13.319 12.921 13.255 12.864 13.19 12.809 13.125 12.752 13.063 12.692 13 12.632 12.938 12.57 12.876 12.508 12.816 12.445 12.753 12.383 12.694 12.321 12.634 12.256 12.574 12.194 12.512 12.131 12.452 12.069 12.39 12.007 12.327 11.947 12.265 11.885 12.2 11.828 12.135 11.77 12.071 11.713 12.003 11.658 11.936 11.631 11.891 11.606 11.841 11.588 11.794 11.573 11.742 11.563 11.689 11.555 11.637 11.552 11.582 11.552 11.53 11.552 11.475 11.557 11.42 11.562 11.368 11.569 11.313 11.577 11.261 11.584 11.211 11.594 11.159 11.601 11.111 11.567 11.124 11.537 11.141 11.507 11.161 11.479 11.184 11.454 11.206 11.432 11.233 11.41 11.261 11.39 11.291 11.37 11.321 11.352 11.353 11.335 11.385 11.32 11.415 11.305 11.448 11.29 11.48 11.275 11.51 11.26 11.54 11.228 11.625 11.203 11.707 11.183 11.789 11.173 11.869 11.168 11.946 11.168 12.021 11.173 12.095 11.185 12.168 11.203 12.237 11.223 12.307 11.25 12.377 11.277 12.444 11.312 12.509 11.347 12.574 11.387 12.638 11.427 12.703 11.472 12.766 11.517 12.828 11.564 12.89 11.611 12.952 11.661 13.015 11.711 13.074 11.761 13.137 11.811 13.197 11.858 13.259 11.905 13.321 11.953 13.381 11.998 13.443 12.04 13.508 12.082 13.57 12.12 13.635 12.154 13.7 12.182 13.762 12.207 13.822 12.227 13.887 12.249 13.949 12.267 14.014 12.282 14.079 12.294 14.144 12.306 14.211 12.317 14.278 12.325 14.343 12.33 14.41 12.332 14.478 12.332 14.545 12.332 14.612 12.33 14.679 12.325 14.747 12.317 14.814 12.306 14.879 12.296 14.946 12.281 15.014 12.267 15.078 12.252 15.143 12.232 15.208 12.212 15.27 12.189 15.333 12.164 15.395 12.137 15.457 12.11 15.517 12.08 15.577 12.047 15.634 12.012 15.692 11.978 15.746 11.933 15.804 11.888 15.861 11.843 15.918 11.796 15.976 11.748 16.033 11.698 16.09 11.648 16.145 11.599 16.202 11.546 16.257 11.494 16.312 11.439 16.364 11.384 16.416 11.329 16.469 11.272 16.516 11.215 16.566 11.158 16.611 11.128 16.589 11.098 16.569 11.066 16.551 11.031 16.534 10.996 16.521 10.961 16.509 10.924 16.499 10.887 16.492 10.849 16.487 10.812 16.482 10.774 16.48 10.735 16.48 10.697 16.482 10.657 16.484 10.62 16.489 10.583 16.496 10.523 16.521 10.473 16.543 10.433 16.563 10.401 16.583 10.378 16.598 10.361 16.608 10.351 16.615 10.349 16.617 10.347 16.615 10.342 16.612 10.334 16.605 10.321 16.595 10.307 16.585 10.289 16.572 10.267 16.56 10.239 16.548 10.209 16.535 10.177 16.523 10.14 16.51 10.097 16.5 10.05 16.49 10 16.483 9.948 16.478 9.888 16.476 9.841 16.478 9.796 16.483 9.749 16.49 9.704 16.5 9.661 16.51 9.619 16.523 9.577 16.535 9.534 16.55 9.492 16.567 9.452 16.585 9.412 16.602 9.37 16.622 9.33 16.642 9.293 16.662 9.253 16.682 9.213 16.705 9.178 16.672 9.143 16.645 9.106 16.615 9.069 16.59 9.026 16.565 8.984 16.545 8.942 16.525 8.897 16.505 8.852 16.49 8.807 16.475 8.76 16.465 8.712 16.455 8.665 16.448 8.618 16.443 8.568 16.441 8.521 16.441 8.521 16.441"/>
      <polygon fill="#FDD213" points="7.121 25.634 7.119 25.646 7.092 25.691 7.065 25.736 7.04 25.783 7.015 25.831 6.995 25.881 6.972 25.93 6.955 25.98 6.938 26.033 6.923 26.085 6.91 26.137 6.898 26.19 6.89 26.244 6.883 26.299 6.878 26.354 6.873 26.409 6.873 26.466 6.875 26.546 6.88 26.626 6.892 26.703 6.905 26.778 6.925 26.855 6.945 26.927 6.972 26.999 7 27.069 7.032 27.139 7.069 27.206 7.107 27.271 7.149 27.333 7.194 27.393 7.244 27.453 7.294 27.508 7.349 27.562 7.403 27.615 7.463 27.662 7.526 27.709 7.588 27.752 7.655 27.791 7.722 27.829 7.792 27.864 7.864 27.893 7.936 27.921 8.014 27.946 8.088 27.966 8.168 27.983 8.248 27.998 8.33 28.008 8.413 28.013 8.495 28.015 8.659 28.008 8.821 27.983 8.975 27.946 9.122 27.894 9.264 27.829 9.399 27.752 9.523 27.662 9.638 27.562 9.743 27.453 9.835 27.333 9.917 27.206 9.984 27.069 10.039 26.927 10.079 26.778 10.104 26.626 10.112 26.466 10.112 26.406 10.107 26.349 10.102 26.292 10.095 26.234 10.085 26.177 10.072 26.122 10.057 26.068 10.042 26.015 10.025 25.96 10.005 25.908 9.982 25.858 9.958 25.808 9.933 25.758 9.908 25.711 9.878 25.664 9.848 25.616 9.848 25.621 9.84 25.626 9.833 25.631 9.825 25.634 9.818 25.636 9.746 25.666 9.673 25.696 9.598 25.724 9.521 25.749 9.442 25.774 9.362 25.794 9.28 25.813 9.195 25.833 9.108 25.848 9.023 25.863 8.934 25.876 8.844 25.886 8.752 25.893 8.66 25.898 8.567 25.903 8.473 25.903 8.378 25.903 8.286 25.898 8.191 25.893 8.101 25.886 8.012 25.876 7.922 25.863 7.835 25.848 7.748 25.831 7.663 25.813 7.581 25.794 7.499 25.771 7.419 25.749 7.342 25.721 7.267 25.694 7.195 25.664 7.122 25.634 7.122 25.634"/>
      <polygon fill="#231F20" points="9.104 26.969 9.102 26.954 9.1 27.014 9.09 27.074 9.075 27.131 9.056 27.183 9.028 27.236 8.998 27.286 8.963 27.33 8.923 27.373 8.878 27.41 8.831 27.445 8.781 27.472 8.726 27.497 8.669 27.517 8.609 27.532 8.55 27.542 8.485 27.545 8.485 27.545 8.42 27.542 8.36 27.532 8.3 27.517 8.243 27.497 8.188 27.472 8.139 27.445 8.091 27.41 8.047 27.373 8.007 27.33 7.972 27.286 7.942 27.236 7.914 27.183 7.894 27.131 7.879 27.074 7.869 27.014 7.866 26.954 7.861 26.969 7.861 25.636 8.332 25.636 8.636 25.636 9.104 25.636 9.104 26.969 9.104 26.969"/>
      <polygon fill="#FDD213" points="4.713 17.528 4.638 17.468 4.561 17.413 4.476 17.366 4.386 17.323 4.291 17.286 4.197 17.256 4.097 17.231 3.998 17.214 3.895 17.201 3.791 17.196 3.689 17.196 3.586 17.206 3.487 17.221 3.387 17.243 3.29 17.273 3.198 17.311 3.15 17.326 3.113 17.338 3.083 17.351 3.053 17.365 3.026 17.383 2.996 17.403 2.964 17.43 2.921 17.463 2.974 17.537 3.028 17.61 3.091 17.677 3.153 17.742 3.22 17.804 3.293 17.859 3.365 17.911 3.442 17.956 3.522 17.998 3.604 18.033 3.689 18.063 3.773 18.086 3.863 18.103 3.953 18.113 4.045 18.118 4.137 18.113 4.135 18.098 4.145 18.081 4.157 18.061 4.159 18.041 4.117 18.036 4.072 18.029 4.032 18.021 3.99 18.014 3.948 18.006 3.908 17.999 3.865 17.992 3.826 17.982 3.786 17.972 3.746 17.959 3.709 17.947 3.669 17.935 3.631 17.922 3.591 17.907 3.554 17.89 3.517 17.872 3.492 17.85 3.462 17.827 3.432 17.805 3.4 17.782 3.367 17.76 3.335 17.738 3.302 17.715 3.27 17.693 3.24 17.668 3.213 17.643 3.188 17.618 3.165 17.59 3.148 17.561 3.133 17.531 3.126 17.498 3.121 17.463 3.198 17.426 3.281 17.394 3.368 17.366 3.457 17.344 3.55 17.329 3.644 17.319 3.739 17.317 3.836 17.317 3.931 17.324 4.023 17.336 4.115 17.356 4.205 17.379 4.289 17.408 4.369 17.443 4.446 17.483 4.516 17.528 4.541 17.541 4.571 17.553 4.606 17.568 4.638 17.58 4.671 17.585 4.695 17.58 4.71 17.563 4.713 17.528 4.713 17.528"/>
      <polygon fill="#FDD213" points="7.545 18.26 7.5 18.223 7.455 18.188 7.41 18.16 7.361 18.135 7.313 18.115 7.263 18.098 7.213 18.083 7.164 18.073 7.112 18.066 7.059 18.061 7.005 18.059 6.952 18.057 6.897 18.059 6.842 18.061 6.788 18.066 6.733 18.071 6.678 18.078 6.623 18.085 6.566 18.093 6.511 18.1 6.456 18.11 6.399 18.118 6.344 18.125 6.29 18.132 6.235 18.137 6.18 18.142 6.125 18.145 6.073 18.147 6.018 18.147 5.966 18.145 5.916 18.14 5.863 18.133 5.938 18.193 6.013 18.235 6.093 18.262 6.172 18.277 6.254 18.282 6.337 18.277 6.421 18.267 6.509 18.25 6.593 18.235 6.68 18.217 6.768 18.2 6.857 18.19 6.945 18.185 7.032 18.187 7.119 18.2 7.204 18.227 7.239 18.244 7.274 18.264 7.311 18.287 7.346 18.307 7.381 18.332 7.416 18.357 7.448 18.382 7.483 18.409 7.513 18.439 7.543 18.469 7.57 18.499 7.597 18.531 7.62 18.566 7.642 18.601 7.662 18.638 7.677 18.676 7.732 18.853 7.779 19.032 7.822 19.211 7.856 19.391 7.886 19.568 7.909 19.747 7.929 19.929 7.941 20.108 7.951 20.288 7.956 20.467 7.956 20.649 7.951 20.828 7.943 21.007 7.933 21.189 7.918 21.369 7.901 21.548 7.881 21.73 7.861 21.909 7.836 22.089 7.811 22.268 7.784 22.447 7.756 22.627 7.729 22.806 7.699 22.985 7.669 23.165 7.639 23.342 7.609 23.519 7.582 23.695 7.555 23.872 7.527 24.049 7.502 24.226 7.477 24.4 7.477 24.41 7.485 24.42 7.5 24.425 7.515 24.43 7.532 24.435 7.55 24.44 7.567 24.445 7.577 24.452 7.602 24.311 7.625 24.168 7.65 24.024 7.674 23.877 7.702 23.733 7.727 23.586 7.752 23.439 7.777 23.289 7.802 23.142 7.826 22.993 7.851 22.843 7.874 22.694 7.899 22.544 7.921 22.395 7.941 22.245 7.961 22.098 7.981 21.949 7.998 21.802 8.013 21.655 8.028 21.508 8.043 21.361 8.053 21.217 8.063 21.072 8.07 20.93 8.075 20.788 8.08 20.648 8.08 20.509 8.08 20.372 8.075 20.238 8.07 20.103 8.06 19.971 8.048 19.841 8.033 19.737 8.016 19.63 8.001 19.525 7.986 19.42 7.971 19.316 7.951 19.211 7.931 19.109 7.908 19.007 7.881 18.907 7.851 18.808 7.816 18.713 7.774 18.616 7.726 18.524 7.674 18.434 7.614 18.344 7.544 18.26 7.544 18.26"/>
      <polygon fill="#FFF" points="6.125 18.551 7.321 18.796 7.306 18.84 7.288 18.885 7.266 18.928 7.238 18.968 7.211 19.005 7.179 19.04 7.144 19.072 7.106 19.105 7.064 19.132 7.022 19.155 6.977 19.177 6.93 19.194 6.882 19.209 6.832 19.219 6.78 19.224 6.728 19.227 6.665 19.224 6.603 19.214 6.546 19.202 6.489 19.182 6.436 19.157 6.386 19.127 6.339 19.095 6.297 19.057 6.257 19.017 6.222 18.972 6.189 18.925 6.165 18.875 6.145 18.823 6.13 18.768 6.12 18.711 6.117 18.653 6.117 18.638 6.117 18.626 6.117 18.613 6.12 18.601 6.12 18.589 6.122 18.576 6.122 18.564 6.125 18.551 6.125 18.551"/>
      <polygon fill="#FDD213" points="12.253 17.528 12.328 17.468 12.405 17.413 12.49 17.366 12.579 17.323 12.674 17.286 12.769 17.256 12.868 17.231 12.971 17.214 13.07 17.201 13.175 17.196 13.277 17.196 13.379 17.206 13.479 17.221 13.579 17.243 13.676 17.273 13.768 17.311 13.815 17.326 13.853 17.338 13.883 17.351 13.912 17.365 13.94 17.383 13.97 17.403 14.002 17.43 14.044 17.463 13.992 17.537 13.937 17.61 13.875 17.677 13.813 17.742 13.746 17.804 13.673 17.859 13.601 17.911 13.524 17.956 13.444 17.998 13.362 18.033 13.277 18.063 13.192 18.086 13.103 18.103 13.013 18.113 12.921 18.118 12.829 18.113 12.834 18.098 12.821 18.081 12.809 18.061 12.806 18.041 12.848 18.036 12.893 18.029 12.933 18.021 12.975 18.014 13.018 18.006 13.058 17.999 13.1 17.992 13.14 17.982 13.18 17.972 13.219 17.959 13.257 17.947 13.297 17.935 13.334 17.922 13.374 17.907 13.411 17.89 13.449 17.872 13.474 17.85 13.504 17.827 13.534 17.805 13.566 17.782 13.598 17.76 13.631 17.738 13.663 17.715 13.695 17.693 13.725 17.668 13.753 17.643 13.778 17.618 13.8 17.59 13.817 17.561 13.832 17.531 13.84 17.498 13.845 17.463 13.768 17.426 13.686 17.394 13.599 17.366 13.509 17.344 13.417 17.329 13.322 17.319 13.228 17.317 13.13 17.317 13.036 17.324 12.944 17.336 12.851 17.356 12.762 17.379 12.677 17.408 12.598 17.443 12.52 17.483 12.451 17.528 12.426 17.541 12.396 17.553 12.363 17.568 12.328 17.58 12.298 17.585 12.273 17.58 12.256 17.563 12.253 17.528 12.253 17.528"/>
      <polygon fill="#FDD213" points="9.421 18.26 9.466 18.223 9.511 18.188 9.558 18.16 9.605 18.135 9.653 18.115 9.702 18.098 9.752 18.083 9.805 18.073 9.857 18.066 9.909 18.061 9.961 18.059 10.016 18.057 10.068 18.059 10.123 18.061 10.178 18.066 10.233 18.071 10.29 18.078 10.345 18.085 10.4 18.093 10.457 18.1 10.512 18.11 10.567 18.118 10.624 18.125 10.679 18.132 10.734 18.137 10.788 18.142 10.841 18.145 10.896 18.147 10.948 18.147 11.003 18.145 11.052 18.14 11.105 18.133 11.03 18.193 10.955 18.235 10.876 18.262 10.796 18.277 10.714 18.282 10.629 18.277 10.545 18.267 10.46 18.25 10.373 18.235 10.285 18.217 10.198 18.2 10.111 18.19 10.024 18.185 9.939 18.187 9.852 18.2 9.767 18.227 9.73 18.244 9.695 18.264 9.658 18.287 9.623 18.307 9.588 18.332 9.553 18.357 9.518 18.382 9.486 18.409 9.454 18.439 9.424 18.469 9.396 18.499 9.369 18.531 9.346 18.566 9.324 18.601 9.304 18.638 9.289 18.676 9.234 18.853 9.187 19.032 9.145 19.211 9.11 19.391 9.08 19.568 9.058 19.747 9.038 19.929 9.025 20.108 9.015 20.288 9.01 20.467 9.01 20.649 9.015 20.828 9.023 21.007 9.033 21.189 9.048 21.369 9.065 21.548 9.086 21.73 9.105 21.909 9.13 22.089 9.155 22.268 9.183 22.447 9.21 22.627 9.238 22.806 9.268 22.985 9.298 23.165 9.327 23.342 9.357 23.519 9.385 23.695 9.412 23.872 9.439 24.049 9.464 24.226 9.489 24.4 9.489 24.41 9.482 24.42 9.467 24.425 9.452 24.43 9.435 24.435 9.417 24.44 9.4 24.445 9.39 24.452 9.365 24.311 9.342 24.168 9.317 24.024 9.292 23.877 9.265 23.733 9.24 23.586 9.215 23.439 9.19 23.289 9.166 23.142 9.141 22.993 9.116 22.843 9.093 22.694 9.068 22.544 9.046 22.395 9.026 22.245 9.006 22.098 8.986 21.949 8.969 21.802 8.954 21.655 8.939 21.508 8.924 21.361 8.914 21.217 8.904 21.072 8.896 20.93 8.891 20.788 8.886 20.648 8.886 20.509 8.886 20.372 8.891 20.238 8.896 20.103 8.906 19.971 8.918 19.841 8.933 19.737 8.951 19.63 8.966 19.525 8.981 19.42 8.996 19.316 9.016 19.211 9.035 19.109 9.058 19.007 9.085 18.907 9.115 18.808 9.15 18.713 9.193 18.616 9.24 18.524 9.292 18.434 9.352 18.344 9.422 18.26 9.422 18.26"/>
      <polygon fill="#FDD213" points="8.484 25.492 8.566 25.492 8.641 25.49 8.713 25.49 8.778 25.488 8.84 25.485 8.897 25.48 8.952 25.478 9.005 25.473 9.055 25.468 9.104 25.463 9.154 25.458 9.201 25.453 9.252 25.448 9.304 25.443 9.356 25.438 9.411 25.433 9.413 25.415 9.413 25.398 9.413 25.381 9.411 25.361 9.406 25.346 9.398 25.331 9.391 25.318 9.381 25.311 9.329 25.316 9.278 25.321 9.231 25.326 9.189 25.331 9.144 25.336 9.102 25.341 9.057 25.346 9.012 25.351 8.965 25.356 8.912 25.358 8.857 25.363 8.798 25.366 8.73 25.368 8.656 25.368 8.573 25.37 8.484 25.37 8.391 25.37 8.309 25.368 8.237 25.368 8.17 25.366 8.108 25.363 8.053 25.358 8.001 25.356 7.953 25.351 7.908 25.346 7.864 25.341 7.821 25.336 7.776 25.331 7.734 25.326 7.687 25.321 7.637 25.316 7.585 25.311 7.575 25.318 7.567 25.331 7.56 25.346 7.555 25.361 7.552 25.381 7.552 25.398 7.552 25.415 7.555 25.433 7.609 25.438 7.662 25.443 7.714 25.448 7.764 25.453 7.811 25.458 7.861 25.463 7.911 25.468 7.961 25.473 8.013 25.478 8.068 25.48 8.128 25.485 8.19 25.488 8.254 25.49 8.324 25.49 8.402 25.492 8.484 25.492 8.484 25.492"/>
      <polygon fill="#ED192D" points="8.484 28.147 8.392 28.144 8.302 28.139 8.215 28.127 8.128 28.112 8.043 28.095 7.959 28.072 7.877 28.045 7.797 28.015 7.717 27.982 7.642 27.945 7.568 27.905 7.496 27.863 7.426 27.815 7.358 27.765 7.296 27.713 7.234 27.658 7.174 27.601 7.119 27.539 7.067 27.476 7.017 27.412 6.972 27.344 6.93 27.275 6.89 27.202 6.855 27.128 6.823 27.053 6.795 26.976 6.77 26.896 6.751 26.817 6.736 26.734 6.726 26.65 6.719 26.565 6.717 26.48 6.722 26.368 6.732 26.256 6.751 26.149 6.779 26.044 6.811 25.94 6.851 25.84 6.899 25.743 6.951 25.651 7.011 25.561 7.073 25.474 7.145 25.392 7.22 25.315 7.3 25.243 7.384 25.175 7.474 25.11 7.566 25.053 7.334 24.612 7.272 24.647 7.21 24.687 7.15 24.727 7.09 24.767 7.033 24.809 6.978 24.854 6.923 24.901 6.871 24.948 6.818 24.998 6.769 25.051 6.721 25.103 6.677 25.158 6.632 25.213 6.589 25.27 6.549 25.327 6.512 25.387 6.475 25.449 6.44 25.512 6.407 25.574 6.377 25.639 6.35 25.704 6.325 25.768 6.3 25.836 6.28 25.905 6.26 25.975 6.246 26.045 6.231 26.115 6.218 26.187 6.211 26.259 6.203 26.331 6.201 26.406 6.198 26.481 6.201 26.59 6.211 26.7 6.226 26.81 6.246 26.914 6.27 27.019 6.3 27.121 6.338 27.22 6.378 27.318 6.425 27.415 6.475 27.507 6.53 27.597 6.589 27.684 6.652 27.768 6.722 27.851 6.791 27.928 6.869 28.003 6.948 28.075 7.03 28.142 7.118 28.207 7.207 28.267 7.299 28.324 7.394 28.374 7.494 28.424 7.596 28.466 7.698 28.503 7.805 28.538 7.915 28.568 8.024 28.591 8.136 28.611 8.251 28.626 8.368 28.633 8.485 28.636 8.602 28.633 8.719 28.626 8.834 28.611 8.946 28.591 9.056 28.568 9.165 28.538 9.27 28.503 9.374 28.466 9.474 28.424 9.574 28.374 9.668 28.324 9.763 28.267 9.85 28.207 9.937 28.142 10.02 28.075 10.099 28.003 10.176 27.928 10.246 27.851 10.316 27.768 10.378 27.684 10.438 27.597 10.493 27.507 10.543 27.415 10.59 27.318 10.63 27.22 10.667 27.121 10.697 27.019 10.722 26.914 10.742 26.81 10.757 26.7 10.767 26.59 10.769 26.481 10.767 26.406 10.764 26.331 10.756 26.259 10.749 26.187 10.737 26.115 10.722 26.045 10.707 25.975 10.687 25.905 10.667 25.836 10.642 25.768 10.617 25.704 10.59 25.639 10.56 25.574 10.527 25.512 10.492 25.449 10.455 25.387 10.418 25.327 10.378 25.27 10.336 25.213 10.291 25.158 10.246 25.103 10.198 25.051 10.148 24.998 10.096 24.948 10.044 24.901 9.989 24.854 9.934 24.809 9.877 24.767 9.817 24.727 9.757 24.687 9.695 24.647 9.633 24.612 9.401 25.053 9.496 25.11 9.585 25.175 9.67 25.243 9.75 25.315 9.825 25.392 9.895 25.474 9.959 25.561 10.017 25.651 10.071 25.743 10.116 25.84 10.156 25.94 10.191 26.044 10.216 26.149 10.236 26.256 10.246 26.368 10.251 26.48 10.249 26.565 10.241 26.65 10.231 26.734 10.216 26.817 10.196 26.896 10.171 26.976 10.144 27.053 10.111 27.128 10.076 27.202 10.037 27.275 9.994 27.344 9.949 27.412 9.899 27.476 9.847 27.539 9.792 27.601 9.732 27.658 9.67 27.713 9.608 27.765 9.541 27.815 9.471 27.863 9.399 27.905 9.326 27.945 9.249 27.982 9.172 28.015 9.092 28.045 9.01 28.072 8.925 28.095 8.841 28.112 8.754 28.127 8.664 28.139 8.574 28.144 8.485 28.147 8.485 28.147"/>
      <polygon fill="#ED192D" points="8.96 26.969 8.96 26.981 8.955 27.026 8.945 27.069 8.933 27.111 8.915 27.151 8.895 27.188 8.871 27.223 8.843 27.256 8.813 27.286 8.781 27.316 8.743 27.34 8.706 27.36 8.664 27.378 8.621 27.393 8.579 27.405 8.532 27.41 8.484 27.413 8.484 27.413 8.437 27.41 8.39 27.405 8.345 27.393 8.302 27.378 8.263 27.36 8.223 27.34 8.188 27.316 8.156 27.286 8.123 27.256 8.096 27.223 8.073 27.188 8.053 27.151 8.036 27.111 8.024 27.069 8.017 27.026 8.012 26.981 8.007 26.969 8.007 25.773 8.271 25.773 8.697 25.773 8.961 25.773 8.961 26.969 8.961 26.969"/>
      <polygon fill="#FFF" points="10.841 18.551 9.645 18.796 9.66 18.84 9.677 18.885 9.7 18.928 9.727 18.968 9.755 19.005 9.787 19.04 9.822 19.072 9.859 19.105 9.902 19.132 9.944 19.155 9.989 19.177 10.036 19.194 10.083 19.209 10.133 19.219 10.186 19.224 10.238 19.227 10.3 19.224 10.363 19.214 10.42 19.202 10.477 19.182 10.529 19.157 10.579 19.127 10.627 19.095 10.672 19.057 10.709 19.017 10.744 18.972 10.776 18.925 10.801 18.875 10.821 18.823 10.836 18.768 10.846 18.711 10.848 18.653 10.848 18.638 10.848 18.626 10.848 18.613 10.846 18.601 10.846 18.589 10.844 18.576 10.844 18.564 10.842 18.551 10.842 18.551"/>
      <polygon fill="#231F20" points="6.745 19 6.703 18.997 6.663 18.985 6.628 18.97 6.596 18.947 6.571 18.922 6.553 18.892 6.541 18.857 6.536 18.823 6.541 18.785 6.553 18.753 6.571 18.723 6.596 18.695 6.628 18.673 6.663 18.658 6.703 18.646 6.745 18.644 6.788 18.646 6.828 18.658 6.865 18.673 6.895 18.695 6.92 18.723 6.94 18.753 6.952 18.785 6.957 18.823 6.952 18.857 6.94 18.892 6.92 18.922 6.895 18.947 6.865 18.97 6.828 18.985 6.788 18.997"/>
      <polygon fill="#231F20" points="10.22 19 10.263 18.997 10.303 18.985 10.338 18.97 10.37 18.947 10.395 18.922 10.412 18.892 10.425 18.857 10.43 18.823 10.425 18.785 10.412 18.753 10.395 18.723 10.37 18.695 10.338 18.673 10.303 18.658 10.263 18.646 10.22 18.644 10.178 18.646 10.138 18.658 10.101 18.673 10.071 18.695 10.046 18.723 10.026 18.753 10.014 18.785 10.009 18.823 10.014 18.857 10.026 18.892 10.046 18.922 10.071 18.947 10.101 18.97 10.138 18.985 10.178 18.997"/>
      <path stroke="#656263" stroke-width=".75" d="M0.507925,10.509225 L16.200675,10.517345 L16.200675,22.173845 C16.200675,25.898595 13.113545,29.582845 8.347555,29.582845 C3.929555,29.582845 0.464555,26.231595 0.494555,22.173845 L0.507955,10.509225 L0.507925,10.509225 Z"/>
      <text fill="#5A5758" font-family="Helvetica" font-size="8">
        <tspan x="2.479" y="8.24">UR</tspan>
      </text>
    </g>
  </g>
</svg>
