<svg xmlns="http://www.w3.org/2000/svg" width="352" height="240" viewBox="0 0 352 240">
  <g fill="none" fill-rule="evenodd" transform="translate(.812 .288)">
    <polygon fill="#CCE4F7" fill-rule="nonzero" points="18.123 78.744 23.338 84.264 23.767 87.529 22.743 90.309 25.621 94.93 30.393 95.359 33.063 99.399 33.091 99.758 33.893 107.505 36.564 109.677 39.067 113.053 40.851 117.84 42.678 119.845 44.407 121.27 47.409 129.35 48.543 130.927 49.332 135.353 53.717 140.822 58.919 138.11 61.63 136.685 62.516 137.183 65.185 136.547 70.913 132.147 73.154 125.977 77.29 125.133 81.51 119.06 89.893 112.599 87.099 106.346 88.455 103.51 92.411 99.263 99.342 98.266 101.306 95.873 101.224 90.007 111.737 84.944 110.949 93.355 112.845 94.531 121.283 91.64 125.973 87.96 129.584 85.345 137.566 81.748 141.592 84.557 145.963 81.997 147.513 86.341 150.086 86.577 151.76 84.764 159.23 84.349 161.624 80.891 156.104 77.46 157.225 74.706 161.485 73.558 167.406 73.434 169.994 74.194 172.968 66.876 176.149 64.164 192.446 72.77 199.018 70.597 200.858 69.311 205.478 65.755 220.834 54.232 228.138 54.121 238.556 49.044 241.005 45.502 246.33 43.648 247.811 40.507 245.265 35.803 247.064 33.922 250.356 32.746 252.335 30.035 259.099 28.79 265.422 31.806 267.856 30.962 276.932 33.397 279.201 36.399 288.76 37.796 290.863 40.507 301.695 38.806 305.845 37.851 310.894 35.154 317.12 31.211 325.531 22.274 327.841 14.485 328.934 6.848 337.774 0 337.796 0 339.213 2.545 339.352 8.688 335.99 18.026 340.265 32.428 351.083 38.211 348.261 43.662 333.804 49.196 333.615 60.526 327.818 61.328 319.671 69.213 316.115 68.95 313.1 74.028 317.374 75.798 318.73 80.115 317.554 83.089 311.509 87.17 307.829 86.879 306.833 88.539 307.234 94.709 301.922 94.53 299.307 96.425 296.43 106.427 287.05 108.046 282.472 106.137 270.076 118.573 274.462 121.852 280.563 128.451 287.811 141.704 284.643 147.998 285.764 152.038 283.578 155.316 278.003 157.018 276.925 161.611 274.531 163.686 268.403 164.502 260.96 166.937 258.858 173.591 258.941 177.741 261.057 183.081 257.363 186.526 256.547 192.682 254.486 192.931 251.76 197.51 235.16 197.704 232.019 202.822 229.308 204.677 228.631 210.404 227.053 215.232 228.354 219.05 226.376 221.443 221.686 220.586 218.808 218.925 216.374 218.842 213.192 222.218 209.567 218.428 206.247 216.103 201.461 214.679 198.985 219.506 195.969 219.645 193.617 216.076 193.714 211.261 187.945 210.141 187.087 207.609 184.224 203.819 179.548 206.088 168.329 205.354 165.908 200.443 160.056 202.436 158.894 204.054 160.112 208.965 158.258 210.141 154.163 209.519 147.841 209.865 144.701 212.299 145.088 215.909 139.873 216.892 136.013 221.498 126.537 227.627 118.085 221.997 113.741 224.017 107.53 220.364 100.516 230.435 92.797 229.412 88.439 233.811 88.466 237.574 86.226 238.833 82.74 237.435 78.257 232.58 70.718 239.013 67.232 238.376 66.125 233.52 56.095 219.7 54.546 215.453 54.159 209.933 48.224 205.7 51.088 202.283 47.684 196.114 43.452 195.158 42.677 190.621 35.981 181.117 33.27 179.9 33.547 177.146 31.07 177.036 27.709 181.38 22.273 183.04 19.907 180.896 21.94 176.524 24.07 174.255 23.075 168.1 26.09 159.439 15.286 158.471 8.411 157.71 4.883 155.524 3.804 147.832 8.037 142.146 6.073 135.644 11.039 127.704 16.891 119.071 17.942 109.83 13.584 107.575 9.863 102.249 5.782 99.786 5.091 97.006 3.154 97.366 1.964 92.98 0 88.65 6.709 84.016 6.238 80.004 7.069 78.787 17.417 77.509 18.123 78.744"/>
    <g transform="translate(154.113 124.497)">
      <polygon fill="#ED192D" points="8.343 29.55 8.343 29.458 8.35 10.5 16.18 10.5 16.182 22.149 16.172 22.53 16.142 22.906 16.092 23.277 16.022 23.641 15.935 23.999 15.828 24.351 15.706 24.695 15.566 25.031 15.407 25.36 15.235 25.679 15.045 25.987 14.841 26.289 14.622 26.578 14.39 26.857 14.144 27.126 13.885 27.382 13.613 27.629 13.327 27.861 13.03 28.08 12.724 28.287 12.405 28.479 12.079 28.658 11.74 28.82 11.393 28.969 11.037 29.101 10.671 29.218 10.3 29.318 9.921 29.4 9.535 29.465 9.144 29.512 8.745 29.54 8.342 29.55 8.342 29.55"/>
      <polygon fill="#FFF" points="8.343 29.458 8.343 29.55 7.939 29.54 7.541 29.512 7.147 29.465 6.761 29.4 6.382 29.318 6.011 29.218 5.645 29.101 5.289 28.969 4.942 28.82 4.604 28.658 4.275 28.478 3.958 28.287 3.649 28.08 3.353 27.861 3.069 27.629 2.797 27.382 2.538 27.126 2.292 26.857 2.058 26.578 1.841 26.289 1.637 25.987 1.447 25.678 1.273 25.36 1.116 25.031 .976 24.694 .852 24.351 .747 23.999 .66 23.641 .59 23.277 .541 22.906 .511 22.53 .501 22.148 .498 10.512 8.35 10.5 8.343 29.457 8.343 29.457"/>
      <polygon fill="#FFF" points="8.348 24.826 8.348 27.759 8.35 27.762 9.67 28.616 9.217 27.159 10.405 26.354 8.908 26.354 8.35 24.834 8.348 24.827 8.348 24.827"/>
      <polygon fill="#231F20" fill-rule="nonzero" points="8.301 24.851 8.301 24.851 8.298 24.844 8.397 24.809 8.399 24.817 8.399 24.817 8.3 24.852 8.3 24.852"/>
      <polygon fill="#231F20" fill-rule="nonzero" points="8.908 26.406 8.871 26.406 8.858 26.371 8.908 26.406 8.858 26.371 8.3 24.851 8.4 24.817 8.958 26.336 8.908 26.301 8.908 26.406"/>
      <polygon fill="#231F20" fill-rule="nonzero" points="10.405 26.301 10.572 26.301 10.435 26.396 10.375 26.311 10.405 26.406 8.908 26.406 8.908 26.301 10.405 26.301 10.435 26.396 10.405 26.301 10.405 26.301"/>
      <polygon fill="#231F20" fill-rule="nonzero" points="9.167 27.173 9.155 27.136 9.187 27.116 9.167 27.173 9.187 27.116 10.376 26.311 10.435 26.396 9.247 27.201 9.267 27.143 9.167 27.173 9.167 27.173"/>
      <polygon fill="#231F20" fill-rule="nonzero" points="9.72 28.601 9.763 28.735 9.643 28.661 9.698 28.571 9.621 28.631 9.167 27.173 9.267 27.143 9.72 28.601 9.643 28.661 9.72 28.601 9.72 28.601"/>
      <polygon fill="#231F20" fill-rule="nonzero" points="8.323 27.806 8.318 27.801 8.313 27.798 8.387 27.723 8.377 27.716 9.698 28.571 9.643 28.66 8.323 27.806 8.313 27.799 8.323 27.806 8.323 27.806"/>
      <polygon fill="#231F20" fill-rule="nonzero" points="8.31 27.796 8.295 27.781 8.295 27.759 8.4 27.759 8.385 27.721 8.388 27.724 8.313 27.799 8.311 27.797 8.296 27.759 8.311 27.797 8.311 27.797"/>
      <polygon fill="#231F20" fill-rule="nonzero" points="8.295 24.826 8.295 24.565 8.398 24.809 8.298 24.844 8.4 24.826 8.4 27.759 8.295 27.759 8.295 24.826 8.398 24.809 8.295 24.826 8.295 24.826"/>
      <polygon fill="#ED192D" points="8.343 24.826 8.343 27.759 8.343 27.762 7.018 28.616 7.473 27.159 6.285 26.354 7.782 26.354 8.343 24.834 8.343 24.827 8.343 24.827"/>
      <polygon fill="#231F20" fill-rule="nonzero" points="8.395 24.834 8.395 24.844 8.392 24.851 8.292 24.816 8.29 24.834 8.29 24.827 8.395 24.827 8.395 24.834 8.392 24.851 8.395 24.834 8.395 24.834"/>
      <polygon fill="#231F20" fill-rule="nonzero" points="7.832 26.371 7.82 26.406 7.782 26.406 7.782 26.301 7.732 26.336 8.293 24.817 8.392 24.851 7.832 26.371 7.782 26.406 7.832 26.371 7.832 26.371"/>
      <polygon fill="#231F20" fill-rule="nonzero" points="6.255 26.396 6.118 26.301 6.285 26.301 6.255 26.396 6.285 26.301 7.782 26.301 7.782 26.406 6.285 26.406 6.315 26.311 6.255 26.396 6.255 26.396"/>
      <polygon fill="#231F20" fill-rule="nonzero" points="7.503 27.116 7.536 27.136 7.523 27.173 7.424 27.143 7.443 27.201 6.255 26.396 6.315 26.311 7.503 27.116 7.523 27.173 7.503 27.116 7.503 27.116"/>
      <polygon fill="#231F20" fill-rule="nonzero" points="7.045 28.66 6.925 28.735 6.968 28.601 7.045 28.66 6.968 28.601 7.424 27.143 7.523 27.173 7.067 28.631 6.99 28.571 7.045 28.66 7.045 28.66"/>
      <polygon fill="#231F20" fill-rule="nonzero" points="8.395 27.761 8.395 27.789 8.37 27.806 8.395 27.761 8.37 27.806 7.045 28.661 6.99 28.571 8.315 27.716 8.29 27.761 8.395 27.761"/>
      <polygon fill="#231F20" fill-rule="nonzero" points="8.395 27.759 8.395 27.759 8.395 27.762 8.29 27.762 8.29 27.759 8.29 27.759"/>
      <polygon fill="#231F20" fill-rule="nonzero" points="8.29 24.826 8.395 24.826 8.395 27.759 8.29 27.759 8.29 24.826 8.395 24.826"/>
      <polygon fill="#FFF" points="8.348 21.374 8.348 24.306 8.35 24.308 9.67 25.162 9.217 23.705 10.405 22.9 8.908 22.9 8.35 21.376 8.348 21.373 8.348 21.373"/>
      <polygon fill="#231F20" fill-rule="nonzero" points="8.388 21.339 8.396 21.349 8.401 21.359 8.301 21.394 8.314 21.414 8.312 21.411 8.386 21.336 8.389 21.339 8.402 21.359 8.389 21.339 8.389 21.339"/>
      <polygon fill="#231F20" fill-rule="nonzero" points="8.908 22.953 8.871 22.953 8.858 22.918 8.908 22.953 8.858 22.918 8.3 21.394 8.4 21.359 8.958 22.883 8.908 22.848 8.908 22.953"/>
      <polygon fill="#231F20" fill-rule="nonzero" points="10.405 22.848 10.572 22.848 10.435 22.943 10.375 22.859 10.405 22.953 8.908 22.953 8.908 22.849 10.405 22.849 10.435 22.943 10.405 22.849 10.405 22.849"/>
      <polygon fill="#231F20" fill-rule="nonzero" points="9.167 23.72 9.155 23.683 9.187 23.663 9.167 23.721 9.187 23.663 10.376 22.859 10.435 22.943 9.247 23.748 9.267 23.69 9.167 23.72 9.167 23.72"/>
      <polygon fill="#231F20" fill-rule="nonzero" points="9.72 25.148 9.763 25.282 9.643 25.208 9.698 25.118 9.621 25.178 9.167 23.72 9.267 23.69 9.72 25.148 9.643 25.208 9.72 25.148 9.72 25.148"/>
      <polygon fill="#231F20" fill-rule="nonzero" points="8.323 24.353 8.318 24.348 8.313 24.345 8.387 24.271 8.377 24.264 9.698 25.118 9.643 25.208 8.323 24.353 8.313 24.345 8.323 24.353 8.323 24.353"/>
      <polygon fill="#231F20" fill-rule="nonzero" points="8.31 24.343 8.295 24.328 8.295 24.306 8.4 24.306 8.385 24.268 8.388 24.27 8.313 24.345 8.311 24.343 8.296 24.306 8.311 24.343 8.311 24.343"/>
      <polygon fill="#231F20" fill-rule="nonzero" points="8.295 21.374 8.295 21.254 8.385 21.336 8.31 21.411 8.4 21.374 8.4 24.306 8.295 24.306 8.295 21.374 8.385 21.336 8.295 21.374 8.295 21.374"/>
      <polygon fill="#ED192D" points="8.343 21.374 8.343 24.306 8.343 24.308 7.018 25.162 7.473 23.705 6.285 22.9 7.782 22.9 8.343 21.376 8.343 21.373 8.343 21.373"/>
      <polygon fill="#231F20" fill-rule="nonzero" points="8.395 21.376 8.395 21.386 8.392 21.394 8.292 21.359 8.29 21.377 8.29 21.374 8.395 21.374 8.395 21.377 8.392 21.394 8.395 21.377 8.395 21.377"/>
      <polygon fill="#231F20" fill-rule="nonzero" points="7.832 22.918 7.82 22.953 7.782 22.953 7.782 22.848 7.732 22.883 8.293 21.359 8.392 21.394 7.832 22.918 7.782 22.953 7.832 22.918 7.832 22.918"/>
      <polygon fill="#231F20" fill-rule="nonzero" points="6.255 22.943 6.118 22.848 6.285 22.848 6.255 22.943 6.285 22.848 7.782 22.848 7.782 22.953 6.285 22.953 6.315 22.859 6.255 22.943 6.255 22.943"/>
      <polygon fill="#231F20" fill-rule="nonzero" points="7.503 23.663 7.536 23.683 7.523 23.72 7.424 23.69 7.443 23.748 6.255 22.943 6.315 22.859 7.503 23.663 7.523 23.721 7.503 23.663 7.503 23.663"/>
      <polygon fill="#231F20" fill-rule="nonzero" points="7.045 25.208 6.925 25.282 6.968 25.148 7.045 25.208 6.968 25.148 7.424 23.69 7.523 23.72 7.067 25.178 6.99 25.118 7.045 25.208 7.045 25.208"/>
      <polygon fill="#231F20" fill-rule="nonzero" points="8.395 24.308 8.395 24.336 8.37 24.353 8.395 24.308 8.37 24.353 7.045 25.208 6.99 25.118 8.315 24.264 8.29 24.308 8.395 24.308"/>
      <polygon fill="#231F20" fill-rule="nonzero" points="8.395 24.306 8.395 24.306 8.395 24.308 8.29 24.308 8.29 24.306 8.29 24.306"/>
      <polygon fill="#231F20" fill-rule="nonzero" points="8.29 21.374 8.395 21.374 8.395 24.306 8.29 24.306 8.29 21.374 8.395 21.374"/>
      <polygon fill="#FFF" points="8.348 17.919 8.348 20.846 8.35 20.848 9.67 21.702 9.217 20.245 10.405 19.44 8.908 19.44 8.35 17.921 8.348 17.918 8.348 17.918"/>
      <polygon fill="#231F20" fill-rule="nonzero" points="8.388 17.884 8.396 17.894 8.401 17.904 8.301 17.939 8.314 17.959 8.312 17.957 8.386 17.882 8.389 17.884 8.402 17.904 8.389 17.884 8.389 17.884"/>
      <polygon fill="#231F20" fill-rule="nonzero" points="8.908 19.493 8.871 19.493 8.858 19.458 8.908 19.493 8.858 19.458 8.3 17.939 8.4 17.904 8.958 19.423 8.908 19.388 8.908 19.493"/>
      <polygon fill="#231F20" fill-rule="nonzero" points="10.405 19.388 10.572 19.388 10.435 19.483 10.375 19.398 10.405 19.493 8.908 19.493 8.908 19.388 10.405 19.388 10.435 19.483 10.405 19.388 10.405 19.388"/>
      <polygon fill="#231F20" fill-rule="nonzero" points="9.167 20.26 9.155 20.223 9.187 20.203 9.167 20.26 9.187 20.203 10.376 19.398 10.435 19.483 9.247 20.288 9.267 20.23 9.167 20.26 9.167 20.26"/>
      <polygon fill="#231F20" fill-rule="nonzero" points="9.72 21.688 9.763 21.822 9.643 21.748 9.698 21.658 9.621 21.718 9.167 20.26 9.267 20.231 9.72 21.688 9.643 21.748 9.72 21.688 9.72 21.688"/>
      <polygon fill="#231F20" fill-rule="nonzero" points="8.323 20.893 8.318 20.888 8.313 20.885 8.387 20.81 8.377 20.802 9.698 21.657 9.643 21.746 8.323 20.892 8.313 20.884 8.323 20.892 8.323 20.892"/>
      <polygon fill="#231F20" fill-rule="nonzero" points="8.31 20.883 8.295 20.868 8.295 20.846 8.4 20.846 8.385 20.808 8.388 20.811 8.313 20.886 8.311 20.884 8.296 20.846 8.311 20.884 8.311 20.884"/>
      <polygon fill="#231F20" fill-rule="nonzero" points="8.295 17.919 8.295 17.799 8.385 17.881 8.31 17.956 8.4 17.918 8.4 20.846 8.295 20.846 8.295 17.918 8.385 17.881 8.295 17.918 8.295 17.918"/>
      <polygon fill="#ED192D" points="8.343 17.919 8.343 20.846 8.343 20.848 7.018 21.702 7.473 20.245 6.285 19.44 7.782 19.44 8.343 17.921 8.343 17.918 8.343 17.918"/>
      <polygon fill="#231F20" fill-rule="nonzero" points="8.395 17.921 8.395 17.931 8.392 17.939 8.292 17.904 8.29 17.922 8.29 17.919 8.395 17.919 8.395 17.922 8.392 17.939 8.395 17.922 8.395 17.922"/>
      <polygon fill="#231F20" fill-rule="nonzero" points="7.832 19.458 7.82 19.493 7.782 19.493 7.782 19.388 7.732 19.423 8.293 17.904 8.392 17.939 7.832 19.458 7.782 19.493 7.832 19.458 7.832 19.458"/>
      <polygon fill="#231F20" fill-rule="nonzero" points="6.255 19.483 6.118 19.388 6.285 19.388 6.255 19.483 6.285 19.388 7.782 19.388 7.782 19.493 6.285 19.493 6.315 19.398 6.255 19.483 6.255 19.483"/>
      <polygon fill="#231F20" fill-rule="nonzero" points="7.503 20.203 7.536 20.223 7.523 20.26 7.424 20.23 7.443 20.288 6.255 19.483 6.315 19.398 7.503 20.203 7.523 20.26 7.503 20.203 7.503 20.203"/>
      <polygon fill="#231F20" fill-rule="nonzero" points="7.045 21.747 6.925 21.822 6.968 21.688 7.045 21.747 6.968 21.688 7.424 20.23 7.523 20.26 7.067 21.718 6.99 21.658 7.045 21.747 7.045 21.747"/>
      <polygon fill="#231F20" fill-rule="nonzero" points="8.395 20.848 8.395 20.876 8.37 20.893 8.395 20.848 8.37 20.893 7.045 21.747 6.99 21.658 8.315 20.803 8.29 20.848 8.395 20.848"/>
      <polygon fill="#231F20" fill-rule="nonzero" points="8.395 20.846 8.395 20.846 8.395 20.848 8.29 20.848 8.29 20.846 8.29 20.846"/>
      <polygon fill="#231F20" fill-rule="nonzero" points="8.29 17.919 8.395 17.919 8.395 20.846 8.29 20.846 8.29 17.919 8.395 17.919"/>
      <polygon fill="#FFF" points="8.348 11.016 8.348 13.948 8.35 13.95 9.67 14.804 9.217 13.347 10.405 12.542 8.908 12.542 8.35 11.02 8.348 11.015 8.348 11.015"/>
      <polygon fill="#231F20" fill-rule="nonzero" points="8.301 11.038 8.303 11.043 8.301 11.038 8.395 10.993 8.397 10.998 8.399 11.003 8.3 11.038 8.3 11.038"/>
      <polygon fill="#231F20" fill-rule="nonzero" points="8.908 12.595 8.871 12.595 8.858 12.56 8.908 12.595 8.858 12.56 8.3 11.038 8.4 11.003 8.958 12.525 8.908 12.49 8.908 12.595"/>
      <polygon fill="#231F20" fill-rule="nonzero" points="10.405 12.49 10.572 12.49 10.435 12.585 10.375 12.5 10.405 12.595 8.908 12.595 8.908 12.49 10.405 12.49 10.435 12.585 10.405 12.49 10.405 12.49"/>
      <polygon fill="#231F20" fill-rule="nonzero" points="9.167 13.362 9.155 13.325 9.187 13.305 9.167 13.362 9.187 13.305 10.376 12.5 10.435 12.585 9.247 13.39 9.267 13.332 9.167 13.362 9.167 13.362"/>
      <polygon fill="#231F20" fill-rule="nonzero" points="9.72 14.79 9.763 14.924 9.643 14.85 9.698 14.76 9.621 14.82 9.167 13.362 9.267 13.332 9.72 14.79 9.643 14.85 9.72 14.79 9.72 14.79"/>
      <polygon fill="#231F20" fill-rule="nonzero" points="8.323 13.995 8.318 13.99 8.313 13.987 8.387 13.912 8.377 13.905 9.698 14.76 9.643 14.85 8.323 13.995 8.313 13.987 8.323 13.995 8.323 13.995"/>
      <polygon fill="#231F20" fill-rule="nonzero" points="8.31 13.985 8.295 13.97 8.295 13.948 8.4 13.948 8.385 13.91 8.388 13.912 8.313 13.987 8.311 13.984 8.296 13.947 8.311 13.984 8.311 13.984"/>
      <polygon fill="#231F20" fill-rule="nonzero" points="8.295 11.016 8.295 10.811 8.395 10.993 8.301 11.038 8.4 11.016 8.4 13.948 8.295 13.948 8.295 11.016 8.395 10.993 8.295 11.016 8.295 11.016"/>
      <polygon fill="#ED192D" points="8.343 11.016 8.343 13.948 8.343 13.95 7.018 14.804 7.473 13.347 6.285 12.542 7.782 12.542 8.343 11.02 8.343 11.015 8.343 11.015"/>
      <polygon fill="#231F20" fill-rule="nonzero" points="8.395 11.02 8.395 11.031 8.392 11.039 8.292 11.004 8.29 11.021 8.29 11.016 8.395 11.016 8.395 11.021 8.392 11.039 8.395 11.021 8.395 11.021"/>
      <polygon fill="#231F20" fill-rule="nonzero" points="7.832 12.56 7.82 12.595 7.782 12.595 7.782 12.49 7.732 12.525 8.293 11.003 8.392 11.038 7.832 12.56 7.782 12.595 7.832 12.56 7.832 12.56"/>
      <polygon fill="#231F20" fill-rule="nonzero" points="6.255 12.585 6.118 12.49 6.285 12.49 6.255 12.585 6.285 12.49 7.782 12.49 7.782 12.595 6.285 12.595 6.315 12.5 6.255 12.585 6.255 12.585"/>
      <polygon fill="#231F20" fill-rule="nonzero" points="7.503 13.305 7.536 13.325 7.523 13.362 7.424 13.332 7.443 13.39 6.255 12.585 6.315 12.5 7.503 13.305 7.523 13.362 7.503 13.305 7.503 13.305"/>
      <polygon fill="#231F20" fill-rule="nonzero" points="7.045 14.85 6.925 14.924 6.968 14.79 7.045 14.85 6.968 14.79 7.424 13.332 7.523 13.362 7.067 14.82 6.99 14.76 7.045 14.85 7.045 14.85"/>
      <polygon fill="#231F20" fill-rule="nonzero" points="8.395 13.95 8.395 13.977 8.37 13.995 8.395 13.95 8.37 13.995 7.045 14.85 6.99 14.76 8.315 13.905 8.29 13.95"/>
      <polygon fill="#231F20" fill-rule="nonzero" points="8.395 13.948 8.395 13.948 8.395 13.95 8.29 13.95 8.29 13.948 8.29 13.948"/>
      <polygon fill="#231F20" fill-rule="nonzero" points="8.29 11.016 8.395 11.016 8.395 13.948 8.29 13.948 8.29 11.016 8.395 11.016"/>
      <polygon fill="#ED192D" points="8.343 14.466 8.343 17.395 8.343 17.4 7.018 18.255 7.473 16.798 6.285 15.993 7.782 15.993 8.343 14.471 8.343 14.466 8.343 14.466"/>
      <polygon fill="#231F20" fill-rule="nonzero" points="8.395 14.471 8.395 14.481 8.392 14.489 8.292 14.454 8.29 14.471 8.29 14.466 8.395 14.466 8.395 14.471 8.392 14.489 8.395 14.471 8.395 14.471"/>
      <polygon fill="#231F20" fill-rule="nonzero" points="7.832 16.01 7.82 16.045 7.782 16.045 7.782 15.941 7.732 15.976 8.293 14.454 8.392 14.488 7.832 16.01 7.782 16.045 7.832 16.01 7.832 16.01"/>
      <polygon fill="#231F20" fill-rule="nonzero" points="6.255 16.035 6.118 15.941 6.285 15.941 6.255 16.035 6.285 15.941 7.782 15.941 7.782 16.045 6.285 16.045 6.315 15.951 6.255 16.035 6.255 16.035"/>
      <polygon fill="#231F20" fill-rule="nonzero" points="7.503 16.755 7.536 16.775 7.523 16.812 7.424 16.783 7.443 16.84 6.255 16.035 6.315 15.95 7.503 16.755 7.523 16.812 7.503 16.755 7.503 16.755"/>
      <polygon fill="#231F20" fill-rule="nonzero" points="7.045 18.3 6.925 18.374 6.968 18.24 7.045 18.3 6.968 18.24 7.424 16.783 7.523 16.812 7.067 18.27 6.99 18.21 7.045 18.3 7.045 18.3"/>
      <polygon fill="#231F20" fill-rule="nonzero" points="8.395 17.4 8.395 17.428 8.37 17.445 8.395 17.4 8.37 17.445 7.045 18.3 6.99 18.21 8.315 17.356 8.29 17.4 8.395 17.4"/>
      <polygon fill="#231F20" fill-rule="nonzero" points="8.395 17.395 8.395 17.395 8.395 17.4 8.29 17.4 8.29 17.395 8.29 17.395"/>
      <polygon fill="#231F20" fill-rule="nonzero" points="8.29 14.466 8.395 14.466 8.395 17.395 8.29 17.395 8.29 14.466 8.395 14.466"/>
      <polygon fill="#FFF" points="8.348 14.466 8.348 17.395 8.35 17.4 9.67 18.255 9.217 16.798 10.405 15.993 8.908 15.993 8.35 14.471 8.348 14.466 8.348 14.466"/>
      <polygon fill="#231F20" fill-rule="nonzero" points="8.301 14.488 8.303 14.493 8.301 14.488 8.395 14.443 8.397 14.448 8.399 14.453 8.3 14.488 8.3 14.488"/>
      <polygon fill="#231F20" fill-rule="nonzero" points="8.908 16.045 8.871 16.045 8.858 16.01 8.908 16.045 8.858 16.01 8.3 14.488 8.4 14.453 8.958 15.975 8.908 15.941 8.908 16.045"/>
      <polygon fill="#231F20" fill-rule="nonzero" points="10.405 15.941 10.572 15.941 10.435 16.035 10.375 15.951 10.405 16.045 8.908 16.045 8.908 15.941 10.405 15.941 10.435 16.035 10.405 15.941 10.405 15.941"/>
      <polygon fill="#231F20" fill-rule="nonzero" points="9.167 16.812 9.155 16.775 9.187 16.755 9.167 16.813 9.187 16.755 10.376 15.951 10.435 16.035 9.247 16.84 9.267 16.783 9.167 16.813 9.167 16.813"/>
      <polygon fill="#231F20" fill-rule="nonzero" points="9.72 18.24 9.763 18.374 9.643 18.3 9.698 18.21 9.621 18.27 9.167 16.813 9.267 16.783 9.72 18.24 9.643 18.3 9.72 18.24 9.72 18.24"/>
      <polygon fill="#231F20" fill-rule="nonzero" points="8.323 17.445 8.31 17.435 8.303 17.423 8.398 17.378 8.378 17.356 9.698 18.21 9.644 18.3 8.323 17.445 8.303 17.423 8.323 17.445 8.323 17.445"/>
      <polygon fill="#231F20" fill-rule="nonzero" points="8.301 17.418 8.296 17.408 8.296 17.395 8.4 17.395 8.395 17.373 8.397 17.378 8.303 17.423 8.301 17.418 8.296 17.395 8.301 17.418 8.301 17.418"/>
      <polygon fill="#231F20" fill-rule="nonzero" points="8.295 14.466 8.295 14.262 8.395 14.443 8.301 14.488 8.4 14.466 8.4 17.395 8.295 17.395 8.295 14.466 8.395 14.443 8.295 14.466 8.295 14.466"/>
      <polygon fill="#FFF" points="12.747 25.514 12.75 25.517 14.078 26.371 13.622 24.914 14.808 24.109 13.313 24.109 12.75 22.59 12.747 22.582 12.187 24.106 10.689 24.106 11.878 24.911 11.424 26.368 12.747 25.514 12.747 25.514"/>
      <polygon fill="#231F20" fill-rule="nonzero" points="11.452 26.413 11.332 26.488 11.375 26.354 11.474 26.384 11.397 26.324 12.72 25.469 12.775 25.559 11.452 26.413 11.375 26.354 11.452 26.413 11.452 26.413"/>
      <polygon fill="#231F20" fill-rule="nonzero" points="11.908 24.869 11.94 24.889 11.928 24.926 11.908 24.869 11.928 24.926 11.474 26.384 11.375 26.354 11.828 24.896 11.848 24.954 11.908 24.869 11.908 24.869"/>
      <polygon fill="#231F20" fill-rule="nonzero" points="10.66 24.149 10.523 24.054 10.689 24.054 10.689 24.159 10.719 24.064 11.908 24.869 11.848 24.954 10.659 24.149 10.689 24.054 10.659 24.149 10.659 24.149"/>
      <polygon fill="#231F20" fill-rule="nonzero" points="12.236 24.124 12.224 24.159 12.187 24.159 12.236 24.124 12.187 24.159 10.689 24.159 10.689 24.054 12.187 24.054 12.137 24.089 12.236 24.124 12.236 24.124"/>
      <polygon fill="#231F20" fill-rule="nonzero" points="12.697 22.565 12.747 22.433 12.797 22.565 12.697 22.599 12.797 22.599 12.236 24.124 12.137 24.089 12.697 22.565 12.797 22.565 12.697 22.565"/>
      <polygon fill="#231F20" fill-rule="nonzero" points="12.7 22.607 12.7 22.607 12.698 22.6 12.797 22.565 12.799 22.573 12.799 22.573 12.7 22.608 12.7 22.608"/>
      <polygon fill="#231F20" fill-rule="nonzero" points="13.313 24.161 13.275 24.161 13.263 24.127 13.313 24.161 13.263 24.127 12.7 22.607 12.799 22.572 13.362 24.092 13.312 24.057 13.312 24.161"/>
      <polygon fill="#231F20" fill-rule="nonzero" points="14.807 24.057 14.974 24.057 14.837 24.152 14.777 24.067 14.807 24.161 13.313 24.161 13.313 24.057 14.807 24.057 14.837 24.152 14.807 24.057 14.807 24.057"/>
      <polygon fill="#231F20" fill-rule="nonzero" points="13.572 24.929 13.559 24.891 13.592 24.871 13.572 24.929 13.592 24.871 14.777 24.067 14.837 24.151 13.651 24.956 13.671 24.899 13.572 24.929 13.572 24.929"/>
      <polygon fill="#231F20" fill-rule="nonzero" points="14.127 26.356 14.17 26.491 14.05 26.416 14.105 26.326 14.028 26.386 13.572 24.929 13.671 24.899 14.127 26.356 14.05 26.416 14.127 26.356 14.127 26.356"/>
      <polygon fill="#231F20" fill-rule="nonzero" points="12.722 25.561 12.717 25.556 12.712 25.553 12.787 25.478 12.777 25.471 14.105 26.326 14.05 26.415 12.722 25.561 12.712 25.554 12.722 25.561 12.722 25.561"/>
      <polygon fill="#231F20" fill-rule="nonzero" points="12.72 25.469 12.755 25.447 12.784 25.477 12.72 25.47 12.784 25.477 12.787 25.479 12.713 25.554 12.71 25.552 12.775 25.56 12.72 25.47 12.72 25.47"/>
      <polygon fill="#FFF" points="12.747 22.086 12.75 22.089 14.078 22.946 13.622 21.486 14.808 20.682 13.313 20.682 12.75 19.16 12.747 19.158 12.187 20.677 10.689 20.677 11.878 21.484 11.424 22.939 12.747 22.087 12.747 22.087"/>
      <polygon fill="#231F20" fill-rule="nonzero" points="11.452 22.983 11.332 23.058 11.375 22.923 11.474 22.953 11.397 22.893 12.72 22.041 12.775 22.131 11.452 22.983 11.375 22.923 11.452 22.983 11.452 22.983"/>
      <polygon fill="#231F20" fill-rule="nonzero" points="11.908 21.441 11.94 21.461 11.928 21.498 11.908 21.441 11.928 21.498 11.474 22.953 11.375 22.923 11.828 21.468 11.848 21.526 11.908 21.441 11.908 21.441"/>
      <polygon fill="#231F20" fill-rule="nonzero" points="10.66 20.719 10.523 20.624 10.689 20.624 10.689 20.729 10.719 20.634 11.908 21.441 11.848 21.526 10.659 20.719 10.689 20.624 10.659 20.719 10.659 20.719"/>
      <polygon fill="#231F20" fill-rule="nonzero" points="12.236 20.694 12.224 20.729 12.187 20.729 12.236 20.694 12.187 20.729 10.689 20.729 10.689 20.624 12.187 20.624 12.137 20.659 12.236 20.694 12.236 20.694"/>
      <polygon fill="#231F20" fill-rule="nonzero" points="12.697 19.139 12.725 19.064 12.784 19.119 12.71 19.194 12.797 19.174 12.236 20.694 12.137 20.659 12.697 19.139 12.784 19.119 12.697 19.139 12.697 19.139"/>
      <polygon fill="#231F20" fill-rule="nonzero" points="12.787 19.122 12.794 19.132 12.799 19.142 12.699 19.177 12.712 19.197 12.709 19.195 12.784 19.12 12.787 19.123 12.799 19.143 12.787 19.123 12.787 19.123"/>
      <polygon fill="#231F20" fill-rule="nonzero" points="13.313 20.734 13.275 20.734 13.263 20.699 13.313 20.734 13.263 20.699 12.7 19.177 12.799 19.142 13.362 20.664 13.312 20.629 13.312 20.734"/>
      <polygon fill="#231F20" fill-rule="nonzero" points="14.807 20.629 14.974 20.629 14.837 20.724 14.777 20.639 14.807 20.734 13.313 20.734 13.313 20.629 14.807 20.629 14.837 20.724 14.807 20.629 14.807 20.629"/>
      <polygon fill="#231F20" fill-rule="nonzero" points="13.572 21.501 13.559 21.463 13.592 21.443 13.572 21.501 13.592 21.443 14.777 20.639 14.837 20.724 13.651 21.528 13.671 21.471 13.572 21.501 13.572 21.501"/>
      <polygon fill="#231F20" fill-rule="nonzero" points="14.127 22.931 14.17 23.065 14.05 22.991 14.105 22.901 14.028 22.961 13.572 21.501 13.671 21.471 14.127 22.931 14.05 22.991 14.127 22.931 14.127 22.931"/>
      <polygon fill="#231F20" fill-rule="nonzero" points="12.722 22.134 12.717 22.129 12.712 22.127 12.787 22.052 12.777 22.044 14.105 22.901 14.05 22.99 12.722 22.133 12.712 22.126 12.722 22.133 12.722 22.133"/>
      <polygon fill="#231F20" fill-rule="nonzero" points="12.72 22.041 12.755 22.019 12.784 22.049 12.72 22.042 12.784 22.049 12.787 22.051 12.713 22.126 12.71 22.123 12.775 22.131 12.72 22.041 12.72 22.041"/>
      <polygon fill="#FFF" points="12.747 18.604 12.75 18.609 14.078 19.461 13.622 18.006 14.808 17.201 13.313 17.201 12.75 15.679 12.747 15.676 12.187 17.196 10.689 17.196 11.878 18.003 11.424 19.455 12.747 18.603 12.747 18.603"/>
      <polygon fill="#231F20" fill-rule="nonzero" points="11.452 19.5 11.332 19.575 11.375 19.441 11.474 19.471 11.397 19.411 12.72 18.559 12.775 18.649 11.452 19.5 11.375 19.441 11.452 19.5 11.452 19.5"/>
      <polygon fill="#231F20" fill-rule="nonzero" points="11.908 17.961 11.94 17.981 11.928 18.018 11.908 17.961 11.928 18.018 11.474 19.471 11.375 19.441 11.828 17.988 11.848 18.046 11.908 17.961 11.908 17.961"/>
      <polygon fill="#231F20" fill-rule="nonzero" points="10.66 17.238 10.523 17.144 10.689 17.144 10.689 17.249 10.719 17.154 11.908 17.961 11.848 18.046 10.659 17.239 10.689 17.144 10.659 17.239 10.659 17.239"/>
      <polygon fill="#231F20" fill-rule="nonzero" points="12.236 17.214 12.224 17.249 12.187 17.249 12.236 17.214 12.187 17.249 10.689 17.249 10.689 17.144 12.187 17.144 12.137 17.179 12.236 17.214 12.236 17.214"/>
      <polygon fill="#231F20" fill-rule="nonzero" points="12.697 15.659 12.725 15.585 12.784 15.639 12.71 15.714 12.797 15.694 12.236 17.214 12.137 17.179 12.697 15.659 12.784 15.639 12.697 15.659 12.697 15.659"/>
      <polygon fill="#231F20" fill-rule="nonzero" points="12.787 15.642 12.794 15.652 12.799 15.662 12.699 15.696 12.712 15.716 12.709 15.714 12.784 15.64 12.787 15.642 12.799 15.662 12.787 15.642 12.787 15.642"/>
      <polygon fill="#231F20" fill-rule="nonzero" points="13.313 17.253 13.275 17.253 13.263 17.219 13.313 17.253 13.263 17.219 12.7 15.696 12.799 15.662 13.362 17.184 13.312 17.149 13.312 17.253"/>
      <polygon fill="#231F20" fill-rule="nonzero" points="14.807 17.149 14.974 17.149 14.837 17.243 14.777 17.159 14.807 17.253 13.313 17.253 13.313 17.149 14.807 17.149 14.837 17.243 14.807 17.149 14.807 17.149"/>
      <polygon fill="#231F20" fill-rule="nonzero" points="13.572 18.021 13.559 17.983 13.592 17.963 13.572 18.021 13.592 17.963 14.777 17.159 14.837 17.243 13.651 18.048 13.671 17.991 13.572 18.021 13.572 18.021"/>
      <polygon fill="#231F20" fill-rule="nonzero" points="14.127 19.446 14.17 19.58 14.05 19.506 14.105 19.416 14.028 19.476 13.572 18.021 13.671 17.991 14.127 19.446 14.05 19.506 14.127 19.446 14.127 19.446"/>
      <polygon fill="#231F20" fill-rule="nonzero" points="12.722 18.653 12.71 18.645 12.703 18.63 12.797 18.586 12.777 18.563 14.105 19.415 14.05 19.505 12.722 18.653 12.703 18.63 12.722 18.653 12.722 18.653"/>
      <polygon fill="#231F20" fill-rule="nonzero" points="12.72 18.559 12.767 18.529 12.795 18.581 12.72 18.559 12.795 18.581 12.797 18.586 12.702 18.631 12.699 18.626 12.774 18.649 12.719 18.559 12.719 18.559"/>
      <polygon fill="#FFF" points="12.747 15.158 12.75 15.166 14.078 16.018 13.622 14.563 14.808 13.759 13.313 13.754 12.75 12.234 12.747 12.232 12.187 13.752 10.689 13.752 11.878 14.556 11.424 16.016 12.747 15.159 12.747 15.159"/>
      <polygon fill="#231F20" fill-rule="nonzero" points="11.452 16.06 11.335 16.135 11.375 16 11.474 16.03 11.397 15.97 12.72 15.114 12.775 15.203 11.452 16.06 11.375 16 11.452 16.06 11.452 16.06"/>
      <polygon fill="#231F20" fill-rule="nonzero" points="11.908 14.513 11.94 14.533 11.928 14.571 11.908 14.513 11.928 14.571 11.474 16.03 11.375 16 11.828 14.541 11.848 14.598 11.908 14.513 11.908 14.513"/>
      <polygon fill="#231F20" fill-rule="nonzero" points="10.66 13.793 10.523 13.699 10.689 13.699 10.689 13.803 10.719 13.708 11.908 14.513 11.848 14.598 10.659 13.793 10.689 13.699 10.659 13.793 10.659 13.793"/>
      <polygon fill="#231F20" fill-rule="nonzero" points="12.236 13.768 12.224 13.803 12.187 13.803 12.236 13.768 12.187 13.803 10.689 13.803 10.689 13.699 12.187 13.699 12.137 13.734 12.236 13.768 12.236 13.768"/>
      <polygon fill="#231F20" fill-rule="nonzero" points="12.697 12.214 12.725 12.139 12.784 12.194 12.71 12.269 12.797 12.249 12.236 13.768 12.137 13.733 12.697 12.214 12.784 12.194 12.697 12.214 12.697 12.214"/>
      <polygon fill="#231F20" fill-rule="nonzero" points="12.787 12.196 12.794 12.206 12.799 12.216 12.699 12.251 12.712 12.271 12.709 12.269 12.784 12.195 12.787 12.197 12.799 12.217 12.787 12.197 12.787 12.197"/>
      <polygon fill="#231F20" fill-rule="nonzero" points="13.313 13.806 13.275 13.806 13.263 13.771 13.313 13.806 13.263 13.771 12.7 12.251 12.799 12.216 13.362 13.736 13.312 13.701 13.312 13.806"/>
      <polygon fill="#231F20" fill-rule="nonzero" points="14.807 13.706 14.974 13.706 14.837 13.801 14.777 13.716 14.807 13.811 13.313 13.806 13.313 13.701 14.807 13.706 14.837 13.801 14.807 13.706 14.807 13.706"/>
      <polygon fill="#231F20" fill-rule="nonzero" points="13.572 14.578 13.559 14.541 13.592 14.521 13.572 14.578 13.592 14.521 14.777 13.716 14.837 13.801 13.651 14.605 13.671 14.548 13.572 14.578 13.572 14.578"/>
      <polygon fill="#231F20" fill-rule="nonzero" points="14.127 16.003 14.17 16.137 14.05 16.063 14.105 15.973 14.028 16.033 13.572 14.578 13.671 14.548 14.127 16.003 14.05 16.063 14.127 16.003 14.127 16.003"/>
      <polygon fill="#231F20" fill-rule="nonzero" points="12.722 15.211 12.707 15.201 12.7 15.183 12.8 15.148 12.777 15.121 14.105 15.973 14.05 16.062 12.723 15.211 12.7 15.183 12.723 15.211 12.723 15.211"/>
      <polygon fill="#231F20" fill-rule="nonzero" points="12.72 15.114 12.775 15.079 12.797 15.141 12.72 15.113 12.797 15.141 12.799 15.149 12.699 15.184 12.697 15.177 12.775 15.204 12.72 15.114 12.72 15.114"/>
      <polygon fill="#231F20" fill-rule="nonzero" points="8.298 10.5 8.298 10.448 8.35 10.448 8.298 10.5 8.35 10.448 16.18 10.448 16.18 10.552 8.35 10.552 8.403 10.5 8.298 10.5"/>
      <polygon fill="#231F20" fill-rule="nonzero" points="8.395 29.55 8.29 29.55 8.297 10.5 8.402 10.5 8.395 29.55 8.29 29.55 8.395 29.55"/>
      <polygon fill="#231F20" fill-rule="nonzero" points="8.35 10.448 8.403 10.448 8.403 10.5 8.35 10.448 8.403 10.5 8.396 29.55 8.291 29.55 8.298 10.5 8.35 10.552 8.35 10.448"/>
      <polygon fill="#231F20" fill-rule="nonzero" points=".446 10.512 .446 10.46 .498 10.46 .446 10.512 .498 10.46 8.35 10.448 8.35 10.552 .498 10.565 .55 10.512 .446 10.512"/>
      <polygon fill="#231F20" fill-rule="nonzero" points=".448 22.149 .448 22.149 .446 10.512 .551 10.512 .554 22.149 .554 22.149 .449 22.149"/>
      <polygon fill="#231F20" fill-rule="nonzero" points="8.343 29.602 8.343 29.602 7.937 29.592 7.536 29.565 7.14 29.517 6.751 29.452 6.37 29.368 5.996 29.268 5.627 29.151 5.269 29.017 4.92 28.867 4.579 28.705 4.25 28.523 3.931 28.331 3.62 28.122 3.321 27.903 3.034 27.669 2.763 27.42 2.501 27.163 2.252 26.891 2.018 26.61 1.799 26.319 1.592 26.015 1.402 25.703 1.226 25.384 1.069 25.053 .927 24.714 .802 24.368 .697 24.012 .608 23.651 .538 23.284 .488 22.911 .458 22.532 .448 22.148 .553 22.148 .563 22.527 .593 22.901 .643 23.269 .712 23.631 .797 23.987 .902 24.333 1.026 24.674 1.163 25.008 1.32 25.335 1.492 25.653 1.682 25.96 1.883 26.259 2.098 26.545 2.332 26.822 2.576 27.088 2.833 27.345 3.104 27.589 3.385 27.818 3.68 28.037 3.986 28.242 4.3 28.434 4.629 28.61 4.965 28.772 5.309 28.922 5.662 29.051 6.026 29.168 6.395 29.268 6.771 29.348 7.155 29.413 7.546 29.46 7.942 29.487 8.343 29.497 8.343 29.497 8.343 29.602"/>
      <polygon fill="#231F20" fill-rule="nonzero" points="16.235 22.149 16.235 22.149 16.225 22.532 16.195 22.911 16.145 23.284 16.075 23.651 15.986 24.012 15.878 24.368 15.756 24.712 15.615 25.053 15.455 25.385 15.281 25.703 15.091 26.015 14.885 26.319 14.663 26.61 14.431 26.892 14.182 27.163 13.92 27.42 13.649 27.669 13.36 27.903 13.061 28.122 12.752 28.332 12.431 28.523 12.104 28.705 11.763 28.867 11.414 29.017 11.056 29.151 10.687 29.268 10.313 29.368 9.932 29.453 9.544 29.517 9.15 29.565 8.749 29.592 8.343 29.602 8.343 29.497 8.744 29.487 9.14 29.46 9.529 29.413 9.912 29.348 10.288 29.268 10.657 29.169 11.021 29.052 11.375 28.922 11.718 28.773 12.055 28.611 12.381 28.434 12.697 28.242 13.001 28.038 13.295 27.819 13.579 27.589 13.851 27.345 14.107 27.089 14.351 26.822 14.583 26.546 14.8 26.259 15.002 25.96 15.191 25.654 15.36 25.335 15.52 25.009 15.657 24.677 15.779 24.333 15.886 23.987 15.971 23.631 16.04 23.27 16.09 22.901 16.12 22.527 16.13 22.149 16.13 22.149 16.235 22.149"/>
      <polygon fill="#231F20" fill-rule="nonzero" points="16.18 10.448 16.232 10.448 16.232 10.5 16.18 10.448 16.232 10.5 16.234 22.149 16.129 22.149 16.127 10.5 16.18 10.552 16.18 10.448"/>
      <polygon fill="#ED192D" points="3.933 25.514 3.933 25.517 2.608 26.371 3.062 24.914 1.873 24.109 3.37 24.109 3.933 22.59 3.933 22.582 4.497 24.106 5.991 24.106 4.805 24.911 5.261 26.368 3.933 25.514 3.933 25.514"/>
      <polygon fill="#231F20" fill-rule="nonzero" points="5.311 26.354 5.353 26.488 5.234 26.414 5.311 26.354 5.234 26.414 3.906 25.559 3.961 25.469 5.289 26.324 5.211 26.384 5.311 26.354 5.311 26.354"/>
      <polygon fill="#231F20" fill-rule="nonzero" points="4.756 24.926 4.743 24.889 4.775 24.869 4.835 24.954 4.855 24.896 5.311 26.354 5.211 26.384 4.756 24.926 4.776 24.869 4.756 24.926 4.756 24.926"/>
      <polygon fill="#231F20" fill-rule="nonzero" points="5.991 24.054 6.158 24.054 6.021 24.149 5.991 24.054 6.021 24.149 4.835 24.954 4.775 24.869 5.961 24.064 5.991 24.159 5.991 24.054"/>
      <polygon fill="#231F20" fill-rule="nonzero" points="4.497 24.159 4.459 24.159 4.447 24.124 4.546 24.089 4.497 24.054 5.991 24.054 5.991 24.159 4.497 24.159 4.447 24.124 4.497 24.159 4.497 24.159"/>
      <polygon fill="#231F20" fill-rule="nonzero" points="3.881 22.582 3.881 22.293 3.983 22.565 3.881 22.582 3.983 22.565 4.546 24.089 4.447 24.124 3.884 22.599 3.986 22.582 3.881 22.582"/>
      <polygon fill="#231F20" fill-rule="nonzero" points="3.986 22.589 3.986 22.599 3.983 22.606 3.883 22.572 3.88 22.589 3.88 22.581 3.985 22.581 3.985 22.589 3.982 22.606 3.985 22.589 3.985 22.589"/>
      <polygon fill="#231F20" fill-rule="nonzero" points="3.42 24.127 3.408 24.161 3.37 24.161 3.37 24.057 3.321 24.092 3.884 22.572 3.983 22.607 3.42 24.127 3.37 24.161 3.42 24.127 3.42 24.127"/>
      <polygon fill="#231F20" fill-rule="nonzero" points="1.843 24.151 1.706 24.057 1.873 24.057 1.843 24.151 1.873 24.057 3.37 24.057 3.37 24.161 1.873 24.161 1.903 24.067 1.843 24.151 1.843 24.151"/>
      <polygon fill="#231F20" fill-rule="nonzero" points="3.091 24.871 3.124 24.891 3.111 24.929 3.012 24.899 3.032 24.956 1.843 24.151 1.903 24.067 3.091 24.871 3.111 24.929 3.091 24.871 3.091 24.871"/>
      <polygon fill="#231F20" fill-rule="nonzero" points="2.636 26.416 2.516 26.491 2.558 26.356 2.635 26.416 2.558 26.356 3.012 24.899 3.111 24.929 2.658 26.386 2.581 26.326 2.636 26.416 2.636 26.416"/>
      <polygon fill="#231F20" fill-rule="nonzero" points="3.986 25.517 3.986 25.544 3.961 25.561 3.986 25.517 3.961 25.561 2.635 26.416 2.581 26.326 3.906 25.472 3.881 25.517 3.986 25.517"/>
      <polygon fill="#231F20" fill-rule="nonzero" points="3.881 25.514 3.881 25.419 3.961 25.469 3.906 25.559 3.986 25.514 3.986 25.517 3.881 25.517 3.881 25.514 3.961 25.469 3.881 25.514 3.881 25.514"/>
      <polygon fill="#ED192D" points="3.933 22.086 3.933 22.089 2.608 22.946 3.062 21.486 1.873 20.682 3.37 20.682 3.933 19.16 3.933 19.158 4.497 20.677 5.991 20.677 4.805 21.484 5.261 22.939 3.933 22.087 3.933 22.087"/>
      <polygon fill="#231F20" fill-rule="nonzero" points="5.311 22.923 5.353 23.058 5.234 22.983 5.311 22.923 5.234 22.983 3.906 22.131 3.961 22.042 5.289 22.893 5.211 22.953 5.311 22.923 5.311 22.923"/>
      <polygon fill="#231F20" fill-rule="nonzero" points="4.756 21.498 4.743 21.461 4.775 21.441 4.835 21.526 4.855 21.468 5.311 22.923 5.211 22.953 4.756 21.498 4.776 21.441 4.756 21.498 4.756 21.498"/>
      <polygon fill="#231F20" fill-rule="nonzero" points="5.991 20.624 6.158 20.624 6.021 20.719 5.991 20.624 6.021 20.719 4.835 21.526 4.775 21.441 5.961 20.634 5.991 20.729 5.991 20.624"/>
      <polygon fill="#231F20" fill-rule="nonzero" points="4.497 20.729 4.459 20.729 4.447 20.694 4.546 20.659 4.497 20.624 5.991 20.624 5.991 20.729 4.497 20.729 4.447 20.694 4.497 20.729 4.497 20.729"/>
      <polygon fill="#231F20" fill-rule="nonzero" points="3.881 19.157 3.881 18.868 3.983 19.139 3.881 19.157 3.983 19.139 4.546 20.659 4.447 20.694 3.884 19.174 3.986 19.157 3.881 19.157"/>
      <polygon fill="#231F20" fill-rule="nonzero" points="3.986 19.159 3.986 19.169 3.983 19.176 3.883 19.141 3.88 19.159 3.88 19.157 3.985 19.157 3.985 19.159 3.982 19.176 3.985 19.159 3.985 19.159"/>
      <polygon fill="#231F20" fill-rule="nonzero" points="3.42 20.699 3.408 20.734 3.37 20.734 3.37 20.629 3.321 20.664 3.884 19.142 3.983 19.177 3.42 20.699 3.37 20.734 3.42 20.699 3.42 20.699"/>
      <polygon fill="#231F20" fill-rule="nonzero" points="1.843 20.724 1.706 20.629 1.873 20.629 1.843 20.724 1.873 20.629 3.37 20.629 3.37 20.734 1.873 20.734 1.903 20.639 1.843 20.724 1.843 20.724"/>
      <polygon fill="#231F20" fill-rule="nonzero" points="3.091 21.443 3.124 21.463 3.111 21.501 3.012 21.471 3.032 21.528 1.843 20.724 1.903 20.639 3.091 21.444 3.111 21.501 3.091 21.444 3.091 21.444"/>
      <polygon fill="#231F20" fill-rule="nonzero" points="2.636 22.991 2.519 23.065 2.558 22.931 2.636 22.991 2.558 22.931 3.012 21.471 3.111 21.501 2.658 22.961 2.581 22.901 2.636 22.99 2.636 22.99"/>
      <polygon fill="#231F20" fill-rule="nonzero" points="3.986 22.089 3.986 22.116 3.961 22.134 3.986 22.089 3.961 22.134 2.635 22.991 2.581 22.901 3.906 22.044 3.881 22.089 3.986 22.089"/>
      <polygon fill="#231F20" fill-rule="nonzero" points="3.881 22.086 3.881 21.992 3.961 22.042 3.906 22.131 3.986 22.086 3.986 22.089 3.881 22.089 3.881 22.086 3.961 22.042 3.881 22.086 3.881 22.086"/>
      <polygon fill="#ED192D" points="3.933 18.604 3.933 18.609 2.608 19.461 3.062 18.006 1.873 17.201 3.37 17.201 3.933 15.679 3.933 15.676 4.497 17.196 5.991 17.196 4.805 18.003 5.261 19.455 3.933 18.603 3.933 18.603"/>
      <polygon fill="#231F20" fill-rule="nonzero" points="5.311 19.441 5.353 19.575 5.234 19.501 5.311 19.441 5.234 19.501 3.906 18.649 3.961 18.559 5.289 19.411 5.211 19.471 5.311 19.441 5.311 19.441"/>
      <polygon fill="#231F20" fill-rule="nonzero" points="4.756 18.018 4.743 17.981 4.775 17.961 4.835 18.046 4.855 17.988 5.311 19.44 5.211 19.47 4.756 18.018 4.776 17.961 4.756 18.018 4.756 18.018"/>
      <polygon fill="#231F20" fill-rule="nonzero" points="5.991 17.144 6.158 17.144 6.021 17.238 5.991 17.144 6.021 17.238 4.835 18.046 4.775 17.961 5.961 17.154 5.991 17.249 5.991 17.144"/>
      <polygon fill="#231F20" fill-rule="nonzero" points="4.497 17.249 4.459 17.249 4.447 17.214 4.546 17.179 4.497 17.144 5.991 17.144 5.991 17.249 4.497 17.249 4.447 17.214 4.497 17.249 4.497 17.249"/>
      <polygon fill="#231F20" fill-rule="nonzero" points="3.881 15.677 3.881 15.388 3.983 15.659 3.881 15.677 3.983 15.659 4.546 17.179 4.447 17.214 3.884 15.694 3.986 15.677 3.881 15.677"/>
      <polygon fill="#231F20" fill-rule="nonzero" points="3.986 15.679 3.986 15.689 3.983 15.697 3.883 15.662 3.88 15.68 3.88 15.677 3.985 15.677 3.985 15.68 3.982 15.697 3.985 15.68 3.985 15.68"/>
      <polygon fill="#231F20" fill-rule="nonzero" points="3.42 17.219 3.408 17.253 3.37 17.253 3.37 17.149 3.321 17.184 3.884 15.662 3.983 15.697 3.42 17.219 3.37 17.254 3.42 17.219 3.42 17.219"/>
      <polygon fill="#231F20" fill-rule="nonzero" points="1.843 17.243 1.706 17.149 1.873 17.149 1.843 17.243 1.873 17.149 3.37 17.149 3.37 17.254 1.873 17.254 1.903 17.159 1.843 17.244 1.843 17.244"/>
      <polygon fill="#231F20" fill-rule="nonzero" points="3.091 17.963 3.124 17.983 3.111 18.021 3.012 17.991 3.032 18.048 1.843 17.243 1.903 17.159 3.091 17.963 3.111 18.021 3.091 17.963 3.091 17.963"/>
      <polygon fill="#231F20" fill-rule="nonzero" points="2.636 19.505 2.516 19.58 2.558 19.446 2.635 19.505 2.558 19.446 3.012 17.991 3.111 18.021 2.658 19.476 2.581 19.416 2.636 19.505 2.636 19.505"/>
      <polygon fill="#231F20" fill-rule="nonzero" points="3.986 18.609 3.986 18.636 3.961 18.654 3.986 18.609 3.961 18.654 2.635 19.506 2.581 19.416 3.906 18.564 3.881 18.609 3.986 18.609"/>
      <polygon fill="#231F20" fill-rule="nonzero" points="3.881 18.604 3.881 18.509 3.961 18.559 3.906 18.649 3.986 18.604 3.986 18.609 3.881 18.609 3.881 18.604 3.961 18.559 3.881 18.604 3.881 18.604"/>
      <polygon fill="#ED192D" points="3.933 15.158 3.933 15.166 2.608 16.018 3.062 14.563 1.873 13.759 3.37 13.754 3.933 12.234 3.933 12.232 4.497 13.752 5.991 13.752 4.805 14.556 5.261 16.016 3.933 15.159 3.933 15.159"/>
      <polygon fill="#231F20" fill-rule="nonzero" points="5.311 16 5.353 16.135 5.234 16.06 5.311 16 5.234 16.06 3.906 15.203 3.961 15.114 5.289 15.971 5.211 16.03 5.311 16 5.311 16"/>
      <polygon fill="#231F20" fill-rule="nonzero" points="4.756 14.57 4.743 14.533 4.775 14.513 4.835 14.598 4.855 14.541 5.311 16 5.211 16.03 4.756 14.57 4.776 14.513 4.756 14.57 4.756 14.57"/>
      <polygon fill="#231F20" fill-rule="nonzero" points="5.991 13.699 6.158 13.699 6.021 13.793 5.991 13.699 6.021 13.793 4.835 14.598 4.775 14.513 5.961 13.708 5.991 13.803 5.991 13.699"/>
      <polygon fill="#231F20" fill-rule="nonzero" points="4.497 13.803 4.459 13.803 4.447 13.768 4.546 13.734 4.497 13.699 5.991 13.699 5.991 13.803 4.497 13.803 4.447 13.768 4.497 13.803 4.497 13.803"/>
      <polygon fill="#231F20" fill-rule="nonzero" points="3.881 12.231 3.881 11.942 3.983 12.214 3.881 12.231 3.983 12.214 4.546 13.734 4.447 13.768 3.884 12.249 3.986 12.231 3.881 12.231"/>
      <polygon fill="#231F20" fill-rule="nonzero" points="3.986 12.234 3.986 12.244 3.983 12.252 3.883 12.217 3.88 12.234 3.88 12.232 3.985 12.232 3.985 12.234 3.982 12.252 3.985 12.234 3.985 12.234"/>
      <polygon fill="#231F20" fill-rule="nonzero" points="3.42 13.771 3.408 13.806 3.37 13.806 3.37 13.701 3.321 13.736 3.884 12.216 3.983 12.251 3.42 13.771 3.37 13.806 3.42 13.771 3.42 13.771"/>
      <polygon fill="#231F20" fill-rule="nonzero" points="1.843 13.801 1.706 13.706 1.873 13.706 1.843 13.801 1.873 13.706 3.37 13.701 3.37 13.806 1.873 13.811 1.903 13.716 1.843 13.801 1.843 13.801"/>
      <polygon fill="#231F20" fill-rule="nonzero" points="3.091 14.521 3.124 14.541 3.111 14.578 3.012 14.548 3.032 14.605 1.843 13.801 1.903 13.716 3.091 14.521 3.111 14.578 3.091 14.521 3.091 14.521"/>
      <polygon fill="#231F20" fill-rule="nonzero" points="2.636 16.063 2.516 16.137 2.558 16.003 2.635 16.063 2.558 16.003 3.012 14.548 3.111 14.578 2.658 16.033 2.581 15.973 2.636 16.063 2.636 16.063"/>
      <polygon fill="#231F20" fill-rule="nonzero" points="3.986 15.166 3.986 15.193 3.961 15.211 3.986 15.166 3.961 15.211 2.635 16.063 2.581 15.973 3.906 15.121 3.881 15.166 3.986 15.166"/>
      <polygon fill="#231F20" fill-rule="nonzero" points="3.881 15.158 3.881 15.064 3.961 15.114 3.906 15.203 3.986 15.158 3.986 15.166 3.881 15.166 3.881 15.158 3.961 15.114 3.881 15.158 3.881 15.158"/>
      <path stroke="#656263" stroke-width=".75" d="M0.513505,10.527095 L16.206005,10.535095 L16.206005,22.191595 C16.206005,25.916465 13.119005,29.600845 8.353005,29.600845 C3.935125,29.600845 0.470135,26.249475 0.499875,22.191595 L0.513475,10.527095 L0.513505,10.527095 Z"/>
      <text fill="#5A5758" font-family="Helvetica" font-size="8">
        <tspan x="3.262" y="8.25">VS</tspan>
      </text>
    </g>
  </g>
</svg>
