<svg xmlns="http://www.w3.org/2000/svg" width="63" height="50" viewBox="0 0 63 50">
  <g fill="none" fill-rule="evenodd" transform="translate(.693 .125)">
    <polygon fill="#FFFA99" fill-rule="nonzero" points="26.057 46.797 34.419 45.911 34.475 48.664 34.488 49.176 37.338 48.277 39.344 47.876 42.194 46.479 43.384 45.883 44.103 45.828 49.443 45.482 51.836 42.438 56.347 38.661 59.334 32.436 59.528 29.614 62.129 28.023 60.275 24.426 54.921 25.616 53.821 22.508 49.491 23.228 47.858 22.508 46.351 21.789 44.511 14.055 42.034 12.949 36.528 8.425 36.106 8.876 29.799 7.423 20.737 10.536 18.869 10.937 16.988 11.615 10.126 7.285 5.153 7.374 4.074 4.441 3.507 1.356 2.566 0 1.48 1.046 0 8.434 .74 17.694 .864 19.285 3.825 27.06 3.565 32.049 4.524 34.802 4.192 36.836 5.201 37.361 9.684 35.438 11.413 38.385 14.774 38.371 17.738 37.684 19.446 38.391 21.154 45.048 24.466 46.991 26.057 46.797"/>
    <g transform="translate(28.265 14.414)">
      <polygon fill="#FFF" points="16.181 10.494 16.183 22.142 16.173 22.523 16.143 22.9 16.093 23.268 16.023 23.635 15.936 23.991 15.829 24.342 15.707 24.686 15.567 25.022 15.408 25.351 15.236 25.67 15.047 25.979 14.843 26.28 14.623 26.569 14.392 26.848 14.145 27.117 13.886 27.374 13.614 27.62 13.328 27.852 13.031 28.074 12.725 28.278 12.406 28.472 12.08 28.649 11.741 28.814 11.395 28.961 11.039 29.095 10.672 29.21 10.301 29.309 9.923 29.394 9.536 29.459 9.145 29.506 8.747 29.534 8.343 29.544 7.94 29.534 7.541 29.506 7.147 29.459 6.761 29.394 6.382 29.309 6.011 29.21 5.645 29.095 5.289 28.961 4.943 28.814 4.604 28.649 4.275 28.472 3.958 28.278 3.65 28.074 3.353 27.852 3.069 27.62 2.798 27.374 2.539 27.117 2.292 26.848 2.058 26.569 1.841 26.28 1.637 25.979 1.447 25.67 1.273 25.351 1.116 25.022 .977 24.686 .852 24.342 .747 23.991 .66 23.635 .59 23.268 .541 22.9 .511 22.523 .501 22.142 .499 10.506 16.18 10.494 16.18 10.494"/>
      <polygon fill="#231F20" fill-rule="nonzero" points=".447 10.506 .447 10.454 .499 10.454 .447 10.506 .499 10.454 16.181 10.441 16.181 10.546 .499 10.559 .551 10.506 .447 10.506"/>
      <polygon fill="#231F20" fill-rule="nonzero" points=".449 22.142 .449 22.142 .446 10.506 .551 10.506 .554 22.142 .554 22.142 .449 22.142"/>
      <polygon fill="#231F20" fill-rule="nonzero" points="8.344 29.596 8.344 29.596 7.938 29.586 7.536 29.559 7.141 29.511 6.752 29.446 6.371 29.359 5.997 29.26 5.628 29.145 5.27 29.008 4.921 28.861 4.58 28.697 4.251 28.517 3.932 28.323 3.62 28.116 3.322 27.892 3.035 27.66 2.763 27.411 2.502 27.154 2.253 26.883 2.018 26.602 1.799 26.31 1.592 26.006 1.403 25.695 1.227 25.376 1.069 25.045 .927 24.706 .803 24.359 .698 24.003 .609 23.645 .539 23.276 .489 22.905 .459 22.526 .449 22.142 .554 22.142 .564 22.521 .594 22.895 .644 23.261 .713 23.625 .798 23.978 .903 24.325 1.027 24.666 1.164 25 1.321 25.326 1.493 25.645 1.682 25.951 1.884 26.25 2.099 26.537 2.333 26.813 2.577 27.08 2.833 27.336 3.105 27.581 3.386 27.812 3.68 28.031 3.987 28.233 4.301 28.428 4.629 28.602 4.966 28.766 5.31 28.913 5.663 29.045 6.027 29.16 6.396 29.26 6.772 29.342 7.155 29.407 7.547 29.454 7.943 29.481 8.344 29.491 8.344 29.491 8.344 29.596"/>
      <polygon fill="#231F20" fill-rule="nonzero" points="16.236 22.142 16.236 22.142 16.226 22.526 16.196 22.905 16.146 23.276 16.076 23.645 15.986 24.003 15.879 24.359 15.757 24.703 15.615 25.045 15.456 25.376 15.281 25.695 15.092 26.006 14.885 26.31 14.664 26.602 14.432 26.883 14.183 27.154 13.921 27.411 13.65 27.66 13.361 27.894 13.062 28.116 12.753 28.323 12.432 28.517 12.105 28.697 11.764 28.861 11.415 29.008 11.057 29.145 10.688 29.26 10.314 29.359 9.933 29.446 9.544 29.511 9.151 29.559 8.75 29.586 8.344 29.596 8.344 29.491 8.745 29.481 9.141 29.454 9.529 29.406 9.913 29.342 10.289 29.259 10.658 29.16 11.022 29.045 11.375 28.913 11.719 28.766 12.055 28.602 12.382 28.427 12.698 28.233 13.002 28.031 13.296 27.81 13.58 27.58 13.852 27.336 14.108 27.08 14.352 26.813 14.584 26.537 14.801 26.25 15.003 25.951 15.192 25.645 15.361 25.326 15.521 25 15.658 24.668 15.78 24.324 15.887 23.978 15.971 23.624 16.041 23.261 16.091 22.895 16.121 22.521 16.131 22.142 16.131 22.142 16.236 22.142"/>
      <polygon fill="#231F20" fill-rule="nonzero" points="16.181 10.441 16.233 10.441 16.233 10.494 16.181 10.441 16.233 10.494 16.236 22.142 16.131 22.142 16.128 10.494 16.181 10.546 16.181 10.442"/>
      <polygon fill="#1377C7" points="16.151 22.78 .529 22.785 .526 22.745 .524 22.705 .519 22.666 .517 22.626 .515 22.586 .513 22.546 .513 22.504 .511 22.464 .508 22.424 .508 22.382 .506 22.342 .506 22.302 .503 22.262 .503 22.222 .503 22.182 .503 22.142 .501 16.677 16.183 16.677 16.183 22.142 16.183 22.182 16.183 22.222 16.18 22.262 16.18 22.302 16.18 22.342 16.178 22.382 16.176 22.424 16.176 22.464 16.173 22.504 16.171 22.544 16.169 22.583 16.167 22.623 16.165 22.663 16.163 22.703 16.158 22.743 16.156 22.78 16.156 22.78"/>
      <polygon fill="#231F20" fill-rule="nonzero" points="16.233 22.142 16.233 22.142 16.233 22.182 16.233 22.225 16.231 22.264 16.231 22.302 16.231 22.344 16.228 22.384 16.226 22.426 16.226 22.466 16.224 22.506 16.222 22.546 16.22 22.586 16.217 22.626 16.215 22.666 16.212 22.708 16.207 22.748 16.204 22.785 16.1 22.775 16.102 22.738 16.107 22.698 16.109 22.661 16.112 22.621 16.115 22.581 16.117 22.541 16.119 22.501 16.121 22.461 16.121 22.421 16.124 22.379 16.126 22.339 16.126 22.302 16.126 22.259 16.129 22.219 16.129 22.182 16.129 22.142 16.129 22.142 16.233 22.142"/>
      <polygon fill="#231F20" fill-rule="nonzero" points="16.181 16.624 16.233 16.624 16.233 16.677 16.181 16.624 16.233 16.677 16.233 22.142 16.129 22.142 16.129 16.677 16.181 16.729 16.181 16.625"/>
      <polygon fill="#231F20" fill-rule="nonzero" points=".447 16.677 .447 16.624 .499 16.624 .447 16.677 .499 16.624 16.181 16.624 16.181 16.729 .499 16.729 .551 16.677 .447 16.677"/>
      <polygon fill="#231F20" fill-rule="nonzero" points=".449 22.142 .449 22.142 .446 16.677 .551 16.677 .554 22.142 .554 22.142 .449 22.142"/>
      <polygon fill="#231F20" fill-rule="nonzero" points=".529 22.837 .482 22.837 .477 22.79 .529 22.837 .477 22.79 .474 22.748 .472 22.71 .467 22.671 .464 22.628 .461 22.588 .459 22.548 .459 22.506 .457 22.466 .455 22.426 .455 22.384 .452 22.344 .452 22.304 .45 22.264 .45 22.222 .45 22.182 .45 22.142 .554 22.142 .554 22.182 .554 22.222 .554 22.259 .557 22.299 .557 22.339 .559 22.379 .559 22.421 .562 22.461 .564 22.501 .564 22.544 .566 22.583 .569 22.623 .571 22.661 .576 22.7 .579 22.743 .581 22.78 .529 22.733 .529 22.837"/>
      <polygon fill="#231F20" fill-rule="nonzero" points="16.203 22.785 16.198 22.832 16.151 22.832 16.203 22.785 16.151 22.832 .529 22.837 .529 22.733 16.151 22.728 16.099 22.775 16.203 22.785 16.203 22.785"/>
      <path stroke="#656263" stroke-width=".75" d="M0.514565,10.520705 L16.207065,10.528705 L16.207065,22.185075 C16.207065,25.910075 13.119945,29.594325 8.353945,29.594325 C3.936185,29.594325 0.471315,26.242955 0.500815,22.185075 L0.514615,10.520445 L0.514565,10.520705 Z"/>
      <text fill="#5A5758" font-family="Helvetica" font-size="8">
        <tspan x="2.269" y="8.399">ZG</tspan>
      </text>
    </g>
  </g>
</svg>
