<svg xmlns="http://www.w3.org/2000/svg" width="128" height="160" viewBox="0 0 128 160">
  <g fill="none" fill-rule="evenodd" transform="translate(.545 .681)">
    <polygon fill="#CCECC1" fill-rule="nonzero" points="26.636 34.104 25.058 32.222 21.253 33.342 19.663 32.014 18.832 27.878 23.052 25.347 29.18 23.216 30.785 18.872 35.309 19.135 41.479 23.147 42.544 24.71 40.289 28.459 39.054 29.043 37.255 30.482 36.827 30.717 35.194 32.031 34.737 35.642 37.131 36.071 37.4 37.31 38.811 42.332 40.485 40.921 41.398 39.317 42.256 35.678 44.206 30.463 46.364 29.508 46.863 26.465 48.384 24.902 46.682 15.314 48.274 12.188 50.293 13.848 49.685 14.885 48.772 16.504 50.68 16.905 53.157 13.779 49.201 8.19 48.592 6.737 50.155 4.648 52.175 4.787 52.382 .72 53.904 .567 56.283 0 59.963 1.992 61.277 2.67 61.147 4.818 62.904 6.492 62.904 7.959 65.325 13.05 69.365 15.305 70.955 14.932 71.163 15.374 74.124 15.236 76.489 14.89 77.236 16.163 80.764 13.078 87.418 8.166 88.331 8.083 88.788 8.236 88.746 11.916 90.932 12.607 93.132 13.452 92.966 16.356 90.738 22.347 88.262 26.968 85.55 24.699 77.775 21.323 75.839 25.322 77.687 29.97 80.41 29.771 87.714 32.012 90.282 36.168 95.996 35.974 98.472 38.174 96.133 39.073 92.883 39.958 93.45 41.383 94.294 43.943 95.788 46.142 96.687 47.415 102.082 47.983 103.342 48.245 106.081 48.563 108.308 49.725 107.99 55.702 107.74 56.145 108.335 61.374 105.887 62.426 105.61 65.829 107.796 67.89 109.83 73.797 115.446 75.721 115.363 77.118 111.642 77.256 110.687 85.377 110.701 86.387 115.073 87.812 118.268 93.733 124.411 102.449 126.97 110.376 125.033 114.084 121.395 114.9 117.245 120.268 119.79 121.997 117.328 128.098 107.118 130.602 104.116 132.885 95.608 131.488 91.72 132.304 89.064 135.002 86.519 138.825 75.741 142.882 72.74 146.042 66.086 151.894 66.252 154.716 68.368 156.888 68.424 157.87 63.07 159.06 61.969 155.952 57.639 156.672 56.007 155.952 54.499 155.233 52.659 147.499 50.183 146.393 44.677 141.869 44.255 142.32 37.947 140.867 28.886 143.98 27.018 144.381 25.137 145.059 18.275 140.729 13.301 140.818 12.223 137.885 11.655 134.8 10.784 133.374 8.93 127.495 6.897 122.086 6.308 121.029 11.579 119.963 14.346 117.64 15.867 113.42 16.878 113.226 18.898 109.989 18.552 108.038 15.135 110.113 11.04 109.504 11.773 106.959 9.78 102.574 9.394 98.935 10.015 98.16 8.411 97.026 8.232 95.753 7.553 90.081 4.15 88.919 3.611 80.037 4.842 78.003 4.095 73.936 5.686 73.341 1.079 68.444 2.974 67.129 2.352 63.38 .429 63.602 0 55.577 3.182 54.844 5.064 49.919 6.17 50.279 7.124 50.445 8.273 48.563 9.891 44.745 11.219 44.842 11.386 40.124 12.748 38.224 20.606 36.771 24.548 35.319 26.636 34.104"/>
    <g transform="translate(46.058 52.584)">
      <polygon fill="#FFF" points="16.2 10.258 16.202 21.92 16.192 22.302 16.162 22.679 16.112 23.05 16.042 23.415 15.955 23.774 15.847 24.126 15.725 24.47 15.585 24.807 15.426 25.133 15.254 25.453 15.064 25.765 14.859 26.066 14.64 26.356 14.408 26.635 14.161 26.905 13.901 27.161 13.63 27.408 13.343 27.64 13.046 27.86 12.739 28.067 12.42 28.261 12.093 28.439 11.754 28.603 11.407 28.751 11.05 28.885 10.684 29 10.312 29.1 9.933 29.184 9.546 29.249 9.154 29.297 8.755 29.324 8.351 29.334 7.947 29.324 7.548 29.297 7.154 29.249 6.767 29.184 6.388 29.1 6.016 29 5.649 28.885 5.293 28.751 4.946 28.603 4.607 28.439 4.278 28.261 3.961 28.067 3.652 27.86 3.355 27.64 3.07 27.408 2.798 27.161 2.539 26.905 2.292 26.635 2.058 26.356 1.84 26.066 1.636 25.765 1.446 25.453 1.272 25.133 1.115 24.807 .975 24.47 .85 24.126 .745 23.774 .658 23.415 .588 23.05 .538 22.679 .508 22.302 .498 21.92 .5 10.258 .5 10.258 16.199 10.258 16.199 10.258"/>
      <polygon fill="#1377C7" points="15.169 25.59 15.176 25.577 15.196 25.545 15.226 25.498 15.261 25.44 15.301 25.375 15.341 25.308 15.381 25.245 15.414 25.19 15.441 25.148 15.456 25.123 15.458 25.121 15.443 25.146 15.411 25.201 15.353 25.293 15.273 25.425 15.163 25.605 15.034 25.812 14.897 26.014 14.752 26.211 14.602 26.406 14.445 26.593 14.281 26.778 14.113 26.955 13.936 27.127 13.757 27.294 13.569 27.456 13.378 27.613 13.18 27.763 12.978 27.908 12.771 28.047 12.559 28.179 12.342 28.304 12.12 28.424 11.893 28.536 11.664 28.643 11.429 28.741 11.19 28.833 10.948 28.918 10.703 28.995 10.454 29.065 10.199 29.127 9.945 29.182 9.685 29.227 9.424 29.265 9.159 29.295 8.892 29.317 8.623 29.33 8.351 29.335 7.947 29.325 7.548 29.297 7.153 29.25 6.767 29.185 6.388 29.1 6.016 29 5.649 28.886 5.292 28.751 4.946 28.604 4.607 28.439 4.277 28.262 3.96 28.067 3.651 27.86 3.354 27.641 3.07 27.409 2.798 27.162 2.539 26.905 2.292 26.636 2.057 26.356 1.84 26.067 1.636 25.765 1.446 25.453 1.271 25.134 1.114 24.807 .975 24.47 .85 24.126 .745 23.774 .658 23.415 .588 23.051 .538 22.679 .508 22.303 .498 21.921 .5 10.259 15.168 25.59 15.168 25.59"/>
      <polygon fill="#231F20" fill-rule="nonzero" points=".501 10.258 .544 10.218 15.212 25.55 15.127 25.63 .459 10.298 .501 10.258 .501 10.258"/>
      <polygon fill="#231F20" fill-rule="nonzero" points="8.352 29.392 8.352 29.392 7.945 29.382 7.543 29.354 7.147 29.307 6.758 29.242 6.376 29.155 6.002 29.055 5.633 28.94 5.271 28.803 4.924 28.655 4.582 28.488 4.251 28.311 3.931 28.114 3.62 27.907 3.32 27.685 3.033 27.451 2.759 27.204 2.497 26.944 2.25 26.672 2.013 26.39 1.793 26.099 1.589 25.794 1.397 25.48 1.222 25.158 1.063 24.829 .923 24.49 .796 24.143 .691 23.789 .604 23.427 .531 23.06 .481 22.683 .451 22.304 .441 21.92 .556 21.92 .566 22.299 .596 22.674 .646 23.04 .713 23.402 .8 23.759 .905 24.108 1.028 24.45 1.167 24.784 1.322 25.108 1.496 25.425 1.683 25.734 1.888 26.034 2.103 26.321 2.335 26.598 2.582 26.864 2.838 27.119 3.108 27.366 3.39 27.595 3.684 27.812 3.991 28.019 4.305 28.211 4.632 28.389 4.969 28.551 5.316 28.698 5.667 28.83 6.032 28.945 6.401 29.045 6.777 29.127 7.162 29.192 7.553 29.239 7.95 29.267 8.351 29.277 8.351 29.277 8.351 29.392"/>
      <polygon fill="#231F20" fill-rule="nonzero" points="16.259 21.92 16.259 21.92 16.249 22.305 16.219 22.684 16.17 23.06 16.097 23.427 16.01 23.789 15.903 24.143 15.778 24.49 15.638 24.829 15.476 25.158 15.304 25.48 15.112 25.794 14.907 26.099 14.685 26.391 14.451 26.673 14.204 26.944 13.942 27.204 13.668 27.451 13.378 27.685 13.079 27.907 12.769 28.114 12.448 28.311 12.118 28.489 11.777 28.656 11.43 28.803 11.068 28.94 10.699 29.055 10.325 29.155 9.943 29.242 9.554 29.307 9.16 29.354 8.758 29.382 8.352 29.392 8.352 29.277 8.753 29.267 9.15 29.239 9.539 29.192 9.923 29.127 10.3 29.045 10.669 28.945 11.033 28.83 11.385 28.698 11.732 28.551 12.068 28.389 12.393 28.211 12.71 28.019 13.014 27.812 13.308 27.595 13.593 27.366 13.862 27.119 14.119 26.864 14.366 26.598 14.596 26.321 14.813 26.034 15.017 25.734 15.204 25.425 15.376 25.108 15.533 24.784 15.673 24.45 15.793 24.108 15.9 23.759 15.988 23.402 16.055 23.04 16.105 22.674 16.135 22.299 16.145 21.92 16.145 21.92 16.26 21.92"/>
      <polygon fill="#231F20" fill-rule="nonzero" points="16.2 10.201 16.257 10.201 16.257 10.258 16.2 10.201 16.257 10.258 16.259 21.92 16.144 21.92 16.141 10.258 16.199 10.316 16.199 10.201"/>
      <polygon fill="#231F20" fill-rule="nonzero" points=".444 10.258 .444 10.201 .501 10.201 .444 10.258 .501 10.201 16.2 10.201 16.2 10.316 .501 10.316 .559 10.258 .444 10.258"/>
      <polygon fill="#231F20" fill-rule="nonzero" points=".442 21.92 .442 21.92 .444 10.258 .558 10.258 .556 21.92 .556 21.92"/>
      <path stroke="#656263" stroke-width=".75" d="M0.510875,10.261898 L16.203365,10.270018 L16.203365,21.926278 C16.203365,25.651148 13.116115,29.335398 8.350245,29.335398 C3.932495,29.335398 0.467495,25.984148 0.497125,21.926278 L0.510825,10.261898 L0.510875,10.261898 Z"/>
      <text fill="#5A5758" font-family="Helvetica" font-size="8">
        <tspan x="2.774" y="8">ZH</tspan>
      </text>
    </g>
  </g>
</svg>
